<svg width="21" height="20" viewBox="0 0 21 20" fill="none" xmlns="http://www.w3.org/2000/svg">
<path d="M0 10C0 11.9778 0.615814 13.9112 1.76957 15.5557C2.92332 17.2002 4.5632 18.4819 6.48182 19.2388C8.40045 19.9957 10.5116 20.1937 12.5484 19.8078C14.5852 19.422 16.4562 18.4696 17.9246 17.0711C19.3931 15.6725 20.3931 13.8907 20.7982 11.9509C21.2034 10.0111 20.9955 8.00042 20.2007 6.17316C19.406 4.3459 18.0602 2.78412 16.3335 1.6853C14.6068 0.58649 12.5767 0 10.5 0C9.12112 0 7.75574 0.258658 6.48182 0.761204C5.2079 1.26375 4.05039 2.00035 3.07538 2.92893C1.10625 4.80429 0 7.34783 0 10ZM12.453 6.31L15.456 9.31C15.5004 9.35338 15.536 9.40424 15.561 9.46C15.6056 9.50705 15.6411 9.56121 15.666 9.62C15.7215 9.7397 15.7502 9.86913 15.7502 10C15.7502 10.1309 15.7215 10.2603 15.666 10.38C15.616 10.5027 15.5411 10.6149 15.4455 10.71L12.2955 13.71C12.0978 13.8983 11.8296 14.0041 11.55 14.0041C11.2704 14.0041 11.0022 13.8983 10.8045 13.71C10.6068 13.5217 10.4957 13.2663 10.4957 13C10.4957 12.7337 10.6068 12.4783 10.8045 12.29L12.1695 11H6.3C6.02152 11 5.75445 10.8946 5.55754 10.7071C5.36062 10.5196 5.25 10.2652 5.25 10C5.25 9.73478 5.36062 9.48043 5.55754 9.29289C5.75445 9.10535 6.02152 9 6.3 9H12.243L10.9305 7.69C10.7383 7.49772 10.6343 7.24061 10.6412 6.97525C10.6481 6.70989 10.7654 6.458 10.9672 6.275C11.1691 6.092 11.4391 5.99288 11.7177 5.99944C11.9964 6.00601 12.2608 6.11772 12.453 6.31Z" fill="white"/>
</svg>
