<svg width="42" height="42" viewBox="0 0 42 42" fill="none" xmlns="http://www.w3.org/2000/svg">
<path d="M39.375 36.75C39.375 36.75 42 36.75 42 34.125C42 31.5 39.375 23.625 28.875 23.625C18.375 23.625 15.75 31.5 15.75 34.125C15.75 36.75 18.375 36.75 18.375 36.75H39.375ZM18.4327 34.125C18.4134 34.1223 18.3941 34.1188 18.375 34.1145C18.3776 33.4215 18.8134 31.4107 20.37 29.5995C21.819 27.9011 24.3652 26.25 28.875 26.25C33.3821 26.25 35.9284 27.9037 37.38 29.5995C38.9366 31.4107 39.3698 33.4241 39.375 34.1145L39.354 34.1198C39.3418 34.1218 39.3295 34.1236 39.3172 34.125H18.4327ZM28.875 18.375C30.2674 18.375 31.6027 17.8219 32.5873 16.8373C33.5719 15.8527 34.125 14.5174 34.125 13.125C34.125 11.7326 33.5719 10.3973 32.5873 9.41269C31.6027 8.42812 30.2674 7.875 28.875 7.875C27.4826 7.875 26.1473 8.42812 25.1627 9.41269C24.1781 10.3973 23.625 11.7326 23.625 13.125C23.625 14.5174 24.1781 15.8527 25.1627 16.8373C26.1473 17.8219 27.4826 18.375 28.875 18.375ZM36.75 13.125C36.75 14.1592 36.5463 15.1832 36.1506 16.1386C35.7548 17.0941 35.1747 17.9622 34.4435 18.6935C33.7122 19.4247 32.8441 20.0048 31.8886 20.4006C30.9332 20.7963 29.9092 21 28.875 21C27.8408 21 26.8168 20.7963 25.8614 20.4006C24.9059 20.0048 24.0378 19.4247 23.3065 18.6935C22.5753 17.9622 21.9952 17.0941 21.5994 16.1386C21.2037 15.1832 21 14.1592 21 13.125C21 11.0364 21.8297 9.03338 23.3065 7.55653C24.7834 6.07969 26.7864 5.25 28.875 5.25C30.9636 5.25 32.9666 6.07969 34.4435 7.55653C35.9203 9.03338 36.75 11.0364 36.75 13.125ZM18.207 24.36C17.157 24.0294 16.0745 23.812 14.9782 23.7116C14.3622 23.653 13.7438 23.6241 13.125 23.625C2.625 23.625 0 31.5 0 34.125C0 35.8759 0.874125 36.75 2.625 36.75H13.692C13.3029 35.9305 13.1088 35.032 13.125 34.125C13.125 31.4737 14.1146 28.7647 15.9862 26.502C16.6241 25.7302 17.367 25.0084 18.207 24.36ZM12.915 26.25C11.3614 28.5843 10.5222 31.321 10.5 34.125H2.625C2.625 33.4425 3.0555 31.4212 4.62 29.5995C6.05062 27.93 8.5365 26.3025 12.915 26.2526V26.25ZM3.9375 14.4375C3.9375 12.3489 4.76719 10.3459 6.24403 8.86903C7.72088 7.39219 9.72392 6.5625 11.8125 6.5625C13.9011 6.5625 15.9041 7.39219 17.381 8.86903C18.8578 10.3459 19.6875 12.3489 19.6875 14.4375C19.6875 16.5261 18.8578 18.5291 17.381 20.006C15.9041 21.4828 13.9011 22.3125 11.8125 22.3125C9.72392 22.3125 7.72088 21.4828 6.24403 20.006C4.76719 18.5291 3.9375 16.5261 3.9375 14.4375ZM11.8125 9.1875C10.4201 9.1875 9.08475 9.74062 8.10019 10.7252C7.11562 11.7098 6.5625 13.0451 6.5625 14.4375C6.5625 15.8299 7.11562 17.1652 8.10019 18.1498C9.08475 19.1344 10.4201 19.6875 11.8125 19.6875C13.2049 19.6875 14.5402 19.1344 15.5248 18.1498C16.5094 17.1652 17.0625 15.8299 17.0625 14.4375C17.0625 13.0451 16.5094 11.7098 15.5248 10.7252C14.5402 9.74062 13.2049 9.1875 11.8125 9.1875Z" fill="white"/>
</svg>
