<svg width="36" height="36" viewBox="0 0 36 36" fill="none" xmlns="http://www.w3.org/2000/svg">
<path d="M7.5 16.25C7.5 15.7859 7.68437 15.3408 8.01256 15.0126C8.34075 14.6844 8.78587 14.5 9.25 14.5C9.71413 14.5 10.1592 14.6844 10.4874 15.0126C10.8156 15.3408 11 15.7859 11 16.25C11 16.7141 10.8156 17.1592 10.4874 17.4874C10.1592 17.8156 9.71413 18 9.25 18C8.78587 18 8.34075 17.8156 8.01256 17.4874C7.68437 17.1592 7.5 16.7141 7.5 16.25ZM9.25 21.5C8.78587 21.5 8.34075 21.6844 8.01256 22.0126C7.68437 22.3408 7.5 22.7859 7.5 23.25C7.5 23.7141 7.68437 24.1592 8.01256 24.4874C8.34075 24.8156 8.78587 25 9.25 25C9.71413 25 10.1592 24.8156 10.4874 24.4874C10.8156 24.1592 11 23.7141 11 23.25C11 22.7859 10.8156 22.3408 10.4874 22.0126C10.1592 21.6844 9.71413 21.5 9.25 21.5ZM14.5 16.25C14.5 15.7859 14.6844 15.3408 15.0126 15.0126C15.3408 14.6844 15.7859 14.5 16.25 14.5C16.7141 14.5 17.1592 14.6844 17.4874 15.0126C17.8156 15.3408 18 15.7859 18 16.25C18 16.7141 17.8156 17.1592 17.4874 17.4874C17.1592 17.8156 16.7141 18 16.25 18C15.7859 18 15.3408 17.8156 15.0126 17.4874C14.6844 17.1592 14.5 16.7141 14.5 16.25ZM16.25 21.5C15.7859 21.5 15.3408 21.6844 15.0126 22.0126C14.6844 22.3408 14.5 22.7859 14.5 23.25C14.5 23.7141 14.6844 24.1592 15.0126 24.4874C15.3408 24.8156 15.7859 25 16.25 25C16.7141 25 17.1592 24.8156 17.4874 24.4874C17.8156 24.1592 18 23.7141 18 23.25C18 22.7859 17.8156 22.3408 17.4874 22.0126C17.1592 21.6844 16.7141 21.5 16.25 21.5ZM21.5 16.25C21.5 15.7859 21.6844 15.3408 22.0126 15.0126C22.3408 14.6844 22.7859 14.5 23.25 14.5C23.7141 14.5 24.1592 14.6844 24.4874 15.0126C24.8156 15.3408 25 15.7859 25 16.25C25 16.7141 24.8156 17.1592 24.4874 17.4874C24.1592 17.8156 23.7141 18 23.25 18C22.7859 18 22.3408 17.8156 22.0126 17.4874C21.6844 17.1592 21.5 16.7141 21.5 16.25ZM0.5 9.25C0.5 6.92936 1.42187 4.70376 3.06282 3.06282C4.70376 1.42187 6.92936 0.5 9.25 0.5H26.75C29.0706 0.5 31.2962 1.42187 32.9372 3.06282C34.5781 4.70376 35.5 6.92936 35.5 9.25V26.75C35.5 29.0706 34.5781 31.2962 32.9372 32.9372C31.2962 34.5781 29.0706 35.5 26.75 35.5H9.25C6.92936 35.5 4.70376 34.5781 3.06282 32.9372C1.42187 31.2962 0.5 29.0706 0.5 26.75V9.25ZM9.25 4C8.16386 3.99943 7.10428 4.33575 6.21728 4.9626C5.33029 5.58945 4.65955 6.47598 4.2975 7.5H31.7025C31.3405 6.47598 30.6697 5.58945 29.7827 4.9626C28.8957 4.33575 27.8361 3.99943 26.75 4H9.25ZM32 11H4V26.75C4 28.1424 4.55312 29.4777 5.53769 30.4623C6.52226 31.4469 7.85761 32 9.25 32H26.75C28.1424 32 29.4777 31.4469 30.4623 30.4623C31.4469 29.4777 32 28.1424 32 26.75V11Z" fill="white"/>
</svg>
