<svg width="20" height="18" viewBox="0 0 20 18" fill="none" xmlns="http://www.w3.org/2000/svg">
<path d="M6.66732 18.0001C7.4037 18.0001 8.00065 17.4245 8.00065 16.7144C8.00065 16.0043 7.4037 15.4287 6.66732 15.4287C5.93094 15.4287 5.33398 16.0043 5.33398 16.7144C5.33398 17.4245 5.93094 18.0001 6.66732 18.0001Z" fill="#F2F2F2"/>
<path d="M15.9993 18.0001C16.7357 18.0001 17.3327 17.4245 17.3327 16.7144C17.3327 16.0043 16.7357 15.4287 15.9993 15.4287C15.263 15.4287 14.666 16.0043 14.666 16.7144C14.666 17.4245 15.263 18.0001 15.9993 18.0001Z" fill="#F2F2F2"/>
<path d="M18.6667 3.21439H3.88L3.33333 0.514413C3.30217 0.367022 3.21838 0.234838 3.09657 0.140869C2.97476 0.0469003 2.82263 -0.00290215 2.66667 0.000130781H0V1.28584H2.12L4.66667 13.6286C4.69783 13.776 4.78162 13.9082 4.90343 14.0021C5.02524 14.0961 5.17737 14.1459 5.33333 14.1429H17.3333V12.8572H5.88L5.33333 10.2858H17.3333C17.4874 10.2894 17.6381 10.2414 17.7596 10.15C17.8812 10.0586 17.9661 9.92936 18 9.78434L19.3333 3.99867C19.3557 3.90329 19.3552 3.80425 19.3318 3.70909C19.3085 3.61393 19.2629 3.52516 19.1986 3.44953C19.1344 3.3739 19.053 3.31341 18.9608 3.27267C18.8687 3.23192 18.768 3.21199 18.6667 3.21439ZM16.8 9.00007H5.08L4.14667 4.5001H17.8333L16.8 9.00007Z" fill="#F2F2F2"/>
</svg>
