<svg width="42" height="42" viewBox="0 0 42 42" fill="none" xmlns="http://www.w3.org/2000/svg">
<mask id="path-1-inside-1_303_13217" fill="white">
<path d="M22.2725 7.83398H19.6475V22.4447L29.1313 26.9521L30.2582 24.5812L22.2725 20.7858V7.83398Z"/>
</mask>
<path d="M22.2725 7.83398H19.6475V22.4447L29.1313 26.9521L30.2582 24.5812L22.2725 20.7858V7.83398Z" fill="white"/>
<path d="M22.2725 7.83398H26.2725V3.83398H22.2725V7.83398ZM19.6475 7.83398V3.83398H15.6475V7.83398H19.6475ZM19.6475 22.4447H15.6475V24.9723L17.9304 26.0574L19.6475 22.4447ZM29.1313 26.9521L27.4143 30.5648L31.027 32.2818L32.744 28.6692L29.1313 26.9521ZM30.2582 24.5812L33.8709 26.2983L35.588 22.6856L31.9752 20.9685L30.2582 24.5812ZM22.2725 20.7858H18.2725V23.3135L20.5554 24.3985L22.2725 20.7858ZM22.2725 3.83398H19.6475V11.834H22.2725V3.83398ZM15.6475 7.83398V22.4447H23.6475V7.83398H15.6475ZM17.9304 26.0574L27.4143 30.5648L30.8484 23.3394L21.3645 18.8319L17.9304 26.0574ZM32.744 28.6692L33.8709 26.2983L26.6455 22.8641L25.5186 25.235L32.744 28.6692ZM31.9752 20.9685L23.9895 17.1731L20.5554 24.3985L28.5412 28.194L31.9752 20.9685ZM26.2725 20.7858V7.83398H18.2725V20.7858H26.2725Z" fill="white" mask="url(#path-1-inside-1_303_13217)"/>
<mask id="path-3-inside-2_303_13217" fill="white">
<path d="M21 1.3125C10.1269 1.3125 1.3125 10.1269 1.3125 21C1.3125 31.8731 10.1269 40.6875 21 40.6875C31.8731 40.6875 40.6875 31.8731 40.6875 21C40.6875 10.1269 31.8731 1.3125 21 1.3125ZM21 38.0625C11.5767 38.0625 3.9375 30.4233 3.9375 21C3.9375 11.5767 11.5767 3.9375 21 3.9375C30.4233 3.9375 38.0625 11.5767 38.0625 21C38.0625 30.4233 30.4233 38.0625 21 38.0625Z"/>
</mask>
<path d="M21 1.3125C10.1269 1.3125 1.3125 10.1269 1.3125 21C1.3125 31.8731 10.1269 40.6875 21 40.6875C31.8731 40.6875 40.6875 31.8731 40.6875 21C40.6875 10.1269 31.8731 1.3125 21 1.3125ZM21 38.0625C11.5767 38.0625 3.9375 30.4233 3.9375 21C3.9375 11.5767 11.5767 3.9375 21 3.9375C30.4233 3.9375 38.0625 11.5767 38.0625 21C38.0625 30.4233 30.4233 38.0625 21 38.0625Z" fill="white"/>
<path d="M21 -4.6875C6.81321 -4.6875 -4.6875 6.81321 -4.6875 21H7.3125C7.3125 13.4406 13.4406 7.3125 21 7.3125V-4.6875ZM-4.6875 21C-4.6875 35.1868 6.81321 46.6875 21 46.6875V34.6875C13.4406 34.6875 7.3125 28.5594 7.3125 21H-4.6875ZM21 46.6875C35.1868 46.6875 46.6875 35.1868 46.6875 21H34.6875C34.6875 28.5594 28.5594 34.6875 21 34.6875V46.6875ZM46.6875 21C46.6875 6.81321 35.1868 -4.6875 21 -4.6875V7.3125C28.5594 7.3125 34.6875 13.4406 34.6875 21H46.6875ZM21 32.0625C14.8904 32.0625 9.9375 27.1096 9.9375 21H-2.0625C-2.0625 33.737 8.26295 44.0625 21 44.0625V32.0625ZM9.9375 21C9.9375 14.8904 14.8904 9.9375 21 9.9375V-2.0625C8.26295 -2.0625 -2.0625 8.26295 -2.0625 21H9.9375ZM21 9.9375C27.1096 9.9375 32.0625 14.8904 32.0625 21H44.0625C44.0625 8.26295 33.737 -2.0625 21 -2.0625V9.9375ZM32.0625 21C32.0625 27.1096 27.1096 32.0625 21 32.0625V44.0625C33.737 44.0625 44.0625 33.737 44.0625 21H32.0625Z" fill="white" mask="url(#path-3-inside-2_303_13217)"/>
</svg>
