<svg width="1400" height="570" viewBox="0 0 1400 570" fill="none" xmlns="http://www.w3.org/2000/svg">
<g opacity="0.02">
<mask id="mask0_14295_7464" style="mask-type:alpha" maskUnits="userSpaceOnUse" x="0" y="0" width="1400" height="570">
<rect width="1400" height="570" fill="url(#paint0_radial_14295_7464)"/>
</mask>
<g mask="url(#mask0_14295_7464)">
<rect width="19.044" height="2784.88" transform="matrix(0.464529 0.885558 -0.464529 0.885558 711.658 -1925.42)" fill="#F8F8F8"/>
<rect width="19.044" height="2784.88" transform="matrix(0.464529 0.885558 -0.464529 0.885558 738.197 -1874.82)" fill="#F8F8F8"/>
<rect width="19.044" height="2784.88" transform="matrix(0.464529 0.885558 -0.464529 0.885558 764.736 -1824.23)" fill="#F8F8F8"/>
<rect width="19.044" height="2784.88" transform="matrix(0.464529 0.885558 -0.464529 0.885558 791.277 -1773.64)" fill="#F8F8F8"/>
<rect width="19.044" height="2784.88" transform="matrix(0.464529 0.885558 -0.464529 0.885558 817.816 -1723.04)" fill="#F8F8F8"/>
<rect width="19.044" height="2784.88" transform="matrix(0.464529 0.885558 -0.464529 0.885558 844.355 -1672.45)" fill="#F8F8F8"/>
<rect width="19.044" height="2784.88" transform="matrix(0.464529 0.885558 -0.464529 0.885558 870.895 -1621.86)" fill="#F8F8F8"/>
<rect width="19.0439" height="2784.88" transform="matrix(0.464529 0.885558 -0.464529 0.885558 897.436 -1571.26)" fill="#F8F8F8"/>
<rect width="19.044" height="2784.88" transform="matrix(0.464529 0.885558 -0.464529 0.885558 923.975 -1520.67)" fill="#F8F8F8"/>
<rect width="19.0441" height="2784.88" transform="matrix(0.464529 0.885558 -0.464529 0.885558 950.514 -1470.08)" fill="#F8F8F8"/>
<rect width="19.044" height="2784.88" transform="matrix(0.464529 0.885558 -0.464529 0.885558 977.053 -1419.48)" fill="#F8F8F8"/>
<rect width="19.0439" height="2784.88" transform="matrix(0.464529 0.885558 -0.464529 0.885558 1003.59 -1368.89)" fill="#F8F8F8"/>
<rect width="19.0439" height="2784.88" transform="matrix(0.464529 0.885558 -0.464529 0.885558 1030.13 -1318.29)" fill="#F8F8F8"/>
<rect width="19.0441" height="2784.88" transform="matrix(0.464529 0.885558 -0.464529 0.885558 1056.67 -1267.7)" fill="#F8F8F8"/>
<rect width="19.0439" height="2784.88" transform="matrix(0.464529 0.885558 -0.464529 0.885558 1083.21 -1217.11)" fill="#F8F8F8"/>
<rect width="19.0439" height="2784.88" transform="matrix(0.464529 0.885558 -0.464529 0.885558 1109.75 -1166.51)" fill="#F8F8F8"/>
<rect width="19.0441" height="2784.88" transform="matrix(0.464529 0.885558 -0.464529 0.885558 1136.29 -1115.92)" fill="#F8F8F8"/>
<rect width="19.044" height="2784.88" transform="matrix(0.464529 0.885558 -0.464529 0.885558 1162.83 -1065.33)" fill="#F8F8F8"/>
<rect width="19.0439" height="2784.88" transform="matrix(0.464529 0.885558 -0.464529 0.885558 1189.37 -1014.73)" fill="#F8F8F8"/>
<rect width="19.0439" height="2784.88" transform="matrix(0.464529 0.885558 -0.464529 0.885558 1215.91 -964.139)" fill="#F8F8F8"/>
<rect width="19.0441" height="2784.88" transform="matrix(0.464529 0.885558 -0.464529 0.885558 1242.45 -913.545)" fill="#F8F8F8"/>
<rect width="19.0441" height="2784.88" transform="matrix(0.464529 0.885558 -0.464529 0.885558 1268.99 -862.951)" fill="#F8F8F8"/>
<rect width="19.0438" height="2784.88" transform="matrix(0.464529 0.885558 -0.464529 0.885558 1295.53 -812.357)" fill="#F8F8F8"/>
<rect width="19.0441" height="2784.88" transform="matrix(0.464529 0.885558 -0.464529 0.885558 1322.07 -761.765)" fill="#F8F8F8"/>
<rect width="19.0439" height="2784.88" transform="matrix(0.464529 0.885558 -0.464529 0.885558 1375.14 -660.577)" fill="#F8F8F8"/>
<rect width="19.0441" height="2784.88" transform="matrix(0.464529 0.885558 -0.464529 0.885558 1348.61 -711.171)" fill="#F8F8F8"/>
<rect width="19.0441" height="2784.88" transform="matrix(0.464529 0.885558 -0.464529 0.885558 1401.69 -609.983)" fill="#F8F8F8"/>
<rect width="19.0438" height="2784.88" transform="matrix(0.464529 0.885558 -0.464529 0.885558 1428.22 -559.39)" fill="#F8F8F8"/>
<rect width="19.0439" height="2784.88" transform="matrix(0.464529 0.885558 -0.464529 0.885558 1454.76 -508.796)" fill="#F8F8F8"/>
<rect width="19.0438" height="2784.88" transform="matrix(0.464529 0.885558 -0.464529 0.885558 1481.3 -458.202)" fill="#F8F8F8"/>
<rect width="19.0438" height="2784.88" transform="matrix(0.464529 0.885558 -0.464529 0.885558 1507.84 -407.608)" fill="#F8F8F8"/>
<rect width="19.0443" height="2784.88" transform="matrix(0.464529 0.885558 -0.464529 0.885558 1534.38 -357.015)" fill="#F8F8F8"/>
<rect width="19.0441" height="2784.88" transform="matrix(0.464529 0.885558 -0.464529 0.885558 1560.92 -306.421)" fill="#F8F8F8"/>
<rect width="19.0438" height="2784.88" transform="matrix(0.464529 0.885558 -0.464529 0.885558 1587.46 -255.827)" fill="#F8F8F8"/>
<rect width="19.0438" height="2784.88" transform="matrix(0.464529 0.885558 -0.464529 0.885558 1614 -205.233)" fill="#F8F8F8"/>
<rect width="19.0439" height="2784.88" transform="matrix(0.464529 0.885558 -0.464529 0.885558 1640.54 -154.64)" fill="#F8F8F8"/>
<rect width="19.0442" height="2784.88" transform="matrix(0.464529 0.885558 -0.464529 0.885558 1667.08 -104.047)" fill="#F8F8F8"/>
<rect width="19.0439" height="2784.88" transform="matrix(0.464529 0.885558 -0.464529 0.885558 1693.62 -53.4531)" fill="#F8F8F8"/>
<rect width="19.0437" height="2784.88" transform="matrix(0.464529 0.885558 -0.464529 0.885558 1720.16 -2.85938)" fill="#F8F8F8"/>
<rect width="19.0437" height="2784.88" transform="matrix(0.464529 0.885558 -0.464529 0.885558 1746.7 47.7344)" fill="#F8F8F8"/>
<rect width="19.0442" height="2784.88" transform="matrix(0.464529 0.885558 -0.464529 0.885558 1773.24 98.3281)" fill="#F8F8F8"/>
<rect width="19.0442" height="2784.88" transform="matrix(0.464529 0.885558 -0.464529 0.885558 1799.78 148.922)" fill="#F8F8F8"/>
<rect width="19.0439" height="2784.88" transform="matrix(0.464529 0.885558 -0.464529 0.885558 1826.32 199.516)" fill="#F8F8F8"/>
<rect width="19.0439" height="2784.88" transform="matrix(0.464529 0.885558 -0.464529 0.885558 1852.86 250.109)" fill="#F8F8F8"/>
<rect width="19.0439" height="2784.88" transform="matrix(0.464529 0.885558 -0.464529 0.885558 1879.4 300.703)" fill="#F8F8F8"/>
<rect width="19.0439" height="2784.88" transform="matrix(0.464529 0.885558 -0.464529 0.885558 1905.94 351.297)" fill="#F8F8F8"/>
<rect width="19.0439" height="2784.88" transform="matrix(0.464529 0.885558 -0.464529 0.885558 1932.47 401.891)" fill="#F8F8F8"/>
<rect width="19.0439" height="2784.88" transform="matrix(0.464529 0.885558 -0.464529 0.885558 1959.01 452.483)" fill="#F8F8F8"/>
<rect width="19.0439" height="2784.88" transform="matrix(0.464529 0.885558 -0.464529 0.885558 1985.55 503.077)" fill="#F8F8F8"/>
</g>
</g>
<defs>
<radialGradient id="paint0_radial_14295_7464" cx="0" cy="0" r="1" gradientUnits="userSpaceOnUse" gradientTransform="translate(1125 254.611) rotate(163.908) scale(813.371 1397.58)">
<stop stop-color="#363636"/>
<stop offset="1" stop-color="#575757"/>
</radialGradient>
</defs>
</svg>
