<svg width="290" height="303" viewBox="0 0 290 303" fill="none" xmlns="http://www.w3.org/2000/svg">
<g clip-path="url(#clip0_14351_6924)">
<path d="M137.736 294.229H129.482C129.271 294.247 129.058 294.217 128.859 294.142C128.661 294.067 128.482 293.948 128.336 293.795C128.179 293.654 128.054 293.481 127.969 293.288C127.885 293.095 127.843 292.886 127.847 292.675C127.847 291.092 127.847 289.508 127.847 287.924C127.847 286.828 127.916 285.731 127.847 284.642C127.77 283.698 128.336 282.906 128.298 281.993C128.833 281.049 129.291 280.044 130.591 279.891C130.942 279.853 130.996 279.526 130.896 279.084C130.675 278.087 130.132 277.211 129.834 276.244C129.536 275.277 129.207 274.325 128.817 273.381C128.428 272.437 128.114 271.364 127.793 270.336C127.564 269.574 127.327 268.866 127.029 268.143C126.731 267.42 126.448 266.841 126.227 266.156C125.737 264.633 125.141 263.11 124.698 261.587C124.351 260.454 124.067 259.303 123.85 258.138C123.727 257.43 123.231 256.798 123.445 256.037C123.156 255.372 123.023 254.651 123.055 253.928C122.596 253.349 122.749 252.664 122.711 252.009C122.711 251.709 122.654 251.412 122.543 251.133C122.414 250.862 122.346 250.565 122.344 250.265C122.438 249.422 122.331 248.569 122.031 247.775C121.855 247.44 121.993 246.938 121.977 246.511C122.034 246.03 121.955 245.542 121.748 245.103C121.641 244.821 121.597 244.52 121.618 244.22C121.557 243.329 121.748 242.423 121.297 241.555C121.121 241.212 121.297 240.717 121.244 240.291C121.324 239.807 121.238 239.311 120.999 238.882C120.931 238.784 120.896 238.667 120.9 238.547C120.971 237.945 120.94 237.335 120.808 236.743C120.627 236.172 120.522 235.581 120.495 234.984C120.294 233.931 119.96 232.908 119.501 231.938C119.211 231.283 118.897 230.629 118.569 229.989C117.751 228.39 117.193 226.685 116.52 225.032C116.276 224.423 115.932 223.852 115.71 223.235C115.642 223.022 115.42 222.862 115.259 222.687C115.213 222.645 115.159 222.614 115.099 222.596C113.838 222.063 113.44 220.944 113.196 219.748C113.119 219.39 112.997 219.055 112.905 218.72C112.668 217.985 112.469 217.238 112.309 216.482C112.179 215.72 111.66 215.066 111.698 214.251C111.238 212.966 110.85 211.657 110.536 210.33C110.047 209.903 110.322 209.287 110.139 208.807C109.706 207.765 109.386 206.68 109.184 205.571C109.038 204.49 108.297 203.584 108.419 202.464C107.838 201.277 107.747 199.936 107.265 198.726C106.975 197.964 106.875 197.203 106.654 196.495C106.432 195.787 106.134 195.033 105.989 194.287C105.844 193.541 105.584 192.764 105.4 192.041C105.4 191.873 105.156 191.713 105.171 191.561C105.263 190.921 104.736 190.411 104.797 189.825C104.858 189.239 104.407 188.934 104.415 188.447C104.355 188.036 104.25 187.632 104.101 187.244C103.956 186.551 103.482 185.919 103.65 185.15C103.662 185.061 103.656 184.97 103.631 184.884C103.606 184.797 103.563 184.717 103.505 184.648C103.1 184.137 103.429 183.475 103.046 182.912C102.771 182.508 102.955 181.83 102.748 181.351C102.594 180.768 102.532 180.164 102.565 179.561C102.572 179.324 102.528 179.087 102.435 178.868C102.232 178.494 102.152 178.065 102.206 177.643C102.206 177.277 102.313 176.836 102.16 176.554C101.648 175.633 101.908 174.658 101.839 173.706C101.902 173.102 101.802 172.492 101.549 171.94C101.403 171.719 101.472 171.353 101.472 171.049V158.973C101.438 158.55 101.522 158.125 101.717 157.747C101.819 157.462 101.853 157.157 101.816 156.856C101.816 156.186 101.816 155.516 101.816 154.846C101.718 154.185 101.819 153.509 102.106 152.905C102.252 152.684 102.168 152.311 102.175 152.014C102.175 151.252 102.175 150.43 102.175 149.638C102.125 149.4 102.125 149.153 102.175 148.915C102.664 147.872 102.366 146.76 102.557 145.709C102.687 144.948 102.802 144.187 102.993 143.425C103.207 142.744 103.478 142.082 103.803 141.446C104.573 139.755 105.499 138.138 106.57 136.618C107.161 135.694 108.019 134.97 109.031 134.54C109.088 134.532 109.147 134.537 109.202 134.554C109.257 134.571 109.308 134.6 109.352 134.639C109.389 134.682 109.417 134.733 109.433 134.788C109.449 134.844 109.452 134.902 109.443 134.958C109.356 135.183 109.249 135.4 109.122 135.606C108.152 137.128 107.212 138.651 106.203 140.128C105.467 141.222 104.96 142.452 104.713 143.745C104.575 144.195 104.463 144.653 104.376 145.116C104.299 145.584 104.192 146.047 104.055 146.501C103.967 147.287 103.944 148.079 103.987 148.869C104.042 149.531 103.948 150.197 103.711 150.818C103.49 151.268 103.666 151.892 103.62 152.44C103.543 153.384 103.811 154.359 103.306 155.295C103.131 155.623 103.26 156.125 103.26 156.552C103.26 160.694 103.26 164.836 103.26 168.978C103.143 169.642 103.245 170.326 103.551 170.927C103.696 171.14 103.604 171.513 103.612 171.818C103.612 172.579 103.612 173.402 103.612 174.193C103.527 174.677 103.622 175.175 103.88 175.594C103.939 175.699 103.968 175.817 103.964 175.937C103.964 176.485 103.964 177.041 103.964 177.582C103.964 178.122 104.239 178.495 104.3 178.96C104.384 179.554 104.208 180.247 104.46 180.742C104.789 181.389 104.46 182.112 104.843 182.668C105.225 183.224 104.965 183.825 105.301 184.404C105.637 184.983 105.301 185.835 105.775 186.467C105.94 187.646 106.208 188.808 106.577 189.939C106.732 191.06 107.062 192.149 107.556 193.168C107.479 194.028 108.098 194.759 108.014 195.627C108.359 196.384 108.616 197.179 108.778 197.995C109.168 199.305 109.543 200.622 109.902 201.931C110.391 202.358 110.147 202.967 110.299 203.454C110.854 205.145 111.321 206.863 111.698 208.601C111.881 209.523 112.462 210.368 112.462 211.35C112.905 212.111 112.798 212.995 113.181 213.733C113.563 214.472 113.502 215.362 113.868 216.124C114.136 216.722 114.36 217.337 114.541 217.966C114.717 218.538 114.816 219.124 115.015 219.687C115.214 220.251 115.779 220.807 115.741 221.515C116.574 222.413 116.948 223.578 117.568 224.606C118.515 226.205 119.295 227.903 120.105 229.57C120.411 230.21 120.548 230.941 120.869 231.565C121.127 232.295 121.339 233.04 121.503 233.796C121.878 234.496 122.04 235.29 121.97 236.08C122.535 236.842 122.153 237.854 122.635 238.669C122.826 238.989 122.635 239.507 122.688 239.933C122.631 240.415 122.711 240.902 122.917 241.342C123.03 241.619 123.072 241.92 123.04 242.217C123.04 242.826 123.04 243.443 123.04 244.045C122.936 244.649 123.038 245.271 123.33 245.811C123.422 245.933 123.384 246.161 123.399 246.336C123.327 246.999 123.413 247.67 123.651 248.293C123.98 248.864 123.544 249.641 124.071 250.204C124.14 250.273 124.125 250.433 124.133 250.554C124.094 251.214 124.201 251.874 124.446 252.488C124.69 252.999 124.354 253.707 124.82 254.224C124.675 255.153 125.225 255.96 125.256 256.867C125.256 257.331 125.523 257.78 125.585 258.245C125.6 258.725 125.69 259.2 125.852 259.653C126.15 260.285 125.852 261.108 126.326 261.724C126.553 263.073 126.911 264.396 127.396 265.676C127.839 266.833 128.053 268.067 128.474 269.255C128.894 270.442 129.444 271.683 129.811 272.94C130.093 273.79 130.435 274.62 130.835 275.422C131.247 276.217 131.612 277.036 131.928 277.874C132.248 278.52 132.662 279.116 133.158 279.64C133.372 279.945 133.243 280.295 132.883 280.28C132.578 280.272 132.275 280.338 132 280.47C131.725 280.603 131.485 280.798 131.301 281.041C130.935 281.45 130.548 281.839 130.14 282.206C129.971 282.337 129.836 282.506 129.747 282.699C129.658 282.893 129.617 283.105 129.628 283.318C129.681 283.927 129.154 284.406 129.261 285.061C129.299 285.606 129.299 286.153 129.261 286.698C129.261 288.343 129.261 289.988 129.261 291.632C129.255 291.694 129.266 291.756 129.292 291.812C129.319 291.868 129.361 291.916 129.412 291.95C129.464 291.984 129.524 292.004 129.586 292.007C129.649 292.01 129.71 291.996 129.765 291.967C130.538 291.654 131.347 291.437 132.173 291.32C132.921 291.101 133.689 290.956 134.465 290.886C135.23 290.886 135.994 290.528 136.758 290.498C137.17 290.225 137.671 290.122 138.157 290.208C138.702 290.258 139.251 290.161 139.746 289.927C140.022 289.759 140.457 289.866 140.816 289.843C141.581 289.79 142.383 289.972 143.109 289.523C143.384 289.363 143.828 289.477 144.194 289.477H153.732C154.035 289.493 154.339 289.493 154.642 289.477C154.818 289.477 154.818 289.356 154.734 289.211C154.307 288.212 153.659 287.321 152.838 286.607C151.982 285.99 151.187 285.175 150.018 285.084C149.911 285.084 149.812 284.962 149.705 284.901C149.524 284.783 149.306 284.735 149.092 284.766C148.878 284.797 148.683 284.905 148.543 285.069C148.245 285.373 147.924 285.655 147.641 285.975C147.308 286.327 146.901 286.603 146.449 286.782C146.324 286.87 146.18 286.925 146.028 286.944C145.877 286.962 145.723 286.943 145.581 286.888C145.439 286.833 145.312 286.744 145.213 286.628C145.114 286.513 145.045 286.375 145.012 286.226C145.004 286.166 145.004 286.104 145.012 286.043C145.021 285.969 145.013 285.893 144.987 285.822C144.962 285.751 144.921 285.686 144.868 285.634C144.814 285.581 144.749 285.541 144.677 285.517C144.605 285.493 144.529 285.485 144.454 285.495C143.69 285.495 142.987 285.495 142.253 285.495C141.756 285.495 141.695 285.343 141.902 284.78C141.902 284.719 141.97 284.681 141.993 284.62C142.085 284.338 141.993 284.087 141.741 284.071C141.374 284.071 140.977 284.071 140.641 284.018C140.304 283.965 140.289 283.843 140.404 283.348C140.404 283.249 140.472 283.089 140.404 283.059C140.359 283.024 140.306 283 140.251 282.99C140.195 282.979 140.137 282.982 140.083 282.998C138.982 283.576 137.836 283.287 136.697 283.219C136.177 282.769 135.459 283.15 134.954 282.868C134.456 282.645 133.911 282.543 133.365 282.571C133.29 282.573 133.215 282.556 133.148 282.523C133.08 282.49 133.021 282.441 132.977 282.38C132.932 282.32 132.902 282.25 132.89 282.176C132.878 282.102 132.883 282.026 132.906 281.955C132.906 281.795 133.082 281.536 133.166 281.536C134.244 281.574 135.36 281.193 136.391 281.78C137.652 281.833 138.952 282.122 140.106 281.361C140.278 281.234 140.478 281.15 140.689 281.114C140.9 281.078 141.116 281.092 141.321 281.155C141.749 281.3 142.016 281.368 142.391 280.988C143.763 279.631 144.9 278.056 145.754 276.328C146.266 275.247 146.694 274.128 147.213 273.054C147.733 271.98 148.207 270.77 148.65 269.582C149.093 268.394 149.33 267.298 149.789 266.201C150.362 264.823 150.553 263.323 151.119 261.953C151.401 261.306 151.042 260.483 151.577 259.874C151.401 258.945 152.097 258.138 151.959 257.217C152.277 256.308 152.407 255.345 152.342 254.384C152.428 253.919 152.54 253.459 152.678 253.006C152.651 252.521 152.672 252.034 152.739 251.552C152.894 250.978 153.017 250.396 153.106 249.808C153.183 249.162 153.351 248.529 153.603 247.928C153.916 247.372 153.557 246.671 154.084 246.214C154.245 245.338 154.48 244.477 154.787 243.641C155.024 242.781 155.292 241.928 155.551 241.075C155.811 240.222 156.071 239.369 156.316 238.509C156.514 237.641 156.77 236.786 157.08 235.951C157.317 235.349 156.973 234.596 157.5 234.04C157.34 233.118 157.974 232.304 157.882 231.39C157.829 230.827 158.349 230.423 158.272 229.829C158.204 229.562 158.194 229.284 158.245 229.013C158.295 228.742 158.403 228.486 158.563 228.261C158.624 228.154 158.64 228.029 158.608 227.91C158.394 226.966 158.853 226.121 159.044 225.261C159.194 224.262 159.474 223.287 159.877 222.36C160.49 220.989 161.189 219.659 161.971 218.378C162.499 217.655 162.966 216.891 163.37 216.093C164.042 214.677 165.089 213.505 165.8 212.104C166.282 211.16 166.939 210.276 167.512 209.37C168.215 208.259 168.827 207.086 169.614 206.02C170.307 204.89 171.335 204.002 172.556 203.477C174.085 202.716 175.613 201.779 177.249 201.14C180 200.066 182.599 198.612 185.228 197.332C187.857 196.053 190.509 194.698 193.153 193.388C195.082 192.408 196.92 191.261 198.648 189.962C200.177 188.873 201.285 187.449 202.653 186.254C203.28 184.998 204.571 184.252 205.206 182.995C205.389 182.622 205.664 182.287 205.855 181.914C207.72 178.214 209.615 174.521 211.419 170.79C212.697 168.162 213.8 165.453 214.721 162.681C215.2 161.526 215.618 160.347 215.974 159.148C216.135 158.455 216.364 157.778 216.578 157.108C216.882 156.461 217.107 155.782 217.25 155.082C217.365 154.376 217.528 153.679 217.74 152.996C217.808 152.288 217.941 151.587 218.137 150.902C218.341 150.21 218.439 149.491 218.427 148.77C218.637 148.085 218.763 147.377 218.802 146.661C218.66 146.004 218.66 145.324 218.802 144.666C219.253 143.357 219.092 142.039 219.123 140.715C219.153 139.39 219.123 138.042 219.123 136.702C219.156 136.403 219.12 136.101 219.016 135.819C218.791 135.385 218.703 134.894 218.764 134.41C218.764 133.375 218.764 132.339 218.764 131.304C218.764 130.588 218.917 129.857 218.458 129.179C218.32 128.959 218.404 128.585 218.404 128.281C218.404 127.428 218.404 126.575 218.404 125.723C218.473 125.179 218.385 124.627 218.152 124.131C218.032 123.789 217.996 123.424 218.045 123.065C218.045 120.568 218.045 118.071 218.045 115.573C218.172 114.851 218.068 114.108 217.747 113.449C217.602 113.236 217.694 112.855 217.694 112.558C217.694 110.852 217.694 109.139 217.694 107.441C217.694 106.49 217.892 105.515 217.388 104.586C217.205 104.251 217.388 103.749 217.335 103.322C217.273 102.561 217.526 101.754 217.021 101.038C216.876 100.825 216.983 100.444 216.975 100.14C216.975 99.6065 217.075 99.0431 216.685 98.5634C216.629 98.4554 216.606 98.334 216.616 98.2132C216.634 97.5528 216.53 96.8948 216.31 96.2716C216.058 95.7081 216.188 95 215.921 94.3529C215.732 93.6667 215.584 92.9701 215.477 92.2666C215.309 91.6423 214.95 91.056 214.82 90.424C214.69 89.7921 214.407 89.1829 214.232 88.551C213.641 86.6735 212.903 84.8455 212.023 83.0841C211.067 81.1522 209.947 79.3054 208.675 77.5639C207.636 76.0411 206.459 74.5792 205.336 73.0945C204.503 71.9981 203.685 70.8864 202.836 69.79C202.38 69.0863 202.037 68.3155 201.82 67.5058C200.941 64.978 200.001 62.4729 199.137 59.9451C198.526 58.1634 198.503 57.9883 198.832 55.9097C198.833 55.8614 198.821 55.8136 198.799 55.7709C198.776 55.7282 198.743 55.6921 198.702 55.666C198.583 55.6461 198.461 55.6461 198.343 55.666C197.738 55.737 197.127 55.6367 196.577 55.3767C196.355 55.232 195.981 55.3081 195.683 55.3005C195.102 55.3005 195.064 55.3462 195.27 55.8411C196.355 58.4832 197.326 61.1709 198.503 63.7902C198.503 63.8435 198.595 63.8968 198.587 63.9424C198.434 64.879 199.015 65.6861 199.007 66.5997C199.007 69.1377 199.007 71.6935 199.007 74.2671C198.931 75.2211 198.672 76.1516 198.243 77.0081C198.197 77.1205 198.12 77.218 198.022 77.2898C197.573 77.6994 197.056 78.0268 196.493 78.2568C195.943 78.5003 195.357 78.6546 194.758 78.7136C193.982 78.5454 193.172 78.6504 192.465 79.0106C192.29 79.1248 191.992 79.0487 191.747 79.0487C190.983 79.0487 190.15 79.0487 189.362 79.0487C188.696 78.9508 188.015 79.0515 187.406 79.338C187.184 79.4827 186.81 79.4065 186.512 79.4065H182.293C181.807 79.4758 181.311 79.3877 180.879 79.1553C180.657 79.0634 180.416 79.0268 180.176 79.0487C179.751 79.099 179.32 79.0836 178.9 79.003C178.334 78.7822 177.738 78.7441 177.165 78.5766C176.401 78.3406 175.583 78.0512 174.803 77.7543C174.024 77.4573 173.481 77.1985 172.816 76.932C171.529 76.274 170.299 75.51 169.14 74.6478C168.529 74.2671 167.994 73.7722 167.42 73.3458C166.096 72.2152 164.711 71.1578 163.27 70.1783C162.804 69.9042 162.437 69.4702 161.994 69.1581C160.531 68.1086 158.963 67.2105 157.317 66.4779C156.37 66.0482 155.572 65.3488 155.024 64.4678C153.883 62.7822 153 60.9373 152.403 58.9933C152.118 57.9545 151.76 56.9368 151.333 55.9477C151.254 55.7171 151.097 55.5208 150.89 55.3918C150.682 55.2628 150.437 55.209 150.194 55.2396C149.889 55.2625 149.582 55.2625 149.277 55.2396C149.1 55.2229 148.932 55.1598 148.788 55.0569C148.66 54.9487 148.571 54.8015 148.535 54.6381C148.535 54.562 148.658 54.4021 148.749 54.3716C149.369 54.1508 149.995 53.9605 150.614 53.7549C150.687 53.7273 150.753 53.6855 150.808 53.6318C150.864 53.5781 150.908 53.5137 150.938 53.4426C150.968 53.3714 150.983 53.2949 150.983 53.2177C150.982 53.1405 150.966 53.0643 150.935 52.9935C150.064 51.3489 149.667 49.5215 148.78 47.8692C147.953 46.2403 146.547 44.9758 144.836 44.3211C144.125 43.9722 143.334 43.8172 142.544 43.8719C142.062 43.948 141.565 43.8719 141.076 43.8719C140.419 43.9176 139.746 43.7196 139.112 44.1003C138.478 44.481 137.752 43.9937 137.201 44.5191C135.344 44.7551 133.686 45.6688 131.852 46.0419C130.552 46.8033 129.039 47.0317 127.694 47.7093C126.817 48.0875 125.906 48.3807 124.973 48.585C124.117 48.8286 123.338 49.3464 122.405 49.3464C121.695 49.9174 120.762 49.5672 119.975 49.9174C119.222 50.1403 118.456 50.3183 117.682 50.4504C116.358 50.8116 115.056 51.2514 113.784 51.7676C112.47 52.3387 111.079 52.6965 109.772 53.2904C108.863 53.7168 107.9 54.0518 106.944 54.4097C104.384 55.3234 102.053 56.6939 99.6073 57.8589C97.9157 58.6609 96.242 59.4908 94.5861 60.3486C93.4626 60.9197 92.3774 61.5593 91.2768 62.176C91.1674 62.2348 91.0692 62.3121 90.9864 62.4044C90.1686 63.3942 88.9917 63.9653 88.0822 64.8637C87.2263 65.617 86.291 66.2757 85.2926 66.8282C83.917 67.6886 82.5184 68.4956 81.1198 69.3103C79.4258 70.224 77.8303 71.3083 76.3584 72.5463C75.5941 73.2239 74.7764 73.8331 74.0121 74.5259C73.0033 75.4244 72.3766 76.6274 71.383 77.5259C70.5251 78.4495 69.781 79.4719 69.1667 80.5715C67.8444 82.4942 66.7009 84.533 65.7504 86.6627C64.4857 89.4237 63.3908 92.2588 62.4717 95.1523C62.2348 95.9137 61.9979 96.7436 61.7075 97.5279C61.5534 98.3453 61.3284 99.1478 61.0349 99.9263C61.1725 100.855 60.6222 101.662 60.5916 102.568C60.5916 103.094 60.3165 103.604 60.2553 104.129C60.1942 104.655 60.3929 105.287 60.2019 105.759C59.7509 106.886 59.9267 108.043 59.8732 109.162C59.8732 109.345 59.9114 109.573 59.8274 109.695C59.3382 110.358 59.5293 111.104 59.5217 111.819C59.5217 113.822 59.5217 115.84 59.5217 117.842C59.5217 118.741 59.6898 119.647 59.2159 120.515C59.0402 120.85 59.216 121.352 59.1625 121.779C59.0784 122.974 59.43 124.207 58.8185 125.35C58.799 125.471 58.799 125.594 58.8185 125.715C58.8854 126.377 58.7937 127.045 58.551 127.664C58.2301 128.228 58.6657 129.019 58.1154 129.568C58.0061 130.513 57.7882 131.443 57.4658 132.339C57.2136 133.192 56.9079 134.03 56.6251 134.875C56.0407 136.449 55.2954 137.96 54.4011 139.382C54.2482 139.633 54.0877 139.885 53.9502 140.144C53.5375 140.905 53.0713 141.712 52.5821 142.473C51.2676 144.537 50.0066 146.654 48.5392 148.618C47.5762 149.92 46.8272 151.374 45.6273 152.509C45.4801 152.696 45.3472 152.895 45.2299 153.103C44.0377 154.625 42.9371 156.148 41.6149 157.595C41.1087 158.027 40.6797 158.542 40.3463 159.118C40.1552 159.536 39.689 159.826 39.368 160.191C38.4432 161.234 37.2204 162.003 36.5937 163.305C35.241 164.516 34.1634 166.024 32.6043 167.013C32.1738 167.355 31.7678 167.727 31.3891 168.125C30.5713 168.833 29.9599 169.755 28.9587 170.295C27.9576 170.836 27.5143 171.727 26.5895 172.267C25.8581 172.795 25.1541 173.359 24.4802 173.957C22.409 175.48 20.3073 177.003 18.0909 178.313C16.8528 179.074 15.5077 179.607 14.3154 180.414C13.1292 181.126 11.9017 181.766 10.6393 182.333C10.5858 182.333 10.5553 182.417 10.5171 182.462C10.6011 182.523 10.6852 182.645 10.7616 182.637C11.2431 182.637 11.7475 182.782 12.1908 182.485C12.4542 182.333 12.7588 182.266 13.0621 182.295C13.6077 182.345 14.1567 182.247 14.6517 182.013C14.9269 181.846 15.3625 181.945 15.7217 181.929C16.2076 181.987 16.6997 181.9 17.1356 181.678C17.3571 181.584 17.5985 181.544 17.8387 181.564C18.385 181.611 18.9341 181.511 19.4284 181.275C19.7035 181.115 20.1391 181.214 20.506 181.198C20.9918 181.256 21.4838 181.168 21.9199 180.947C22.1388 180.853 22.3776 180.813 22.6154 180.833C23.5783 180.78 24.5566 180.993 25.4737 180.498C25.6648 180.391 25.9552 180.498 26.238 180.498H33.7583C34.244 180.413 34.744 180.508 35.1646 180.764C35.2717 180.817 35.3891 180.846 35.5085 180.848C37.5212 181.084 39.5006 181.546 41.4086 182.226C43.2276 182.813 45.0159 183.513 46.8578 183.985C48.0042 184.282 49.1506 184.701 50.297 184.937C51.3364 185.142 52.3452 185.569 53.354 185.812C55.9067 186.391 58.36 187.335 60.9432 187.845C61.9215 188.036 62.8615 188.455 63.855 188.683C65.1314 188.965 66.3848 189.33 67.6764 189.635C68.968 189.939 70.0991 190.244 71.3066 190.548C71.5324 190.627 71.7654 190.683 72.0021 190.716C72.5982 190.769 73.2096 190.625 73.7599 191.036C73.928 191.158 74.2337 191.081 74.4783 191.097C75.2426 191.135 76.0527 190.96 76.7711 191.416C76.9927 191.553 77.3672 191.416 77.6729 191.416C85.2544 191.416 92.8359 191.416 100.417 191.416C101.019 191.42 101.614 191.3 102.168 191.066C102.252 191.044 102.341 191.043 102.426 191.063C102.512 191.082 102.591 191.123 102.657 191.18C102.782 191.377 102.831 191.613 102.794 191.843C102.733 192.056 102.527 192.338 102.343 192.368C101.633 192.498 101.029 192.924 100.257 192.894C98.6138 192.833 96.9553 192.894 95.3045 192.894C94.821 192.833 94.3302 192.913 93.8906 193.122C93.6132 193.238 93.3103 193.28 93.0117 193.244H79.7364C79.4919 193.244 79.1785 193.32 78.9722 193.206C78.3073 192.718 77.5583 192.939 76.8475 192.886C76.0145 192.817 75.1432 193.061 74.356 192.559C74.1802 192.444 73.8745 192.559 73.5918 192.559C72.9883 192.609 72.3816 192.51 71.8263 192.269C71.3142 191.987 70.657 192.269 70.0609 191.949C69.4647 191.63 68.6011 192.01 67.9821 191.47C67.2589 191.463 66.5491 191.274 65.9185 190.921C65.2995 190.67 64.6117 190.8 64.0155 190.411C63.5292 190.198 63.0142 190.057 62.487 189.993C62.0199 189.895 61.5602 189.766 61.1113 189.604C60.636 189.369 60.1135 189.244 59.5828 189.239C58.1766 188.554 56.6022 188.416 55.1577 187.83C54.2569 187.521 53.3381 187.267 52.4064 187.069C51.4892 186.825 50.6562 186.254 49.655 186.307C48.5315 185.706 47.2247 185.675 46.0783 185.188C45.314 184.853 44.4122 184.944 43.6708 184.503C42.9295 184.061 42.0047 184.274 41.2787 183.795C40.01 183.719 38.8942 183.033 37.6484 182.866C37.3504 182.828 37.0676 182.706 36.7772 182.683C36.2312 182.723 35.6841 182.623 35.1875 182.394C34.8395 182.283 34.47 182.257 34.1099 182.318C31.5623 182.318 28.9944 182.318 26.4061 182.318C25.92 182.248 25.4243 182.336 24.9922 182.569C24.7691 182.658 24.5286 182.694 24.2891 182.676C23.3338 182.729 22.3631 182.546 21.4307 183.003C21.0142 183.096 20.5842 183.111 20.1621 183.049C19.676 182.984 19.1817 183.071 18.7482 183.3C18.5249 183.388 18.2845 183.424 18.0451 183.406C17.3878 183.46 16.7152 183.285 16.0962 183.711C15.8822 183.856 15.5001 183.757 15.1943 183.772C14.6496 183.701 14.096 183.793 13.6047 184.038C13.3818 184.128 13.1405 184.162 12.9016 184.137C12.2443 184.191 11.5641 184.008 10.9527 184.45C10.7845 184.571 10.4788 184.495 10.2343 184.503C9.74814 184.421 9.2489 184.524 8.83567 184.792C7.40792 184.889 5.99549 185.145 4.62458 185.554C4.33416 185.622 3.92145 185.493 3.73803 185.645C3.21833 186.094 2.52285 185.752 2.00315 186.125C1.82789 186.249 1.61439 186.309 1.39952 186.294C1.18464 186.279 0.981859 186.189 0.826183 186.041C0.581619 185.873 0.306484 185.752 0.0619193 185.576C0.000778179 185.531 -0.0527191 185.333 -0.0145059 185.295C0.433017 184.755 1.02751 184.356 1.69744 184.145C2.76643 183.757 3.81259 183.31 4.83092 182.805C6.44352 182.173 8.03319 181.488 9.66872 180.917C9.78336 180.871 9.898 180.856 10.005 180.802L15.4083 178.32C16.2872 177.924 16.9369 177.178 17.9075 176.881C18.6717 176.12 19.8029 175.853 20.6359 175.122C21.2526 174.651 21.8928 174.212 22.5542 173.805C23.1023 173.338 23.6792 172.906 24.2814 172.511C25.2673 171.978 25.8635 170.988 26.7959 170.44C27.7283 169.892 28.3703 168.917 29.2415 168.285C31.7177 166.48 33.6513 164.105 35.86 162.026C36.3431 161.653 36.7329 161.174 36.9988 160.625C37.1211 160.313 37.4803 160.085 37.7248 159.818C38.6649 158.79 39.8342 157.976 40.4915 156.704C40.5266 156.651 40.5706 156.605 40.6214 156.567C41.8672 155.577 42.5779 154.1 43.7702 153.065C44.8249 151.45 46.3687 150.217 47.2858 148.496C48.3252 147.552 48.8143 146.212 49.7849 145.192C50.1192 144.706 50.418 144.197 50.6791 143.669C51.8868 141.878 52.9402 139.988 53.8279 138.019C54.7316 135.948 55.4552 133.803 55.9908 131.608C56.4875 131.022 56.2506 130.223 56.6098 129.568C56.969 128.913 56.5334 128.235 57.0378 127.657C57.1295 127.55 57.0378 127.299 57.0378 127.116C56.9682 126.572 57.0725 126.021 57.3359 125.54C57.4505 125.372 57.3894 125.068 57.4046 124.832C57.4581 124.07 57.2594 123.256 57.7333 122.548C57.8479 122.372 57.7715 122.068 57.7715 121.824C57.7715 121.063 57.7715 120.241 57.7715 119.449C57.6666 118.785 57.7652 118.106 58.0543 117.499C58.1918 117.286 58.1231 116.913 58.1231 116.609C58.1231 115.269 58.1231 113.928 58.1231 112.588C58.1231 111.758 57.9167 110.883 58.4517 110.114C58.4517 109.352 58.4517 108.53 58.4517 107.746C58.4517 107.091 58.2988 106.406 58.7574 105.804C58.8491 105.683 58.7574 105.446 58.8109 105.271C58.8873 104.556 58.6122 103.794 59.0096 103.124C59.407 102.454 59.0096 101.7 59.4682 101.023C59.7891 100.574 59.4682 99.873 59.7968 99.2791C60.0356 98.7389 60.1803 98.1622 60.2248 97.5736C60.4603 96.5387 60.7667 95.5211 61.1419 94.528C61.4858 93.2108 62.0208 91.9468 62.4717 90.6524C62.5035 90.4779 62.5443 90.3051 62.594 90.1347C63.8627 87.4165 65.0396 84.6526 66.5147 82.0334C67.3535 80.5825 68.288 79.1886 69.3119 77.8609C70.955 75.6528 73.0415 73.8711 74.9674 71.9372C75.6949 71.3097 76.4835 70.7562 77.3214 70.2849C79.2626 68.9905 81.1427 67.6505 83.1145 66.3409C86.4925 64.0567 89.8859 61.7725 93.2716 59.5263C93.5752 59.3279 93.8918 59.1498 94.2192 58.9933C95.5108 58.3538 96.8101 57.7142 98.117 57.0975C99.3092 56.534 100.524 56.0315 101.717 55.468C102.909 54.9046 104.078 54.2422 105.293 53.7244C107.495 52.7803 109.68 51.7981 111.866 50.8159C113.395 50.1255 114.936 49.4707 116.49 48.8515C117.17 48.6371 117.861 48.4617 118.561 48.3261C119.016 48.1869 119.477 48.0725 119.944 47.9835C120.37 47.994 120.796 47.9812 121.221 47.9454C122.375 47.6484 123.575 47.5266 124.706 47.1383C126.334 46.5749 127.954 45.9658 129.597 45.4404C130.568 45.1282 131.469 44.6257 132.44 44.3592C133.411 44.0927 134.251 43.7348 135.146 43.4151C135.974 43.065 136.86 42.8714 137.759 42.844C138.31 42.844 138.86 42.844 139.41 42.844C139.591 42.8685 139.774 42.851 139.946 42.7928C140.119 42.7347 140.275 42.6376 140.404 42.509C140.926 42.0954 141.553 41.8321 142.215 41.7476C142.448 41.6724 142.694 41.6485 142.937 41.6774C143.179 41.7063 143.413 41.7874 143.621 41.9151C143.951 42.0517 144.291 42.1637 144.638 42.2501C145.06 42.4169 145.515 42.4877 145.968 42.4574C146.422 42.4271 146.863 42.2965 147.259 42.075C148.872 41.2679 149.506 40.8263 150.232 39.6004C150.628 39.001 150.855 38.3068 150.889 37.5903V34.8493C150.913 34.7285 150.913 34.6045 150.889 34.4838C150.255 33.1513 150.645 31.7427 150.553 30.3646C150.553 29.8088 150.553 29.2758 149.842 29.0931C149.667 29.0474 149.537 28.7352 149.437 28.5144C148.965 27.6751 148.703 26.7349 148.673 25.7734C148.711 24.9282 148.673 24.0678 148.673 23.2227C148.712 22.6224 148.925 22.0462 149.286 21.5638C149.647 21.0815 150.14 20.7135 150.706 20.5045C151.47 20.238 151.57 20.1009 151.608 19.37C151.642 19.1002 151.608 18.8262 151.508 18.5733C151.407 18.3204 151.245 18.0968 151.035 17.9233C150.709 17.6444 150.456 17.2909 150.297 16.893C150.139 16.495 150.08 16.0648 150.125 15.6391C150.163 15.0909 150.125 14.5427 150.125 13.9945C150.095 13.6359 150.142 13.2751 150.263 12.9361C150.63 12.2889 150.408 11.5047 150.866 10.8803C151.242 10.3316 151.552 9.74142 151.791 9.12149C152.245 8.06266 152.945 7.12598 153.832 6.38806C154.068 6.19002 154.324 6.01653 154.596 5.8703C156.889 4.60637 159.182 3.29676 161.62 2.18512C162.314 1.83069 163.034 1.5303 163.775 1.28666C164.438 1.01291 165.134 0.826081 165.846 0.730836C166.312 0.730836 166.694 0.243541 167.229 0.388207C168.131 0.0310305 169.11 -0.0921049 170.072 0.0303473H176.309C176.429 0.00946922 176.553 0.027847 176.661 0.0827332C176.77 0.137619 176.858 0.226068 176.913 0.334904C177.375 1.04923 177.945 1.68864 178.602 2.2308C178.986 2.62113 179.493 2.86837 180.038 2.93129C180.251 2.95892 180.451 3.04476 180.617 3.17922C180.783 3.31367 180.908 3.49144 180.978 3.69269C181.147 4.07339 181.376 4.4541 181.529 4.81957C181.81 5.41867 182.232 5.94115 182.759 6.34238C182.904 6.44497 183.064 6.52459 183.233 6.57841C184.884 7.25606 185.526 7.87279 186.068 9.53264C186.431 10.1005 186.632 10.7558 186.649 11.4285C186.535 11.9691 187.108 12.3879 187.016 12.9513C186.973 13.4914 187.068 14.0335 187.291 14.5275C187.41 15.1831 187.436 15.852 187.368 16.5147C187.283 17.178 187.381 17.8518 187.651 18.4639C187.759 18.8111 187.785 19.1785 187.727 19.5375C187.727 21.6085 187.727 23.6795 187.727 25.7505C187.664 26.2339 187.749 26.725 187.972 27.1591C188.078 27.4408 188.117 27.7431 188.086 28.0423C188.086 31.6362 188.086 35.23 188.086 38.8238C188.086 39.5852 187.605 40.1715 187.689 40.9329C187.775 41.5934 187.741 42.2639 187.589 42.9125C187.482 43.3161 187.589 43.3618 187.872 43.514C188.669 43.7708 189.437 44.1076 190.165 44.5191C191.013 44.5191 191.625 45.0749 192.328 45.4023C193.051 45.7048 193.736 46.0907 194.368 46.552C195.006 46.9981 195.673 47.4025 196.363 47.7627C197.508 48.4363 198.55 49.2696 199.458 50.2372C199.899 50.7312 200.476 51.0859 201.117 51.2575C201.733 51.492 202.307 51.8264 202.814 52.2473C203.68 52.8017 204.493 53.4337 205.244 54.1356C205.937 54.8103 206.347 55.722 206.39 56.6863C206.462 57.7139 206.898 58.6826 207.621 59.4197C208.463 60.435 209.205 61.5289 209.837 62.6861C210.515 64.022 211.281 65.3116 212.13 66.5465C212.172 66.5921 212.208 66.6434 212.237 66.6987C213.169 68.9144 214.637 70.856 215.577 73.0717C215.783 73.7556 216.059 74.4165 216.402 75.0437C216.83 75.6376 216.494 76.3685 216.96 76.9396C217.143 77.168 217.029 77.6401 217.044 78.0055C216.987 78.4896 217.074 78.9797 217.296 79.4141C217.392 79.6319 217.429 79.8707 217.403 80.107C217.403 82.1171 217.403 84.1272 217.403 86.1373C217.414 86.5025 217.333 86.8647 217.169 87.1915C217.005 87.5183 216.763 87.7996 216.463 88.0104C215.852 88.4444 215.852 88.4672 216.127 89.1296C216.647 90.3936 216.731 91.8022 217.365 93.028C217.365 94.665 218.305 96.1345 218.129 97.7792C218.626 98.6776 218.458 99.6598 218.489 100.619C219.085 101.952 218.779 103.36 218.855 104.738C218.855 104.921 218.802 105.15 218.855 105.279C219.375 106.04 219.161 106.924 219.176 107.761C219.176 109.345 219.176 110.929 219.176 112.512C219.176 113.22 219.016 113.959 219.482 114.629C219.627 114.842 219.528 115.223 219.528 115.527C219.528 117.111 219.528 118.695 219.528 120.279C219.528 121.23 219.314 122.213 219.841 123.134C219.979 123.362 219.88 123.728 219.88 124.032C219.88 125.311 219.88 126.591 219.88 127.839C219.835 128.264 219.914 128.692 220.109 129.073C220.221 129.35 220.263 129.651 220.231 129.948C220.231 131.106 220.231 132.233 220.231 133.42C220.231 134.372 220.025 135.354 220.544 136.268C220.682 136.504 220.583 136.87 220.583 137.174C220.583 139.458 220.583 141.803 220.583 144.11C220.636 144.595 220.556 145.084 220.353 145.527C220.239 145.867 220.194 146.227 220.223 146.585C220.155 147.537 220.399 148.519 219.887 149.433C219.757 149.669 219.887 150.034 219.887 150.339C219.965 150.821 219.876 151.315 219.635 151.74C219.562 151.838 219.53 151.961 219.543 152.082C219.585 152.923 219.449 153.764 219.146 154.549C218.779 155.798 218.618 157.092 218.198 158.356C217.778 159.62 217.357 160.953 216.998 162.27C216.769 163.085 216.165 163.739 216.135 164.615C215.111 166.511 214.453 168.59 213.345 170.455C212.527 171.848 211.725 173.257 210.861 174.612C210.027 175.924 209.364 177.336 208.889 178.815C208.146 181.093 207.022 183.23 205.565 185.135C204.09 187.099 202.217 188.653 200.551 190.411C200.088 190.889 199.699 191.433 199.397 192.026C199.146 192.505 198.997 193.032 198.96 193.572C198.923 194.112 198.999 194.653 199.183 195.162C199.28 195.445 199.331 195.74 199.336 196.038C199.336 196.647 199.382 197.256 199.336 197.865C199.26 198.878 199.489 199.883 199.03 200.911C198.572 201.939 198.373 202.807 197.945 203.736C196.824 205.991 195.547 208.167 194.124 210.246C193.501 211.134 192.811 211.974 192.06 212.759C191.249 213.813 190.374 214.818 189.439 215.766C188.425 216.648 187.475 217.599 186.596 218.614C185.347 220.071 184.208 221.619 183.187 223.243C182.074 224.878 181.19 226.655 180.558 228.527C180.113 229.307 179.805 230.157 179.649 231.04C179.563 231.326 179.52 231.624 179.519 231.923C179.519 232.959 179.519 233.994 179.519 235.029C179.604 235.573 179.507 236.13 179.244 236.613C179.143 236.835 179.116 237.083 179.167 237.321C179.173 238.399 178.965 239.468 178.556 240.466C178.388 240.976 178.602 241.578 178.166 241.989C177.799 243.31 177.286 244.587 176.637 245.796C176.11 246.801 175.873 247.935 175.254 248.91C175.208 249.747 174.734 250.494 174.757 251.354C174.757 252.016 174.719 252.686 174.696 253.349C174.108 253.943 174.582 254.765 174.207 255.435C173.987 256.046 173.813 256.672 173.687 257.308C173.191 258.648 172.923 260.057 172.587 261.435C172.29 262.708 171.871 263.95 171.333 265.143C170.583 266.848 169.645 268.464 168.536 269.963C168.467 270.054 168.46 270.199 168.383 270.29C167.52 271.295 166.679 272.331 165.762 273.29C164.463 274.653 163.095 275.97 161.757 277.31C161.49 277.577 161.536 277.797 161.864 278.026C162.647 278.479 163.382 279.01 164.058 279.61C164.965 280.484 165.672 281.544 166.129 282.716C166.483 283.409 166.682 284.17 166.71 284.947C167.321 286.089 166.985 287.323 167.038 288.518C167.041 288.729 166.964 288.933 166.822 289.09C166.681 289.246 166.485 289.344 166.274 289.363C165.258 289.302 164.233 289.569 163.217 289.127C162.635 288.947 162.018 288.916 161.421 289.036C160.175 289.196 159.052 288.571 157.837 288.594C157.745 288.594 157.615 288.343 157.569 288.183C157.542 288.004 157.542 287.822 157.569 287.642C157.567 287.582 157.577 287.521 157.6 287.465C157.623 287.409 157.658 287.358 157.702 287.316C157.746 287.275 157.799 287.243 157.856 287.223C157.914 287.203 157.975 287.195 158.035 287.201C158.28 287.201 158.593 287.109 158.754 287.201C159.287 287.501 159.907 287.611 160.511 287.513H164.73C164.969 287.512 165.206 287.476 165.433 287.406C165.502 287.406 165.563 287.201 165.548 287.109C165.536 287.053 165.513 287 165.48 286.953C165.447 286.906 165.405 286.866 165.357 286.835C165.243 286.792 165.119 286.776 164.998 286.79H155.827C155.712 286.81 155.601 286.849 155.498 286.904C155.517 287.008 155.554 287.108 155.605 287.201C156.002 287.795 156.43 288.373 156.812 288.982C156.996 289.272 157.179 289.561 156.889 289.949C156.698 290.201 156.889 290.604 156.423 290.833C156.207 290.994 155.956 291.101 155.69 291.146C155.424 291.191 155.151 291.172 154.894 291.092C154.341 290.843 153.732 290.746 153.129 290.81C150.133 290.81 147.137 290.81 144.141 290.81C143.239 290.81 142.33 290.627 141.458 291.114C141.176 291.274 140.74 291.114 140.373 291.168C139.655 291.168 138.898 290.985 138.248 291.48C138.192 291.505 138.131 291.518 138.069 291.518C138.007 291.518 137.946 291.505 137.889 291.48C136.949 291.251 136.139 291.914 135.23 291.876C134.631 292.173 133.963 292.302 133.296 292.249C133.25 292.249 133.204 292.317 133.158 292.355C133.113 292.394 133.273 292.561 133.334 292.561C134.435 292.561 135.535 292.561 136.636 292.561C136.877 292.577 137.117 292.527 137.331 292.416C137.713 292.222 138.145 292.15 138.569 292.211H144.072C144.617 292.298 145.176 292.205 145.662 291.944C145.886 291.85 146.132 291.819 146.373 291.853H153.893C154.043 291.84 154.194 291.858 154.338 291.905C154.481 291.952 154.613 292.028 154.726 292.127C155.039 292.409 155.078 292.888 154.726 293.041C154.11 293.408 153.417 293.63 152.701 293.688C151.356 293.688 150.011 293.688 148.673 293.688C148.008 293.589 147.328 293.684 146.717 293.962C146.369 294.073 145.999 294.099 145.639 294.038H137.736V294.229ZM157.607 277.402C157.791 277.39 157.974 277.39 158.158 277.402C158.759 277.435 159.351 277.242 159.816 276.861C160.404 276.439 160.963 275.978 161.49 275.483C162.078 274.973 162.72 274.516 163.316 274.006C163.686 273.69 164.031 273.347 164.348 272.978C164.644 272.526 164.968 272.094 165.319 271.683C166.709 270.261 167.9 268.658 168.857 266.917C169.625 265.764 170.234 264.515 170.669 263.201C171.104 261.724 171.96 260.346 171.861 258.732C172.018 258.514 172.129 258.267 172.187 258.005C172.245 257.743 172.248 257.472 172.197 257.209C172.082 256.608 172.625 256.189 172.564 255.686C172.524 254.727 172.656 253.767 172.954 252.854C173.236 251.457 173.645 250.088 174.177 248.765C174.696 247.555 175.04 246.291 175.529 245.08C176.064 243.885 176.478 242.64 176.767 241.364C176.989 240.691 177.167 240.004 177.302 239.309C177.39 238.541 177.518 237.779 177.684 237.024C177.721 236.067 177.836 235.115 178.028 234.177C178.273 233.415 178.028 232.532 178.395 231.702C178.517 231.106 178.535 230.493 178.449 229.89C178.449 229.289 178.907 228.801 178.839 228.146C178.886 227.434 179.126 226.747 179.534 226.159C180.635 225.185 181.246 223.875 182.094 222.687C182.603 221.81 183.167 220.965 183.783 220.159C184.708 219.192 185.312 217.974 186.382 217.114C186.695 216.909 186.957 216.636 187.146 216.314C187.5 215.678 187.969 215.112 188.529 214.647C188.908 214.339 189.247 213.986 189.538 213.596C189.929 212.906 190.448 212.296 191.067 211.799C191.584 211.212 192.071 210.6 192.527 209.964C193.489 208.966 194.335 207.863 195.049 206.675C196.355 204.573 197.341 202.343 197.219 199.761C197.173 199 197.219 198.299 197.219 197.569C197.236 197.087 197.15 196.606 196.967 196.16C196.839 195.883 196.782 195.579 196.801 195.275C196.82 194.971 196.913 194.676 197.074 194.416C197.276 194.059 197.426 193.674 197.517 193.274C197.563 193.099 197.517 193.084 196.287 193.731C195.522 194.127 194.827 194.569 194.086 194.942C190.379 196.822 186.695 198.749 182.882 200.386C181.231 201.101 179.695 202.114 178.021 202.761C176.095 203.523 174.337 204.535 172.48 205.381C171.966 205.576 171.53 205.934 171.242 206.401C170.332 208.091 169.301 209.705 168.399 211.396C167.617 212.613 166.924 213.885 166.328 215.203C165.751 215.825 165.314 216.562 165.044 217.365C164.677 218.21 164.073 218.888 163.683 219.687C162.919 221.317 162.055 222.908 161.268 224.53C160.757 225.419 160.493 226.429 160.504 227.454C160.572 227.995 160.493 228.544 160.275 229.045C160.129 229.562 160.039 230.093 160.007 230.629C159.847 231.314 159.549 231.984 159.434 232.677C159.075 234.359 158.626 236.022 158.089 237.656C157.936 238.22 158.158 238.913 157.607 239.369C157.607 240.04 157.065 240.588 157.195 241.288C156.759 241.836 156.912 242.552 156.667 243.169C156.423 243.786 156.308 244.547 156.094 245.225C155.88 245.783 155.754 246.371 155.72 246.968C155.72 247.547 155.452 248.126 155.391 248.712C155.402 249.431 155.29 250.146 155.062 250.829C154.833 251.346 154.978 251.978 154.718 252.58C154.459 253.181 154.588 253.851 154.329 254.491C154.069 255.131 154.237 255.641 153.985 256.242C153.817 256.87 153.692 257.509 153.61 258.153C153.419 258.778 153.294 259.421 153.236 260.072C153.236 260.833 152.861 261.458 152.792 262.174C152.71 262.64 152.595 263.101 152.449 263.552C152.311 264.123 152.212 264.717 152.066 265.288C151.977 265.819 151.805 266.333 151.554 266.81C151.195 267.359 151.554 268.067 151.065 268.531C151.065 269.399 150.477 270.092 150.194 270.869C149.761 272.265 149.172 273.609 148.436 274.874C147.771 275.886 147.274 276.975 146.663 278.011C146.61 278.11 146.617 278.262 146.548 278.353C145.802 279.372 145.186 280.479 144.714 281.65C144.655 281.732 144.62 281.829 144.612 281.93C144.605 282.031 144.626 282.132 144.672 282.222C144.719 282.312 144.79 282.387 144.877 282.439C144.964 282.492 145.064 282.519 145.165 282.518C145.582 282.563 145.994 282.644 146.396 282.762C147.007 282.967 147.664 283.089 148.299 283.241C148.831 283.309 149.358 283.418 149.873 283.569C150.371 283.739 150.882 283.867 151.401 283.95C152.175 284.115 152.876 284.52 153.404 285.107C153.786 285.503 154.168 285.868 154.581 286.272C154.695 286.378 154.818 286.569 155.024 286.378C155.544 285.871 156.214 285.543 156.935 285.442C157.681 285.226 158.451 285.106 159.228 285.084C159.899 285.137 160.574 285.137 161.245 285.084C162.453 284.979 163.666 285.205 164.753 285.739C164.821 285.77 164.897 285.78 164.971 285.77C165.045 285.759 165.114 285.727 165.171 285.678C165.227 285.629 165.268 285.565 165.289 285.494C165.31 285.422 165.31 285.346 165.288 285.274C164.975 284.315 164.684 283.34 164.279 282.419C164.02 281.749 163.63 281.135 163.133 280.615C162.728 280.166 162.23 279.81 161.673 279.573C161.116 279.337 160.513 279.224 159.908 279.244C159.327 279.29 158.601 279.061 158.662 280.074C158.662 280.211 158.479 280.401 158.333 280.493C157.73 280.889 157.103 281.254 156.499 281.627C156.193 281.833 155.972 281.627 155.674 281.589C155.055 281.452 154.795 280.721 154.145 280.714H151.944C151.646 280.714 151.333 280.775 151.088 280.516C150.966 280.386 151.195 279.876 151.57 279.625C151.927 279.301 152.357 279.066 152.823 278.94C153.893 278.841 155.047 278.65 155.995 279.351C156.759 279.884 157.24 279.412 157.814 279.138C157.823 279.09 157.822 279.041 157.812 278.994C157.801 278.947 157.781 278.902 157.753 278.863C157.577 278.708 157.363 278.6 157.133 278.551C156.216 278.516 155.299 278.516 154.382 278.551C153.839 278.516 153.323 278.301 152.915 277.942C152.901 277.888 152.899 277.832 152.908 277.777C152.917 277.722 152.938 277.669 152.968 277.622C153.916 277.219 154.925 276.815 155.918 277.173C156.488 277.343 157.082 277.42 157.676 277.402H157.607ZM186.588 35.032V29.7022C186.588 29.3976 186.688 29.0245 186.55 28.8037C186.061 28.0423 186.267 27.1515 186.237 26.3216C186.179 25.5917 186.179 24.8586 186.237 24.1287C186.321 23.314 185.709 22.6059 185.824 21.8445C185.824 21.8445 185.694 21.7379 185.625 21.677C185.579 21.7912 185.495 21.9054 185.511 22.0044C185.589 22.7327 185.384 23.4632 184.937 24.045C184.486 24.6197 183.849 25.0207 183.134 25.1795C182.851 25.2632 182.591 25.4231 182.301 25.5069C181.85 25.6439 181.468 26.0703 180.94 25.9028C180.451 25.7186 179.914 25.6972 179.412 25.8419C177.912 25.3827 176.554 24.5493 175.468 23.4206C175.273 23.1909 175.165 22.8995 175.165 22.5983C175.165 22.2971 175.273 22.0057 175.468 21.776C175.668 21.5484 175.899 21.3509 176.156 21.1897C176.836 20.8006 177.541 20.4547 178.265 20.1542C179.381 19.7278 180.558 19.6669 181.735 19.3319C181.851 19.29 181.978 19.29 182.094 19.3319C182.859 19.7735 183.76 19.5832 184.486 20.0933C184.639 20.1999 184.861 20.5045 185.044 20.1466C185.086 20.0639 185.108 19.9726 185.108 19.8801C185.108 19.7876 185.086 19.6963 185.044 19.6136C184.8 19.2481 184.83 18.7761 184.609 18.4563C184.324 18.1477 183.988 17.8901 183.615 17.6949C182.92 17.2228 182.217 16.7736 181.536 16.2939C180.306 15.4335 179.16 14.4665 177.876 13.6823C177.814 13.6442 177.822 13.4615 177.822 13.3473C177.83 13.3194 177.845 13.2937 177.865 13.2725C177.885 13.2514 177.909 13.2352 177.937 13.2254C178.57 13.0039 179.263 13.0202 179.886 13.2711C181.009 13.8346 182.247 14.2381 183.057 15.2965C183.096 15.3448 183.142 15.386 183.195 15.4183C183.291 15.4667 183.39 15.5074 183.493 15.5401C183.493 15.4335 183.6 15.3041 183.569 15.2203C183.363 14.6036 183.073 14.0097 182.904 13.3777C182.698 12.563 182.14 11.893 182.033 11.0402L180.764 9.72299L180.642 9.59356C180.143 9.07046 179.538 8.65881 178.868 8.38581C178.197 8.11281 177.476 7.98466 176.752 8.00984C175.162 8.00984 173.573 8.00984 171.991 8.00984C171.69 7.95577 171.382 7.95577 171.081 8.00984C170.722 8.23837 170.299 8.34766 169.874 8.32202C169.339 8.20019 168.964 8.67226 168.498 8.66465C167.696 8.66465 167.023 9.22047 166.205 9.1291C165.525 9.50747 164.808 9.81615 164.065 10.0504C161.451 11.1605 159.086 12.7812 157.111 14.8168C156.568 15.3878 155.964 15.9132 155.475 16.5299C154.907 17.2346 154.396 17.9832 153.946 18.7685C153.698 19.3064 153.481 19.858 153.297 20.4207C152.716 21.669 152.411 23.027 152.403 24.4028V33.7148C152.345 34.4421 152.345 35.1727 152.403 35.9C152.533 36.6614 151.99 37.2781 152.013 38.0091C152.036 38.74 151.952 39.4786 152.013 40.1943C152.215 40.8816 152.34 41.5888 152.387 42.3034C152.387 42.4557 152.563 42.6232 152.601 42.7907C153.045 44.5343 154.214 45.8363 155.261 47.2068C156.079 48.2804 157.347 48.8438 158.318 49.8032C158.949 50.3506 159.641 50.8233 160.382 51.2118C160.716 51.4734 161.101 51.6627 161.513 51.7676C161.948 51.8285 162.277 52.0798 162.705 52.1636C163.133 52.2473 163.683 52.0494 164.119 52.3615C164.554 52.6737 164.944 52.5214 165.365 52.5443C166.435 52.6204 167.543 52.3387 168.582 52.8869C168.821 52.9372 169.069 52.9372 169.308 52.8869C170.531 52.8869 171.754 52.8869 172.969 52.8869C173.601 52.8551 174.219 52.6827 174.775 52.3823C175.332 52.0819 175.814 51.6612 176.187 51.1509C176.408 50.8079 176.697 50.5127 177.035 50.2829C178.701 49.0037 180.734 48.2576 182.247 46.7652C183.654 45.9206 184.812 44.7201 185.602 43.2856C186.207 42.3851 186.524 41.3234 186.512 40.24C186.558 38.5954 186.588 36.8289 186.588 35.032ZM197.594 70.3763C197.594 69.1581 197.594 67.9398 197.594 66.7216C197.594 65.6861 197.082 64.7572 197.12 63.7293C196.271 61.2395 195.446 58.7497 193.902 56.5721C192.995 55.154 191.953 53.8256 190.792 52.6052C190.348 52.1864 189.951 51.7219 189.492 51.326C189.034 50.9301 188.506 50.6331 188.063 50.2372C187.62 49.8413 187.009 49.2245 186.496 48.7144C185.984 48.2043 185.22 48.0215 184.792 47.3972C184.678 47.2297 184.502 47.2601 184.326 47.3972C184.104 47.4909 183.89 47.6004 183.684 47.7246C182.744 48.5697 181.666 49.2474 180.673 50.0088C179.87 50.6408 178.999 51.1661 178.189 51.7752C177.379 52.3844 176.492 52.9173 175.697 53.5417C174.383 54.5772 172.923 54.562 171.402 54.4478C171.005 54.0747 170.5 54.1584 170.019 54.128C168.636 54.0442 167.222 54.3869 165.884 53.7853C165.767 53.7547 165.643 53.7547 165.525 53.7853C164.624 53.8086 163.724 53.693 162.858 53.4427C161.401 53.1118 159.991 52.6002 158.662 51.9199C158.028 51.5849 157.508 51.0367 156.874 50.7093C155.861 50.1492 154.988 49.3683 154.321 48.4251C153.562 47.5735 152.915 46.6294 152.395 45.6155C151.837 44.2983 151.058 43.0724 150.943 41.6029C150.943 41.4202 150.828 41.4125 150.683 41.5191L147.916 43.5216C147.868 43.5571 147.826 43.6017 147.795 43.6531C147.764 43.7044 147.743 43.7615 147.733 43.8209C147.724 43.8803 147.727 43.9409 147.741 43.9993C147.756 44.0578 147.781 44.1128 147.817 44.1612C148.062 44.4277 148.306 44.7094 148.581 44.9226C149.377 45.6639 150.023 46.5505 150.484 47.5342C151.478 49.4454 152.013 51.562 153.06 53.4427C153.147 53.5989 153.194 53.7741 153.197 53.9529C153.274 54.6167 153.259 55.288 153.152 55.9477C153.039 56.3255 153.056 56.7297 153.197 57.0975C153.426 57.9621 153.735 58.8034 154.122 59.6101C154.461 60.0498 154.66 60.5799 154.695 61.1329C155.453 62.9246 156.779 64.4197 158.471 65.3891C159.755 66.1505 161.123 66.7749 162.353 67.6733C163.584 68.5718 164.967 69.3636 166.236 70.2697C167.764 71.3433 169.186 72.5539 170.714 73.5894C171.798 74.4434 172.978 75.169 174.23 75.7518C174.78 75.9726 175.323 76.2315 175.881 76.4371C176.623 76.6418 177.351 76.8962 178.059 77.1985C178.747 77.5639 179.534 77.3279 180.153 77.6401C180.888 77.8993 181.673 77.9828 182.446 77.8837C183.974 77.8837 185.503 77.8837 187.031 77.8837C187.331 77.9455 187.641 77.9455 187.941 77.8837C189.041 77.3736 190.234 77.6096 191.342 77.5563C191.948 77.6133 192.56 77.5928 193.161 77.4954C193.728 77.3026 194.32 77.1949 194.919 77.1756C195.619 77.143 196.281 76.8465 196.771 76.3461C197.26 75.8457 197.541 75.1788 197.555 74.4803C197.609 73.1021 197.594 71.7468 197.594 70.4067V70.3763ZM215.539 82.4978C215.539 81.4014 215.539 80.305 215.539 79.2162C215.527 78.0815 215.315 76.9578 214.912 75.8965C214.361 74.3337 213.71 72.8077 212.963 71.3281C212.764 70.8941 212.42 70.5667 212.199 70.1098C211.068 67.7266 209.761 65.4348 208.492 63.1277C207.681 61.5152 206.629 60.0341 205.374 58.7345C204.297 57.772 203.081 56.9763 201.766 56.3741C201.094 56.3741 200.567 55.7802 199.856 55.9401C199.688 55.9782 199.42 55.9858 199.542 56.199C199.94 56.8995 199.542 57.7903 200.085 58.4375C200.51 60.6007 201.254 62.6894 202.294 64.6353C202.435 64.8289 202.541 65.0453 202.607 65.2749C202.729 66.2038 203.417 66.9043 203.631 67.7495C203.967 68.6399 204.392 69.4944 204.9 70.3002C205.4 71.2551 206.03 72.1365 206.772 72.9194C207.483 73.7417 208.102 74.6401 208.859 75.4092C209.59 76.2839 210.257 77.2101 210.854 78.1807C212.29 80.3848 213.491 82.7325 214.438 85.1856C214.789 85.8079 215.063 86.47 215.256 87.1576C215.256 87.1576 215.347 87.2337 215.37 87.2185C215.393 87.2033 215.477 87.1271 215.477 87.0814C215.523 85.5586 215.544 84.0409 215.539 82.5283V82.4978ZM169.071 1.88056C168.652 1.80374 168.222 1.80374 167.803 1.88056C166.534 2.39831 165.12 2.64196 163.981 3.40337C162.009 4.76627 159.793 5.74848 157.951 7.31697C157.042 8.07837 156.056 8.78648 155.154 9.60118C154.347 10.2448 153.67 11.0355 153.159 11.9311C152.296 12.5402 152.25 13.5833 151.822 14.4285C151.791 14.4794 151.771 14.5361 151.763 14.595C151.755 14.654 151.76 14.7139 151.776 14.7711C152.181 15.4335 152.173 16.2939 152.701 16.8954C152.899 17.1162 153.083 17.1619 153.282 16.8954C153.614 16.3997 153.979 15.9266 154.374 15.4792C155.827 14.1087 157.034 12.4336 158.784 11.4209C160.427 9.84483 162.552 9.09103 164.524 8.08598C165.044 7.81949 165.739 7.86518 166.221 7.56061C166.824 7.19514 167.589 7.52254 168.108 6.99717C168.934 6.89058 169.813 7.07331 170.577 6.59363C171.354 6.58952 172.126 6.47414 172.87 6.251C173.66 6.17468 174.456 6.17468 175.246 6.251C176.149 6.12921 177.068 6.25286 177.906 6.60886C178.426 6.47942 178.823 6.83728 179.282 6.94388C179.341 6.93907 179.395 6.91179 179.435 6.86774C179.435 6.86774 179.473 6.75353 179.435 6.7383C178.67 5.9769 178.219 4.94139 177.379 4.21806C177.218 4.03796 177.018 3.89695 176.794 3.80587C176.57 3.7148 176.328 3.67608 176.087 3.69269C174.942 3.80374 173.793 3.53616 172.816 2.93129C172.654 2.84402 172.498 2.74476 172.35 2.63434C171.7 2.14704 170.821 2.36023 170.134 1.94146C169.904 1.7435 169.453 1.88056 169.071 1.88056ZM187.666 45.3414C187.498 45.3414 187.314 45.3414 187.138 45.3414C186.703 45.3414 186.527 45.585 186.581 46.1028C186.67 46.8252 187.01 47.4935 187.544 47.9911C188.216 48.6078 188.827 49.2931 189.5 49.9098C190.08 50.527 190.709 51.0973 191.38 51.6153C192.092 52.1829 192.771 52.7905 193.413 53.4351C193.902 53.8953 194.551 54.149 195.224 54.1432C195.703 54.0654 196.192 54.1019 196.654 54.2498C197.161 54.4485 197.707 54.5318 198.251 54.4934C198.618 54.4934 199.015 54.3868 199.344 54.5315C200.255 54.8717 201.237 54.9816 202.202 54.8513C202.62 54.887 203.027 55.0006 203.402 55.1863C203.486 55.1863 203.616 55.1102 203.723 55.0721C203.701 55.0157 203.673 54.962 203.639 54.9122C203.318 54.6457 202.997 54.3716 202.661 54.1508C200.956 52.9249 199.137 51.8666 197.364 50.7626C195.798 49.7651 194.177 48.8591 192.603 47.8692C191.586 47.2297 190.524 46.6662 189.546 45.9886C189.296 45.7598 189.001 45.5844 188.681 45.4731C188.36 45.3618 188.02 45.317 187.681 45.3414H187.666ZM179.335 24.1592L179.794 24.0221C179.702 23.9181 179.603 23.8214 179.496 23.7328C179.06 23.4206 179.182 22.9714 179.282 22.5907C179.381 22.21 179.878 21.7075 179.389 21.3192C179.03 21.0374 178.686 21.6466 178.235 21.6085C177.975 21.6085 177.7 21.8141 177.432 21.9435C177.338 21.9831 177.254 22.0441 177.187 22.1217C177.121 22.1993 177.073 22.2914 177.049 22.3905C177.024 22.4896 177.023 22.5931 177.046 22.6926C177.069 22.7922 177.115 22.885 177.18 22.9638C177.435 23.3062 177.761 23.5902 178.135 23.7964C178.509 24.0026 178.924 24.1264 179.351 24.1592H179.335Z" fill="black"/>
<path d="M142.207 123.18C142.634 123.214 143.064 123.214 143.491 123.18C144.607 122.997 145.623 123.553 146.709 123.584C147.824 124.17 149.131 124.276 150.194 125C150.392 125.137 150.622 125.228 150.805 125.373C151.087 125.605 151.287 125.921 151.375 126.275C151.464 126.628 151.435 127.001 151.294 127.337C150.713 128.144 150.369 129.172 149.261 129.561C149.053 129.679 148.821 129.75 148.582 129.769C148.342 129.787 148.102 129.753 147.878 129.667C147.437 129.459 146.95 129.37 146.464 129.408C145.241 129.408 144.018 129.408 142.803 129.408C142.146 129.408 141.443 129.241 140.862 129.721L138.485 129.789C138.428 129.803 138.379 129.839 138.347 129.888C138.347 129.972 138.424 130.078 138.493 130.101C138.612 130.121 138.733 130.121 138.852 130.101C139.035 130.101 139.219 130.101 139.402 130.101C140.059 130.147 140.74 129.957 141.351 130.406C141.519 130.528 141.825 130.451 142.069 130.459C142.555 130.403 143.045 130.496 143.476 130.726C143.701 130.814 143.945 130.848 144.186 130.825C144.547 130.795 144.911 130.821 145.264 130.901C146.028 131.259 146.907 131.243 147.671 131.578C148.35 131.884 148.894 132.425 149.2 133.101C149.964 134.708 150.087 134.243 148.711 135.302C148.11 135.809 147.333 136.058 146.548 135.994C145.7 135.934 144.836 135.994 143.98 135.994C143.435 136.069 142.881 135.976 142.39 135.728C142.107 135.626 141.802 135.595 141.504 135.637H138.019C137.471 135.727 136.909 135.616 136.437 135.324C136.307 135.225 135.986 135.37 135.757 135.408C135.874 135.501 135.996 135.588 136.123 135.667C136.926 136.086 137.713 136.543 138.539 136.901C139.991 137.62 141.393 138.436 142.734 139.345C142.982 139.516 143.18 139.75 143.308 140.022C143.537 140.502 143.674 141.027 143.896 141.545C143.956 141.647 143.987 141.762 143.987 141.88C143.987 141.998 143.956 142.114 143.896 142.215C143.522 142.893 143.797 143.822 143.132 144.362C142.847 144.582 142.51 144.723 142.154 144.773C141.673 144.884 141.174 144.884 140.694 144.773C139.41 144.309 138.026 144.134 136.819 143.403C135.611 142.672 134.236 142.147 132.998 141.362C132.149 140.928 131.239 140.623 130.3 140.456C129.938 140.396 129.566 140.419 129.215 140.525C127.686 140.875 127.686 140.883 125.875 140.525C125.698 140.492 125.519 140.474 125.34 140.472C124.851 140.472 124.262 140.624 123.895 140.411C123.207 140.015 122.458 140.228 121.786 139.977C120.553 139.52 119.317 139.081 118.079 138.659C117.055 138.317 116.077 137.898 115.076 137.494C113.899 137.053 112.699 136.527 112.118 135.264C112.06 135.156 111.967 135.071 111.855 135.023C111.743 134.974 111.617 134.965 111.499 134.997C111.219 135.013 110.939 134.972 110.675 134.875C110.412 134.778 110.172 134.627 109.97 134.434C108.877 133.474 107.624 132.751 106.531 131.799C106.08 131.411 105.553 131.099 105.094 130.718C104.721 130.322 104.284 129.991 103.803 129.736C103.508 129.526 103.249 129.268 103.038 128.974C101.135 127.078 99.2171 125.167 97.3218 123.294C96.8575 122.82 96.4498 122.293 96.1066 121.726C95.7474 121.178 95.0672 120.881 94.8532 120.203C94.7495 119.982 94.5886 119.793 94.387 119.655C93.0648 118.482 92.3082 116.845 91.0777 115.597C90.6421 114.607 89.939 113.762 89.4422 112.802C88.4639 110.876 87.5086 108.934 86.5304 107C86.1253 106.239 85.9648 105.31 85.5063 104.518C85.0857 103.728 84.723 102.909 84.421 102.066C83.9701 100.962 83.5192 99.866 83.1065 98.7391C82.6938 97.6122 82.3422 96.6224 81.9219 95.564C81.5856 94.6732 81.4327 93.729 81.1576 92.823C80.7967 91.9994 80.6119 91.11 80.615 90.2114C80.6608 89.7165 80.1258 89.3814 80.2405 88.8332C80.3084 88.4115 80.2157 87.9798 79.9806 87.6226C79.8788 87.3373 79.8473 87.0317 79.8889 86.7318C79.8889 85.3917 79.9348 84.0516 79.8889 82.7115C79.8507 82.0644 80.3016 81.5771 80.2634 80.9756C80.2252 80.374 80.615 79.9629 80.7907 79.4527C81.0654 78.9151 81.424 78.4242 81.8531 77.9985C84.3751 74.7701 87.5316 72.1585 90.344 69.2119C90.7348 68.6693 91.262 68.2387 91.8726 67.9632C92.0349 67.8786 92.1739 67.7557 92.2776 67.6053C93.5783 66.2472 94.9809 64.9897 96.4734 63.844C97.9178 62.5919 99.4502 61.4443 101.059 60.4101C103.08 59.108 105.267 58.0836 107.563 57.3645C107.983 56.8772 108.618 57.197 109.091 56.9533C109.565 56.7097 109.986 56.6259 110.421 56.4356C110.857 56.2452 111.529 56.4965 111.996 56.0473C112.126 55.9178 112.462 55.9863 112.699 55.9787C113.184 56.0277 113.674 55.9407 114.113 55.7275C114.395 55.6217 114.699 55.5827 114.999 55.6133C115.602 55.6272 116.203 55.5318 116.772 55.3315C117.368 55.2078 117.979 55.177 118.584 55.2402C119.189 55.3238 119.806 55.2368 120.364 54.9889C120.647 54.8811 120.951 54.8445 121.251 54.8823C121.862 54.8823 122.474 54.8823 123.085 54.8823C123.697 54.8823 124.537 55.0346 125.217 54.5854C125.431 54.4407 125.814 54.5245 126.112 54.5245C127.151 54.5245 128.19 54.5245 129.23 54.5245C130.132 54.5245 131.049 54.7224 131.912 54.2123C132.142 54.0752 132.508 54.1742 132.814 54.1742C134.832 54.1742 136.85 54.1742 138.867 54.1742C139.586 54.1742 140.327 53.9991 140.999 54.4788C141.168 54.593 141.473 54.5168 141.718 54.5245C142.497 54.4522 143.282 54.5617 144.011 54.8442C144.347 55.027 144.897 54.7757 145.264 54.9204C146.126 55.201 147.033 55.3223 147.939 55.2782C148 55.2725 148.061 55.2801 148.119 55.3006C148.177 55.321 148.229 55.3538 148.273 55.3966C148.317 55.4394 148.351 55.4912 148.372 55.5483C148.394 55.6055 148.402 55.6666 148.398 55.7275C148.398 56.0929 148.535 56.5422 148.398 56.801C148.08 57.4614 147.971 58.202 148.084 58.9254C148.084 60.2045 148.084 61.4837 148.084 62.7324C148.084 63.4938 148.26 64.3085 147.771 65.0166C147.656 65.1917 147.733 65.4962 147.733 65.7399C147.822 66.4021 147.793 67.0747 147.649 67.7272C147.396 68.3287 147.534 68.9454 147.32 69.4784C146.861 70.59 146.869 71.7626 146.403 72.9199C145.937 74.0773 145.417 75.0975 144.874 76.1711C144.698 76.619 144.48 77.0498 144.225 77.4579C143.682 78.2545 143.062 78.9966 142.375 79.6736C141.22 80.7368 139.936 81.6525 138.554 82.3994C137.866 82.7725 137.132 83.0618 136.46 83.4577C136.208 83.6289 135.912 83.7242 135.607 83.7323C135.302 83.7404 135.001 83.661 134.74 83.5034C134.662 83.4594 134.576 83.4328 134.487 83.4258C134.397 83.4187 134.308 83.4312 134.224 83.4624C134.14 83.4937 134.064 83.5428 134.001 83.6065C133.939 83.6701 133.891 83.7467 133.861 83.8308C133.663 84.3333 133.533 84.8587 133.311 85.3536C132.575 86.8603 131.724 88.3086 130.766 89.686C130.554 89.9825 130.313 90.2579 130.048 90.5083C129.581 90.988 129.069 91.4372 128.626 91.9321C127.265 93.3023 125.707 94.4623 124.002 95.3737C123.403 95.7729 122.78 96.1365 122.137 96.4625C121.724 96.7116 121.268 96.882 120.792 96.965C120.487 96.965 120.792 97.1706 120.892 97.262C120.991 97.3533 121.228 97.5208 121.22 97.6274C121.121 98.3203 121.618 98.8685 121.656 99.5462C121.694 100.224 122.099 100.78 122.069 101.457C122.588 101.975 122.137 102.805 122.672 103.315C122.558 104.617 123.253 105.744 123.513 106.962C123.737 108.186 124.056 109.39 124.468 110.564C124.512 110.676 124.54 110.794 124.553 110.914C124.484 111.637 124.602 112.366 124.896 113.031C125.003 113.213 124.896 113.503 124.896 113.746C124.896 114.508 124.896 115.33 124.896 116.122C124.896 116.914 124.896 116.883 125.661 116.982C126.425 117.081 126.601 117.272 126.677 118.003C126.721 118.358 126.827 118.704 126.991 119.023C127.533 120.18 128.19 120.599 129.627 120.089C130.316 119.883 130.982 119.608 131.614 119.266C132.688 118.731 133.79 118.253 134.916 117.835C135.943 117.357 136.997 116.937 138.072 116.579C139.15 116.213 140.159 115.657 141.198 115.216C141.748 114.98 142.322 114.797 142.872 114.576C143.262 114.424 143.636 114.104 144.026 114.112C144.553 114.164 145.069 114.298 145.554 114.508C145.841 114.613 146.115 114.748 146.372 114.911C148.405 116.031 148.336 115.437 147.182 117.797C146.858 118.385 146.37 118.866 145.776 119.183C144.798 119.769 143.858 120.424 142.872 120.987C141.733 121.65 140.579 122.244 139.395 122.876C139.341 122.876 139.31 122.967 139.272 123.013C139.356 123.073 139.433 123.18 139.517 123.188H142.085L142.207 123.18ZM131.507 55.5752H126.922C126.562 55.5206 126.195 55.5545 125.852 55.6742C125.293 55.9204 124.677 56.0099 124.071 55.9331C123.46 55.9331 122.856 55.933 122.244 55.9711C121.602 56.4889 120.838 56.2452 120.127 56.3061C119.826 56.2781 119.521 56.3118 119.233 56.4051C118.8 56.627 118.312 56.7195 117.827 56.6716C117.582 56.6716 117.284 56.6107 117.109 56.7249C116.191 57.3112 115.045 56.7858 114.151 57.3873C113.425 57.3592 112.701 57.473 112.019 57.7223C111.315 57.9964 110.49 57.9279 109.726 58.202C108.052 58.8416 106.279 59.2299 104.712 60.136C104.246 60.4101 103.742 60.6233 103.26 60.8974C100.176 62.4 97.3406 64.3644 94.8532 66.7221C94.6865 66.9023 94.5021 67.0656 94.3029 67.2094C92.5604 68.2754 91.4064 69.9657 89.916 71.2981C89.4575 72.3336 88.5404 72.9808 87.7838 73.7575C86.5074 75.0671 85.1929 76.3386 83.9013 77.6406C83.6106 77.8735 83.3535 78.1451 83.137 78.4477C82.7549 79.1253 82.4263 79.8411 82.0976 80.5415C81.8378 81.0898 81.9371 81.7065 81.6544 82.2775C81.5213 82.7461 81.503 83.2396 81.6009 83.7166C81.7002 85.5135 81.3334 87.3409 81.9371 89.1226C82.1282 89.6632 81.9371 90.2799 82.2199 90.8814C82.4062 91.4425 82.5568 92.0146 82.6708 92.5946C83.5163 95.3891 84.5374 98.1279 85.7279 100.795C86.1177 101.799 86.5695 102.778 87.0806 103.726C87.1571 104.663 87.7685 105.378 88.1353 106.193C88.5022 107.008 88.8002 107.853 89.19 108.66C89.9543 110.229 90.7185 111.782 91.4828 113.343C91.6591 113.723 91.8556 114.094 92.0713 114.454C92.7132 115.533 93.4149 116.575 94.173 117.576C94.9373 118.566 95.9537 119.419 96.8479 120.332L96.9779 120.462C97.7465 121.324 98.6164 122.091 99.5687 122.746C100.003 123.076 100.371 123.484 100.654 123.949C101.344 124.943 102.111 125.882 102.947 126.759C103.711 127.467 104.422 128.221 105.155 128.952C105.387 129.243 105.66 129.499 105.966 129.713C107.189 130.471 108.367 131.297 109.496 132.187C110.261 132.698 111.025 133.177 111.721 133.71C112.016 133.925 112.252 134.211 112.408 134.54C112.569 134.898 112.821 134.913 113.127 134.944C113.365 134.952 113.6 135.001 113.822 135.088C115.175 135.743 116.627 136.17 117.926 136.946C119.128 137.617 120.413 138.129 121.748 138.469C122.713 138.807 123.728 138.984 124.751 138.994C126.647 138.911 128.573 138.994 130.437 138.956C131.589 138.927 132.72 139.26 133.67 139.908C134.32 140.365 135.031 140.669 135.703 141.073C137.232 141.949 138.951 142.261 140.549 142.931C140.843 143.018 141.156 143.018 141.45 142.931C141.567 142.901 141.675 142.848 141.77 142.775C141.865 142.702 141.943 142.609 142.001 142.504C142.164 142.245 142.219 141.932 142.155 141.632C142.091 141.332 141.912 141.069 141.657 140.898C140.526 140.213 139.402 139.535 138.256 138.88C137.109 138.225 136.055 137.662 134.954 137.038C134.584 136.841 134.236 136.606 133.915 136.337C133.471 135.926 133.05 135.491 132.654 135.035C132.644 134.98 132.647 134.922 132.663 134.868C132.679 134.814 132.707 134.764 132.745 134.723C133.303 134.533 133.869 134.357 134.442 134.213C134.798 134.175 135.15 134.111 135.497 134.022C135.627 133.957 135.771 133.923 135.917 133.923C136.063 133.923 136.207 133.957 136.337 134.022C136.675 134.145 137.033 134.199 137.392 134.182C138.676 134.182 139.96 134.182 141.213 134.182C141.519 134.182 141.886 134.083 142.123 134.22C143.101 134.776 144.148 134.456 145.18 134.54C145.962 134.614 146.749 134.493 147.473 134.19C147.931 133.992 147.962 133.984 147.649 133.665C147.199 133.093 146.564 132.695 145.853 132.538C145.506 132.452 145.153 132.394 144.798 132.363H143.147C142.383 131.807 141.496 132.088 140.663 132.028C140.243 132.066 139.819 132.033 139.41 131.929C138.984 131.686 138.487 131.597 138.004 131.677C137.117 131.83 136.383 131.251 135.52 131.243C135.031 131.243 134.641 130.748 134.48 130.314C134.32 129.88 134.817 129.553 135.145 129.325C135.625 128.961 136.202 128.746 136.804 128.708C137.759 128.708 138.668 128.19 139.654 128.327C139.7 128.327 139.761 128.281 139.815 128.243C140.018 128.107 140.248 128.016 140.489 127.977C140.73 127.937 140.978 127.95 141.213 128.015C141.817 128.099 142.222 127.619 142.78 127.627C143.572 127.578 144.367 127.591 145.157 127.665C145.914 127.842 146.679 127.982 147.45 128.083C147.557 128.083 147.656 128.213 147.763 128.259C147.954 128.356 148.174 128.384 148.384 128.336C148.593 128.289 148.779 128.17 148.91 128C149.162 127.733 149.429 127.482 149.674 127.2C149.694 127.152 149.701 127.099 149.694 127.047C149.687 126.995 149.667 126.945 149.636 126.903C149.386 126.639 149.109 126.402 148.81 126.195C147.595 125.556 146.292 125.1 144.943 124.84C144.407 124.734 143.861 124.693 143.315 124.718C141.97 124.718 140.625 124.718 139.28 124.718C138.974 124.718 138.592 124.619 138.378 124.764C137.836 125.039 137.226 125.153 136.62 125.091C136.378 125.091 136.14 125.149 135.925 125.259C135.008 125.746 134.305 125.259 133.632 124.771C133.577 124.743 133.529 124.703 133.49 124.656C133.451 124.608 133.423 124.553 133.405 124.494C133.388 124.435 133.383 124.373 133.391 124.312C133.398 124.252 133.418 124.193 133.449 124.139C133.701 123.751 133.861 123.332 134.373 123.104C136.116 122.343 137.935 121.726 139.723 121.071C141.822 120.316 143.749 119.154 145.394 117.652C145.677 117.408 145.933 117.135 146.158 116.838C146.181 116.755 146.184 116.669 146.166 116.586C146.149 116.503 146.112 116.424 146.059 116.358C145.92 116.163 145.713 116.028 145.478 115.977C144.636 115.873 143.78 115.964 142.979 116.244C142.345 116.525 141.619 116.67 140.954 116.944C140.503 117.135 140.014 116.944 139.547 117.241C138.925 117.6 138.26 117.878 137.568 118.071C136.368 118.444 135.222 118.954 134.068 119.442C132.914 119.929 131.859 120.881 130.674 121.467C130.4 121.748 130.061 121.96 129.688 122.083C129.314 122.206 128.915 122.238 128.527 122.175C127.859 122.152 127.217 121.911 126.7 121.49C126.063 120.848 125.587 120.065 125.309 119.206C125.256 119.038 125.149 118.825 124.973 119.038C124.432 119.518 123.857 119.958 123.253 120.355C121.946 121.52 120.693 122.761 119.325 123.865C117.957 124.969 117.72 124.947 116.971 123.409C116.927 123.235 116.891 123.06 116.864 122.883C116.276 121.2 115.695 119.525 115.244 117.797C114.732 115.848 114.021 113.99 113.432 112.018C112.362 108.5 111.048 105.059 110.024 101.518C109.703 100.429 109.221 99.4015 108.87 98.3355C108.594 97.6087 108.222 96.9223 107.762 96.295C107.35 95.5673 106.871 94.8791 106.332 94.2392C105.66 93.5311 104.804 93.0209 104.124 92.3737C102.335 90.7063 100.646 88.9474 98.9191 87.2267C98.6987 86.9772 98.5578 86.6681 98.5142 86.3386C98.4707 86.0092 98.5265 85.6742 98.6745 85.3765C98.6745 85.3079 98.8809 85.2546 98.9879 85.2623C99.104 85.2825 99.2109 85.3384 99.2936 85.4221C100.639 86.7546 102.014 88.0566 103.314 89.4271C104.73 90.7549 106.06 92.1715 107.295 93.6681C108.318 94.8808 109.432 96.0135 110.628 97.0564C110.675 97.089 110.729 97.1105 110.786 97.1193C110.843 97.1281 110.902 97.1239 110.957 97.1071C111.012 97.0902 111.063 97.0611 111.105 97.022C111.147 96.9829 111.18 96.9348 111.201 96.8813C111.292 96.6625 111.352 96.4317 111.377 96.196C111.377 95.4346 111.377 94.6123 111.377 93.8204C111.405 93.0462 111.648 92.295 112.08 91.6504C112.118 91.5971 112.271 91.6123 112.362 91.5895C112.408 92.191 112.867 92.6783 112.844 93.3027C112.802 93.972 112.802 94.6434 112.844 95.3128C112.926 96.2208 112.673 97.1274 112.133 97.8634C111.965 98.1147 111.82 98.3736 111.659 98.6248C111.499 98.8761 111.392 98.9294 111.392 99.0817C111.295 99.9254 111.336 100.779 111.514 101.61C112.126 103.406 112.706 105.219 113.31 107.023C114.839 111.637 116.393 116.254 117.972 120.873C118.052 121.091 118.155 121.3 118.278 121.497C118.408 121.703 118.775 121.794 118.92 121.657C120.211 120.477 121.595 119.419 122.993 118.376C123.237 118.189 123.453 117.968 123.635 117.721C123.735 117.591 123.842 117.317 123.773 117.241C123.322 116.708 123.643 116.023 123.406 115.505C123.156 115.022 123.055 114.477 123.116 113.937C123.223 113.328 122.703 112.924 122.734 112.376C122.795 111.394 122.183 110.526 122.306 109.543C122.159 109.347 122.056 109.122 122.003 108.883C121.951 108.644 121.949 108.397 122 108.158C122 107.602 121.465 107.191 121.633 106.635C121.801 106.079 121.297 105.721 121.289 105.257C121.289 103.802 120.624 102.485 120.395 101.077C120.234 100.087 119.761 99.1502 119.776 98.1147C119.771 98.0401 119.75 97.9676 119.713 97.9026C119.676 97.8377 119.624 97.7821 119.562 97.7401C119.5 97.6982 119.429 97.671 119.355 97.6607C119.281 97.6504 119.205 97.6572 119.134 97.6807C119.073 97.6807 118.996 97.6807 118.95 97.6807C118.061 98.1828 117.117 98.5837 116.138 98.8761C115.515 99.2393 114.811 99.4433 114.09 99.47C113.715 99.47 113.41 99.0208 113.585 98.7086C113.696 98.4268 113.878 98.1784 114.114 97.9876C114.35 97.7968 114.631 97.6701 114.93 97.6198C115.698 97.5241 116.453 97.3506 117.185 97.102C119.003 96.473 120.738 95.6268 122.351 94.5818C124.17 93.4092 125.928 92.1682 127.64 90.8357C128.305 90.4326 128.876 89.8926 129.314 89.252C129.681 88.5439 130.369 88.1175 130.69 87.3561C131.402 86.0186 131.971 84.6098 132.386 83.1532C132.921 82.6963 132.57 82.0035 132.868 81.44C133.092 80.8283 133.266 80.1993 133.387 79.5594C133.566 78.9296 133.701 78.2885 133.792 77.6406C133.877 77.2295 133.968 77.1381 134.389 77.1305C134.511 77.1229 134.633 77.1229 134.755 77.1305C135.015 77.1305 135.237 77.2447 135.229 77.5569C135.273 78.0951 135.234 78.6368 135.115 79.1634C134.996 79.5634 134.917 79.974 134.878 80.3893C134.809 80.8614 134.61 81.303 134.534 81.7674C134.5 82.0024 134.548 82.2418 134.671 82.4451C134.847 82.6887 135.084 82.506 135.306 82.3918C136.001 82.0339 136.697 81.676 137.415 81.3563C139.733 80.289 141.696 78.582 143.071 76.4376C143.729 75.5781 144.276 74.6392 144.698 73.6432C145.196 72.3732 145.577 71.0607 145.837 69.722C146.013 68.5419 146.487 67.3845 146.265 66.1587C146.224 65.981 146.249 65.7946 146.334 65.6333C146.612 65.1547 146.712 64.5942 146.617 64.0496C146.617 61.9177 146.617 59.7857 146.617 57.6538C146.655 57.3614 146.595 57.0647 146.449 56.8087C146.189 56.5568 145.858 56.3895 145.501 56.329C145.016 56.2781 144.528 56.2653 144.041 56.2909H142.207C141.252 55.6894 140.189 56.0244 139.15 55.9483C138.668 55.9483 138.088 56.0853 137.705 55.8721C137.032 55.5928 136.296 55.4956 135.573 55.5904C134.228 55.5904 132.883 55.5904 131.538 55.5904L131.507 55.5752Z" fill="black"/>
<path d="M263.327 293.148H259.299C258.692 293.242 258.071 293.141 257.526 292.858C257.358 292.736 257.052 292.797 256.815 292.79C256.148 292.86 255.474 292.836 254.813 292.721C254.241 292.538 253.648 292.428 253.048 292.394C252.635 292.394 252.283 292.036 251.855 292.028C251.389 291.945 250.927 291.835 250.472 291.701C249.986 291.704 249.506 291.6 249.066 291.396C248.791 291.237 248.355 291.351 247.988 291.32C247.094 291.259 246.169 291.518 245.313 290.993C245.078 290.931 244.83 290.931 244.595 290.993C243.456 291.077 242.302 290.757 241.186 291.328C240.947 291.378 240.699 291.378 240.46 291.328C239.854 291.292 239.249 291.401 238.695 291.648C238.236 291.876 237.64 291.648 237.113 291.914C236.585 292.181 235.645 291.914 235.034 292.409C234.101 292.249 233.299 292.858 232.367 292.82C231.898 292.884 231.437 292.994 230.991 293.148C230.568 293.139 230.148 293.222 229.76 293.391C229.187 293.742 228.4 293.285 227.85 293.818C226.994 293.772 226.207 294.221 225.381 294.221C224.556 294.221 224.028 294.701 223.264 294.655C222.548 294.666 221.843 294.836 221.201 295.15C220.436 295.455 219.58 295.082 218.946 295.691C218.014 295.516 217.204 296.14 216.279 296.094C215.622 296.094 215.064 296.521 214.345 296.49C213.695 296.545 213.056 296.697 212.45 296.939C211.988 297.056 211.518 297.14 211.044 297.191C210.652 297.33 210.251 297.439 209.844 297.518C209.248 297.568 208.66 297.691 208.094 297.884C207.566 297.99 207.024 297.884 206.504 298.203C206.244 298.378 205.793 298.264 205.434 298.272C204.946 298.213 204.452 298.306 204.02 298.538C203.798 298.631 203.556 298.665 203.317 298.637H197.264C197.142 298.645 197.019 298.645 196.897 298.637C196.718 298.601 196.551 298.517 196.417 298.394C196.282 298.27 196.184 298.112 196.133 297.937C196.133 297.701 196.133 297.45 196.133 297.175C196.064 296.467 196.331 295.729 195.934 295.051L193.756 294.967C193.573 294.967 193.343 294.914 193.213 294.967C192.365 295.485 191.433 295.242 190.538 295.295C189.995 295.274 189.453 295.367 188.949 295.569C188.475 295.677 187.988 295.71 187.504 295.668C186.618 295.736 185.67 295.439 184.845 296.003C184.172 296.003 183.5 296.003 182.827 296.003C182.161 295.91 181.483 296.008 180.87 296.285C180.649 296.429 180.282 296.346 179.976 296.361C178.715 296.445 177.424 296.14 176.208 296.703C175.957 296.758 175.696 296.758 175.444 296.703C174.68 296.703 173.977 296.703 173.243 296.703C172.579 296.606 171.901 296.707 171.294 296.993C171.073 297.137 170.698 297.061 170.4 297.061H164.714C164.229 297.14 163.732 297.049 163.308 296.802C163.143 296.725 162.962 296.691 162.78 296.703C162.108 296.703 161.435 296.703 160.763 296.703C160.09 296.703 159.662 296.285 159.012 296.323C158.363 296.361 157.782 295.835 157.094 295.942C156.628 295.523 156.062 295.63 155.52 295.615H154.236C153.447 295.537 152.651 295.554 151.867 295.668C151.102 295.873 150.3 295.828 149.643 296.307C147.434 296.604 145.393 297.465 143.292 298.127C142.558 298.388 141.843 298.699 141.152 299.056C139.757 299.737 138.255 300.175 136.711 300.351C136.092 300.389 135.618 300.861 134.961 300.754C134.413 300.689 133.859 300.689 133.31 300.754C132.661 300.8 132.087 301.234 131.377 301.127C130.778 300.99 130.156 300.99 129.558 301.127C128.671 301.416 127.739 301.279 126.898 301.515C126.08 301.713 125.241 301.818 124.399 301.828C123.864 301.828 123.428 302.292 122.87 302.201C122.386 302.099 121.88 302.192 121.464 302.46C121.243 302.604 120.876 302.528 120.578 302.543C120.151 302.513 119.724 302.594 119.34 302.779C119.061 302.891 118.759 302.933 118.461 302.901C116.688 302.901 114.914 302.901 113.111 302.901C112.625 302.905 112.149 302.773 111.735 302.521C110.428 301.759 109.053 301.18 107.761 300.396C106.544 299.756 105.263 299.246 103.94 298.873C103.324 298.631 102.674 298.485 102.014 298.439C101.387 298.439 100.776 298.005 100.08 298.112C99.9076 298.176 99.7176 298.176 99.5451 298.112C98.949 297.648 98.2612 297.83 97.6039 297.785C96.8264 297.854 96.0431 297.75 95.3111 297.48C94.8361 297.361 94.3414 297.343 93.859 297.427C88.2951 297.427 82.7313 297.427 77.1675 297.427C76.5037 297.552 75.8169 297.45 75.2186 297.137C75.0963 297.046 74.867 297.092 74.6912 297.076C73.8582 297.008 72.9716 297.267 72.2074 296.734C71.3361 296.879 70.5719 296.391 69.7312 296.307C69.1276 296.227 68.5723 295.936 68.1644 295.485C67.6524 294.96 67.1021 294.465 66.6359 293.962C66.4771 293.78 66.2773 293.638 66.0527 293.548C65.8282 293.458 65.5854 293.423 65.3443 293.445C63.0515 293.445 60.8199 293.445 58.5576 293.445C56.2954 293.445 54.1555 293.445 51.9544 293.445C51.1213 293.445 50.2424 293.239 49.4705 293.772C48.8591 293.772 48.2477 293.772 47.6363 293.772C46.9107 293.695 46.177 293.792 45.4964 294.054C45.1142 294.259 44.541 294.107 44.0595 294.137C43.1577 294.191 42.2559 293.993 41.377 294.442C40.9872 294.64 40.414 294.442 39.9249 294.503C39.2065 294.541 38.4498 294.32 37.8079 294.823C37.1965 294.823 36.585 294.823 35.9736 294.868C35.3683 294.801 34.7558 294.888 34.1929 295.12C33.7884 295.235 33.3654 295.271 32.9471 295.226C32.2287 295.28 31.4645 295.044 30.8225 295.561C30.2187 295.561 29.6073 295.561 28.9959 295.599C28.3845 295.637 27.7731 295.462 27.2228 295.873C27.0585 295.95 26.8757 295.979 26.6955 295.957H21.5596C21.5013 295.96 21.4438 295.941 21.3991 295.904C21.3251 295.82 21.275 295.717 21.2539 295.607C21.2539 295.508 21.338 295.333 21.3991 295.325C22.4767 295.219 23.4856 294.709 24.6014 294.861C24.8598 294.933 25.13 294.953 25.3963 294.921C25.6626 294.888 25.9198 294.803 26.1528 294.67C26.321 294.556 26.6267 294.625 26.8713 294.61C27.6501 294.684 28.4357 294.575 29.164 294.29C29.4927 294.115 30.0047 294.29 30.4251 294.236C31.0823 294.236 31.7625 294.381 32.3739 293.939C32.5421 293.818 32.8478 293.894 33.0924 293.879C33.8714 293.963 34.6592 293.853 35.3852 293.559C35.6603 293.399 36.1036 293.559 36.4704 293.505C37.1812 293.467 37.9225 293.658 38.6027 293.209C38.8167 293.064 39.1988 293.163 39.4969 293.148C40.3376 293.087 41.2165 293.338 41.9808 292.797C42.5922 292.797 43.2036 292.797 43.815 292.797C44.5413 292.875 45.2756 292.775 45.9549 292.508C46.3294 292.295 46.9103 292.47 47.3994 292.432C48.4159 292.356 49.4553 292.66 50.4564 292.112C50.7392 291.96 51.1825 292.074 51.5493 292.074C53.4982 292.074 55.4547 292.074 57.4112 292.074C58.1296 292.074 58.8786 292.257 59.5435 291.762C59.6582 291.671 59.8951 291.724 60.0785 291.724C61.8516 291.724 63.6247 291.724 65.4284 291.724C66.213 291.809 66.9563 292.118 67.5683 292.615C67.8664 292.797 67.9657 293.323 68.1415 293.703C68.2916 294.095 68.5576 294.432 68.9042 294.67C69.2508 294.908 69.6618 295.036 70.0827 295.036C71.0992 295.089 72.0698 295.538 73.1398 295.394C74.225 295.95 75.4326 295.691 76.5408 295.752C76.7165 295.752 76.9458 295.752 77.0681 295.813C77.667 296.123 78.3523 296.228 79.017 296.11C83.1746 296.11 87.3322 296.11 91.4898 296.11C92.0934 296.005 92.7146 296.096 93.2629 296.368C93.5491 296.471 93.856 296.502 94.157 296.46C94.9213 296.46 95.7467 296.46 96.5416 296.46C97.3364 296.46 98.1312 296.247 98.8344 296.772C98.9566 296.863 99.1935 296.772 99.377 296.772C100.046 296.722 100.718 296.722 101.387 296.772C101.946 296.986 102.538 297.099 103.137 297.107C104.841 297.632 106.668 297.868 108.082 299.094C109.488 299.749 110.787 300.693 112.415 300.769C113.194 301.116 114.054 301.24 114.899 301.127C116.053 301.127 117.192 301.127 118.377 301.127C119.217 301.127 120.081 301.325 120.876 300.807C121.044 300.693 121.35 300.807 121.594 300.769C122.496 300.716 123.428 300.937 124.261 300.419C124.934 300.419 125.607 300.419 126.279 300.419C126.764 300.486 127.259 300.401 127.693 300.175C127.914 300.08 128.156 300.041 128.396 300.061C129.351 300 130.337 300.236 131.247 299.719C131.384 299.642 131.606 299.719 131.789 299.719C132.5 299.635 133.219 299.84 133.937 299.467C134.655 299.094 135.397 299.521 136.016 299.003C136.739 298.974 137.447 298.792 138.095 298.47C141.243 297.373 144.362 296.186 147.571 295.234C147.969 294.868 148.557 295.12 148.947 294.891C149.337 294.663 149.902 294.716 150.338 294.579C152.126 294 153.961 294.343 155.764 294.221C156.873 294.153 157.874 294.655 158.951 294.739C159.272 294.739 159.624 294.96 159.991 294.967C160.657 294.865 161.339 294.975 161.94 295.28C162.154 295.424 162.536 295.325 162.841 295.325H174.03C174.512 295.347 174.992 295.261 175.437 295.074C175.907 294.965 176.391 294.927 176.873 294.96C177.768 294.868 178.7 295.203 179.548 294.64C179.724 294.526 180.03 294.64 180.274 294.602C181.169 294.541 182.109 294.792 182.942 294.252C183.553 294.252 184.164 294.252 184.776 294.252C185.609 294.198 186.472 294.45 187.267 293.939C187.489 293.795 187.863 293.894 188.169 293.894C189.331 293.894 190.462 293.894 191.654 293.894C192.259 293.998 192.881 293.896 193.42 293.604C193.589 293.537 193.773 293.514 193.955 293.536C194.811 293.536 195.667 293.536 196.523 293.536C196.915 293.556 197.284 293.725 197.554 294.008C197.825 294.292 197.975 294.668 197.975 295.059C197.975 295.478 197.975 295.912 197.975 296.33C197.984 296.544 198.071 296.746 198.221 296.899C198.37 297.053 198.571 297.145 198.785 297.16C199.763 297.16 200.741 297.16 201.72 297.16C202.277 297.16 202.69 296.681 203.248 296.787C203.725 296.902 204.223 296.902 204.7 296.787C205.394 296.597 206.106 296.477 206.825 296.429C207.514 296.23 208.225 296.11 208.942 296.071C209.53 295.577 210.386 295.912 210.975 295.417C211.907 295.554 212.717 294.952 213.634 294.998C214.315 294.998 214.865 294.48 215.56 294.61C216.172 294.092 217.012 294.465 217.639 294.115C218.266 293.764 218.992 294.054 219.519 293.559C220.444 293.696 221.262 293.132 222.187 293.14C222.645 293.14 223.096 292.858 223.562 292.82C224.288 292.759 224.915 292.394 225.679 292.379C226.298 292.379 226.933 292.074 227.605 292.021C228.07 291.926 228.529 291.807 228.981 291.663L230.907 291.282C231.475 291.097 232.067 290.989 232.665 290.962C233.429 290.399 234.484 290.863 235.248 290.27C236.18 290.483 236.99 289.843 237.907 289.866C238.626 289.866 239.253 289.394 240.024 289.493C240.757 289.539 241.493 289.539 242.226 289.493C242.53 289.519 242.834 289.45 243.097 289.295C243.169 289.248 243.251 289.216 243.336 289.201C243.422 289.187 243.509 289.19 243.594 289.211C244.511 289.752 245.512 289.508 246.452 289.462C247.629 289.417 248.684 289.973 249.838 289.942C250.25 290.3 250.755 290.209 251.236 290.239C251.415 290.253 251.59 290.294 251.756 290.361C252.567 290.759 253.458 290.97 254.362 290.978C255.317 291.526 256.372 291.305 257.419 291.32C259.62 291.32 261.821 291.32 264.022 291.32C264.868 291.439 265.73 291.334 266.522 291.016C266.85 290.833 267.362 290.97 267.79 290.97C271.703 290.97 275.616 290.97 279.529 290.97C280.179 290.97 280.882 291.145 281.463 290.658C282.063 290.607 282.667 290.638 283.259 290.749C283.713 290.906 284.192 290.984 284.673 290.978C286.079 290.978 287.485 290.978 288.892 290.978C289.131 290.964 289.369 291.016 289.579 291.13C289.763 291.274 289.899 291.471 289.969 291.693C290.061 291.899 289.839 292.051 289.472 292.059C288.708 292.059 288.005 292.059 287.271 292.059C286.788 291.999 286.297 292.078 285.857 292.287C285.58 292.403 285.277 292.445 284.978 292.409C284 292.409 283.022 292.409 282.044 292.409C281.439 292.333 280.824 292.428 280.271 292.683C279.923 292.796 279.554 292.825 279.193 292.767C276.564 292.767 273.935 292.767 271.306 292.767C270.473 292.767 269.609 292.577 268.814 293.079C268.585 293.216 268.211 293.117 267.905 293.117L263.327 293.148Z" fill="black"/>
<path d="M177.477 86.2438C177.776 86.2361 178.073 86.2825 178.356 86.3808C178.734 86.577 179.16 86.6641 179.586 86.6321C180.191 86.5319 180.811 86.6421 181.344 86.9442C181.466 87.0356 181.703 86.9823 181.879 86.9899C182.72 87.0508 183.598 86.8072 184.363 87.3402C185.265 87.2793 186.166 87.5305 187.061 87.1422C187.465 87.0278 187.886 86.979 188.306 86.9976C189.2 86.929 190.133 87.1955 190.981 86.6625C191.111 86.5788 191.34 86.6625 191.524 86.6625C192.188 86.754 192.865 86.6425 193.465 86.3428C193.679 86.1981 194.061 86.3047 194.367 86.2971C194.91 86.2971 195.467 86.396 195.957 86.0153C196.079 85.9164 196.3 85.9468 196.484 85.9316C198.593 85.7869 202.392 84.622 204.18 83.2362C204.668 82.8766 205.209 82.5965 205.785 82.4063C206.116 82.2552 206.485 82.2057 206.844 82.264C207.203 82.3223 207.537 82.4858 207.803 82.7337C208.984 83.9337 210 85.2857 210.822 86.7539C211.303 87.5153 211.792 88.2767 212.258 89.0381C212.613 89.5947 212.935 90.1719 213.221 90.7665C213.363 91.0342 213.436 91.3321 213.436 91.6345C213.436 91.9369 213.363 92.2348 213.221 92.5025C212.358 94.0862 211.693 95.7461 210.699 97.2765C209.843 98.647 208.857 99.949 208.093 101.358C206.893 103.573 205.281 105.515 204.081 107.738C203.179 109.413 201.895 110.875 200.886 112.505C199.877 114.134 198.486 115.649 197.462 117.332C196.407 118.253 195.788 119.555 194.718 120.469C194.21 120.899 193.781 121.415 193.45 121.992C193.055 122.53 192.587 123.012 192.059 123.423C191.914 123.536 191.735 123.597 191.551 123.597C191.366 123.597 191.187 123.536 191.042 123.423C190.813 123.225 190.599 123.004 190.385 122.791C189.692 122.122 188.959 121.494 188.192 120.91C187.444 120.307 186.666 119.743 185.861 119.22C185.761 119.152 185.616 119.129 185.547 119.045C184.944 118.284 184.019 117.865 183.323 117.202C182.056 116.054 180.852 114.84 179.716 113.563C178.836 112.579 178.022 111.539 177.278 110.449C176.613 109.39 175.956 108.309 175.268 107.258C174.467 105.858 173.584 104.505 172.624 103.208C171.71 102.022 170.876 100.778 170.124 99.4845C169.817 99.0382 169.58 98.5478 169.421 98.0303C169.299 97.5734 169.421 97.0633 169.047 96.6521C169.02 96.5977 169.006 96.5378 169.006 96.477C169.006 96.4163 169.02 96.3564 169.047 96.3019C169.429 95.4339 169.444 94.3832 170.231 93.7283C171.324 92.8299 171.982 91.566 172.983 90.599C173.158 90.4304 173.305 90.235 173.418 90.0203C174.086 88.8829 174.926 87.8554 175.91 86.9747C176.089 86.7318 176.326 86.5376 176.6 86.4099C176.873 86.2822 177.175 86.225 177.477 86.2438V86.2438ZM191.998 99.0582H189.797C189.552 99.0582 189.239 99.1267 189.078 99.0125C188.549 98.6928 187.919 98.5841 187.313 98.7079C186.411 98.707 185.522 98.4985 184.714 98.0988C183.724 97.6565 182.792 97.0939 181.94 96.4237C181.536 96.1697 181.146 95.8952 180.771 95.6014C180.565 95.3304 180.419 95.0201 180.34 94.6898C180.261 94.3596 180.251 94.0167 180.312 93.6827C180.331 93.4417 180.398 93.2069 180.509 92.9924C180.621 92.7778 180.775 92.5879 180.962 92.434C181.466 92.0228 181.772 91.3223 182.574 91.3604C183.551 90.9256 184.578 90.6111 185.631 90.4239C186.426 90.1674 187.251 90.0114 188.085 89.9594C189.949 89.9594 191.845 89.5787 193.687 90.2564C194.069 90.401 194.543 90.2564 194.932 90.4239C196.198 90.7914 197.428 91.2704 198.609 91.8553C199.289 92.2284 200.038 92.5025 200.703 92.906C200.984 93.0879 201.306 93.1988 201.64 93.2293C201.974 93.2598 202.311 93.209 202.621 93.0811C203.361 92.8467 204.08 92.5486 204.769 92.1903C205.312 91.9301 205.792 91.5547 206.175 91.0905C206.558 90.6262 206.834 90.0843 206.985 89.5026C207.072 89.1561 207.12 88.8012 207.13 88.4442C207.13 87.5305 207.13 86.6168 207.13 85.7032C207.13 85.2692 207.13 84.8504 207.68 84.7057C207.803 84.7057 207.604 84.2413 207.382 84.1956C207.01 84.0565 206.611 84.0014 206.214 84.0343C205.818 84.0672 205.434 84.1873 205.09 84.3859C204.746 84.6296 204.386 84.8428 204.042 85.0788C203.699 85.3149 203.584 85.391 203.851 85.7488C204.234 86.2742 204.272 86.3123 203.935 86.6702C203.607 87.1001 203.323 87.5618 203.087 88.0483C202.897 88.3517 202.68 88.6372 202.438 88.9011C202.252 89.0577 202.027 89.1604 201.787 89.198C201.547 89.2356 201.302 89.2067 201.077 89.1142C200.568 88.7987 200.078 88.4529 199.61 88.0788C199.56 88.0433 199.519 87.9976 199.488 87.9448C199.458 87.892 199.439 87.8334 199.433 87.7728C199.427 87.7122 199.435 87.6511 199.455 87.5935C199.475 87.536 199.507 87.4833 199.549 87.4392C199.634 87.3507 199.713 87.2566 199.786 87.1574C199.858 87.0196 199.922 86.8771 199.977 86.7311C199.803 86.6896 199.627 86.659 199.449 86.6397C199.273 86.6397 199.037 86.594 198.914 86.693C198.318 87.1879 197.455 86.8224 196.874 87.3478C196.064 87.2107 195.345 87.66 194.581 87.7437C194.115 87.797 193.664 88.0254 193.198 88.0864C192.597 88.0928 192.001 88.1931 191.432 88.3833C190.838 88.5173 190.226 88.5508 189.621 88.4823C189.502 88.4875 189.385 88.5159 189.277 88.566C188.039 89.0838 186.747 88.7259 185.456 88.8097C184.623 88.2843 183.69 88.5128 182.796 88.4595C182.551 88.4595 182.246 88.5356 182.07 88.4214C181.306 87.896 180.411 88.1549 179.578 88.1016C178.971 88.1665 178.358 88.0555 177.813 87.7818C177.675 87.7108 177.517 87.6894 177.365 87.7213C177.213 87.7532 177.077 87.8365 176.98 87.9569C176.889 88.0338 176.82 88.1338 176.781 88.2463C176.781 88.2996 176.911 88.4366 176.988 88.4366C177.538 88.4366 178.088 88.4366 178.638 88.4366C178.791 88.4318 178.942 88.4673 179.076 88.5395C179.21 88.6117 179.323 88.7181 179.403 88.8478C179.494 88.9772 179.563 89.2513 179.494 89.3351C179.186 89.7852 178.798 90.175 178.348 90.4848C177.728 90.8642 177.167 91.3309 176.682 91.8705C176.231 92.2893 175.834 92.7537 175.375 93.1573C174.118 94.2954 173.107 95.6761 172.402 97.2156C172.257 97.5125 172.203 97.9008 171.737 97.977C171.492 98.0379 171.485 98.3424 171.645 98.5785C171.875 98.9287 172.096 99.2942 172.326 99.6444C172.906 100.543 173.556 101.411 174.068 102.355C174.832 103.779 175.887 105.028 176.674 106.436C176.766 106.596 176.865 106.611 176.934 106.436C177.286 105.675 177.866 105.888 178.463 106.086C178.678 106.189 178.912 106.251 179.15 106.269C180.075 106.185 180.885 106.824 181.81 106.665C182.506 107.274 183.438 106.901 184.24 107.281C185.043 107.662 185.868 107.38 186.709 107.685C187.427 107.824 188.163 107.845 188.887 107.746C189.427 107.743 189.963 107.645 190.469 107.456C191.857 107.026 193.317 106.876 194.764 107.015C195.126 107.037 195.473 107.169 195.757 107.394C196.042 107.619 196.25 107.925 196.354 108.271C196.514 108.601 196.562 108.974 196.492 109.333C196.422 109.693 196.236 110.02 195.964 110.266C195.406 110.738 194.887 111.248 194.352 111.743C193.679 111.743 193.007 111.796 192.334 111.743C191.379 111.697 190.393 111.949 189.476 111.416C189.292 111.309 188.994 111.416 188.75 111.416C188.199 111.416 187.649 111.416 187.106 111.416C186.342 111.461 185.509 111.21 184.814 111.751H182.429C181.864 111.309 180.969 111.484 180.557 110.738C180.449 110.591 180.307 110.471 180.144 110.388C180.036 110.346 179.916 110.346 179.808 110.388C179.769 110.388 179.754 110.593 179.808 110.654C180.625 111.842 181.573 112.939 182.475 114.058C183.744 115.626 185.532 116.662 186.908 118.093C187.022 118.223 187.229 118.253 187.374 118.36C188.574 119.258 189.781 120.149 190.966 121.078C191.73 121.717 191.952 121.74 192.54 120.979C192.793 120.644 192.976 120.256 193.243 119.936C194.222 118.794 195.078 117.553 195.987 116.365C197.004 115.032 198.005 113.685 199.006 112.337C199.541 111.614 200.191 110.959 200.703 110.236C201.872 108.568 203.156 106.984 204.287 105.286C205.907 102.842 207.344 100.292 208.873 97.7638C209.721 96.3171 210.455 94.8095 211.402 93.4162C211.809 92.8801 212 92.2121 211.937 91.5431C211.891 91.1853 211.937 90.7817 211.937 90.4467C211.935 90.2679 211.888 90.0924 211.8 89.9366C211.097 88.9696 210.378 88.0178 209.652 87.0661C209.631 87.0547 209.607 87.0488 209.583 87.0488C209.559 87.0488 209.536 87.0547 209.515 87.0661C209.469 87.0661 209.4 87.1727 209.415 87.2031C209.577 87.6475 209.79 88.0717 210.05 88.4671C210.385 88.965 210.679 89.4896 210.928 90.0355C211.142 90.3675 211.255 90.7532 211.255 91.1472C211.255 91.5412 211.142 91.9269 210.928 92.2588C210.21 93.4923 209.553 94.7791 208.865 96.0659C208.804 96.1725 208.674 96.2334 208.62 96.3399C207.933 97.6724 206.962 98.8373 206.274 100.147C206.196 100.37 206.045 100.56 205.846 100.687C205.646 100.814 205.409 100.871 205.174 100.847C204.934 100.842 204.698 100.79 204.479 100.693C204.26 100.596 204.062 100.457 203.897 100.284C203.324 99.708 202.632 99.2622 201.87 98.977C201.107 98.6919 200.292 98.5741 199.48 98.6318C199.296 98.6318 199.113 98.6318 198.93 98.6318C197.493 98.746 196.018 98.3577 194.611 98.9744C194.372 99.0206 194.125 99.0206 193.885 98.9744L191.998 99.0582ZM209.69 91.2005C209.752 90.4391 209.69 90.0051 209.324 89.7158C208.957 89.4264 209.01 88.7716 208.475 88.5889C208.047 89.0381 208.353 89.5863 208.261 90.1117C208.257 90.1725 208.257 90.2336 208.261 90.2944C208.182 90.9431 207.979 91.5709 207.665 92.1446C207.39 92.7081 206.725 92.868 206.213 93.1801C206.121 93.241 205.968 93.1801 205.861 93.2487C204.815 93.6705 203.73 93.9892 202.621 94.2004C201.459 94.4441 200.267 94.642 199.205 93.6674C198.586 93.104 196.339 92.4416 195.039 92.1446C194.428 91.6269 193.603 91.9847 192.961 91.6573C192.196 91.2614 191.432 91.4594 190.668 91.4441C189.651 91.4441 188.604 91.269 187.611 91.7868C186.036 91.8401 184.607 92.4644 183.117 92.8756C182.772 92.9769 182.462 93.172 182.223 93.439C181.688 93.9796 181.711 94.5811 182.33 94.9618C183.193 95.4948 184.08 95.9973 184.974 96.4846C185.872 97.0921 186.949 97.3793 188.031 97.2993C188.27 97.2658 188.514 97.317 188.719 97.444C189.039 97.6248 189.411 97.6919 189.774 97.6343C190.668 97.5887 191.6 97.8475 192.441 97.3145C192.579 97.2308 192.8 97.3145 192.984 97.3145H201.031C201.332 97.3023 201.631 97.3542 201.91 97.4668C202.72 97.8475 203.53 98.2282 204.302 98.7155C205.074 99.2028 205.242 99.18 205.747 98.4871C206.129 97.9617 206.435 97.3755 206.794 96.8273C207.482 95.7765 208.063 94.6649 208.773 93.6218C209.233 92.8836 209.538 92.0597 209.667 91.2005H209.69ZM186.762 110.022C187.741 110.091 188.902 109.824 190.003 110.357C190.243 110.404 190.489 110.404 190.729 110.357C191.399 110.323 192.069 110.323 192.739 110.357C193.073 110.406 193.414 110.361 193.724 110.226C194.033 110.092 194.298 109.873 194.489 109.596C194.596 109.451 194.749 109.337 194.864 109.2C194.922 109.129 194.962 109.045 194.98 108.956C194.999 108.866 194.996 108.774 194.971 108.686C194.946 108.598 194.901 108.517 194.838 108.45C194.776 108.383 194.698 108.332 194.611 108.302C194.288 108.147 193.922 108.107 193.572 108.187C192.96 108.447 192.294 108.557 191.631 108.507C191.449 108.502 191.269 108.547 191.111 108.637C190.62 108.881 190.062 108.961 189.521 108.865C188.902 108.865 188.421 109.39 187.771 109.238C187.481 109.177 187.091 109.322 186.877 109.185C186.113 108.682 185.349 108.949 184.584 108.873C184.222 108.901 183.857 108.865 183.507 108.766C182.689 108.324 181.848 108.553 181.015 108.545C180.984 108.547 180.954 108.557 180.929 108.574C180.903 108.592 180.883 108.616 180.87 108.644C180.867 108.672 180.87 108.7 180.879 108.727C180.888 108.753 180.903 108.777 180.924 108.796C181.252 109.154 181.604 109.489 181.925 109.855C182.108 110.101 182.377 110.271 182.678 110.333C182.98 110.395 183.294 110.344 183.56 110.19C183.944 110.011 184.368 109.933 184.791 109.961L186.762 110.022Z" fill="black"/>
<path d="M174.581 34.735H172.571C172.026 34.8309 171.466 34.7311 170.989 34.4533C170.905 34.3848 170.759 34.4 170.637 34.3848C169.98 34.2934 169.269 34.5751 168.665 34.2021C168.062 33.829 167.412 34.202 166.915 33.8823C166.418 33.5625 165.539 33.8823 165.035 33.3036C163.836 33.184 162.68 32.7989 161.649 32.1767C160.653 31.6264 159.698 31.0055 158.791 30.3189C157.782 29.6184 156.995 28.7047 156.07 27.9281C155.359 27.1864 154.892 26.246 154.733 25.2327C154.511 24.4046 154.511 23.533 154.733 22.7049C155.084 21.4562 155.245 20.1313 155.971 18.9969C157.102 17.238 157.171 16.7126 159.288 15.2812C160.052 14.3675 161.183 14.0097 162.1 13.3396C162.672 13.0152 163.28 12.7596 163.912 12.5782C164.852 12.1823 165.86 12.0529 166.831 11.7483C167.493 11.6385 168.167 11.6205 168.833 11.695H171.034C171.699 11.6153 172.371 11.6359 173.029 11.7559C173.604 11.9181 174.192 12.0302 174.787 12.0909C175.197 12.1933 175.586 12.3687 175.933 12.6087C176.293 12.8344 176.632 13.0891 176.95 13.3701C176.977 13.4205 176.991 13.4767 176.991 13.5338C176.991 13.5909 176.977 13.6471 176.95 13.6975C176.904 13.7812 176.721 13.8879 176.667 13.8574C176.048 13.5376 175.345 13.6975 174.734 13.5224C172.578 12.898 170.393 13.294 168.214 13.2026C166.834 13.1904 165.469 13.4843 164.217 14.063C163.152 14.4723 162.128 14.9822 161.16 15.5858C160.29 16.2421 159.475 16.9678 158.722 17.7558C158.176 18.2316 157.714 18.7952 157.354 19.4232C156.727 20.6308 156.301 21.9321 156.093 23.2759C156.083 24.0571 156.267 24.8287 156.628 25.5221C157.07 26.4425 157.581 27.3283 158.157 28.1718C158.247 28.3349 158.379 28.4715 158.539 28.5677C159.555 29.093 160.312 29.9611 161.374 30.456C162.868 31.2156 164.416 31.8646 166.006 32.3975C166.285 32.5022 166.579 32.5664 166.877 32.5879C167.423 32.5222 167.977 32.6203 168.467 32.8696C168.754 32.9665 169.061 32.9927 169.361 32.9457H172.471C172.956 32.8755 173.45 32.9581 173.885 33.1818C174.103 33.2788 174.342 33.3206 174.581 33.3036C175.597 33.3493 175.949 33.0523 175.941 32.0854C176.051 31.4238 175.949 30.7446 175.651 30.1438C175.55 29.8579 175.55 29.5464 175.651 29.2606C175.651 29.1387 175.88 28.9941 176.025 28.956C176.17 28.9179 176.461 28.956 176.522 29.0474C176.824 29.4199 177.02 29.8673 177.087 30.3417C177.198 31.11 177.438 31.8541 177.798 32.5422C177.827 32.6582 177.895 32.7605 177.991 32.8315C178.088 32.9024 178.206 32.9375 178.326 32.9305C179.09 32.8848 179.915 33.1513 180.618 32.6183C181.397 32.5874 182.169 32.4516 182.911 32.2148C183.399 32.1861 183.871 32.0258 184.275 31.7508C184.678 31.4759 185 31.0967 185.204 30.6539C185.324 30.4479 185.485 30.269 185.678 30.1286C185.73 30.1024 185.788 30.0888 185.846 30.0888C185.904 30.0888 185.962 30.1024 186.014 30.1286C186.067 30.1522 186.114 30.1869 186.152 30.2302C186.19 30.2736 186.219 30.3246 186.236 30.3798C186.314 30.7663 186.308 31.1653 186.217 31.5492C186.126 31.933 185.952 32.2926 185.708 32.6031C185.269 33.1916 184.616 33.5852 183.889 33.6995C183.537 33.7491 183.189 33.8281 182.85 33.9356C182.407 34.0955 181.849 33.9356 181.428 34.1335C180.993 34.3372 180.519 34.4462 180.038 34.4533C179.327 34.4533 178.562 34.263 177.928 34.7883H175.727L174.581 34.735Z" fill="black"/>
<path d="M166.258 25.6057C166.021 25.6057 165.768 25.6057 165.531 25.6057C164.003 25.7732 162.734 25.0422 161.45 24.4179C160.541 23.9763 160.487 22.9788 160.182 22.1337C160.159 22.015 160.175 21.8924 160.227 21.7835C160.547 20.9291 161.158 20.2145 161.955 19.7657C162.643 19.4383 163.262 18.8749 164.133 19.0043C164.836 19.1033 165.593 18.814 166.25 19.3013C166.334 19.3698 166.479 19.3546 166.601 19.3698C168.031 19.5577 169.352 20.233 170.339 21.2809C170.69 21.6159 171.042 21.951 171.37 22.3164C171.501 22.4411 171.656 22.5373 171.826 22.5989C171.995 22.6605 172.176 22.6862 172.356 22.6743C173.021 22.7276 173.029 22.8646 172.83 23.4357C172.739 23.6907 172.581 23.9168 172.373 24.0908C172.165 24.2648 171.914 24.3803 171.646 24.4255C170.82 24.6083 170.071 24.9661 169.276 25.1869C168.953 25.3361 168.615 25.4509 168.268 25.5295C167.603 25.5828 166.93 25.5295 166.258 25.5295V25.6057ZM165.012 20.4891C164.89 20.4967 164.767 20.4967 164.645 20.4891C164.194 20.458 163.742 20.5352 163.327 20.714C162.912 20.8929 162.546 21.1682 162.26 21.517C162.155 21.612 162.089 21.7432 162.077 21.8843C162.064 22.0254 162.105 22.1661 162.192 22.2784C162.39 22.5753 162.558 22.8875 162.765 23.1768C162.803 23.2301 162.971 23.2377 163.055 23.1768C163.166 23.1252 163.257 23.0399 163.315 22.9332C163.478 22.4878 163.707 22.0695 163.995 21.6921C164.426 21.378 164.896 21.1219 165.394 20.9307C165.506 20.891 165.616 20.8452 165.723 20.7936C165.791 20.7275 165.848 20.6502 165.891 20.5652C165.782 20.5194 165.67 20.4837 165.554 20.4586C165.379 20.4814 165.195 20.4891 165.012 20.4891Z" fill="black"/>
<path d="M169.071 36.5549C169.914 36.4734 170.765 36.58 171.562 36.867C171.952 37.0574 172.517 36.867 173.007 36.9203C174.26 37.0117 175.552 36.6462 176.759 37.263H178.769C179.312 37.263 179.862 37.2629 180.405 37.3086C180.519 37.3086 180.664 37.5523 180.695 37.697C180.726 37.8416 180.695 38.1309 180.588 38.1919C180.218 38.4966 179.766 38.6848 179.289 38.7325C178.738 38.7325 178.188 38.7325 177.646 38.7325C177.404 38.6937 177.156 38.7223 176.929 38.815C176.703 38.9077 176.506 39.0609 176.362 39.2578C176.145 39.5575 175.83 39.772 175.471 39.8638C175.112 39.9557 174.732 39.9191 174.397 39.7603C173.801 39.5091 173.175 39.6461 172.647 39.4253C172.092 39.1988 171.497 39.0849 170.897 39.0903C170.591 39.0903 170.477 38.8771 170.462 38.6182C170.446 38.3594 170.339 38.032 169.949 38.0244C169.185 38.0244 168.482 38.0244 167.756 38.0244C167.523 37.9932 167.3 37.9071 167.106 37.7731C166.976 37.697 166.808 37.5751 166.946 37.3391C167.175 36.9203 167.29 36.4102 167.978 36.5777C168.342 36.6045 168.708 36.5968 169.071 36.5549V36.5549Z" fill="black"/>
<path d="M163.668 44.6866C163.783 44.6866 163.928 44.6181 164.012 44.6866C164.492 44.9351 164.938 45.242 165.342 45.6003C166.389 46.6815 167.833 47.0394 169.079 47.7627C169.298 47.8597 169.535 47.9066 169.775 47.8998C170.264 47.8998 170.753 47.8998 171.242 47.8998C172.445 47.8815 173.617 47.5194 174.62 46.8566C175.391 46.3769 176.095 45.7983 176.714 45.1359C177.096 44.7475 177.478 44.3745 177.914 44.0166C177.914 44.0166 178.013 44.0166 178.044 44.0166C178.091 44.0554 178.123 44.1092 178.136 44.1689C178.17 44.2857 178.17 44.41 178.136 44.5268C177.341 46.091 176.13 47.4078 174.635 48.3338C173.984 48.7765 173.215 49.0127 172.427 49.0114C171.853 49.0114 171.265 49.2931 170.684 49.3236C170.103 49.354 169.576 48.8591 168.934 48.981C168.449 49.0271 167.964 48.9061 167.558 48.6383C166.48 48.235 165.511 47.5857 164.73 46.7424C164.295 46.1866 163.913 45.5775 163.53 44.976C163.5 44.9303 163.615 44.7856 163.668 44.6866Z" fill="black"/>
<path d="M190.195 115.147C191.068 115.061 191.95 115.19 192.763 115.52C192.847 115.544 192.926 115.586 192.993 115.643C193.06 115.699 193.113 115.77 193.15 115.85C193.187 115.929 193.207 116.016 193.207 116.103C193.207 116.191 193.189 116.278 193.152 116.357C192.648 117.378 192.144 118.398 191.624 119.403C191.528 119.536 191.406 119.649 191.265 119.735C191.125 119.821 190.969 119.879 190.806 119.904C190.643 119.93 190.477 119.923 190.317 119.884C190.157 119.845 190.006 119.775 189.874 119.677C189.517 119.276 189.195 118.845 188.911 118.39C188.465 117.752 188.078 117.074 187.757 116.365C187.708 116.235 187.69 116.096 187.704 115.959C187.718 115.821 187.764 115.688 187.838 115.571C187.912 115.454 188.012 115.355 188.13 115.283C188.249 115.211 188.383 115.167 188.521 115.154C189.018 115.124 189.568 115.147 190.195 115.147Z" fill="black"/>
</g>
<defs>
<clipPath id="clip0_14351_6924">
<rect width="290" height="303" fill="white"/>
</clipPath>
</defs>
</svg>
