<svg width="398" height="71" viewBox="0 0 398 71" fill="none" xmlns="http://www.w3.org/2000/svg">
<rect width="398" height="71" fill="#32BDE3"/>
<g clip-path="url(#clip0_316_5400)">
<path d="M129.084 28.4182L132.616 25.1502L138.029 32.6905H139.928L133.755 24.024L139.439 18.6431H137.379L129.084 26.5375V18.6431H127.536V32.6905H129.084V28.4182Z" fill="#F1EBF5"/>
<path d="M147.222 18.2659C146.243 18.2235 145.265 18.3782 144.345 18.7211C143.426 19.0639 142.583 19.588 141.866 20.2628C141.176 20.9771 140.639 21.827 140.289 22.7598C139.938 23.6925 139.782 24.688 139.83 25.6844C139.79 26.6694 139.95 27.6522 140.3 28.5725C140.651 29.4928 141.183 30.3312 141.866 31.0363C142.575 31.725 143.416 32.2608 144.336 32.6111C145.257 32.9614 146.239 33.1188 147.222 33.0738C148.206 33.1164 149.189 32.9597 150.111 32.6127C151.034 32.2657 151.879 31.7356 152.595 31.0537C153.285 30.3424 153.822 29.4955 154.173 28.5658C154.525 27.6362 154.683 26.6435 154.638 25.6496C154.684 24.6528 154.527 23.6572 154.175 22.7244C153.824 21.7917 153.286 20.9419 152.595 20.2279C151.873 19.5589 151.026 19.041 150.103 18.7042C149.181 18.3674 148.202 18.2185 147.222 18.2659ZM151.439 30.1192C150.889 30.6769 150.23 31.1127 149.504 31.3985C148.778 31.6844 148.001 31.8141 147.222 31.7793C146.449 31.8156 145.678 31.6865 144.958 31.4003C144.238 31.1142 143.586 30.6776 143.045 30.1192C142.504 29.5222 142.085 28.823 141.812 28.0618C141.54 27.3007 141.419 26.4927 141.458 25.6844C141.418 24.8732 141.537 24.0621 141.81 23.2979C142.083 22.5338 142.502 21.8316 143.045 21.2322C143.59 20.6804 144.243 20.2494 144.962 19.9665C145.681 19.6837 146.451 19.5552 147.222 19.5894C147.999 19.557 148.774 19.6861 149.5 19.9686C150.225 20.2512 150.885 20.6813 151.439 21.2322C152.523 22.4498 153.087 24.0496 153.01 25.6844C153.087 27.3087 152.522 28.8975 151.439 30.1018V30.1192Z" fill="#F1EBF5"/>
<path d="M159.005 18.6431H157.457V32.6905H167.421V31.3438H159.005V18.6431Z" fill="#F1EBF5"/>
<path d="M171.517 26.1428H180.049V24.8367H171.517V19.9665H180.382V18.6431H169.964V32.6905H180.52V31.367H171.517V26.1428Z" fill="#F1EBF5"/>
<path d="M189.576 26.7349H194.914V27.1703C194.88 28.2578 194.474 29.2998 193.764 30.1191C192.976 31.0884 191.463 31.7618 189.622 31.7618C188.842 31.8043 188.063 31.674 187.338 31.3802C186.614 31.0864 185.962 30.6361 185.428 30.061C184.381 28.856 183.833 27.2912 183.898 25.6901C183.821 24.0595 184.376 22.4629 185.445 21.2378C186.453 20.3 187.739 19.7235 189.105 19.5976C190.47 19.4717 191.839 19.8033 192.999 20.5413C193.769 21.1117 194.324 21.931 194.569 22.8631L196.117 22.6252C195.837 21.4707 195.198 20.4372 194.293 19.6764C192.971 18.6717 191.344 18.1608 189.691 18.231C187.418 18.231 185.612 18.9043 184.295 20.2684C183.626 20.9868 183.106 21.833 182.766 22.7571C182.426 23.6813 182.273 24.6647 182.316 25.6494C182.236 27.6332 182.935 29.5686 184.26 31.0362C184.923 31.7274 185.723 32.2685 186.609 32.6238C187.495 32.9791 188.445 33.1403 189.397 33.0969C192.049 33.0969 194.069 31.965 194.949 30.0668L195.127 32.7022H196.278V25.4114H189.547L189.576 26.7349Z" fill="#F1EBF5"/>
<path d="M205.971 18.6431H204.418L198.09 32.6963H199.718L201.363 28.8942H209.072L210.717 32.6963H212.346L205.971 18.6431ZM201.91 27.5533L204.211 22.1665C204.583 21.4724 204.903 20.7505 205.166 20.0072H205.206C205.479 20.7456 205.8 21.465 206.167 22.1607L208.468 27.5475L201.91 27.5533Z" fill="#F1EBF5"/>
<path d="M232.262 30.7342C232.941 30.0655 233.472 29.2596 233.821 28.3693C234.17 27.4791 234.329 26.5244 234.287 25.568C234.334 24.6251 234.18 23.6829 233.835 22.8055C233.489 21.928 232.961 21.1359 232.285 20.483C230.812 19.2058 228.909 18.5472 226.969 18.6429H221.124V32.6962H226.923C227.897 32.7409 228.87 32.5906 229.787 32.2538C230.703 31.9171 231.544 31.4006 232.262 30.7342ZM222.695 19.9664H226.888C228.433 19.8859 229.947 20.4194 231.105 21.4524C231.635 21.9906 232.047 22.635 232.315 23.3439C232.582 24.0528 232.699 24.8105 232.659 25.568C232.694 26.3352 232.577 27.1018 232.314 27.8226C232.051 28.5433 231.648 29.2037 231.128 29.7648C230.583 30.3081 229.932 30.7312 229.216 31.007C228.5 31.2828 227.734 31.4053 226.969 31.3669H222.695V19.9664Z" fill="#F1EBF5"/>
<path d="M238.671 26.1428H247.208V24.8367H238.671V19.9665H247.536V18.6431H237.123V32.6905H247.674V31.367H238.671V26.1428Z" fill="#F1EBF5"/>
<path d="M253.421 21.7138L261.694 32.6963H263.5V18.6431H262.091V29.3296C262.091 29.7881 262.091 30.3396 262.126 30.9897H262.091C261.835 30.4733 261.539 29.9784 261.205 29.5095L253.024 18.6431H251.126V32.6963H252.535V21.8879C252.535 21.4351 252.535 20.8779 252.495 20.2452H252.535C252.792 20.7574 253.088 21.2485 253.421 21.7138Z" fill="#F1EBF5"/>
<path d="M272.636 32.6905V19.9665H278.05V18.6431H265.692V19.9665H271.089V32.6905H272.636Z" fill="#F1EBF5"/>
<path d="M278.124 32.6963L279.775 28.8942H287.478L289.129 32.6963H290.781L284.452 18.6431H282.905L276.496 32.6963H278.124ZM282.657 22.1839C283.028 21.4853 283.342 20.7573 283.595 20.0072H283.635C283.913 20.7435 284.234 21.4626 284.596 22.1607L286.897 27.5475H280.339L282.657 22.1839Z" fill="#F1EBF5"/>
<path d="M303.167 31.3438H294.756V18.6431H293.203V32.6905H303.167V31.3438Z" fill="#F1EBF5"/>
<path d="M324.147 31.4481C323.583 31.5904 322.991 31.5811 322.431 31.4213C321.871 31.2614 321.362 30.9565 320.955 30.5367C322.214 29.0157 322.933 27.1134 322.997 25.1325L321.679 24.9584C321.591 26.6322 321.026 28.2446 320.051 29.6022L315.794 25.3299L316.697 24.8133C317.366 24.4815 317.932 23.9734 318.338 23.3428C318.743 22.7123 318.971 21.9828 318.999 21.2318C318.999 19.3336 317.583 18.103 315.386 18.103C313.188 18.103 311.761 19.4091 311.761 21.3711C311.761 22.6191 312.365 23.693 313.798 25.15L313.487 25.3299C311.428 26.4909 310.501 27.5473 310.501 29.2075C310.492 29.7424 310.609 30.2719 310.841 30.753C311.072 31.2341 311.414 31.6532 311.836 31.9763C312.897 32.7589 314.195 33.1447 315.507 33.0676C317.142 33.088 318.733 32.527 320 31.4829C320.828 32.3224 321.944 32.8104 323.118 32.847C323.481 32.8531 323.843 32.8062 324.193 32.7077L324.147 31.4481ZM313.182 21.3363C313.182 19.9663 313.93 19.2756 315.322 19.2756C316.715 19.2756 317.52 20.0302 317.52 21.2956C317.532 21.8827 317.37 22.46 317.055 22.9541C316.741 23.4481 316.288 23.8367 315.754 24.0703L314.948 24.5289C313.597 23.1183 313.182 22.3637 313.182 21.3363ZM315.558 31.8254C314.645 31.8642 313.743 31.6058 312.987 31.0882C312.666 30.8752 312.403 30.5846 312.223 30.2429C312.042 29.9012 311.948 29.5193 311.951 29.132C311.951 27.9246 312.555 27.2106 314.252 26.2296L314.586 26.0323L319.056 30.5832C318.067 31.3912 316.831 31.83 315.558 31.8254Z" fill="#F1EBF5"/>
<path d="M132.144 38.4312L125.787 52.4786H127.398L129.049 48.6765H136.752L138.403 52.4786H140.054L133.697 38.4312H132.144ZM136.206 47.353H129.63L131.931 41.972C132.302 41.2795 132.616 40.5572 132.869 39.8127H132.909C133.183 40.5525 133.504 41.2738 133.87 41.972L136.206 47.353Z" fill="#F1EBF5"/>
<path d="M144.046 45.9255H152.578V44.6194H144.046V39.7551H152.912V38.4258H142.493V52.479H153.044V51.1497H144.046V45.9255Z" fill="#F1EBF5"/>
<path d="M162.91 44.8223L159.89 44.3869C157.79 44.0677 156.945 43.3189 156.945 41.8735C156.945 40.2308 158.4 39.302 160.891 39.302C163.537 39.302 165.068 40.3875 165.459 42.5643L167.047 42.245C166.575 39.4181 164.418 38.0308 160.908 38.0308C157.399 38.0308 155.34 39.5342 155.34 41.9896C155.34 44.1083 156.651 45.3563 159.263 45.751L162.318 46.169C164.619 46.4999 165.574 47.1964 165.574 48.8798C165.574 50.6967 164.026 51.5674 161.42 51.5674C158.377 51.5674 156.709 50.1859 156.318 47.9452L154.689 48.1658C155.161 51.1552 157.399 52.8734 161.38 52.8734C165.125 52.8734 167.185 51.2713 167.185 48.7173C167.185 46.3431 165.752 45.2751 162.91 44.8223Z" fill="#F1EBF5"/>
<path d="M167.519 39.7551H172.909V52.479H174.457V39.7551H179.87V38.4258H167.519V39.7551Z" fill="#F1EBF5"/>
<path d="M192.97 44.6194H183.616V38.4258H182.068V52.479H183.616V45.9487H192.97V52.479H194.541V38.4258H192.97V44.6194Z" fill="#F1EBF5"/>
<path d="M200.282 45.9255H208.813V44.6194H200.282V39.7551H209.147V38.4258H198.734V52.479H209.285V51.1497H200.282V45.9255Z" fill="#F1EBF5"/>
<path d="M210.89 39.7551H216.28V52.479H217.833V39.7551H223.247V38.4258H210.89V39.7551Z" fill="#F1EBF5"/>
<path d="M226.987 38.4258H225.439V52.479H226.987V38.4258Z" fill="#F1EBF5"/>
<path d="M237.106 39.36C239.85 39.36 241.674 40.8054 242.128 43.255L243.733 43.0983C243.158 39.9347 240.857 38.0308 237.186 38.0308C234.885 38.0308 233.125 38.7041 231.813 40.0508C231.142 40.768 230.621 41.6138 230.28 42.5381C229.939 43.4625 229.785 44.4465 229.828 45.4318C229.755 47.3965 230.444 49.3126 231.75 50.7721C233.027 52.1575 234.812 52.8502 237.106 52.8502C240.696 52.8502 242.951 51.0333 243.733 48.0439L242.209 47.8059C241.599 50.1626 239.792 51.5035 237.146 51.5035C236.369 51.5426 235.593 51.4108 234.872 51.1171C234.151 50.8234 233.502 50.3749 232.969 49.8027C231.913 48.5872 231.365 47.006 231.439 45.3912C231.355 43.7749 231.905 42.1901 232.969 40.9796C233.505 40.4283 234.151 39.9987 234.864 39.7194C235.578 39.4402 236.342 39.3176 237.106 39.36Z" fill="#F1EBF5"/>
<path d="M261.05 49.8084C260.89 50.1568 260.765 50.5204 260.676 50.8939H260.636C260.596 50.7372 260.481 50.3831 260.285 49.8084L255.32 38.4312H253.048V52.4786H254.48V41.1013C254.484 40.6651 254.463 40.229 254.417 39.7953H254.48C254.601 40.2381 254.745 40.6741 254.912 41.1013L259.911 52.4786H261.401L266.423 41.1013C266.602 40.6427 266.757 40.2074 266.872 39.7953H266.935C266.935 40.0333 266.895 40.4686 266.895 41.1013V52.4786H268.345V38.4312H266.044L261.05 49.8084Z" fill="#F1EBF5"/>
<path d="M274.069 45.9255H282.6V44.6194H274.069V39.7551H282.934V38.4258H272.516V52.479H283.072V51.1497H274.069V45.9255Z" fill="#F1EBF5"/>
<path d="M292.346 38.4312H286.501V52.4786H292.323C293.293 52.5215 294.263 52.3703 295.175 52.0335C296.087 51.6968 296.925 51.1813 297.639 50.5166C298.316 49.8481 298.846 49.0429 299.194 48.1537C299.542 47.2645 299.7 46.3113 299.658 45.3562C299.71 44.4154 299.561 43.4742 299.221 42.5967C298.88 41.7192 298.356 40.9261 297.685 40.2713C296.338 39.0407 294.559 38.4273 292.346 38.4312ZM296.5 49.5472C295.957 50.0929 295.307 50.5179 294.591 50.7949C293.876 51.0718 293.111 51.1945 292.346 51.1551H288.066V39.743H292.265C293.81 39.6613 295.324 40.1949 296.482 41.229C297.012 41.7673 297.423 42.4118 297.69 43.1208C297.956 43.8298 298.072 44.5875 298.03 45.3446C298.069 46.113 297.953 46.8815 297.69 47.6037C297.427 48.3259 297.022 48.987 296.5 49.5472Z" fill="#F1EBF5"/>
<path d="M304.047 38.4258H302.499V52.479H304.047V38.4258Z" fill="#F1EBF5"/>
<path d="M314.166 39.36C316.91 39.36 318.734 40.8054 319.189 43.255L320.794 43.0983C320.247 39.9347 317.917 38.0308 314.247 38.0308C311.946 38.0308 310.185 38.7041 308.874 40.0508C308.203 40.768 307.681 41.6138 307.34 42.5381C306.999 43.4625 306.846 44.4465 306.889 45.4318C306.815 47.3965 307.505 49.3126 308.81 50.7721C310.088 52.1575 311.873 52.8502 314.166 52.8502C317.756 52.8502 320.011 51.0333 320.794 48.0439L319.263 47.8059C318.659 50.1626 316.853 51.5035 314.207 51.5035C313.43 51.5426 312.654 51.4108 311.933 51.1171C311.212 50.8234 310.562 50.3749 310.03 49.8027C308.974 48.5872 308.425 47.006 308.5 45.3912C308.415 43.7749 308.965 42.1901 310.03 40.9796C310.566 40.4283 311.212 39.9987 311.925 39.7194C312.638 39.4402 313.402 39.3176 314.166 39.36Z" fill="#F1EBF5"/>
<path d="M325.281 38.4258H323.733V52.479H325.281V38.4258Z" fill="#F1EBF5"/>
<path d="M340.44 49.1118C340.44 49.5704 340.44 50.1219 340.48 50.7778H340.44C340.19 50.2573 339.896 49.76 339.56 49.2918L331.379 38.4312H329.48V52.4786H330.89V41.676C330.89 41.2174 330.89 40.666 330.85 40.0333H330.89C331.147 40.5395 331.444 41.0247 331.776 41.4844L340.049 52.467H341.855V38.4312H340.44V49.1118Z" fill="#F1EBF5"/>
<path d="M347.596 51.1497V45.9255H356.128V44.6194H347.596V39.7551H356.462V38.4258H346.049V52.479H356.6V51.1497H347.596Z" fill="#F1EBF5"/>
<path d="M82.226 31.3612L80.9201 33.6309L70.8295 51.2192H62.8445L79.9767 19.7808V18.1265H76.6975H58.6621V19.7808H75.7483L58.6621 49.5649V51.2192V52.8735H61.9413H69.8803H71.7788H73.4183H75.0579L83.2386 37.8683L91.4595 52.8735H93.0991V51.2192L84.51 35.5348L93.0991 19.7808V18.1265H89.8199L82.226 31.3612Z" fill="#F1EBF5"/>
</g>
<defs>
<clipPath id="clip0_316_5400">
<rect width="297.938" height="34.7471" fill="white" transform="translate(58.6621 18.1265)"/>
</clipPath>
</defs>
</svg>
