<svg width="263" height="228" viewBox="0 0 263 228" fill="none" xmlns="http://www.w3.org/2000/svg">
<g clip-path="url(#clip0_14295_7523)">
<path d="M189.982 0C192.448 0.392642 194.915 0.853584 197.391 1.16087C203.579 2.10539 209.595 3.95163 215.247 6.64078C217.821 7.7804 220.324 9.0745 222.742 10.516C226.404 12.7577 229.259 16.1056 230.893 20.076C232.498 23.8402 234.419 27.613 235.11 31.5736C236.373 38.7777 235.793 45.9392 231.047 52.0593C227.274 56.9076 223.365 61.6449 219.455 66.3737C216.75 69.6428 213.805 72.6901 211.91 76.6165C209.614 81.3367 207.557 86.1424 206.788 91.3491C206.541 93.8483 206.506 96.3641 206.686 98.8691C206.805 99.395 207.107 99.8611 207.54 100.184C208.649 101.157 209.87 102.019 210.954 103C211.207 103.246 211.519 103.423 211.859 103.515C212.199 103.608 212.557 103.613 212.9 103.53C215.461 103.069 216.127 103.53 216.818 106.133C217.065 107.063 217.134 108.275 217.748 108.813C218.363 109.351 219.455 108.916 220.386 108.916H230.688C234.536 109.025 238.329 109.856 241.87 111.365C244.183 112.18 246.434 113.162 248.605 114.302C250.997 115.586 253.149 117.275 254.964 119.295C255.324 119.798 255.772 120.232 256.287 120.575C258.481 121.762 259.701 123.785 260.785 125.859C261.223 126.828 261.511 127.859 261.639 128.915C262.091 131.475 262.492 134.036 262.859 136.597V145.517C261.929 147.565 261.024 149.622 260.051 151.645C259.579 152.778 258.969 153.847 258.233 154.829C254.938 158.721 252.13 163.066 247.931 166.13C247.418 166.506 247.418 166.771 247.931 167.163C248.869 167.863 249.783 168.606 250.662 169.374C251.497 170.266 252.396 171.096 253.351 171.858C255.493 173.266 256.407 175.503 257.559 177.594C257.792 178.214 257.919 178.869 257.934 179.532C258.028 180.189 258.054 180.855 258.156 181.512C258.9 185.485 259.257 189.522 259.223 193.564C259.283 195.208 258.964 196.843 258.293 198.344C256.774 201.221 255.826 204.43 253.539 206.88C252.531 207.964 251.72 209.236 250.705 210.294C248.673 212.445 246.77 214.784 244.439 216.551C242.365 218.138 239.805 219.112 237.415 220.255C235.528 221.16 233.556 221.886 231.661 222.816C227.394 224.813 222.853 225.787 218.312 226.777C216.98 227.067 215.597 227.169 214.24 227.357H207.804C206.666 227.082 205.507 226.902 204.339 226.819C198.569 226.819 193.072 225.445 187.66 223.653C184.126 222.483 180.831 220.836 178.638 217.609C178.151 216.901 177.605 216.926 176.931 217.268C174.873 218.292 172.816 219.325 170.725 220.289C168.822 221.143 166.858 221.911 164.964 222.85C160.696 224.856 156.146 225.829 151.605 226.819C150.265 227.11 148.882 227.212 147.525 227.4H141.064C139.45 227.212 137.837 226.947 136.215 226.836C129.398 226.484 122.721 224.763 116.583 221.775C114.849 220.787 113.313 219.488 112.051 217.942C110.294 216.021 108.727 213.934 107.373 211.711C106.778 210.59 106.314 209.404 105.99 208.177C105.333 206.086 104.718 203.969 104.155 201.844C103.86 200.762 103.658 199.657 103.549 198.541C103.197 193.952 103.423 189.338 104.223 184.807C104.313 184.488 104.297 184.149 104.177 183.841C104.057 183.533 103.839 183.273 103.558 183.099C102.986 182.67 102.452 182.193 101.961 181.674C101.321 181.055 100.834 180.295 100.537 179.455C100.241 178.615 100.144 177.718 100.254 176.834C100.287 175.814 100.583 174.819 101.114 173.947C101.645 173.075 102.393 172.355 103.284 171.858C103.501 171.723 103.709 171.574 103.908 171.414L105.555 170.074C104.982 169.696 104.369 169.381 103.728 169.135C101.602 168.422 99.4212 167.885 97.2071 167.53C91.5678 166.843 85.8934 166.484 80.2125 166.455C73.7083 166.497 67.2041 166.361 60.6998 166.173C53.6835 165.977 46.7098 165.396 39.8813 163.536C35.2008 162.2 30.6701 160.387 26.3607 158.124C23.578 156.698 20.8296 155.205 18.1152 153.668C10.7852 149.46 4.69604 143.392 0.46336 136.076C-2.74616 131.015 -5.53529 125.7 -7.87602 120.183C-10.217 113.996 -11.9577 107.599 -13.0743 101.08C-14.1242 95.4463 -14.8924 89.7615 -15.874 84.1109C-16.4459 80.8844 -17.2141 77.7005 -17.8543 74.4826C-17.9669 73.7252 -18.024 72.9607 -18.025 72.195C-18.0554 72.0011 -18.0472 71.8031 -18.001 71.6123C-17.9548 71.4215 -17.8714 71.2417 -17.7557 71.0831C-17.64 70.9246 -17.4941 70.7904 -17.3265 70.6883C-17.1588 70.5861 -16.9727 70.518 -16.7788 70.4879C-16.7612 71.6127 -16.6786 72.7356 -16.5312 73.8509C-15.9423 77.0262 -15.1826 80.1674 -14.6107 83.3426C-13.245 90.8967 -12.05 98.485 -10.5818 106.022C-9.36873 112.748 -7.15928 119.256 -4.02642 125.33C-1.31206 130.451 1.79493 135.334 4.9446 140.182C7.19945 143.488 10.0127 146.376 13.2584 148.718C18.3798 152.559 24.0304 155.401 29.7408 158.201C38.2765 162.366 47.2646 164.176 56.6112 164.526C63.0045 164.79 69.4148 164.799 75.8166 164.859C83.4048 164.944 90.9674 165.132 98.4277 166.719C99.6995 166.993 101.168 166.634 102.337 167.086C105.879 168.469 109.601 169.562 112.503 172.208C112.578 172.31 112.675 172.395 112.786 172.455C112.898 172.516 113.022 172.55 113.148 172.557C113.275 172.563 113.402 172.542 113.519 172.493C113.636 172.444 113.741 172.37 113.826 172.276C115.823 170.868 117.906 169.579 119.912 168.17C123.711 165.654 127.823 163.646 132.144 162.195C132.792 161.965 133.048 161.709 132.502 161.137C131.956 160.565 131.384 159.865 130.437 160.027C129.489 160.19 129.822 161.146 129.583 161.735C129.426 162.084 129.229 162.413 128.994 162.716C128.772 162.434 128.439 162.178 128.354 161.863C128.198 161.325 128.143 160.764 128.192 160.207C128.434 158.239 128.217 156.242 127.556 154.372C126.896 152.503 125.81 150.813 124.385 149.435C122.726 147.913 120.896 146.589 118.93 145.491C113.744 142.207 107.716 140.499 101.577 140.575C98.2996 140.617 95.0134 140.498 91.7357 140.575C87.2886 140.72 82.8415 140.907 78.4029 141.266C73.5119 141.65 68.6466 142.452 63.7471 142.691C58.5356 142.973 53.3127 142.973 48.1011 142.691C42.5094 142.375 37.0183 141.069 31.8833 138.833C27.4423 136.914 23.5728 133.88 20.6503 130.024C17.9 126.231 16.0308 121.871 15.1789 117.264C14.0949 112.193 14.001 107.021 13.9156 101.84C13.7837 95.2111 15.07 88.631 17.6884 82.5403C19.1907 79.0577 20.582 75.5325 21.9563 71.9901C22.5965 70.283 22.5111 70.283 20.8296 70.0525C20.3259 69.9843 19.8223 69.8648 19.3273 69.7709C13.2938 68.5818 7.15915 67.9815 1.00964 67.9784C-1.09014 67.9784 -3.19846 68.021 -5.29824 67.9784C-7.81172 67.9572 -10.3135 68.3228 -12.7158 69.0624C-13.2682 69.1541 -13.7767 69.4203 -14.1668 69.8221C-14.8924 70.9915 -15.7801 70.8976 -16.8129 70.4367C-16.7167 69.8775 -16.4595 69.3584 -16.073 68.9431C-15.6864 68.5277 -15.1872 68.234 -14.6363 68.0979C-11.6044 66.9604 -8.39138 66.382 -5.15314 66.3907C-3.36064 66.4505 -1.56814 66.3907 0.224361 66.3907C6.83513 66.3476 13.4322 66.997 19.9077 68.3283C20.6536 68.5067 21.4255 68.55 22.1867 68.4564C23.3134 68.2857 23.7317 68.849 24.1158 69.7453C25.7803 73.6632 27.4874 77.5554 29.1775 81.4477C29.3157 81.7801 29.4873 82.0975 29.6896 82.3952C29.775 82.5147 30.1164 82.6171 30.1505 82.5744C31.0809 81.388 31.0468 82.5744 31.3626 83.0353C32.6174 84.7425 33.8294 86.4496 35.1781 88.0117C36.9962 90.1627 38.9338 92.2112 40.8031 94.3195C41.6769 95.3383 42.8415 96.0651 44.1406 96.4023C50.2948 97.9899 56.4064 99.7739 62.6118 101.088C71.3353 102.924 80.1613 104.23 88.8762 106.09C95.2865 107.456 101.594 109.308 107.928 111.015C111.189 111.869 114.458 112.808 117.633 113.969C123.605 116.005 128.732 119.965 132.212 125.227C134.773 129.154 136.002 133.601 137.026 138.125C137.729 140.913 138.039 143.786 137.948 146.661C137.811 148.916 137.215 151.121 136.198 153.139C135.973 153.458 135.706 153.745 135.404 153.993C135.297 153.577 135.234 153.15 135.217 152.721C135.26 152.263 135.363 151.812 135.524 151.381C136.298 148.631 136.633 145.776 136.514 142.922C136.514 138.654 135.123 134.881 133.663 131.066C130.59 123.025 124.735 117.75 116.668 115.13C109.259 112.723 101.765 110.563 94.2025 108.702C87.502 107.046 80.6649 105.894 73.879 104.605C64.6604 102.847 55.4931 100.901 46.4367 98.4423C41.7079 97.1534 37.4742 95.0878 34.2733 91.4089C32.2508 89.0511 30.4986 86.4743 29.0494 83.7267C27.1631 80.1588 25.7034 76.369 24.056 72.6815C23.9355 72.4645 23.7955 72.2588 23.6378 72.067C23.4585 72.275 23.3012 72.5009 23.1683 72.7413C21.6661 76.7189 20.1979 80.7136 18.6615 84.6913C16.7953 89.4756 15.8232 94.5618 15.7935 99.6971C15.6334 105.072 15.9534 110.451 16.7495 115.77C17.7396 121.403 19.7114 126.678 23.6293 130.972C27.2552 134.889 31.9258 137.688 37.0901 139.038C44.9654 141.2 53.152 142.003 61.2973 141.411C67.1187 141.061 72.9059 140.267 78.7102 139.747C82.1757 139.431 85.6582 139.175 89.1323 139.072C93.0246 138.953 96.9254 139.072 100.818 139.072C109.866 138.995 117.787 142.111 124.794 147.608C126.998 149.488 128.541 152.025 129.199 154.846C129.66 156.477 129.694 156.451 131.367 156.553C131.777 156.543 132.185 156.622 132.562 156.784C134.099 157.689 135.589 158.672 137.026 159.729C137.293 159.993 137.623 160.183 137.985 160.282C138.347 160.381 138.728 160.384 139.092 160.292C140.138 160.066 141.205 159.945 142.276 159.934C148.37 159.805 154.465 159.669 160.559 159.626C164.306 159.626 167.84 160.693 171.306 161.982C173.101 162.581 174.853 163.305 176.546 164.15C178.467 165.192 180.217 166.54 182.061 167.727C182.434 167.931 182.825 168.099 183.23 168.23C183.068 167.871 182.877 167.525 182.658 167.197C181.804 166.13 180.951 165.072 180.003 164.056C177.528 161.291 176.41 157.919 175.599 154.394C175.3 153.096 174.652 151.833 174.481 150.57C174.151 148.047 173.957 145.508 173.9 142.965C173.858 141.027 174.208 139.089 174.25 137.152C174.319 133.874 175.761 131.134 177.443 128.479C178.458 126.875 178.407 126.704 176.683 125.919C174.09 124.798 171.296 124.217 168.472 124.212C163.06 124.118 157.759 125.065 152.425 125.62C147.491 126.166 142.6 127.122 137.607 126.994C136.992 126.995 136.379 126.926 135.78 126.789C135.456 126.704 135.191 126.354 134.926 126.124C135.217 125.959 135.531 125.838 135.857 125.765C137.385 125.637 138.921 125.594 140.449 125.449C144.008 125.125 147.585 124.852 151.136 124.374C157.333 123.52 163.512 122.718 169.795 122.889C172.748 122.974 175.633 123.443 178.032 124.997C180.43 126.55 183.409 127.762 185.347 130.17C185.885 130.844 186.354 131.561 186.849 132.269C186.965 132.495 187.103 132.709 187.259 132.91C190.673 136.136 192.457 140.506 195.291 144.134C196.998 146.353 198.586 148.701 200.105 151.073C200.63 152.119 201.081 153.2 201.454 154.308C202.23 156.016 203.05 157.723 203.878 159.43C204.004 159.717 204.236 159.944 204.526 160.063C204.815 160.182 205.14 160.185 205.431 160.07C205.831 159.973 206.24 159.919 206.652 159.908C211.099 159.797 215.555 159.677 220.01 159.601C222.332 159.558 222.648 159.276 222.614 156.946C222.586 156.656 222.529 156.37 222.443 156.092C222.323 156.349 222.102 156.605 222.093 156.861C222.096 157.326 221.967 157.782 221.721 158.177C221.475 158.571 221.121 158.888 220.702 159.088C220.48 159.208 220.138 159.088 219.848 159.088C219.848 158.807 219.763 158.474 219.848 158.235C221.965 154.179 223.024 149.655 222.929 145.081C222.929 141.855 223.049 138.628 223.203 135.41C223.587 127.421 221.017 120.251 216.997 113.559C215.102 110.47 213.013 107.505 210.74 104.682C209.698 103.214 208.264 102.069 206.601 101.379C205.482 100.952 204.552 100.021 203.451 99.5178C199.89 98.054 196.093 97.2472 192.244 97.1363C185.535 96.701 179.107 98.2972 172.611 99.6971C164.349 101.464 156.112 103.393 147.798 104.904C142.714 105.77 137.584 106.34 132.434 106.611C126.203 107.015 119.96 107.217 113.707 107.217C104.369 107.157 95.1174 105.423 86.3923 102.096C79.5512 99.5678 73.1507 95.9787 67.426 91.4601C62.4657 87.6254 58.3094 82.8513 55.1943 77.4103C52.0959 71.9048 50.2009 65.9725 48.4426 59.9719C47.1025 55.3967 45.8819 50.7875 44.354 46.2721C43.5248 43.9589 42.4668 41.7343 41.1958 39.6313C39.1813 36.1146 35.8353 34.7403 31.9601 34.3904C29.6213 34.1855 27.274 33.9721 24.9267 33.8526C24.6386 33.8293 24.3488 33.8674 24.0766 33.9646C23.8044 34.0617 23.5559 34.2156 23.3476 34.416C20.7015 38.7948 17.2446 42.67 15.2131 47.4329C14.3595 49.4559 13.5059 51.5045 12.6523 53.5103C12.3594 54.025 12.007 54.5034 11.6025 54.9358C11.5454 54.3682 11.5454 53.7963 11.6025 53.2287C12.581 48.9196 14.3744 44.8374 16.8861 41.2019C18.5932 38.6924 20.2406 36.1743 21.8112 33.5965C22.1959 32.8701 22.7304 32.2336 23.3792 31.7289C24.0281 31.2242 24.7766 30.8629 25.5754 30.6688C27.7104 30.1322 29.8771 29.7302 32.0625 29.4653C38.4814 28.8763 44.9173 28.4837 51.3789 28.441C56.4336 28.3966 61.3442 30.1241 65.2579 33.3234C67.7077 35.2439 69.9099 37.4888 72.1974 39.6057C73.2303 40.5617 73.2559 40.6214 73.9814 39.4691C76.5917 35.4558 80.1242 32.1253 84.284 29.7555C85.3174 29.0156 86.4044 28.3537 87.5361 27.7752C88.4049 27.5666 89.3044 27.5174 90.1907 27.6301C91.5137 27.6301 92.8368 27.741 94.1427 27.6301C97.19 27.3057 100.229 26.7765 103.276 26.4607C107.245 26.0168 111.206 25.6071 115.183 25.2657C120.798 24.8398 126.369 23.949 131.836 22.6026C138.469 20.9381 145.024 19.0176 150.973 15.5862C154.558 13.5206 157.904 11.0367 161.353 8.75764C165.706 5.8555 170.034 2.91923 174.908 0.921871C175.71 0.597514 176.529 0.324356 177.349 0.0256061L189.982 0ZM179.107 19.0261C180.14 19.0261 181.164 19.0261 182.189 19.0261C190.724 19.1285 198.193 21.8429 203.98 28.3215C206.754 31.4285 208.854 34.9281 208.461 39.4179C208.393 40.2288 208.538 41.0653 208.461 41.8762C208.335 43.2448 208.072 44.5973 207.676 45.9136C206.157 50.1814 203.05 53.2372 199.994 56.3186C196.332 59.9633 192.397 63.3606 188.966 67.2102C185.518 71.1209 183.261 75.9369 182.462 81.0892C182.392 81.2806 182.366 81.4856 182.388 81.6883C182.409 81.891 182.477 82.0861 182.586 82.2584C182.695 82.4308 182.842 82.5758 183.016 82.6824C183.19 82.789 183.385 82.8542 183.588 82.8732C185.229 83.2895 186.833 83.8376 188.385 84.512C194.437 87.2275 199.806 91.2607 204.1 96.3169C204.314 96.5221 204.548 96.7052 204.8 96.8632C204.926 96.5564 205.015 96.2354 205.064 95.9072C204.987 94.2492 205.047 92.5876 205.243 90.9394C206.987 81.8847 211.152 73.4719 217.296 66.5956C221.675 61.7388 225.704 56.5491 229.732 51.385C234.282 45.5465 234.717 38.7009 233.659 31.7528C232.976 27.2716 230.893 23.2171 228.811 19.1712C227.012 15.6834 224.216 12.8099 220.778 10.9172C218.781 9.76457 216.714 8.73553 214.59 7.8358C211.01 6.27591 207.332 4.95285 203.579 3.87522C196.282 1.98053 188.762 1.07898 181.224 1.19499C178.29 1.14538 175.393 1.85708 172.816 3.26065C168.847 5.40175 165.018 7.79376 161.353 10.4221C154.998 15.3852 147.821 19.1957 140.15 21.6807C131.252 24.4891 122.046 26.2088 112.734 26.8021C108.713 27.0496 104.71 27.7325 100.69 28.1508C97.5485 28.4837 94.433 29.2263 91.2235 28.7653C90.1477 28.5337 89.0265 28.6411 88.0141 29.0726C85.2732 30.5835 82.6736 32.3375 80.2466 34.3135C75.3813 38.5046 72.5047 44.0187 70.6183 50.1131C69.3892 54.0993 69.3636 58.1794 69.3551 62.285C69.3289 64.1411 69.8775 65.9598 70.9256 67.4918C74.027 72.3379 78.8436 75.8345 84.412 77.2823C88.2125 78.3652 92.1556 78.8631 96.106 78.759C98.5045 78.6565 101.005 79.0663 103.31 78.5456C108.892 77.2738 114.407 75.7373 119.912 74.0558C127.091 71.845 134.022 68.7893 141.704 68.4308C144.974 68.1857 148.26 68.6276 151.349 69.7282C156.47 71.6829 160.397 75.2593 163.828 79.3992C164.904 80.6966 165.663 81.8062 167.806 81.7123C171.826 81.5245 175.872 81.9684 179.91 82.1135C180.068 82.1098 180.223 82.0674 180.361 81.99C180.5 81.9127 180.617 81.8027 180.703 81.6697C180.924 81.2325 181.015 80.7413 180.965 80.2542C180.915 79.767 180.727 79.3044 180.422 78.9212C177.946 76.2068 176.307 72.9462 174.541 69.7623C173.475 67.6687 172.293 65.6368 170.998 63.6764C167.647 59.144 163.803 54.9985 159.535 51.3167C157.496 49.525 155.35 47.8602 153.107 46.3318C152.159 45.6493 150.991 45.3423 149.829 45.47C148.668 45.5977 147.594 46.151 146.817 47.0232C146.415 47.4158 146.031 47.8256 145.63 48.2267C140.765 52.9819 134.765 56.4139 128.2 58.1965C122.678 59.767 116.95 59.75 111.291 59.9036C105.351 60.1145 99.4036 59.829 93.5111 59.05C88.2137 58.4419 82.9825 57.3534 77.8822 55.7979C77.6158 55.6817 77.3589 55.5447 77.114 55.3882C77.4196 55.2587 77.7369 55.1587 78.0615 55.0895C78.3158 55.0821 78.5696 55.1167 78.8126 55.1919C82.1842 55.8235 85.5388 56.5832 88.936 57.0697C93.025 57.7386 97.1487 58.1747 101.287 58.3757C107.066 58.5379 112.862 58.2733 118.64 58.1538C124.713 58.0592 130.674 56.5046 136.019 53.6213C142.523 50.1302 147.721 45.3673 150.871 38.5985C152.45 35.1842 153.901 31.7699 155.54 28.3556C157.068 25.2262 159.776 22.8314 163.069 21.6978C168.216 19.7943 173.516 18.5566 179.107 19.0261ZM97.2156 80.4149C95.1756 80.2783 93.1185 80.2356 91.0955 79.9966C84.8986 79.2626 78.9919 77.7176 74.1777 73.4327C72.0263 71.5323 70.2162 69.2776 68.8258 66.7663C67.5882 64.5214 67.8869 62.0973 67.8272 59.6987C67.7246 53.8801 69.1302 48.1341 71.9072 43.02C72.0132 42.8812 72.0908 42.7229 72.1353 42.554C72.1798 42.3852 72.1905 42.2092 72.1667 42.0362C72.1429 41.8633 72.0851 41.6967 71.9966 41.5462C71.9081 41.3957 71.7907 41.2641 71.6512 41.1592C69.8843 39.452 68.2369 37.651 66.4188 35.978C64.3244 33.9273 61.83 32.3301 59.0911 31.286C56.3523 30.2418 53.4277 29.7731 50.4997 29.9091C44.6271 30.1652 38.746 30.4639 32.8734 30.8566C30.7846 31.0673 28.7078 31.3835 26.6509 31.804C26.4546 31.804 26.2839 32.0772 26.0961 32.2223C26.2864 32.3619 26.5004 32.466 26.7277 32.5296C28.5629 32.6747 30.4066 32.743 32.2333 32.9052C36.9706 33.3319 40.7178 35.3208 43.1248 39.6142C44.9818 43.0373 46.4615 46.6521 47.5378 50.3948C49.4583 56.7198 51.2423 63.0874 53.325 69.3526C55.5265 75.8943 59.2643 81.8128 64.2251 86.6118C67.8732 90.1424 71.9648 93.1839 76.397 95.6597C87.9897 102.258 101.093 105.743 114.432 105.774C121.448 105.938 128.467 105.653 135.447 104.921C140.116 104.383 144.836 104.025 149.446 103.145C157.648 101.575 165.783 99.68 173.943 97.9216C178.697 96.8973 183.435 95.7536 188.334 95.6938C192.694 95.5339 197.052 96.0757 201.24 97.2985C201.571 97.3497 201.908 97.3497 202.239 97.2985C202.129 96.9802 201.992 96.6718 201.829 96.3767C201.641 96.1317 201.43 95.9058 201.198 95.7023C198.429 92.9674 195.399 90.5116 192.15 88.3702C188.215 85.707 183.836 84.2816 179.346 83.1549C178.943 83.0876 178.533 83.0675 178.126 83.0951C175.215 83.0951 172.304 83.0951 169.394 83.0951C161.549 83.1463 153.722 83.0951 145.895 82.5147C142.378 82.2586 138.844 82.1647 135.328 81.8147C127.934 81.1623 120.584 80.0851 113.314 78.5882C112.22 78.3767 111.092 78.4059 110.011 78.6736C105.777 79.6125 101.586 80.5856 97.2156 80.4149ZM155.574 160.787C152.766 160.932 149.958 161.146 147.149 161.205C143.675 161.265 140.261 161.257 136.83 162.315C133.766 163.271 130.556 163.698 127.714 165.371C124.188 167.436 120.552 169.323 117.053 171.414C115.755 172.191 114.782 173.505 113.493 174.308C111.274 175.7 109.435 177.621 108.141 179.899C107.088 181.471 106.242 183.172 105.623 184.96C105.144 187.002 104.875 189.087 104.821 191.183C104.539 195.092 105.674 198.728 106.895 202.407C108.355 206.854 111.487 209.663 115.089 212.198C116.216 212.983 117.36 213.777 118.504 214.485C119.226 214.956 120.018 215.31 120.851 215.535C122.993 216.013 125.179 216.295 127.33 216.756C131.591 217.669 135.937 218.126 140.295 218.121C141.78 218.119 143.262 218.268 144.717 218.565C147.947 219.142 151.256 219.107 154.473 218.463C156.162 218.089 157.801 217.516 159.356 216.756C163.683 214.929 168.147 213.478 172.287 211.165C176.897 208.678 180.881 205.175 183.938 200.922C185.296 199.01 186.363 196.902 187.592 194.896C189.751 191.371 189.999 187.453 189.896 183.492C189.802 181.96 189.614 180.435 189.333 178.925C189.249 178.426 189.082 177.944 188.838 177.5C188.414 176.683 187.926 175.901 187.378 175.161C186.787 174.402 186.139 173.689 185.441 173.027C184.707 172.319 183.734 171.815 183.179 170.987C181.711 168.691 179.457 167.283 177.272 166.011C174.696 164.637 171.988 163.527 169.189 162.699C164.819 161.179 160.194 160.529 155.574 160.787ZM219.08 160.838C217.475 160.958 215.666 161.171 213.805 161.205C210.391 161.257 206.976 161.026 203.647 162.366C202.623 162.784 201.428 162.759 200.353 163.075C198.815 163.464 197.316 163.99 195.871 164.645C193.174 165.994 190.571 167.513 187.942 168.998C187.045 169.502 186.234 170.125 185.381 170.706C186.192 171.397 186.977 172.122 187.822 172.763C188.906 173.616 189.205 173.48 189.973 172.327C190.364 171.675 190.841 171.078 191.39 170.552C191.697 170.287 192.303 170.381 192.781 170.313C192.82 170.77 192.774 171.23 192.645 171.67C192.005 172.899 190.605 173.761 190.878 175.434C190.878 175.545 190.69 175.682 190.656 175.827C190.572 176.103 190.54 176.393 190.562 176.681C190.844 178.285 191.194 179.873 191.458 181.478C192.181 185.302 192.546 189.186 192.551 193.078C192.579 195.337 192.067 197.569 191.057 199.59C190.83 200.132 190.8 200.736 190.972 201.298C191.271 202.288 192.577 202.757 192.5 204.012C192.5 204.063 192.85 204.148 193.037 204.217C193.362 204.336 193.806 204.353 194.01 204.575C195.12 205.83 196.426 204.695 197.613 204.942C197.613 204.319 197.672 203.705 197.698 203.082V202.928C197.775 202.202 198.091 201.502 198.859 201.579C199.133 201.649 199.388 201.782 199.603 201.967C199.818 202.152 199.987 202.385 200.096 202.646C200.347 203.533 200.482 204.448 200.498 205.369C200.6 206.906 200.028 207.571 198.517 207.631C197.238 207.717 195.953 207.699 194.676 207.58C193.866 207.566 193.092 207.238 192.517 206.667C191.851 205.565 190.758 205.343 189.828 204.78C189.128 204.353 188.667 204.481 188.121 205.156C186.695 207.025 185.193 208.852 183.699 210.67C182.359 212.3 182.317 212.377 184.024 213.487C185.101 214.332 186.305 215 187.592 215.467C189.794 216.09 192.116 216.32 194.36 216.781C198.78 217.716 203.288 218.166 207.804 218.121C209.086 218.143 210.362 218.297 211.611 218.582C214.829 219.282 218.03 218.847 221.231 218.514C221.944 218.446 222.644 218.283 223.314 218.028C225.55 217.174 227.761 216.209 229.98 215.279C231.083 214.716 232.224 214.231 233.394 213.828C236.635 212.836 239.671 211.269 242.357 209.202C245.907 206.845 248.963 203.818 251.353 200.29C253.222 197.6 254.743 194.683 255.877 191.61C257.294 187.29 256.688 182.903 256.108 178.541C256.002 178.039 255.802 177.561 255.519 177.133C254.498 175.37 253.201 173.782 251.678 172.43C249.621 170.629 247.82 168.52 245.523 166.975C244.634 166.39 243.707 165.862 242.749 165.396C242.024 165.021 241.239 164.756 240.487 164.432C237.013 162.786 233.299 161.7 229.485 161.214C226.062 160.932 222.682 160.932 219.08 160.838ZM206.951 39.7849C206.993 38.5084 206.89 37.2313 206.643 35.978C205.801 33.1629 204.28 30.5981 202.213 28.5093C198.228 24.6112 193.18 21.9773 187.703 20.9381C184.049 20.1613 180.362 20.3321 176.674 20.3662C171.795 20.4245 166.978 21.4697 162.514 23.4391C159.86 24.6135 157.732 26.7258 156.539 29.3714C154.342 33.9237 152.123 38.4761 149.881 43.0285C149.548 43.6857 149.633 43.9333 150.385 44.0101C152.026 44.1876 153.585 44.8236 154.883 45.8453C156.231 46.8525 157.555 47.9024 158.869 48.9693C164.689 53.608 169.712 59.1669 173.738 65.4262C176.239 69.4124 178.407 73.6034 180.737 77.7005C180.857 77.9054 181.002 78.1017 181.139 78.3066C181.267 78.1017 181.412 77.9054 181.523 77.692C181.598 77.5021 181.664 77.3084 181.719 77.1116C183.759 70.9232 187.498 65.8444 192.124 61.3803C195.223 58.3928 198.526 55.6187 201.513 52.5117C204.876 49.0035 207.565 45.0685 206.951 39.7849ZM225.926 110.017C223.476 110.162 221.026 110.273 218.576 110.444C216.946 110.563 216.946 110.606 217.765 111.997C219.996 115.685 221.808 119.61 223.168 123.699C224.236 127.005 224.727 130.47 224.62 133.942C224.536 134.847 224.805 135.749 225.371 136.46C226.456 137.801 227.43 139.228 228.281 140.728C228.708 141.531 229.067 141.744 229.903 141.582C231.943 141.249 232.848 141.872 233.317 143.818C233.4 144.009 233.437 144.216 233.425 144.424C233.413 144.631 233.352 144.833 233.247 145.013C233.142 145.192 232.997 145.345 232.822 145.457C232.647 145.57 232.449 145.64 232.242 145.662C229.878 146.285 227.522 146.934 225.14 147.523C224.836 147.549 224.554 147.691 224.352 147.92C224.15 148.149 224.044 148.447 224.056 148.752C224.056 149.366 223.868 149.964 223.792 150.578C223.587 152.14 223.587 152.149 225.098 152.166C225.712 152.166 226.335 152.166 226.95 152.166C229.382 152.166 229.374 152.166 230.321 154.394C230.458 154.883 230.73 155.324 231.107 155.666C232.088 156.255 232.054 156.809 231.619 157.808C230.851 159.515 231.175 159.925 233.053 160.446C234.76 160.915 236.467 161.513 238.174 161.982C238.687 162.167 239.249 162.167 239.762 161.982C242.004 160.949 244.161 159.741 246.215 158.371C249.535 155.811 252.753 153.122 255.041 149.503C257.542 145.551 260.034 141.641 260.231 136.699C260.401 132.542 260.589 128.42 258.105 124.749C257.521 123.929 256.864 123.163 256.142 122.462C255.342 121.828 254.591 121.135 253.897 120.388C252.258 118.281 250.185 116.552 247.82 115.317C245.195 113.932 242.442 112.805 239.6 111.954C235.22 110.425 230.583 109.767 225.951 110.017H225.926ZM143.983 226.29C146.433 226.153 148.874 225.891 151.298 225.505C154.712 224.788 158.126 223.798 161.541 222.867C161.928 222.733 162.302 222.564 162.659 222.364C166.79 220.452 170.947 218.591 175.036 216.602C176.493 215.978 177.835 215.112 179.005 214.041C181.292 211.72 183.358 209.159 185.509 206.701C187.14 204.992 188.388 202.955 189.171 200.726C189.361 200.242 189.598 199.779 189.879 199.343C191.048 196.986 191.518 194.344 191.236 191.729C191.217 191.582 191.186 191.436 191.143 191.294C191.005 191.42 190.887 191.567 190.793 191.729C190.017 193.676 189.142 195.582 188.172 197.439C184.553 203.619 179.995 208.92 173.491 212.274C172.714 212.676 172.014 213.213 171.246 213.615C170.392 214.079 169.511 214.492 168.608 214.852C165.194 216.218 161.728 217.481 158.365 218.932C155.002 220.383 151.221 220.571 147.542 220.418C145.092 220.315 142.66 219.837 140.218 219.709C136.437 219.504 132.647 219.555 128.951 218.523C128.098 218.292 127.244 218.292 126.391 218.121C122.84 217.439 119.11 217.268 116.293 214.536C116.052 214.342 115.785 214.184 115.499 214.067C112.986 212.684 110.763 210.829 108.952 208.604C108.647 208.258 108.322 207.93 107.979 207.623C107.877 207.529 107.629 207.418 107.595 207.452C107.561 207.486 107.313 207.802 107.347 207.93C107.524 208.816 107.811 209.676 108.201 210.491C109.996 213.413 112.096 216.137 114.466 218.617C114.92 219.072 115.421 219.478 115.96 219.829C120.16 222.611 124.991 223.772 129.796 224.685C134.602 225.599 139.433 225.804 143.991 226.29H143.983ZM175.078 141.548C175.078 145.192 176.359 148.47 177.417 151.859C178.732 156.067 181.796 158.687 185.057 161.154C186.359 162.146 187.728 163.047 189.154 163.851C189.991 164.313 190.9 164.63 191.842 164.79C192.534 164.91 193.012 164.466 192.79 163.638C192.602 162.947 192.38 162.255 192.227 161.564C191.749 159.387 192.141 158.704 194.284 158.073C195.991 157.569 197.698 157.108 199.456 156.639C202.017 155.93 198.936 154.804 199.653 153.83C199.977 153.378 199.354 153.096 198.799 153.19C198.748 153.199 198.696 153.199 198.645 153.19C197.211 152.874 195.76 152.601 194.378 152.2C194.045 152.106 193.84 151.577 193.584 151.244C193.976 151.082 194.437 150.724 194.753 150.8C195.692 151.005 196.597 151.406 197.519 151.697C197.902 151.786 198.289 151.855 198.68 151.901C198.579 151.484 198.43 151.08 198.236 150.698C198.005 150.426 197.734 150.19 197.433 149.998C197.169 150.783 196.81 150.211 196.409 150.143C195.555 149.981 194.617 150.143 193.754 149.93C192.473 149.633 191.21 149.259 189.973 148.811C189.743 148.735 189.418 148.257 189.478 148.12C190.084 146.754 188.974 146.276 188.275 145.559C188.044 145.312 188.044 144.851 187.933 144.492C188.323 144.345 188.726 144.234 189.137 144.16C189.506 144.153 189.875 144.184 190.238 144.253C190.013 143.864 189.75 143.498 189.452 143.161C189.162 142.896 188.71 142.802 188.394 142.555C187.6 141.923 186.584 141.385 186.141 140.549C185.582 139.286 185.183 137.959 184.954 136.597C184.877 136.281 185.065 135.632 185.253 135.573C185.461 135.523 185.676 135.517 185.887 135.555C186.097 135.593 186.297 135.675 186.473 135.795C186.885 136.245 187.256 136.731 187.583 137.246C187.791 137.434 188.02 137.597 188.266 137.732C188.266 137.399 188.403 136.955 188.266 136.742C186.636 134.591 185.014 132.431 183.256 130.383C182.411 129.564 181.485 128.834 180.49 128.206C180.038 127.856 179.5 127.711 179.175 128.309C178.074 130.374 176.709 132.372 176.034 134.574C175.36 136.776 175.369 139.217 175.087 141.548H175.078ZM210.621 226.282C213.03 226.161 215.432 225.918 217.817 225.556C221.069 224.899 224.27 223.951 227.488 223.089C228.223 222.868 228.937 222.583 229.621 222.236C233.667 220.375 237.73 218.557 241.734 216.611C243.23 215.955 244.608 215.058 245.814 213.956C248.05 211.711 250.039 209.227 252.113 206.829C253.698 205.22 254.936 203.302 255.749 201.195C255.935 200.601 256.184 200.029 256.492 199.488C257.716 197.103 258.22 194.413 257.943 191.746C257.909 191.571 257.852 191.402 257.772 191.243C257.659 191.4 257.556 191.566 257.465 191.738C256.833 193.137 256.253 194.554 255.561 195.929C252.07 202.851 247.162 208.459 240.257 212.146C239.531 212.539 238.866 213 238.14 213.41C237.235 213.888 236.322 214.357 235.383 214.741C231.918 216.133 228.409 217.422 224.969 218.873C221.53 220.324 217.91 220.486 214.283 220.332C211.884 220.23 209.503 219.718 207.113 219.615C203.221 219.47 199.337 219.453 195.538 218.412C194.762 218.19 193.917 218.19 193.114 218.036C189.572 217.362 185.833 217.182 183.008 214.468C182.663 214.158 182.255 213.925 181.813 213.785C181.657 213.729 181.492 213.706 181.327 213.72C181.162 213.733 181.001 213.781 180.857 213.862C180.285 214.376 179.767 214.949 179.312 215.569C179.246 215.693 179.212 215.831 179.212 215.97C179.212 216.11 179.246 216.248 179.312 216.372C180.35 217.623 181.511 218.767 182.778 219.786C186.917 222.654 191.8 223.738 196.605 224.66C201.411 225.582 206.157 225.804 210.63 226.282H210.621ZM158.51 81.6611V81.5501H162.659C162.945 81.5368 163.23 81.5054 163.512 81.4563C163.412 81.1771 163.274 80.9129 163.103 80.671C161.208 78.7419 159.39 76.7104 157.35 74.952C154.51 72.4 151.001 70.712 147.235 70.0867C143.932 69.6281 140.576 69.7088 137.299 70.3257C129.924 71.589 123.147 74.7728 116.037 76.8982C115.875 76.9494 115.755 77.1287 115.619 77.2396C115.775 77.3441 115.944 77.4273 116.122 77.4871C117.735 77.803 119.332 78.2042 120.953 78.3834C127.782 79.1687 134.67 79.9796 141.542 80.5856C147.201 81.0807 152.851 81.3111 158.51 81.6611ZM261.656 142.743C261.656 142.179 261.656 141.718 261.656 141.257C261.634 141.008 261.6 140.76 261.554 140.515C261.381 140.742 261.229 140.985 261.101 141.24C258.906 147.17 255.303 152.478 250.602 156.707C248.545 158.534 246.59 160.514 243.919 161.513C243.219 161.834 242.555 162.229 241.938 162.691C241.744 162.844 241.566 163.019 241.409 163.211C241.615 163.409 241.844 163.581 242.092 163.723C243.159 164.218 244.226 164.714 245.319 165.132C245.721 165.33 246.182 165.376 246.616 165.26C247.671 164.747 248.643 164.08 249.501 163.28C251.737 160.898 253.837 158.38 255.988 155.922C257.623 154.217 258.87 152.179 259.642 149.947C259.806 149.514 260.003 149.095 260.231 148.692C261.228 146.872 261.72 144.817 261.656 142.743ZM177.596 157.356C177.823 158.158 178.141 158.931 178.544 159.66C180.097 161.863 181.753 163.988 183.401 166.13C185.85 169.323 185.355 169.058 189.051 166.626L189.307 166.455C189.708 166.182 189.751 165.951 189.307 165.652C187.737 164.622 186.169 163.578 184.604 162.52C183.874 162.059 183.181 161.542 182.53 160.975C181.164 159.686 179.867 158.32 178.518 157.006C178.327 156.864 178.113 156.755 177.887 156.681L177.596 157.356ZM228.418 156.596C228.478 155.932 228.478 155.263 228.418 154.599C228.358 154.232 227.991 153.651 227.727 153.626C226.396 153.545 225.062 153.545 223.732 153.626C223.245 153.626 222.929 154.018 223.493 154.411C224.398 155.051 224.176 155.93 224.107 156.784C223.992 157.383 223.935 157.992 223.937 158.602C223.937 158.96 224.372 159.549 224.637 159.558C225.797 159.609 226.967 159.498 228.128 159.438L228.461 156.758C228.451 156.703 228.437 156.649 228.418 156.596ZM107.561 170.774C107.303 170.829 107.053 170.918 106.818 171.038C105.444 172.012 104.027 172.933 102.755 174.017C102.513 174.213 102.321 174.463 102.193 174.747C102.066 175.031 102.007 175.342 102.022 175.653C102.037 175.964 102.125 176.267 102.279 176.537C102.433 176.808 102.649 177.038 102.909 177.21C103.962 177.917 105.076 178.528 106.238 179.036C106.393 179.081 106.557 179.087 106.715 179.053C106.873 179.019 107.02 178.945 107.143 178.84C107.24 178.707 107.305 178.552 107.332 178.389C107.359 178.226 107.346 178.059 107.296 177.901C107.054 177.511 106.768 177.15 106.443 176.826C105.478 175.537 105.495 174.905 106.545 173.727C107.023 173.198 107.561 172.72 108.022 172.174C108.227 171.926 108.508 171.508 108.423 171.32C108.338 171.132 107.877 170.945 107.561 170.774ZM224.5 141.821V144.271C224.5 146.097 224.952 146.456 226.711 145.918C228.179 145.483 229.621 144.988 231.055 144.458C231.363 144.347 231.585 143.997 231.841 143.75C231.508 143.494 231.192 143.067 230.825 143.024C230.268 143.03 229.714 143.11 229.178 143.263C227.778 143.511 227.172 143.178 227.078 141.821C226.967 140.301 226.071 139.311 225.14 138.304C224.992 138.19 224.828 138.098 224.654 138.031C224.596 138.217 224.559 138.409 224.543 138.603C224.474 139.678 224.474 140.745 224.474 141.821H224.5ZM200.976 157.578C198.577 158.303 196.23 158.986 193.908 159.729C193.782 159.803 193.677 159.91 193.604 160.037C193.531 160.164 193.491 160.308 193.49 160.454C193.699 161.448 193.958 162.431 194.267 163.399C194.327 163.5 194.412 163.584 194.513 163.644C194.614 163.704 194.729 163.737 194.847 163.74C195.576 163.526 196.271 163.21 196.913 162.802C197.152 162.622 197.083 161.948 197.083 161.521C197.083 159.959 197.228 159.695 198.688 159.174C199.456 158.901 200.242 158.662 201.001 158.371C201.088 158.333 201.166 158.277 201.229 158.206C201.292 158.136 201.34 158.052 201.368 157.962C201.351 157.868 201.095 157.723 200.976 157.578ZM108.397 176.629C108.643 176.519 108.878 176.385 109.097 176.228C109.712 175.699 110.292 175.136 110.898 174.589C111.974 173.616 111.974 173.616 110.83 172.669C110.454 172.353 110.079 171.858 109.55 172.413C108.838 173.135 108.165 173.896 107.535 174.692C107.427 174.87 107.363 175.072 107.35 175.28C107.336 175.488 107.373 175.696 107.458 175.887C107.543 176.077 107.673 176.244 107.836 176.374C108 176.503 108.192 176.591 108.397 176.629ZM101.407 178.388C101.419 178.61 101.454 178.83 101.509 179.045C102.22 180.415 103.299 181.559 104.625 182.348C104.71 182.388 104.803 182.409 104.898 182.409C104.992 182.409 105.085 182.388 105.171 182.348C105.362 182.223 105.519 182.051 105.625 181.848C105.732 181.645 105.785 181.419 105.78 181.19C105.775 180.961 105.711 180.738 105.596 180.54C105.48 180.343 105.316 180.178 105.12 180.061C104.104 179.472 103.071 178.917 102.038 178.354C101.885 178.268 101.637 178.362 101.407 178.388Z" fill="black"/>
<path d="M18.31 109.069C18.477 109.284 18.6309 109.509 18.771 109.743C19.129 110.668 19.59 111.55 20.1452 112.372C23.5752 116.207 27.8961 119.138 32.7268 120.908C38.0175 122.865 43.5521 124.086 49.1752 124.536C54.6209 125.073 60.0923 125.321 65.5381 125.824C71.7606 126.396 77.9746 127.019 83.9582 128.991C84.5898 129.196 85.2129 129.444 85.836 129.683C88.5504 130.724 91.3159 131.68 93.9706 132.858C95.3272 133.561 96.6134 134.393 97.8116 135.342C98.172 135.64 98.4632 136.013 98.6652 136.434C98.7296 136.665 98.7499 136.905 98.7249 137.143C98.496 137.128 98.2725 137.067 98.0677 136.964C95.5923 134.975 92.5451 134.104 89.8051 132.696C83.8301 129.52 77.3003 128.71 70.7961 127.805C67.8598 127.395 64.8809 127.31 61.9275 127.079C53.3918 126.43 44.8561 126.038 36.5594 123.708C30.4051 122 24.7801 119.226 20.2306 114.617C19.1345 113.405 18.1782 112.074 17.3796 110.648C17.2607 110.491 17.191 110.303 17.1794 110.107C17.1679 109.911 17.215 109.715 17.3148 109.546C17.4146 109.377 17.5625 109.241 17.7397 109.156C17.917 109.071 18.1155 109.041 18.31 109.069Z" fill="black"/>
<path d="M13.2754 57.0613L13.8473 56.165C14.0777 56.404 14.4192 56.5918 14.5387 56.882C15.6825 59.5025 16.8092 62.1315 17.8847 64.7861C17.9613 65.1893 17.9613 65.6035 17.8847 66.0067C17.4785 65.8598 17.0983 65.6495 16.7579 65.3836C16.4547 64.9709 16.2184 64.5128 16.058 64.0264C15.2727 62.1998 14.496 60.3561 13.7448 58.5124C13.5636 58.037 13.4069 57.5527 13.2754 57.0613Z" fill="black"/>
<path d="M123.42 103.845C120.126 103.683 116.993 103.649 113.895 103.358C109.145 102.919 104.467 101.902 99.9644 100.328C91.5994 97.4347 84.0794 92.979 76.9777 87.7893C71.8989 84.0763 66.8458 80.312 62.0146 76.2832C59.36 74.0724 57.1749 71.3069 54.8446 68.7291C54.4904 68.2292 54.2941 67.6345 54.2812 67.022C55.186 66.5525 55.408 67.5085 55.8774 67.9609C58.4808 70.5216 60.9988 73.1762 63.6961 75.5406C69.7426 80.6869 76.1305 85.4179 82.8161 89.7013C88.8934 93.8228 95.4964 97.1099 102.448 99.4747C107.381 101.049 112.485 102.024 117.65 102.377C119.229 102.496 120.809 102.641 122.388 102.795C122.743 102.831 123.092 102.92 123.42 103.06C123.617 103.145 123.745 103.393 123.898 103.563L123.42 103.845Z" fill="black"/>
<path d="M126.833 208.339C125.485 208.22 124.153 208.544 124.042 206.683C124.042 206.376 123.043 206.12 122.497 205.83C121.951 205.54 121.234 205.446 121.584 204.729C121.754 204.362 122.437 204.225 122.941 204.046C123.181 204.003 123.426 204.003 123.666 204.046C123.487 203.824 123.342 203.508 123.103 203.406C122.549 203.181 121.978 202.998 121.396 202.859C119.953 202.509 118.519 202.211 117.837 200.58C117.402 199.891 116.932 199.224 116.428 198.583C116.301 198.145 116.258 197.688 116.3 197.234C116.769 197.203 117.239 197.252 117.691 197.38C118.222 197.686 118.727 198.035 119.202 198.421C119.424 198.526 119.656 198.609 119.894 198.668C119.911 198.379 119.871 198.089 119.774 197.815C119.555 197.547 119.289 197.321 118.989 197.149C117.642 196.393 116.571 195.227 115.933 193.82C115.788 193.427 115.822 192.693 116.078 192.506C116.344 192.308 116.538 192.03 116.632 191.713C116.726 191.396 116.714 191.057 116.599 190.747C116.46 190.187 116.46 189.601 116.599 189.04C116.727 188.639 117.205 188.101 117.555 188.076C118.758 187.99 118.75 187.316 118.767 186.368C118.844 185.67 119.053 184.992 119.382 184.371C119.462 184.252 119.572 184.154 119.7 184.089C119.829 184.023 119.971 183.991 120.116 183.996C120.27 184.058 120.408 184.155 120.52 184.279C120.631 184.404 120.711 184.552 120.756 184.713C120.853 185.28 120.83 185.862 120.688 186.42C120.525 187.009 120.406 187.444 121.046 187.854C121.234 187.982 121.208 188.596 121.106 188.938C120.942 189.368 120.724 189.775 120.457 190.15C120.047 190.858 119.544 191.55 120.338 192.343C120.403 192.423 120.45 192.517 120.473 192.618C120.497 192.718 120.497 192.823 120.474 192.924C119.842 194.87 121.234 196.389 121.55 198.139C121.635 198.6 121.695 199.044 122.403 198.583C123.112 198.122 123.487 198.814 123.76 199.36C124.127 200.085 124.29 200.973 125.468 200.324C125.724 200.188 126.415 200.58 126.731 200.905C127.047 201.229 127.243 201.912 127.584 202.347C128.011 202.819 128.464 203.267 128.942 203.687C129.898 204.652 130.896 205.582 131.792 206.607C132.151 207.008 132.202 207.349 131.323 207.341C130.341 207.461 129.374 207.684 128.438 208.007C127.832 208.22 127.217 208.28 126.833 208.339Z" fill="black"/>
<path d="M132.689 184.388C132.962 182.348 133.184 180.624 133.406 178.9C133.487 178.553 133.51 178.196 133.474 177.841C133.378 177.47 133.41 177.076 133.564 176.724C133.719 176.373 133.988 176.084 134.328 175.904C136.752 174.069 137.059 174.197 139.449 175.998C143.333 178.823 147.396 181.401 151.399 184.055C153.192 185.242 155.027 186.352 156.828 187.529C157.235 187.746 157.579 188.063 157.827 188.451C158.33 189.535 158.962 189.305 159.781 188.861C161.489 187.862 162.59 188.187 163.657 189.928C163.774 190.066 163.857 190.228 163.901 190.403C163.945 190.579 163.948 190.762 163.91 190.938C163.873 191.115 163.794 191.28 163.682 191.422C163.57 191.563 163.427 191.677 163.264 191.755C159.397 194.315 155.582 196.953 151.664 199.514C150.085 200.555 148.659 199.932 148.344 198.045C148.275 197.67 148.779 197.192 148.95 196.765C149.12 196.338 149.231 195.912 149.086 195.775C146.705 193.214 144.306 190.594 141.848 188.093C140.989 187.289 140.086 186.534 139.142 185.831C138.587 185.378 138.075 185.233 137.623 185.976C137.501 186.14 137.361 186.289 137.204 186.42C135.864 187.777 135.881 187.751 134.311 186.676C133.423 186.019 132.331 185.532 132.689 184.388ZM133.935 184.09C133.935 184.849 134.729 185.302 135.438 185.592C135.711 185.703 136.411 185.199 136.675 184.815C137.529 183.595 137.921 183.338 139.125 184.269C141.207 185.91 143.201 187.66 145.1 189.51C147.038 191.388 148.805 193.453 150.674 195.408C151.254 196.005 151.357 196.518 150.674 197.115C150.486 197.286 150.221 197.397 150.093 197.602C150.031 197.698 149.993 197.808 149.981 197.922C149.969 198.036 149.984 198.152 150.025 198.259C150.116 198.332 150.222 198.386 150.335 198.417C150.448 198.448 150.566 198.455 150.682 198.438C150.924 198.356 151.147 198.229 151.34 198.063C154.754 195.786 158.145 193.51 161.514 191.234C161.856 191.004 162.573 190.85 162.078 190.269C161.908 190.108 161.704 189.987 161.48 189.916C161.257 189.845 161.02 189.826 160.789 189.86C160.217 190.075 159.675 190.362 159.175 190.713C158.168 191.251 157.571 191.166 157.195 190.15C156.698 189.076 155.845 188.207 154.779 187.692C149.044 184.115 143.103 180.863 137.887 176.518C137.643 176.331 137.357 176.207 137.054 176.156C136.75 176.105 136.439 176.13 136.147 176.228C135.856 176.326 135.592 176.493 135.381 176.717C135.169 176.94 135.016 177.212 134.934 177.509C134.575 179.6 134.311 181.742 133.944 184.09H133.935Z" fill="black"/>
<path d="M166.593 201.809C167.336 201.067 168.087 200.333 168.821 199.59C169.026 199.377 169.205 199.138 169.393 198.916C169.137 198.831 168.881 198.728 168.616 198.66C168.144 198.536 167.724 198.265 167.416 197.886C167.109 197.507 166.931 197.039 166.909 196.551C166.755 194.511 167.805 192.796 168.505 190.995C168.761 190.329 169.359 190.466 169.692 191.234C170.309 192.866 170.52 194.623 170.306 196.355C170.247 197.525 170.212 197.499 171.407 197.209C172.602 196.919 173.584 196.68 174.659 196.355C174.881 196.295 175.82 195.98 174.659 195.775C174.553 195.5 174.553 195.196 174.659 194.921C174.982 194.604 175.333 194.318 175.709 194.068C176.025 193.786 176.367 193.521 175.709 193.214C175.052 192.907 175.351 192.574 175.837 192.36C176.324 192.147 176.691 192.215 176.981 191.951C177.46 191.401 177.881 190.803 178.236 190.167C178.296 190.064 178.116 189.825 178.048 189.655C177.908 189.696 177.774 189.753 177.647 189.825C177.348 190.105 177.029 190.362 176.691 190.594C176.409 190.648 176.119 190.648 175.837 190.594C175.837 190.312 175.837 189.953 175.965 189.74C176.358 189.279 176.819 188.886 177.288 188.468C177.419 188.316 177.528 188.146 177.613 187.965C177.435 187.932 177.256 187.912 177.075 187.905C176.222 187.905 176.128 187.64 176.623 187.051C176.81 186.812 177.143 186.599 177.186 186.343C177.267 185.654 177.31 184.962 177.314 184.269C177.169 184.269 176.938 184.209 176.904 184.269C176.486 184.943 175.095 184.567 175.197 185.831C175.249 186.081 175.249 186.34 175.197 186.59C175.119 186.81 174.972 186.998 174.779 187.128C174.719 187.171 174.403 186.949 174.335 186.795C174.155 186.428 174.028 186.037 173.96 185.634C173.768 183.828 172.869 182.17 171.459 181.025C170.998 180.658 170.375 180.171 170.972 179.514C171.087 179.389 171.228 179.29 171.385 179.227C171.543 179.163 171.713 179.135 171.882 179.146C172.052 179.157 172.217 179.205 172.365 179.288C172.513 179.371 172.641 179.486 172.739 179.625C173.712 180.598 174.557 181.699 175.505 182.698C175.817 182.941 176.162 183.139 176.529 183.287L177.271 181.486L176.682 181.554L175.829 181.614C175.829 181.281 175.667 180.846 175.829 180.641C176.572 179.68 177.37 178.762 178.219 177.892C178.611 177.483 179.158 177.892 179.132 178.601C179.09 179.454 178.919 180.308 178.808 181.162C178.808 181.46 178.62 181.853 178.748 182.058C179.508 183.236 179.124 184.422 178.876 185.617C178.816 185.907 178.722 186.368 178.876 186.471C179.969 187.435 179.73 188.724 179.474 189.791C178.927 192.309 178.492 194.913 176.367 196.782C176.017 197.16 175.585 197.453 175.103 197.636C172.713 198.182 171.006 199.897 168.983 201.05C168.212 201.388 167.404 201.637 166.576 201.792L166.593 201.809Z" fill="black"/>
<path d="M142.932 211.549C142.88 211.549 142.821 211.549 142.786 211.549C141.156 210.363 139.321 211.301 137.605 211.045C137.248 211.02 136.894 210.963 136.547 210.875C135.821 210.619 135.318 210.141 135.873 209.381C136.427 208.621 135.975 208.34 135.352 208.066C134.729 207.793 133.935 207.469 133.261 207.102C132.586 206.735 131.878 206.248 132.33 205.446C132.783 204.644 133.559 205.13 134.157 205.489C134.523 205.673 134.858 205.915 135.147 206.206C136.598 207.913 138.63 208.672 140.644 209.227C141.207 209.443 141.809 209.539 142.411 209.511C143.013 209.484 143.603 209.332 144.144 209.065C145.04 208.519 145.996 207.862 147.148 208.561C147.276 208.638 147.549 208.561 147.729 208.476C147.911 208.396 148.085 208.299 148.249 208.186C148.05 208.079 147.833 208.01 147.609 207.981C147.118 207.997 146.629 207.897 146.184 207.688C145.739 207.478 145.35 207.167 145.048 206.778C144.886 206.574 144.772 206.336 144.716 206.081C144.66 205.827 144.663 205.563 144.724 205.309C145.04 204.627 145.808 204.729 146.32 205.122C147.298 205.857 148.215 206.67 149.06 207.554C149.2 207.677 149.308 207.832 149.373 208.006C149.439 208.179 149.46 208.367 149.435 208.551C149.411 208.735 149.341 208.911 149.233 209.061C149.124 209.212 148.98 209.334 148.813 209.415C146.926 210.269 144.963 211.028 143.034 211.822L142.932 211.549Z" fill="black"/>
<path d="M156.111 169.92L152.56 170.773C151.835 170.953 151.067 171.414 150.648 170.287C150.597 170.15 150.153 170.108 149.889 170.099C149.127 170.155 148.363 170.155 147.601 170.099C147.174 170.022 146.824 169.57 146.432 169.288C146.746 168.959 147.102 168.672 147.49 168.435C147.84 168.273 148.344 168.392 148.694 168.281C149.044 168.17 149.65 168.025 149.846 167.709C150.086 167.348 150.434 167.072 150.84 166.919C151.245 166.766 151.689 166.744 152.108 166.856C153.414 166.984 154.72 167.043 156.026 167.146C156.278 167.155 156.524 167.225 156.743 167.351C158.108 168.204 159.474 169.135 160.806 170.082C161.045 170.244 161.122 170.637 161.275 170.936C160.959 171.004 160.592 171.209 160.345 171.106C159.175 170.645 157.784 171.183 156.734 170.116C156.64 170.014 156.342 170.116 156.145 170.116L156.111 169.92Z" fill="black"/>
<path d="M168.045 174.333C168.787 174.47 169.333 174.572 169.888 174.658C170.665 174.777 171.126 174.658 170.742 173.693C170.544 173.224 170.429 172.725 170.4 172.217C170.4 172.003 170.691 171.721 170.913 171.593C171.135 171.465 171.374 171.807 171.467 171.995C171.988 173.045 172.483 174.111 172.927 175.196C173.029 175.426 172.884 175.759 172.859 176.049C172.628 175.981 172.398 175.904 172.167 175.853C171.937 175.802 171.741 175.802 171.527 175.776C171.645 175.98 171.798 176.162 171.98 176.314C172.978 176.869 173.277 176.672 173.371 175.511C173.422 174.846 173.072 173.881 174.045 173.753C174.335 173.71 174.813 174.658 175.104 175.204C175.452 175.886 175.754 176.59 176.008 177.312C176.213 177.859 176.162 178.166 175.428 178.414C174.98 178.574 174.502 178.636 174.028 178.595C173.553 178.553 173.093 178.41 172.679 178.175C171.467 177.534 170.119 177.15 168.838 176.63C168.451 176.494 168.092 176.289 167.78 176.023C167.503 175.701 167.268 175.346 167.08 174.965L168.045 174.333Z" fill="black"/>
<path d="M164.827 173.505C164.214 173.565 163.597 173.565 162.984 173.505C162.552 173.335 162.151 173.095 161.797 172.796C162.059 172.473 162.364 172.186 162.702 171.943C163.197 171.687 163.786 171.627 164.298 171.397C164.52 171.303 164.657 171.021 164.827 170.825C164.554 170.756 164.281 170.68 163.974 170.628C163.88 170.628 163.777 170.705 163.683 170.722C163.154 170.808 162.318 171.123 162.164 170.919C161.682 170.262 161.342 169.512 161.165 168.716C161.012 168.042 161.823 167.59 162.565 167.931C163.069 168.17 163.496 168.563 163.982 168.844C165.135 169.502 166.338 170.082 167.396 170.816C167.855 171.242 168.244 171.738 168.549 172.284C168.005 172.775 167.396 173.189 166.739 173.513C166.086 173.635 165.417 173.65 164.759 173.556L164.827 173.505Z" fill="black"/>
<path d="M166.602 201.809C166.508 202.151 166.517 202.663 166.304 202.808C164.451 203.764 162.556 204.652 160.661 205.531C160.047 205.813 159.458 205.898 159.304 204.959C159.304 204.728 159.117 204.327 159.048 204.336C158.775 204.336 158.357 204.447 158.289 204.635C157.742 206.043 157.042 205.326 156.462 204.746C155.882 204.165 154.968 203.807 155.446 202.919C155.924 202.031 156.786 202.458 157.529 202.612C158.241 202.691 158.942 202.849 159.62 203.081C161.438 203.935 162.906 203.201 164.315 202.176C164.622 201.907 164.998 201.729 165.401 201.664C165.805 201.599 166.218 201.65 166.594 201.809H166.602Z" fill="black"/>
<path d="M152.654 211.635C152.398 211.208 151.937 210.781 151.945 210.363C151.986 209.807 152.222 209.284 152.611 208.886C153.481 208.024 154.423 207.238 155.428 206.539C155.804 206.283 156.802 205.31 156.777 206.949C157.016 206.949 157.255 206.872 157.502 206.846L158.757 206.735C158.603 207.17 158.578 207.777 158.27 208.016C156.905 209.082 155.462 210.047 154.003 211.02C153.571 211.263 153.12 211.468 152.654 211.635Z" fill="black"/>
<path d="M172.295 190.337C172.116 189.142 171.911 187.947 171.766 186.744C171.766 186.496 171.877 186.078 172.047 186.01C172.218 185.942 172.79 186.01 172.85 186.164C173.555 187.785 174.213 189.427 174.821 191.089C174.873 191.225 174.42 191.541 174.198 191.771C173.14 190.764 173.464 191.891 173.345 192.326C173.337 192.429 173.314 192.529 173.276 192.625C173.029 193.009 172.764 193.385 172.5 193.769C172.34 193.363 172.22 192.943 172.141 192.514C172.073 191.806 172.141 191.08 172.141 190.363L172.295 190.337Z" fill="black"/>
<path d="M151.058 203.133C152.432 203.611 153.823 204.08 155.189 204.601C155.36 204.661 155.437 204.977 155.565 205.173C155.35 205.255 155.127 205.309 154.899 205.335C154.54 205.335 154.19 205.258 153.84 205.224C153.175 205.173 153.26 205.224 153.593 205.787C154.003 206.47 153.269 206.641 152.782 206.641C151.826 206.735 149.837 205.25 149.59 204.328C149.393 203.611 149.837 203.295 151.058 203.133Z" fill="black"/>
<path d="M141.917 208.237C141.05 207.758 140.215 207.225 139.416 206.641C139.27 206.476 139.169 206.276 139.122 206.061C139.076 205.845 139.086 205.622 139.151 205.412C139.292 205.246 139.466 205.112 139.661 205.018C139.857 204.924 140.07 204.872 140.287 204.865C140.894 204.93 141.478 205.138 141.99 205.471C142.502 205.805 142.927 206.256 143.231 206.786C143.556 207.58 143.129 208.015 141.917 208.237Z" fill="black"/>
<path d="M237.483 193.982C237.475 194.033 237.475 194.085 237.483 194.136C237.56 194.665 237.654 195.194 237.739 195.723C238.267 195.439 238.777 195.122 239.267 194.776C239.608 194.511 239.6 194.281 239.045 194.306C238.132 194.358 238.294 193.786 238.601 193.316C238.823 193.032 239.118 192.814 239.455 192.685C240.308 192.275 241.213 191.891 242.118 191.549C242.254 191.491 242.403 191.465 242.551 191.474C242.699 191.483 242.843 191.526 242.972 191.601C243.041 191.732 243.077 191.879 243.077 192.027C243.077 192.176 243.041 192.323 242.972 192.454C242.754 192.8 242.517 193.133 242.263 193.453C241.606 194.554 240.24 195.237 240.308 196.782C240.308 196.978 240.018 197.183 239.873 197.396C239.122 198.455 238.166 199.223 237.953 200.811C237.765 202.117 236.305 203.32 235.247 204.413C234.174 205.434 233.034 206.381 231.832 207.246C231.066 207.838 230.187 208.268 229.25 208.51C228.312 208.752 227.335 208.802 226.378 208.655C224.483 208.467 222.529 208.971 220.599 209.039C217.399 209.158 214.206 209.193 211.014 209.218C210.16 209.218 209.742 208.826 210.271 207.929C210.365 207.776 210.271 207.528 210.322 207.323C210.126 207.323 209.87 207.323 209.759 207.4C209.025 208.1 208.496 207.929 208.052 207.076C207.557 206.034 207.711 204.515 208.428 204.285C208.663 204.223 208.909 204.212 209.149 204.254C209.389 204.295 209.617 204.387 209.819 204.524C210.644 205.124 211.367 205.853 211.961 206.683C212.755 207.887 213.779 207.921 215.026 207.835C215.968 207.849 216.908 207.944 217.834 208.117C218.02 208.147 218.211 208.147 218.397 208.117C219.43 207.878 220.463 207.614 221.504 207.375C222.008 207.255 222.511 207.255 221.786 206.589C221.43 206.241 221.219 205.771 221.196 205.274C221.172 204.777 221.337 204.289 221.658 203.909C222.218 203.122 222.869 202.403 223.595 201.767C224.41 201.004 225.265 200.286 226.156 199.616C226.493 199.435 226.856 199.308 227.232 199.24C227.34 199.596 227.383 199.969 227.36 200.341C226.817 202.38 225.752 204.242 224.27 205.744C223.689 206.359 223.92 206.393 224.551 206.47C225.062 206.525 225.56 206.66 226.028 206.871C227.018 207.366 227.838 207.545 228.435 206.316C228.563 206.051 229.007 205.906 229.34 205.778C230.066 205.488 230.987 205.445 230.979 204.285C230.979 204.165 231.739 203.9 232.114 203.952C232.598 204.03 233.093 203.994 233.56 203.846C234.027 203.697 234.453 203.441 234.803 203.098C234.957 202.911 235.08 202.7 235.17 202.475C234.948 202.427 234.722 202.404 234.496 202.407C234.146 202.458 233.804 202.629 233.454 202.646C233.337 202.645 233.221 202.616 233.117 202.561C233.013 202.506 232.924 202.427 232.857 202.33C232.838 202.214 232.848 202.096 232.887 201.986C232.926 201.875 232.992 201.777 233.079 201.698C233.821 201.365 234.598 201.109 235.358 200.845C235.534 200.76 235.702 200.66 235.861 200.546L235.383 200.264C234.649 199.855 234.956 199.513 235.52 199.368C235.991 199.247 236.424 199.01 236.78 198.679C237.137 198.349 237.405 197.934 237.56 197.473C237.628 197.319 237.696 197.063 237.62 196.987C237.389 196.748 235.682 197.166 235.469 197.473C235.207 197.906 234.922 198.325 234.615 198.728C234.549 198.8 234.46 198.849 234.363 198.866C234.267 198.883 234.167 198.867 234.08 198.821C233.993 198.775 233.924 198.702 233.883 198.612C233.843 198.523 233.833 198.422 233.855 198.327C233.919 197.974 234.025 197.63 234.171 197.302C234.974 195.356 235.878 193.444 235.025 191.233C234.905 190.935 235.409 190.098 235.75 190.004C236.003 189.998 236.254 190.058 236.477 190.178C236.7 190.297 236.888 190.473 237.022 190.687C237.284 191.772 237.472 192.872 237.585 193.982H237.483Z" fill="black"/>
<path d="M210.109 169.229C212.004 169.502 212.533 169.749 212.84 171.234C214.172 177.704 216.784 183.714 219.182 189.808C219.536 190.668 219.73 191.585 219.754 192.514C219.754 193.299 220.01 193.53 220.702 193.504H221.009C223.151 193.41 223.134 193.683 223.476 195.92C223.655 197.098 223.066 197.704 221.854 197.857C217.182 198.426 212.513 198.995 207.847 199.564C207.062 199.658 206.14 199.94 205.764 198.847C205.389 197.755 205.892 196.065 206.891 195.809C208.077 195.51 208.052 194.955 207.932 193.922C207.685 191.737 207.727 189.526 207.505 187.333C207.301 185.31 206.908 183.295 206.584 181.281C206.447 180.376 206.037 180.163 205.09 180.427C202.913 181.136 203.016 181.016 202.102 178.891C201.877 178.436 201.805 177.92 201.895 177.421C201.986 176.921 202.235 176.464 202.606 176.117C204.211 174.188 205.747 172.199 207.488 170.406C208.094 169.8 209.213 169.621 210.109 169.229ZM214.735 197.021L214.786 197.337C216.852 197.029 218.926 196.748 220.983 196.398C221.265 196.346 221.496 195.996 221.752 195.792C221.47 195.553 221.214 195.194 220.898 195.1C220.444 195.024 219.983 195.004 219.524 195.04C218.209 194.989 217.765 194.58 218.064 193.333C218.287 192.124 218.101 190.874 217.535 189.782C216.289 186.71 214.974 183.637 213.916 180.504C212.994 177.85 212.328 175.118 211.56 172.421C211.201 171.183 210.826 170.85 209.597 171.089C209.01 171.218 208.473 171.515 208.052 171.943C206.652 173.36 205.32 174.845 203.972 176.313C203.688 176.674 203.522 177.113 203.496 177.571C203.47 178.029 203.585 178.484 203.827 178.874C204.492 179.591 205.013 178.874 205.534 178.618C206.618 178.054 207.079 178.208 207.531 179.36C207.806 179.967 208.001 180.607 208.112 181.264C208.453 184.149 208.752 187.043 209.033 189.928C209.187 191.507 209.17 193.103 209.409 194.656C209.674 196.364 209.759 196.364 208.18 197.004C207.873 197.132 207.659 197.499 207.395 197.746C207.704 197.844 208.026 197.899 208.351 197.909C210.493 197.635 212.618 197.32 214.735 197.021Z" fill="black"/>
<path d="M223.962 169.468C224.585 169.69 225.012 169.877 225.455 169.988C225.899 170.099 226.309 170.27 226.608 170.116C227.811 169.434 228.639 170.116 229.527 170.748C230.415 171.38 231.115 171.789 231.9 172.327C232.111 172.464 232.278 172.66 232.378 172.891C232.864 174.282 233.351 175.682 233.761 177.107C233.855 177.423 233.624 177.824 233.547 178.191C233.231 178.072 232.822 178.038 232.625 177.807C231.96 177.047 230.534 176.954 230.543 175.562C230.543 175.426 230.167 175.238 229.937 175.153C228.929 174.803 227.922 174.427 226.889 174.162C226.181 173.983 225.396 174.043 225.643 172.899C225.686 172.72 225.276 172.396 225.02 172.216C224.421 171.924 223.85 171.578 223.313 171.183C223.184 171.013 223.096 170.814 223.057 170.604C223.019 170.393 223.03 170.177 223.091 169.971C223.168 169.741 223.731 169.621 223.962 169.468Z" fill="black"/>
<path d="M241.161 185.942C242.014 185.754 242.279 186.104 242.083 186.847C241.844 187.7 241.647 188.639 241.349 189.51C241.152 190.065 240.768 191.029 240.495 191.012C239.703 190.999 238.944 190.695 238.361 190.158C237.237 188.705 236.219 187.173 235.314 185.575C235.222 185.36 235.188 185.126 235.213 184.894C235.239 184.662 235.323 184.441 235.459 184.252C235.732 184.021 236.364 184.209 236.833 184.252C236.927 184.252 237.004 184.354 237.089 184.405C238.617 185.361 238.617 185.361 239.428 183.748C239.514 183.569 239.582 183.321 239.735 183.227C240.022 183.077 240.322 182.954 240.632 182.86C240.745 183.131 240.809 183.42 240.819 183.714C240.751 184.209 240.529 184.696 240.452 185.191C240.367 185.916 240.452 185.967 241.161 185.942Z" fill="black"/>
<path d="M233.607 179.592C234.46 179.72 235.083 179.839 235.689 179.89C235.851 179.89 236.031 179.728 236.193 179.634C236.078 179.497 235.949 179.371 235.809 179.259C235.314 178.96 234.434 178.73 234.383 178.405C234.339 177.647 234.504 176.891 234.861 176.22C234.943 176.044 235.073 175.895 235.236 175.791C235.399 175.686 235.589 175.631 235.783 175.631C235.977 175.631 236.167 175.686 236.33 175.791C236.493 175.895 236.624 176.044 236.705 176.22C237.422 177.85 238.062 179.515 238.643 181.188C238.796 181.623 238.796 182.519 238.643 182.596C237.966 182.938 237.2 183.066 236.449 182.963C235.341 182.567 234.287 182.036 233.308 181.384C232.992 181.188 232.608 180.573 232.71 180.351C232.847 179.976 233.41 179.762 233.607 179.592Z" fill="black"/>
<path d="M201.828 211.626C201.435 211.447 200.624 211.276 200.59 211.003C200.553 210.711 200.581 210.414 200.671 210.134C200.761 209.854 200.911 209.597 201.111 209.381C202.734 208.209 204.701 207.609 206.702 207.674C206.889 207.674 207.265 207.973 207.239 208.058C207.026 208.911 207.606 208.809 208.093 208.911C208.332 208.963 208.691 209.244 208.691 209.424C208.691 209.603 208.426 209.927 208.221 210.123C208.058 210.25 207.863 210.329 207.658 210.354C205.805 210.789 203.919 211.19 201.828 211.626Z" fill="black"/>
<path d="M233.497 197.397C232.959 199.01 232.524 200.521 231.935 201.981C231.721 202.51 231.295 203.27 230.441 202.536C230.356 202.459 229.989 202.629 229.827 202.775C229.485 203.082 229.229 203.483 228.871 203.765C228.622 203.886 228.353 203.962 228.077 203.987C228.077 203.705 227.974 203.355 228.077 203.133C228.854 201.938 229.707 200.794 230.467 199.599C230.962 198.831 231.32 197.986 231.781 197.218C232.032 196.901 232.318 196.615 232.635 196.364L233.497 197.397Z" fill="black"/>
<path d="M202.512 203.884C202.739 203.324 203.069 202.811 203.485 202.373C204.185 201.869 204.74 202.509 205.192 203.013C205.943 203.867 206.66 204.831 207.326 205.787C207.462 205.966 207.326 206.35 207.326 206.641C207.051 206.627 206.782 206.56 206.532 206.444C205.994 206.052 205.619 205.958 205.132 206.589C204.646 207.221 203.877 206.999 203.51 206.351C203.112 205.556 202.779 204.731 202.512 203.884Z" fill="black"/>
<path d="M196.434 201.989C196.434 202.97 195.93 203.602 195.196 203.602C194.283 203.602 193.25 202.228 193.25 201.041C193.215 200.609 193.341 200.178 193.604 199.833C193.867 199.488 194.249 199.253 194.675 199.172C195.589 199.112 196.468 200.52 196.434 201.989Z" fill="black"/>
<path d="M248.485 146.097C249.339 146.097 249.842 146.438 249.416 147.3C248.761 148.615 248.029 149.889 247.222 151.116C246.579 152.078 245.85 152.981 245.045 153.813C244.038 154.863 242.647 155.093 241.273 155.341C239.07 155.751 236.877 156.237 234.683 156.672C234.19 156.784 233.686 156.833 233.181 156.818C233.057 156.81 232.94 156.761 232.847 156.679C232.755 156.597 232.692 156.487 232.669 156.365C232.647 156.243 232.666 156.118 232.723 156.008C232.78 155.898 232.872 155.811 232.984 155.759C233.505 155.554 234.038 155.383 234.581 155.247C235.938 154.854 236.194 154.436 236.382 152.985C236.578 152.034 236.832 151.097 237.141 150.177C237.163 149.99 237.163 149.801 237.141 149.613C236.975 149.692 236.823 149.795 236.689 149.921C236.015 150.894 235.323 151.858 235.622 153.173C235.673 153.412 235.494 153.702 235.417 153.975C235.118 153.83 234.623 153.736 234.564 153.523C234.376 152.874 234.06 152.003 234.325 151.517C235.322 149.796 236.404 148.127 237.568 146.515C237.675 146.424 237.802 146.361 237.939 146.331C238.076 146.302 238.219 146.306 238.353 146.344C238.581 146.572 238.718 146.876 238.738 147.198C238.744 149.149 238.312 151.077 237.474 152.84C237.423 153.058 237.46 153.288 237.577 153.48C239.19 153.582 240.82 153.651 242.442 153.702C242.621 153.702 242.809 153.548 242.988 153.472C242.789 153.452 242.592 153.415 242.399 153.361C242.186 153.292 241.992 153.172 241.836 153.011C241.793 152.959 241.964 152.627 242.109 152.533C242.458 152.323 242.823 152.143 243.202 151.995C243.731 151.781 244.286 151.747 243.731 150.877C243.33 150.254 244.004 150.151 244.491 150.271C244.981 150.44 245.516 150.429 245.999 150.239C246.483 150.05 246.883 149.695 247.128 149.238C247.241 148.977 247.327 148.705 247.384 148.427C247.143 148.446 246.903 148.483 246.667 148.538C246.42 148.606 246.189 148.794 245.95 148.803C245.588 148.775 245.228 148.718 244.875 148.632C245.105 148.29 245.259 147.829 245.583 147.642C246.368 147.181 247.231 146.839 248.067 146.455L248.485 146.097Z" fill="black"/>
<path d="M224.379 117.597C225.139 117.742 225.685 117.887 226.24 117.938C226.624 117.981 227.153 118.032 227.392 117.827C228.382 116.974 229.287 117.46 230.26 117.827C231.429 118.245 232.257 119.492 233.674 119.227C233.785 119.227 233.965 119.364 234.05 119.475C235.16 120.943 236.269 122.402 237.336 123.896C237.473 124.084 237.336 124.434 237.379 124.75C237.089 124.75 236.73 124.826 236.525 124.681C235.51 123.964 234.041 123.905 233.435 122.556C233.341 122.351 232.923 122.249 232.633 122.197C231.575 122.018 230.516 121.822 229.449 121.745C228.519 121.677 227.443 122.035 227.367 120.49C227.367 120.328 226.675 120.209 226.308 120.055C225.502 119.758 224.712 119.416 223.944 119.031C223.827 118.913 223.742 118.767 223.696 118.608C223.649 118.448 223.644 118.28 223.679 118.117C223.799 117.819 224.234 117.691 224.379 117.597Z" fill="black"/>
<path d="M248.485 146.097L248.075 146.49C247.821 146.51 247.566 146.496 247.316 146.447C246.962 146.314 246.617 146.16 246.283 145.986C246.539 145.773 246.769 145.457 247.068 145.363C248.169 144.996 247.964 143.818 248.536 143.135C248.536 143.135 248.451 142.828 248.417 142.828C247.72 142.837 247.025 142.911 246.342 143.05C246.121 143.109 246.001 143.605 245.856 143.903C245.771 144.083 245.788 144.33 245.668 144.484C245.487 144.693 245.284 144.882 245.062 145.047C244.891 144.783 244.576 144.509 244.576 144.236C244.576 143.212 244.695 142.196 244.738 141.172C244.862 140.039 244.557 138.9 243.884 137.98C243.707 137.793 243.596 137.553 243.568 137.297C243.568 136.93 243.679 136.443 243.935 136.247C244.113 136.183 244.304 136.165 244.491 136.195C244.677 136.225 244.853 136.301 245.002 136.418C245.441 136.843 245.792 137.351 246.035 137.911C246.495 138.939 246.883 139.997 247.196 141.078C247.469 142.051 247.862 141.932 248.434 141.368C248.536 141.257 248.664 141.155 248.758 141.035C248.997 140.719 249.228 140.387 249.458 140.062C249.142 140.139 248.775 140.344 248.519 140.242C248.263 140.139 247.862 139.644 247.922 139.525C248.127 139.143 248.419 138.815 248.775 138.568C249.453 138.118 250.161 137.714 250.892 137.356C251.165 137.228 251.686 137.135 251.805 137.271C251.899 137.411 251.96 137.571 251.983 137.738C252.007 137.905 251.993 138.075 251.942 138.236C251.583 139.089 251.131 139.883 250.696 140.694C250.474 141.129 250.073 141.454 250.568 142.043C250.755 142.247 250.568 142.939 250.346 143.297C249.791 144.27 249.117 145.167 248.485 146.097Z" fill="black"/>
<path d="M249.356 134.472C249.417 134.979 249.449 135.489 249.45 136C249.45 136.674 249.364 137.459 248.451 136.52C248.451 136.52 248.374 136.401 248.357 136.409C246.471 137.203 245.95 135.257 244.866 134.557C243.753 133.738 242.749 132.78 241.879 131.706C241.64 131.442 241.691 130.904 241.605 130.494C242.008 130.356 242.435 130.3 242.86 130.332C243.425 130.563 243.965 130.849 244.473 131.186C245.19 131.587 245.643 131.519 245.626 130.554C245.584 130.198 245.598 129.838 245.668 129.487C245.822 129.155 246.014 128.843 246.24 128.557C246.462 128.855 246.804 129.129 246.863 129.453C247.034 130.452 247.094 131.476 247.213 132.483C247.258 132.65 247.33 132.809 247.427 132.953C247.504 132.824 247.589 132.696 247.649 132.568C247.708 132.44 247.717 132.236 247.819 132.142C248.107 131.913 248.406 131.699 248.716 131.501C248.921 131.817 249.253 132.116 249.305 132.466C249.352 133.128 249.352 133.793 249.305 134.455L249.356 134.472Z" fill="black"/>
<path d="M238.916 121.668C239.244 121.813 239.551 121.999 239.83 122.223C241.127 123.776 242.39 125.338 243.645 126.952C243.909 127.421 244.099 127.927 244.208 128.454C243.56 128.667 242.843 129.162 242.262 129.043C240.868 128.719 239.505 128.27 238.191 127.703C237.858 127.566 237.67 127.045 237.414 126.704C237.744 126.45 238.109 126.246 238.498 126.098C238.933 125.987 239.42 126.098 239.864 126.055C240.2 125.946 240.516 125.784 240.803 125.577C240.529 125.457 240.242 125.365 239.949 125.304C239.621 125.316 239.295 125.244 239.002 125.097C238.708 124.949 238.457 124.73 238.27 124.459C238.084 124.189 237.969 123.876 237.936 123.549C237.902 123.222 237.952 122.892 238.08 122.59C238.182 122.265 238.609 122.018 238.916 121.668Z" fill="black"/>
<path d="M243.936 146.276C243.896 147.086 243.807 147.892 243.671 148.692C243.62 148.948 243.006 149.323 242.997 149.315C241.836 148.103 242.144 149.793 241.674 149.989C241.355 150.194 241.067 150.444 240.82 150.732C240.744 150.322 240.522 149.878 240.624 149.519C240.949 148.393 241.478 147.326 241.776 146.199C241.998 145.439 242.033 144.62 242.203 143.835C242.303 143.524 242.431 143.224 242.587 142.938C242.903 143.143 243.441 143.297 243.492 143.57C243.686 144.464 243.834 145.367 243.936 146.276Z" fill="black"/>
</g>
<defs>
<clipPath id="clip0_14295_7523">
<rect width="280.884" height="227.34" fill="white" transform="translate(-18)"/>
</clipPath>
</defs>
</svg>
