<svg width="153" height="139" viewBox="0 0 153 139" fill="none" xmlns="http://www.w3.org/2000/svg">
<path d="M8.58098 138C31.2184 138 61.4017 130.389 61.4017 77.112L61.4017 16.2241C61.4017 6.71035 55.6971 0.87272 46.3101 1.00211L16.1268 1.00211C6.69452 1.00211 1.03516 6.71035 1.03516 16.011L1.03516 61.8901C1.03516 71.4038 6.69452 77.112 16.1268 77.112C23.6726 77.112 23.6726 77.112 23.6726 84.723V92.334C23.6726 99.945 16.1268 107.556 8.58098 107.556C1.03516 107.556 1.03516 107.617 1.03516 115.403L1.03516 130.389C1.03516 138 1.03516 138 8.58098 138Z" stroke="#F2F2F2" stroke-width="2" stroke-linecap="round" stroke-linejoin="round"/>
<path d="M99.1318 138C121.769 138 151.953 130.389 151.953 77.112V16.2241C151.953 6.71035 146.24 0.87272 136.861 1.00211L106.678 1.00211C97.2453 1.00211 91.5859 6.71035 91.5859 16.011V61.8901C91.5859 71.4038 97.2453 77.112 106.678 77.112H112.337C112.337 94.2368 114.223 107.556 91.5859 107.556V130.389C91.5859 138 91.5859 138 99.1318 138Z" stroke="#F2F2F2" stroke-width="2" stroke-linecap="round" stroke-linejoin="round"/>
</svg>
