<svg width="450" height="258" viewBox="0 0 450 258" fill="none" xmlns="http://www.w3.org/2000/svg">
<path opacity="0.05" fill-rule="evenodd" clip-rule="evenodd" d="M319.651 2.45196C314.69 6.11239 314.115 12.5417 318.368 16.8122L423.488 122.372C427.286 126.186 427.286 131.814 423.488 135.628L318.368 241.188C314.115 245.458 314.69 251.888 319.651 255.548C324.613 259.208 332.082 258.714 336.335 254.443L441.455 148.883C452.848 137.442 452.848 120.558 441.455 109.117L336.335 3.55659C332.082 -0.713903 324.613 -1.20846 319.651 2.45196ZM161.892 2.45196C156.93 6.11239 156.356 12.5417 160.608 16.8122L265.728 122.372C269.526 126.186 269.526 131.814 265.728 135.628L160.608 241.188C156.356 245.458 156.93 251.888 161.892 255.548C166.853 259.208 174.323 258.714 178.575 254.443L283.695 148.883C295.089 137.442 295.089 120.558 283.695 109.117L178.575 3.55659C174.323 -0.713903 166.853 -1.20846 161.892 2.45196ZM2.84869 16.8122C-1.40396 12.5417 -0.829407 6.11239 4.13205 2.45196C9.09351 -1.20846 16.563 -0.713903 20.8157 3.55659L125.935 109.117C137.329 120.558 137.329 137.442 125.935 148.883L20.8157 254.443C16.563 258.714 9.09351 259.208 4.13208 255.548C-0.829407 251.888 -1.40396 245.458 2.84872 241.188L107.968 135.628C111.766 131.814 111.766 126.186 107.968 122.372L2.84869 16.8122Z" fill="white"/>
</svg>
