<svg width="240" height="141" viewBox="0 0 240 141" fill="none" xmlns="http://www.w3.org/2000/svg">
<g opacity="0.1">
<path d="M220.498 140.854L160.498 140.854L179.998 70.7305L160.498 0.607458L220.498 0.607464L239.998 70.7305L220.498 140.854Z" fill="white"/>
<path fill-rule="evenodd" clip-rule="evenodd" d="M100.498 70.7305L80.998 140.854L140.998 140.854L160.498 70.7305L140.998 0.607457L80.9981 0.607451L100.498 70.7305ZM83.6314 2.61097L102.574 70.7305L83.6313 138.85L139.479 138.85L158.422 70.7305L139.479 2.61097L83.6314 2.61097Z" fill="white"/>
<path d="M62.948 133.841L64.6195 127.831L4.61948 127.831L2.94804 133.841L62.948 133.841Z" fill="white"/>
<path d="M65.7338 123.824L67.4052 117.813L7.40518 117.813L5.73377 123.824L65.7338 123.824Z" fill="white"/>
<path d="M68.5195 113.806L70.1909 107.796L10.1909 107.795L8.51947 113.806L68.5195 113.806Z" fill="white"/>
<path d="M71.3052 103.788L72.9766 97.7779L12.9766 97.7779L11.3052 103.788L71.3052 103.788Z" fill="white"/>
<path d="M74.0909 93.7709L75.7623 87.7604L15.7623 87.7603L14.0909 93.7709L74.0909 93.7709Z" fill="white"/>
<path d="M76.8766 83.7533L78.5481 77.7428L18.5481 77.7428L16.8766 83.7533L76.8766 83.7533Z" fill="white"/>
<path d="M80.4981 70.7305L79.6623 67.7252L19.6623 67.7252L20.4981 70.7305L19.6623 73.7357L79.6623 73.7357L80.4981 70.7305Z" fill="white"/>
<path d="M78.5481 63.7182L76.8766 57.7076L16.8766 57.7076L18.5481 63.7182L78.5481 63.7182Z" fill="white"/>
<path d="M75.7623 53.7006L74.0909 47.6901L14.0909 47.69L15.7623 53.7006L75.7623 53.7006Z" fill="white"/>
<path d="M72.9766 43.683L71.3052 37.6725L11.3052 37.6725L12.9766 43.683L72.9766 43.683Z" fill="white"/>
<path d="M70.1909 33.6654L68.5195 27.6549L8.51948 27.6549L10.1909 33.6654L70.1909 33.6654Z" fill="white"/>
<path d="M67.4052 23.6479L65.7338 17.6373L5.73378 17.6373L7.40519 23.6479L67.4052 23.6479Z" fill="white"/>
<path d="M64.6195 13.6303L62.9481 7.61975L2.94806 7.61975L4.61949 13.6303L64.6195 13.6303Z" fill="white"/>
<path d="M0.998059 0.607444L1.83378 3.61272L61.8338 3.61272L60.9981 0.60745L0.998059 0.607444Z" fill="white"/>
<path d="M61.8338 137.848L1.83377 137.848L0.998047 140.853L60.998 140.853L61.8338 137.848Z" fill="white"/>
</g>
</svg>
