<svg width="292" height="203" viewBox="0 0 292 203" fill="none" xmlns="http://www.w3.org/2000/svg">
<path fill-rule="evenodd" clip-rule="evenodd" d="M52.9272 50.2342C46.9866 53.0753 40.8524 55.3999 34.589 57.337C34.2545 57.4365 33.9187 57.5372 33.5816 57.6383C31.5115 58.2592 29.3936 58.8945 27.2279 59.3387C27.0665 59.7584 26.9212 60.1781 26.7759 60.5979C26.6306 61.0176 26.4853 61.4373 26.3239 61.857C31.1667 65.7313 36.397 69.1535 41.6918 72.1238C53.0563 78.5809 66.0351 83.6174 79.2722 82.6489C81.0802 82.5197 80.6927 84.6506 80.1762 85.6191C79.3367 87.1043 77.7225 88.2665 76.0436 88.3957C62.3546 89.3643 48.8592 84.2631 37.1718 77.6123C32.7164 75.0941 28.1965 72.2529 23.9348 69.089C22.6434 73.3506 21.5457 77.7415 20.5771 82.1323C19.9959 84.9089 14.3137 80.518 14.8948 77.9352C15.8634 73.4152 17.0257 68.9598 18.3817 64.569C15.7343 62.2444 13.216 59.7261 11.0206 57.0787C9.21258 54.9479 14.6365 50.1696 16.38 52.2359C16.7028 52.6233 17.0257 53.0108 17.3485 53.3336C18.7045 53.9147 20.3188 54.1085 21.9976 53.9147C26.7113 41.6463 32.781 29.8943 40.2067 18.9172C41.6272 16.7864 46.9221 21.6292 45.3078 24.0829C39.3673 32.8646 34.3307 42.1628 30.1982 51.8485C30.9522 51.5971 31.6604 51.3305 32.3302 51.0783C33.0369 50.8122 33.7008 50.5623 34.3307 50.3633C39.8838 48.4908 45.3724 46.2954 50.5381 43.5834C59.7717 38.8697 68.2305 32.4772 74.4939 24.2121C76.9476 20.9189 81.6613 13.3641 76.3019 10.5876C72.3631 8.5213 67.262 8.77958 62.9357 9.03787C51.7003 9.74815 40.6587 12.6538 30.3919 17.303C25.1616 19.6275 20.1897 22.4686 15.476 25.7618C15.2251 25.9379 14.9367 26.1357 14.6197 26.3531C11.1033 28.7646 4.0779 33.5825 5.85488 37.9657C7.66287 42.292 1.98062 40.5485 0.81834 37.8366C-2.2165 30.4109 3.91775 25.2452 9.47086 21.3064C15.6051 16.851 22.2559 13.1058 29.2942 10.2647C40.917 5.48646 55.2517 1.80591 67.9077 3.22647C73.1379 3.80761 78.3036 5.68017 81.6613 9.87729C85.6647 14.9138 85.019 20.9189 81.7905 26.1492C75.2042 36.9326 64.0334 44.7457 52.9272 50.2342ZM82.0487 52.7525C82.1779 53.1399 82.307 53.5273 82.3716 53.9793C82.9527 59.6616 81.403 65.3438 77.8516 69.8638C74.5585 74.0609 69.3928 75.9335 65.3894 71.4781C57.8346 63.1484 70.2968 50.9445 77.335 47.4576C79.5305 46.3599 83.5984 50.9445 82.0487 52.7525ZM71.7174 65.8604C73.0088 64.5044 74.0419 62.9547 74.8168 61.2759C75.5271 59.7907 76.0436 58.241 76.3019 56.6267C75.2042 57.5953 74.2356 58.6284 73.2671 59.7907C72.1694 61.1467 71.2654 62.6318 70.4905 64.2461C70.1031 64.9564 69.7802 65.7313 69.5219 66.5061C69.4574 66.6998 69.3928 67.281 69.3282 67.8621C69.6203 67.615 69.9045 67.407 70.1836 67.2027C70.7068 66.8197 71.2121 66.4499 71.7174 65.8604ZM84.6578 70.8969C90.4692 51.461 98.6052 32.2189 109.066 14.7847C110.68 12.0727 116.039 16.7864 114.748 18.9818C108.743 29.0549 103.448 39.7737 98.928 50.7508C101.64 48.1679 104.869 46.2954 108.291 48.4262C113.198 51.5902 112.294 57.9182 110.938 62.761C109.389 68.0558 105.256 72.6404 99.38 72.3175C96.7972 72.1884 92.9229 66.3124 96.4097 66.5061C100.607 66.6998 103.577 63.3421 104.869 59.6616C105.322 58.4007 105.501 57.1003 105.68 55.7914C105.73 55.4246 105.781 55.0571 105.837 54.6896C105.672 54.8134 105.507 54.9306 105.348 55.0433C105.01 55.2833 104.701 55.503 104.481 55.7227C98.6051 61.0821 93.6332 67.7975 90.3401 75.0941C90.0818 75.8043 89.5006 76.0626 88.8549 75.9335C86.7887 75.8043 83.8184 72.7049 84.6578 70.8969ZM144.941 63.2193C144.162 65.2117 143.387 67.2088 142.632 69.2181C141.728 71.6072 147.022 76.2563 148.314 73.3506C150.186 69.2827 152.769 65.6021 155.869 62.309C157.225 60.8239 158.71 59.4033 160.324 58.1764C161.163 57.5307 164.392 55.1416 165.813 55.1416C166.652 56.1102 167.75 56.9496 168.977 56.8204C170.462 56.6913 170.72 55.2062 170.01 53.9793C166.2 47.5222 160.776 48.6845 155.739 52.5588C154.965 50.1051 150.961 47.3931 150.122 49.7822C149.452 51.6108 148.762 53.4292 148.061 55.2432C141.105 60.2812 126.154 67.5729 119.831 68.3787C120.089 67.5392 120.348 66.6998 120.671 65.925C120.704 65.925 120.72 65.925 120.728 65.9169C120.736 65.9088 120.736 65.8927 120.736 65.8604C121.101 65.687 121.558 65.4811 122.082 65.2448C127.221 62.9286 138.817 57.7019 133.134 51.7839C128.807 47.1994 122.996 51.2673 119.702 54.8833C116.086 58.8222 110.92 66.6352 114.923 71.9946C117.506 75.4169 121.252 75.2232 124.868 73.8672C131.91 71.3982 138.563 67.3751 144.941 63.2193ZM196.229 20.7252C207.916 20.5315 220.895 20.6607 231.226 26.0846C232.517 26.7949 234.39 28.4738 234.196 30.1526C234.067 31.7023 232.582 31.8315 231.355 31.1857C225.608 28.1509 219.151 27.5052 212.759 27.1178C206.431 26.6658 200.103 26.5366 193.839 26.6658H193.517C183.831 48.0388 175.694 70.3158 176.081 94.0134C176.146 97.5648 170.27 93.5614 170.205 91.0431C169.818 68.5724 176.922 47.3285 185.832 26.9241C175.242 27.5052 164.717 28.7966 154.321 30.7983C151.673 31.3149 147.412 25.6326 150.124 25.1161C162.78 22.6624 175.629 21.2418 188.545 20.8544C190.869 15.7533 193.258 10.7167 195.712 5.68017C197.068 2.90361 202.492 7.55273 201.394 9.87729C200.112 12.4897 198.864 15.137 197.6 17.8193C197.146 18.7834 196.689 19.7521 196.229 20.7252ZM204.192 52.7529C204.321 53.1402 204.45 53.5275 204.515 53.9793C205.096 59.6616 203.546 65.3438 199.995 69.8638C196.702 74.0609 191.535 75.9335 187.532 71.4781C179.977 63.1484 192.44 50.9445 199.478 47.4576C201.674 46.3599 205.742 50.9445 204.192 52.7525L204.192 52.7529ZM193.861 65.8604C195.152 64.5044 196.185 62.9547 196.96 61.2759C197.67 59.7907 198.187 58.241 198.445 56.6267C197.347 57.5953 196.379 58.6284 195.41 59.7907C194.313 61.1467 193.409 62.6318 192.634 64.2461C192.246 64.9564 191.923 65.7313 191.665 66.5061C191.6 66.6998 191.535 67.2806 191.471 67.8615L191.47 67.8621C191.762 67.6154 192.046 67.4077 192.325 67.2037C192.849 66.8204 193.355 66.4504 193.861 65.8604ZM24.7096 163.629C33.8787 157.882 42.2084 150.844 49.5695 142.902C49.7401 142.719 49.938 142.596 50.1554 142.524C51.6314 140.495 53.3692 138.682 55.3658 137.219C59.692 133.926 65.3097 134.766 68.4737 138.834L68.4749 138.833C69.0556 138.64 69.6364 138.446 70.2817 138.253C71.0565 138.059 71.9605 138.382 72.7354 138.963C74.0268 139.867 75.2536 141.223 75.3182 142.385C75.3828 142.773 75.3828 143.095 75.2536 143.418C75.0102 145.062 74.4799 146.59 73.9332 148.166C73.8998 148.262 73.8665 148.358 73.8331 148.455C73.2519 150.134 72.9291 151.748 72.6062 153.427H72.8645C79.2073 152.688 90.1308 144.667 94.7136 140.677C95.3711 138.971 96.019 137.26 96.6488 135.541C97.4883 133.151 101.492 135.863 102.267 138.317C107.303 134.443 112.727 133.281 116.537 139.738C117.247 140.965 116.989 142.45 115.504 142.579C114.277 142.708 113.179 141.869 112.34 140.9C110.919 140.9 107.691 143.289 106.851 143.935C105.237 145.162 103.752 146.582 102.396 148.067C99.2963 151.361 96.7134 155.041 94.8409 159.109C93.5494 162.015 88.2546 157.366 89.1586 154.977C89.631 153.721 90.1106 152.47 90.5942 151.222C88.207 153.095 85.7324 154.854 83.1313 156.397C80.4839 158.011 77.2553 159.755 73.9622 159.367C70.6691 158.98 67.8925 156.268 66.9885 153.169C66.3428 151.102 66.6011 149.23 67.1823 147.357C65.0049 148.793 62.9604 150.486 60.911 152.183C57.4299 155.065 53.9343 157.959 49.7481 159.626C48.2152 160.222 46.3453 158.796 45.3791 157.145C42.4827 159.699 39.4648 162.123 36.3324 164.404L36.12 164.558C30.5522 168.59 24.1731 173.21 17.5422 175.123C12.1828 176.672 6.62974 175.768 3.07833 171.184C-1.05422 165.889 -0.150226 158.011 0.81834 151.877C3.1429 137.413 9.66457 123.401 17.9297 111.456C21.9331 105.773 26.3885 100.027 31.877 95.6357C36.4616 91.9552 42.8541 87.8872 48.3426 92.3426C52.9272 96.0877 53.1209 101.899 52.346 107.323C51.3129 114.813 48.9884 121.916 45.5015 128.632C44.0164 131.408 38.5924 126.694 39.7547 124.434C42.9187 118.494 45.1787 112.166 46.3409 105.515C46.3788 105.256 46.4185 104.993 46.4587 104.727C46.8302 102.266 47.2464 99.5096 46.6638 97.1209C46.6346 96.9969 46.6104 96.8862 46.5888 96.7874C46.419 96.011 46.4107 95.9732 45.4369 96.0877C45.0057 96.0877 44.4323 96.3366 43.9541 96.5442C43.7878 96.6163 43.6331 96.6835 43.4998 96.7334C41.9501 97.3791 40.5295 98.2186 39.1735 99.1226C30.1336 105.321 23.1599 115.459 17.9297 124.886C12.4411 134.701 7.92116 145.743 6.43602 156.914C6.0486 159.948 5.85488 163.048 6.11317 166.147C6.37145 169.182 7.27545 170.28 10.3749 170.022C15.0821 169.669 19.5749 166.849 23.56 164.348C23.9481 164.105 24.3314 163.864 24.7096 163.629ZM55.5595 147.389C55.5433 147.422 55.5272 147.454 55.4949 147.486C55.8665 147.182 56.237 146.877 56.6073 146.572C59.0679 144.546 61.518 142.528 64.212 140.9C64.1474 140.9 64.1474 140.9 64.1474 140.835C63.7587 140.947 63.37 141.01 63.0224 141.066C62.9658 141.076 62.9103 141.085 62.856 141.094C61.6291 141.352 60.5314 142.191 59.6274 143.031C58.1423 144.258 56.7863 145.743 55.624 147.293C55.5918 147.325 55.5756 147.357 55.5595 147.389ZM126.807 147.68C130.358 147.099 133.716 147.551 137.203 149.811C140.237 151.813 139.785 156.591 135.782 153.943C133.587 152.523 130.681 153.104 128.163 154.008C131.327 158.592 131.004 164.856 130.293 170.861C129.26 178.997 127.581 187.262 121.963 193.525C121.382 194.236 120.09 193.913 119.444 193.525C108.855 187.004 111.825 172.669 114.279 162.531C117.055 150.909 134.534 102.242 142.632 107.323C144.138 108.268 145.147 109.539 146.66 112.061C147.791 113.945 138.794 128.274 132.486 138.319C129.7 142.754 127.439 146.355 126.807 147.68ZM123.707 172.411C124.288 169.311 124.676 166.212 124.934 163.112C124.951 162.922 124.971 162.715 124.993 162.494C125.219 160.176 125.588 156.392 123.643 154.977L123.613 155.056C122.977 156.773 122.341 158.49 121.769 160.207C120.155 165.308 118.928 170.538 118.282 175.833C118.249 176.188 118.191 176.654 118.123 177.198C117.796 179.818 117.244 184.244 118.153 186.81C121.252 182.613 122.802 177.576 123.707 172.411ZM189.649 137.612C185.266 141.497 173.982 149.875 167.493 150.631H167.235C167.557 148.952 167.881 147.338 168.462 145.659C168.495 145.563 168.529 145.467 168.562 145.371C169.109 143.795 169.639 142.266 169.883 140.623C170.012 140.3 170.012 139.977 169.947 139.589C169.883 138.427 168.656 137.071 167.364 136.167C166.589 135.586 165.685 135.263 164.911 135.457C164.265 135.65 163.685 135.844 163.104 136.038L163.103 136.038C159.939 131.97 154.321 131.131 149.995 134.424C144.441 138.492 140.889 145.272 139.404 151.858C138.952 153.989 142.051 157.734 144.376 156.83C148.563 155.163 152.059 152.269 155.541 149.386C157.59 147.689 159.634 145.997 161.811 144.561C161.23 146.434 160.972 148.307 161.617 150.373C162.521 153.472 165.298 156.184 168.591 156.572C171.884 156.959 175.113 155.216 177.76 153.601C179.563 152.531 181.306 151.358 183 150.115C182.837 150.696 182.69 151.278 182.56 151.858C182.108 153.989 185.207 157.734 187.532 156.83C191.619 155.212 195.033 152.472 198.439 149.737C200.199 148.324 201.957 146.913 203.805 145.659C203.417 146.821 203.014 148 202.61 149.178C202.206 150.357 201.803 151.535 201.415 152.697C198.574 155.345 195.927 158.25 193.538 161.35C186.111 170.971 179.525 183.95 184.109 196.154C184.626 197.574 188.436 201.965 189.792 199.059C196.185 185.499 201.867 171.617 206.904 157.476C212.008 152.65 217.746 148.524 223.902 145.099C222.866 147.496 221.983 149.949 221.353 152.439C220.836 154.441 224.904 159.348 226.777 157.088C231.49 151.471 237.044 146.886 243.371 143.399C242.274 145.53 241.37 147.725 241.047 149.921C240.466 153.73 244.017 157.346 247.891 156.442C250.884 155.744 253.762 153.851 256.464 152.074C257.259 151.55 258.04 151.037 258.804 150.566C261.746 148.723 264.688 146.9 267.694 145.181C266.667 148.386 266.939 151.633 269.485 154.441C273.489 158.896 278.655 157.024 281.949 152.826C285.5 148.307 287.05 142.624 286.469 136.942C286.404 136.49 286.275 136.103 286.146 135.715C287.695 133.907 283.627 129.323 281.432 130.42C278.784 131.732 275.369 134.277 272.54 137.386C269.666 138.73 266.686 140.065 263.676 141.414C258.924 143.544 254.1 145.706 249.506 147.984C251.12 144.755 252.734 141.591 254.671 138.492C256.092 136.167 252.476 132.293 250.022 133.068C244.211 134.876 238.787 137.523 233.815 140.945C233.88 140.816 233.944 140.687 234.073 140.493C235.3 138.298 229.876 133.584 228.326 136.361C228.303 136.402 228.28 136.443 228.257 136.484C227.766 136.7 227.276 136.916 226.785 137.132C221.819 139.317 216.828 141.512 211.166 144.691C211.553 143.528 211.94 142.366 212.263 141.268C212.974 138.944 209.551 135.715 207.356 136.296L206.581 136.49C203.546 132.035 197.67 131.066 193.15 134.424C191.878 135.356 190.711 136.43 189.649 137.612ZM150.188 144.594C150.172 144.626 150.156 144.658 150.124 144.691C150.495 144.386 150.866 144.081 151.236 143.776C153.697 141.75 156.147 139.732 158.841 138.104C158.809 138.104 158.792 138.104 158.784 138.096C158.776 138.088 158.776 138.072 158.776 138.04C158.388 138.151 157.999 138.214 157.651 138.271C157.595 138.28 157.539 138.289 157.485 138.298C156.258 138.556 155.16 139.396 154.256 140.235C152.771 141.462 151.415 142.947 150.253 144.497C150.221 144.529 150.204 144.561 150.188 144.594ZM193.279 144.691C193.231 144.755 193.183 144.82 193.15 144.884C193.647 144.493 194.14 144.099 194.632 143.705C197.15 141.692 199.651 139.692 202.513 138.233L201.932 138.04C201.543 138.151 201.155 138.214 200.807 138.271C200.75 138.28 200.695 138.289 200.641 138.298C199.414 138.556 198.316 139.396 197.412 140.235C195.927 141.462 194.571 142.947 193.409 144.497C193.376 144.561 193.328 144.626 193.279 144.691ZM192.246 176.46C191.407 178.138 190.631 179.946 190.05 181.69C190.403 180.825 190.771 179.96 191.14 179.095C191.514 178.217 191.888 177.338 192.246 176.46ZM275.814 148.823C277.106 147.467 278.139 145.917 278.914 144.239C279.624 142.753 280.141 141.204 280.399 139.589C279.301 140.558 278.333 141.591 277.364 142.753C276.266 144.109 275.362 145.595 274.588 147.209C274.2 147.919 273.877 148.694 273.619 149.469C273.553 149.662 273.489 150.243 273.424 150.824L273.424 150.825C273.716 150.578 274 150.37 274.279 150.166C274.803 149.783 275.309 149.413 275.814 148.823ZM131.022 131.409C130.618 133.023 137.377 121.32 139.598 115.771C140.405 113.753 135.059 120.311 131.022 131.409Z" fill="#F2F2F2"/>
</svg>
