<svg width="287" height="199" viewBox="0 0 287 199" fill="none" xmlns="http://www.w3.org/2000/svg">
<path d="M34.4394 53.9925C40.6474 52.0725 46.7274 49.7685 52.6154 46.9525C63.6234 41.5125 74.6954 33.7685 81.2234 23.0805C84.4233 17.8965 85.0634 11.9445 81.0954 6.95246C77.7673 2.79246 72.6473 0.936465 67.4633 0.360465C54.9193 -1.04754 40.7114 2.60047 29.1914 7.33647C22.2154 10.1525 15.6234 13.8645 9.54335 18.2805C4.03935 22.1845 -2.04065 27.3045 0.967352 34.6645C2.11935 37.3525 7.75135 39.0805 5.95935 34.7925C4.03935 30.0565 12.4874 24.8085 15.4954 22.6965C20.1674 19.4325 25.0954 16.6165 30.2794 14.3125C40.4553 9.70446 51.3994 6.82446 62.5354 6.12046C66.8234 5.86446 71.8793 5.60847 75.7833 7.65647C81.0953 10.4085 76.4233 17.8965 73.9913 21.1605C67.7833 29.3525 59.3994 35.6885 50.2474 40.3605C45.1274 43.0485 39.6874 45.2245 34.1833 47.0805C32.9674 47.4645 31.6234 48.0405 30.0874 48.5525C34.1834 38.9525 39.1754 29.7365 45.0634 21.0325C46.6633 18.6005 41.4154 13.8005 40.0074 15.9125C32.6474 26.7925 26.6314 38.4405 21.9594 50.6005C20.2954 50.7925 18.6954 50.6005 17.3514 50.0245C17.0314 49.7045 16.7114 49.3205 16.3914 48.9365C14.6634 46.8885 9.28735 51.6245 11.0794 53.7365C13.2554 56.3605 15.7514 58.8565 18.3754 61.1605C17.0314 65.5125 15.8794 69.9285 14.9194 74.4085C14.3434 76.9685 19.9754 81.3205 20.5514 78.5685C21.5114 74.2165 22.5993 69.8645 23.8794 65.6405C28.1034 68.7765 32.5834 71.5925 36.9994 74.0885C48.5834 80.6805 61.9594 85.7365 75.5274 84.7765C77.1914 84.6485 78.7914 83.4965 79.6234 82.0245C80.1354 81.0645 80.5193 78.9525 78.7273 79.0805C65.6073 80.0405 52.7434 75.0485 41.4794 68.6485C36.2313 65.7045 31.0474 62.3125 26.2474 58.4725C26.5674 57.6405 26.8234 56.8085 27.1434 55.9765C29.6394 55.4645 32.0714 54.6965 34.4394 53.9925ZM81.7994 50.6645C81.7354 50.2165 81.6074 49.8325 81.4794 49.4485C83.0154 47.6565 78.9834 43.1125 76.8074 44.2005C69.8314 47.6565 57.4794 59.7525 64.9674 68.0085C68.9354 72.4245 74.0554 70.5685 77.3194 66.4085C80.8393 61.9285 82.3754 56.2965 81.7994 50.6645ZM74.3113 57.8965C73.5434 59.5605 72.5193 61.0965 71.2393 62.4405C70.4714 63.3365 69.7034 63.7205 68.8714 64.4245C68.9354 63.8485 68.9994 63.2725 69.0634 63.0805C69.3194 62.3125 69.6394 61.5445 70.0234 60.8405C70.7914 59.2405 71.6874 57.7685 72.7754 56.4245C73.7354 55.2725 74.6954 54.2485 75.7833 53.2885C75.5274 54.8885 75.0154 56.4245 74.3113 57.8965ZM108.257 11.8165C97.8894 29.0965 89.8254 48.1685 84.0654 67.4325C83.2334 69.2245 86.1774 72.2965 88.2253 72.4245C88.8653 72.5525 89.4414 72.2965 89.6973 71.5925C92.9613 64.3605 97.8894 57.7045 103.713 52.3925C104.033 52.0725 104.545 51.7525 105.057 51.3685C104.801 53.0325 104.673 54.6965 104.097 56.2965C102.817 59.9445 99.8734 63.2725 95.7133 63.0805C92.2573 62.8885 96.0974 68.7125 98.6573 68.8405C104.481 69.1605 108.577 64.6165 110.113 59.3685C111.457 54.5685 112.353 48.2965 107.489 45.1605C104.097 43.0485 100.897 44.9045 98.2094 47.4645C102.689 36.5845 107.937 25.9605 113.889 15.9765C115.169 13.8005 109.857 9.12846 108.257 11.8165ZM147.728 51.3045C141.264 56.2965 125.456 64.1045 118.927 64.9365C119.183 64.1045 119.44 63.2725 119.76 62.5045C119.824 62.5045 119.824 62.5045 119.824 62.4405C123.728 60.5845 138.32 54.9525 132.112 48.4885C127.824 43.9445 122.064 47.9765 118.799 51.5605C115.215 55.4645 110.095 63.2085 114.063 68.5205C116.623 71.9125 120.336 71.7205 123.92 70.3765C133.776 66.9205 142.864 60.3925 151.504 54.7605C153.616 53.4165 150.032 49.5125 147.728 51.3045ZM168.662 50.6645C164.886 44.2645 159.51 45.4165 154.518 49.2565C153.75 46.8245 149.782 44.1365 148.95 46.5045C146.582 52.9685 143.958 59.3045 141.526 65.7685C140.63 68.1365 145.878 72.7445 147.158 69.8645C149.014 65.8325 151.574 62.1845 154.646 58.9205C155.99 57.4485 157.462 56.0405 159.062 54.8245C159.894 54.1845 163.094 51.8165 164.502 51.8165C165.334 52.7765 166.422 53.6085 167.638 53.4805C169.11 53.3525 169.366 51.8805 168.662 50.6645ZM229.337 23.0165C219.097 17.6405 206.233 17.5125 194.649 17.7045C196.377 14.0565 198.041 10.4725 199.769 6.95246C200.857 4.64846 195.481 0.0404546 194.137 2.79246C191.705 7.78446 189.337 12.7765 187.033 17.8325C174.232 18.2165 161.496 19.6245 148.952 22.0565C146.264 22.5685 150.488 28.2005 153.112 27.6885C163.416 25.7045 173.848 24.4245 184.344 23.8485C175.513 44.0725 168.472 65.1285 168.856 87.4005C168.92 89.8965 174.744 93.8645 174.68 90.3445C174.296 66.8565 182.361 44.7765 191.961 23.5925C192.025 23.5925 192.153 23.5925 192.281 23.5925C198.489 23.4645 204.761 23.5925 211.033 24.0405C217.369 24.4245 223.769 25.0645 229.465 28.0725C230.681 28.7125 232.153 28.5845 232.281 27.0485C232.473 25.3845 230.617 23.7205 229.337 23.0165ZM202.862 50.6645C202.798 50.2165 202.67 49.8325 202.542 49.4485C204.078 47.6565 200.046 43.1125 197.87 44.2005C190.894 47.6565 178.541 59.7525 186.029 68.0085C189.997 72.4245 195.118 70.5685 198.382 66.4085C201.902 61.9285 203.438 56.2965 202.862 50.6645ZM195.374 57.8965C194.606 59.5605 193.582 61.0965 192.302 62.4405C191.534 63.3365 190.766 63.7205 189.933 64.4245C189.997 63.8485 190.061 63.2725 190.126 63.0805C190.382 62.3125 190.702 61.5445 191.086 60.8405C191.854 59.2405 192.75 57.7685 193.838 56.4245C194.798 55.2725 195.758 54.2485 196.846 53.2885C196.59 54.8885 196.078 56.4245 195.374 57.8965ZM49.2873 138.8C41.9913 146.672 33.7354 153.648 24.6474 159.344C20.4234 161.968 15.5594 165.296 10.4394 165.68C7.36735 165.936 6.47135 164.848 6.21535 161.84C5.95935 158.768 6.15135 155.696 6.53535 152.688C8.00735 141.616 12.4874 130.672 17.9274 120.944C23.1114 111.6 30.0234 101.552 38.9834 95.4085C40.3274 94.5125 41.7354 93.6805 43.2714 93.0405C43.7834 92.8485 44.6154 92.4005 45.1914 92.4005C46.2794 92.2725 46.1514 92.3365 46.4074 93.4245C47.0474 96.0485 46.4714 99.1205 46.0874 101.744C44.9354 108.336 42.6954 114.608 39.5594 120.496C38.4074 122.736 43.7834 127.408 45.2554 124.656C48.7114 118 51.0154 110.96 52.0394 103.536C52.8074 98.1605 52.6153 92.4005 48.0714 88.6885C42.6314 84.2725 36.2953 88.3045 31.7514 91.9525C26.3113 96.3045 21.8954 102 17.9274 107.632C9.73535 119.472 3.27135 133.36 0.967352 147.696C0.00735199 153.776 -0.888648 161.584 3.20735 166.832C6.72735 171.376 12.2314 172.272 17.5434 170.736C24.1994 168.816 30.5993 164.144 36.1674 160.112C42.7593 155.312 48.8394 149.872 54.3434 143.92C56.2634 141.872 51.1433 136.816 49.2873 138.8ZM94.6484 136.048C90.5524 139.76 78.9684 148.464 72.3764 149.232C72.3123 149.232 72.2484 149.232 72.1204 149.232C72.4404 147.568 72.7604 145.968 73.3363 144.304C73.9123 142.64 74.4884 141.04 74.7444 139.312C74.8724 138.992 74.8724 138.672 74.8083 138.288C74.7443 137.136 73.5284 135.792 72.2484 134.896C71.4804 134.32 70.5844 134 69.8164 134.192C69.1764 134.384 68.6003 134.576 68.0244 134.768C64.8884 130.736 59.3204 129.904 55.0324 133.168C49.5284 137.2 46.0084 143.92 44.5364 150.448C44.0883 152.56 47.1604 156.272 49.4644 155.376C56.0564 152.752 60.9204 147.056 66.7444 143.216C66.1684 145.072 65.9124 146.928 66.5524 148.976C67.4484 152.048 70.2003 154.736 73.4643 155.12C76.7283 155.504 79.9284 153.776 82.5524 152.176C88.3764 148.72 93.5604 144.176 98.5524 139.696C100.536 137.84 96.7604 134.128 94.6484 136.048ZM55.1604 143.344C55.2243 143.28 55.2244 143.216 55.2884 143.152C56.4404 141.616 57.7844 140.144 59.2564 138.928C60.1524 138.096 61.2404 137.264 62.4564 137.008C62.8404 136.944 63.2883 136.88 63.7364 136.752C63.7364 136.816 63.7364 136.816 63.8004 136.816C60.7284 138.672 57.9763 141.04 55.1604 143.344ZM115.662 135.664C111.886 129.264 106.51 130.416 101.518 134.256C100.75 131.824 96.7823 129.136 95.9503 131.504C93.5824 137.968 90.9584 144.304 88.5264 150.768C87.6303 153.136 92.8783 157.744 94.1583 154.864C96.0144 150.832 98.5744 147.184 101.646 143.92C102.99 142.448 104.462 141.04 106.062 139.824C106.894 139.184 110.094 136.816 111.502 136.816C112.334 137.776 113.422 138.608 114.638 138.48C116.11 138.352 116.366 136.88 115.662 135.664ZM136.145 145.648C132.689 143.408 129.361 142.96 125.841 143.536C127.889 139.248 130.257 135.152 132.817 131.12C134.417 128.752 129.105 123.952 127.761 126.064C121.296 135.984 116.176 146.736 113.424 158.256C110.992 168.304 108.048 182.512 118.544 188.976C119.184 189.36 120.464 189.68 121.04 188.976C126.609 182.768 128.273 174.576 129.297 166.512C130.001 160.56 130.321 154.352 127.185 149.808C129.681 148.912 132.561 148.336 134.737 149.744C138.705 152.368 139.153 147.632 136.145 145.648ZM123.985 158.832C123.729 161.904 123.345 164.976 122.769 168.048C121.872 173.168 120.336 178.16 117.264 182.32C116.176 179.248 117.2 173.488 117.392 171.44C118.032 166.192 119.248 161.008 120.848 155.952C121.424 154.224 122.065 152.496 122.705 150.768C124.817 152.304 124.177 156.656 123.985 158.832ZM191.211 136.048C187.115 139.76 175.531 148.464 168.939 149.232C168.875 149.232 168.811 149.232 168.683 149.232C169.002 147.568 169.323 145.968 169.899 144.304C170.475 142.64 171.051 141.04 171.307 139.312C171.435 138.992 171.435 138.672 171.371 138.288C171.307 137.136 170.091 135.792 168.811 134.896C168.043 134.32 167.147 134 166.379 134.192C165.739 134.384 165.163 134.576 164.587 134.768C161.451 130.736 155.883 129.904 151.595 133.168C146.09 137.2 142.57 143.92 141.098 150.448C140.65 152.56 143.722 156.272 146.026 155.376C152.619 152.752 157.483 147.056 163.307 143.216C162.731 145.072 162.475 146.928 163.115 148.976C164.011 152.048 166.763 154.736 170.027 155.12C173.291 155.504 176.491 153.776 179.115 152.176C184.939 148.72 190.123 144.176 195.115 139.696C197.099 137.84 193.323 134.128 191.211 136.048ZM151.723 143.344C151.787 143.28 151.787 143.216 151.851 143.152C153.003 141.616 154.347 140.144 155.819 138.928C156.715 138.096 157.803 137.264 159.019 137.008C159.403 136.944 159.851 136.88 160.299 136.752C160.299 136.816 160.299 136.816 160.363 136.816C157.291 138.672 154.539 141.04 151.723 143.344ZM229.441 135.088C223.937 137.52 218.497 139.824 212.225 143.344C212.609 142.192 212.993 141.04 213.313 139.952C214.017 137.648 210.625 134.448 208.449 135.024C208.193 135.088 207.937 135.152 207.681 135.216C204.673 130.8 198.849 129.84 194.369 133.168C188.864 137.2 185.344 143.92 183.872 150.448C183.424 152.56 186.496 156.272 188.8 155.376C194.945 152.944 199.553 147.952 204.929 144.304C204.161 146.608 203.329 148.976 202.561 151.28C199.745 153.904 197.121 156.784 194.753 159.856C187.392 169.392 180.864 182.256 185.408 194.352C185.92 195.76 189.696 200.112 191.04 197.232C197.377 183.792 203.009 170.032 208.001 156.016C215.041 149.36 223.297 144.048 232.193 140.08C235.009 138.864 231.809 134 229.441 135.088ZM194.369 143.536C194.433 143.408 194.561 143.28 194.625 143.152C195.777 141.616 197.121 140.144 198.593 138.928C199.489 138.096 200.577 137.264 201.793 137.008C202.177 136.944 202.625 136.88 203.073 136.752C203.265 136.816 203.457 136.88 203.649 136.944C200.257 138.672 197.377 141.168 194.369 143.536ZM191.296 180.016C191.872 178.288 192.641 176.496 193.473 174.832C192.769 176.56 192.001 178.288 191.296 180.016ZM273.586 135.856C266.098 139.376 257.842 142.832 250.226 146.608C251.826 143.408 253.426 140.272 255.346 137.2C256.754 134.896 253.17 131.056 250.738 131.824C244.978 133.616 239.602 136.24 234.674 139.632C234.738 139.504 234.802 139.376 234.93 139.184C236.146 137.008 230.77 132.336 229.234 135.088C226.418 140.08 223.73 145.456 222.322 151.024C221.81 153.008 225.842 157.872 227.698 155.632C232.37 150.064 237.874 145.52 244.146 142.064C243.058 144.176 242.162 146.352 241.842 148.528C241.266 152.304 244.786 155.888 248.626 154.992C252.466 154.096 256.114 151.216 259.442 149.168C264.754 145.84 270.066 142.576 275.762 139.888C278.514 138.608 275.954 134.768 273.586 135.856ZM286.862 135.664C286.798 135.216 286.67 134.832 286.542 134.448C288.078 132.656 284.046 128.112 281.87 129.2C274.894 132.656 262.541 144.752 270.029 153.008C273.997 157.424 279.118 155.568 282.382 151.408C285.902 146.928 287.438 141.296 286.862 135.664ZM279.374 142.896C278.606 144.56 277.582 146.096 276.302 147.44C275.534 148.336 274.766 148.72 273.933 149.424C273.997 148.848 274.061 148.272 274.126 148.08C274.382 147.312 274.702 146.544 275.086 145.84C275.854 144.24 276.75 142.768 277.838 141.424C278.798 140.272 279.758 139.248 280.846 138.288C280.59 139.888 280.078 141.424 279.374 142.896Z" fill="#F2F2F2"/>
</svg>
