<svg width="146" height="126" viewBox="0 0 146 126" fill="none" xmlns="http://www.w3.org/2000/svg">
<g opacity="0.2">
<circle cx="2.60714" cy="7.82101" r="2.60714" fill="#32BDE3"/>
<circle cx="33.8933" cy="7.82101" r="2.60714" fill="#32BDE3"/>
<circle cx="65.1784" cy="7.82101" r="2.60714" fill="#32BDE3"/>
<circle cx="96.4646" cy="7.82101" r="2.60714" fill="#32BDE3"/>
<circle cx="127.75" cy="7.82101" r="2.60714" fill="#32BDE3"/>
<circle cx="18.2497" cy="2.60714" r="2.60714" fill="#32BDE3"/>
<circle cx="49.5359" cy="2.60714" r="2.60714" fill="#32BDE3"/>
<circle cx="80.821" cy="2.60714" r="2.60714" fill="#32BDE3"/>
<circle cx="112.107" cy="2.60714" r="2.60714" fill="#32BDE3"/>
<circle cx="143.393" cy="2.60714" r="2.60714" fill="#32BDE3"/>
<circle cx="2.60714" cy="18.2497" r="2.60714" fill="#32BDE3"/>
<circle cx="33.8933" cy="18.2497" r="2.60714" fill="#32BDE3"/>
<circle cx="65.1784" cy="18.2497" r="2.60714" fill="#32BDE3"/>
<circle cx="96.4646" cy="18.2497" r="2.60714" fill="#32BDE3"/>
<circle cx="127.75" cy="18.2497" r="2.60714" fill="#32BDE3"/>
<circle cx="18.2497" cy="13.0359" r="2.60714" fill="#32BDE3"/>
<circle cx="49.5359" cy="13.0359" r="2.60714" fill="#32BDE3"/>
<circle cx="80.821" cy="13.0359" r="2.60714" fill="#32BDE3"/>
<circle cx="112.107" cy="13.0359" r="2.60714" fill="#32BDE3"/>
<circle cx="143.393" cy="13.0359" r="2.60714" fill="#32BDE3"/>
<circle cx="2.60714" cy="28.6784" r="2.60714" fill="#32BDE3"/>
<circle cx="33.8933" cy="28.6784" r="2.60714" fill="#32BDE3"/>
<circle cx="65.1784" cy="28.6784" r="2.60714" fill="#32BDE3"/>
<circle cx="96.4646" cy="28.6784" r="2.60714" fill="#32BDE3"/>
<circle cx="127.75" cy="28.6784" r="2.60714" fill="#32BDE3"/>
<circle cx="18.2497" cy="23.4646" r="2.60714" fill="#32BDE3"/>
<circle cx="49.5359" cy="23.4646" r="2.60714" fill="#32BDE3"/>
<circle cx="80.821" cy="23.4646" r="2.60714" fill="#32BDE3"/>
<circle cx="112.107" cy="23.4646" r="2.60714" fill="#32BDE3"/>
<circle cx="143.393" cy="23.4646" r="2.60714" fill="#32BDE3"/>
<circle cx="2.60714" cy="39.1071" r="2.60714" fill="#32BDE3"/>
<circle cx="33.8933" cy="39.1071" r="2.60714" fill="#32BDE3"/>
<circle cx="65.1784" cy="39.1071" r="2.60714" fill="#32BDE3"/>
<circle cx="96.4646" cy="39.1071" r="2.60714" fill="#32BDE3"/>
<circle cx="127.75" cy="39.1071" r="2.60714" fill="#32BDE3"/>
<circle cx="18.2497" cy="33.8933" r="2.60714" fill="#32BDE3"/>
<circle cx="49.5359" cy="33.8933" r="2.60714" fill="#32BDE3"/>
<circle cx="80.821" cy="33.8933" r="2.60714" fill="#32BDE3"/>
<circle cx="112.107" cy="33.8933" r="2.60714" fill="#32BDE3"/>
<circle cx="143.393" cy="33.8933" r="2.60714" fill="#32BDE3"/>
<circle cx="2.60714" cy="49.5359" r="2.60714" fill="#32BDE3"/>
<circle cx="33.8933" cy="49.5359" r="2.60714" fill="#32BDE3"/>
<circle cx="65.1784" cy="49.5359" r="2.60714" fill="#32BDE3"/>
<circle cx="96.4646" cy="49.5359" r="2.60714" fill="#32BDE3"/>
<circle cx="127.75" cy="49.5359" r="2.60714" fill="#32BDE3"/>
<circle cx="18.2497" cy="44.321" r="2.60714" fill="#32BDE3"/>
<circle cx="49.5359" cy="44.321" r="2.60714" fill="#32BDE3"/>
<circle cx="80.821" cy="44.321" r="2.60714" fill="#32BDE3"/>
<circle cx="112.107" cy="44.321" r="2.60714" fill="#32BDE3"/>
<circle cx="143.393" cy="44.321" r="2.60714" fill="#32BDE3"/>
<circle cx="2.60714" cy="59.9646" r="2.60714" fill="#32BDE3"/>
<circle cx="33.8933" cy="59.9646" r="2.60714" fill="#32BDE3"/>
<circle cx="65.1784" cy="59.9646" r="2.60714" fill="#32BDE3"/>
<circle cx="96.4646" cy="59.9646" r="2.60714" fill="#32BDE3"/>
<circle cx="127.75" cy="59.9646" r="2.60714" fill="#32BDE3"/>
<circle cx="18.2497" cy="54.7497" r="2.60714" fill="#32BDE3"/>
<circle cx="49.5359" cy="54.7497" r="2.60714" fill="#32BDE3"/>
<circle cx="80.821" cy="54.7497" r="2.60714" fill="#32BDE3"/>
<circle cx="112.107" cy="54.7497" r="2.60714" fill="#32BDE3"/>
<circle cx="143.393" cy="54.7497" r="2.60714" fill="#32BDE3"/>
<circle cx="2.60714" cy="70.3933" r="2.60714" fill="#32BDE3"/>
<circle cx="33.8933" cy="70.3933" r="2.60714" fill="#32BDE3"/>
<circle cx="65.1784" cy="70.3933" r="2.60714" fill="#32BDE3"/>
<circle cx="96.4646" cy="70.3933" r="2.60714" fill="#32BDE3"/>
<circle cx="127.75" cy="70.3933" r="2.60714" fill="#32BDE3"/>
<circle cx="18.2497" cy="65.1784" r="2.60714" fill="#32BDE3"/>
<circle cx="49.5359" cy="65.1784" r="2.60714" fill="#32BDE3"/>
<circle cx="80.821" cy="65.1784" r="2.60714" fill="#32BDE3"/>
<circle cx="112.107" cy="65.1784" r="2.60714" fill="#32BDE3"/>
<circle cx="143.393" cy="65.1784" r="2.60714" fill="#32BDE3"/>
<circle cx="2.60714" cy="80.821" r="2.60714" fill="#32BDE3"/>
<circle cx="33.8933" cy="80.821" r="2.60714" fill="#32BDE3"/>
<circle cx="65.1784" cy="80.821" r="2.60714" fill="#32BDE3"/>
<circle cx="96.4646" cy="80.821" r="2.60714" fill="#32BDE3"/>
<circle cx="127.75" cy="80.821" r="2.60714" fill="#32BDE3"/>
<circle cx="18.2497" cy="75.6071" r="2.60714" fill="#32BDE3"/>
<circle cx="49.5359" cy="75.6071" r="2.60714" fill="#32BDE3"/>
<circle cx="80.821" cy="75.6071" r="2.60714" fill="#32BDE3"/>
<circle cx="112.107" cy="75.6071" r="2.60714" fill="#32BDE3"/>
<circle cx="143.393" cy="75.6071" r="2.60714" fill="#32BDE3"/>
<circle cx="2.60714" cy="91.2497" r="2.60714" fill="#32BDE3"/>
<circle cx="33.8933" cy="91.2497" r="2.60714" fill="#32BDE3"/>
<circle cx="65.1784" cy="91.2497" r="2.60714" fill="#32BDE3"/>
<circle cx="96.4646" cy="91.2497" r="2.60714" fill="#32BDE3"/>
<circle cx="127.75" cy="91.2497" r="2.60714" fill="#32BDE3"/>
<circle cx="18.2497" cy="86.0359" r="2.60714" fill="#32BDE3"/>
<circle cx="49.5359" cy="86.0359" r="2.60714" fill="#32BDE3"/>
<circle cx="80.821" cy="86.0359" r="2.60714" fill="#32BDE3"/>
<circle cx="112.107" cy="86.0359" r="2.60714" fill="#32BDE3"/>
<circle cx="143.393" cy="86.0359" r="2.60714" fill="#32BDE3"/>
<circle cx="2.60714" cy="101.678" r="2.60714" fill="#32BDE3"/>
<circle cx="33.8933" cy="101.678" r="2.60714" fill="#32BDE3"/>
<circle cx="65.1784" cy="101.678" r="2.60714" fill="#32BDE3"/>
<circle cx="96.4646" cy="101.678" r="2.60714" fill="#32BDE3"/>
<circle cx="127.75" cy="101.678" r="2.60714" fill="#32BDE3"/>
<circle cx="18.2497" cy="96.4646" r="2.60714" fill="#32BDE3"/>
<circle cx="49.5359" cy="96.4646" r="2.60714" fill="#32BDE3"/>
<circle cx="80.821" cy="96.4646" r="2.60714" fill="#32BDE3"/>
<circle cx="112.107" cy="96.4646" r="2.60714" fill="#32BDE3"/>
<circle cx="143.393" cy="96.4646" r="2.60714" fill="#32BDE3"/>
<circle cx="2.60714" cy="112.107" r="2.60714" fill="#32BDE3"/>
<circle cx="33.8933" cy="112.107" r="2.60714" fill="#32BDE3"/>
<circle cx="65.1784" cy="112.107" r="2.60714" fill="#32BDE3"/>
<circle cx="96.4646" cy="112.107" r="2.60714" fill="#32BDE3"/>
<circle cx="127.75" cy="112.107" r="2.60714" fill="#32BDE3"/>
<circle cx="18.2497" cy="106.893" r="2.60714" fill="#32BDE3"/>
<circle cx="49.5359" cy="106.893" r="2.60714" fill="#32BDE3"/>
<circle cx="80.821" cy="106.893" r="2.60714" fill="#32BDE3"/>
<circle cx="112.107" cy="106.893" r="2.60714" fill="#32BDE3"/>
<circle cx="143.393" cy="106.893" r="2.60714" fill="#32BDE3"/>
<circle cx="2.60714" cy="122.536" r="2.60714" fill="#32BDE3"/>
<circle cx="33.8933" cy="122.536" r="2.60714" fill="#32BDE3"/>
<circle cx="65.1784" cy="122.536" r="2.60714" fill="#32BDE3"/>
<circle cx="96.4646" cy="122.536" r="2.60714" fill="#32BDE3"/>
<circle cx="127.75" cy="122.536" r="2.60714" fill="#32BDE3"/>
<circle cx="18.2497" cy="117.321" r="2.60714" fill="#32BDE3"/>
<circle cx="49.5359" cy="117.321" r="2.60714" fill="#32BDE3"/>
<circle cx="80.821" cy="117.321" r="2.60714" fill="#32BDE3"/>
<circle cx="112.107" cy="117.321" r="2.60714" fill="#32BDE3"/>
<circle cx="143.393" cy="117.321" r="2.60714" fill="#32BDE3"/>
</g>
</svg>
