<svg width="245" height="163" viewBox="0 0 245 163" fill="none" xmlns="http://www.w3.org/2000/svg">
<path opacity="0.22" fill-rule="evenodd" clip-rule="evenodd" d="M70.9676 1.54911C73.6688 3.8617 73.9816 7.92361 71.6663 10.6216L14.4345 77.3127C12.3668 79.7222 12.3668 83.2778 14.4345 85.6873L71.6663 152.378C73.9816 155.076 73.6688 159.138 70.9676 161.451C68.2663 163.763 64.1996 163.451 61.8842 160.753L4.65251 94.062C-1.55082 86.8334 -1.55084 76.1667 4.6525 68.938L61.8843 2.247C64.1996 -0.451032 68.2663 -0.763486 70.9676 1.54911ZM156.859 1.54911C159.56 3.8617 159.873 7.92361 157.558 10.6216L100.326 77.3127C98.2582 79.7222 98.2582 83.2778 100.326 85.6873L157.558 152.378C159.873 155.076 159.56 159.138 156.859 161.451C154.158 163.763 150.091 163.451 147.776 160.753L90.5439 94.062C84.3406 86.8334 84.3406 76.1667 90.5439 68.938L147.776 2.247C150.091 -0.451032 154.158 -0.763486 156.859 1.54911ZM243.449 10.6216C245.764 7.92361 245.452 3.8617 242.75 1.54911C240.049 -0.763486 235.982 -0.451032 233.667 2.247L176.435 68.938C170.232 76.1667 170.232 86.8334 176.435 94.062L233.667 160.753C235.982 163.451 240.049 163.763 242.75 161.451C245.452 159.138 245.764 155.076 243.449 152.378L186.217 85.6873C184.15 83.2778 184.15 79.7222 186.217 77.3127L243.449 10.6216Z" fill="white"/>
</svg>
