<svg width="184" height="275" viewBox="0 0 184 275" fill="none" xmlns="http://www.w3.org/2000/svg">
<g opacity="0.2">
<circle cx="6.85686" cy="17.143" r="5.71429" fill="#32BDE3"/>
<circle cx="75.4282" cy="17.143" r="5.71429" fill="#32BDE3"/>
<circle cx="144" cy="17.143" r="5.71429" fill="#32BDE3"/>
<circle cx="41.143" cy="5.71429" r="5.71429" fill="#32BDE3"/>
<circle cx="109.714" cy="5.71429" r="5.71429" fill="#32BDE3"/>
<circle cx="178.286" cy="5.71429" r="5.71429" fill="#32BDE3"/>
<circle cx="6.85686" cy="40.0004" r="5.71429" fill="#32BDE3"/>
<circle cx="75.4282" cy="40.0004" r="5.71429" fill="#32BDE3"/>
<circle cx="144" cy="40.0004" r="5.71429" fill="#32BDE3"/>
<circle cx="41.143" cy="28.5717" r="5.71429" fill="#32BDE3"/>
<circle cx="109.714" cy="28.5717" r="5.71429" fill="#32BDE3"/>
<circle cx="178.286" cy="28.5717" r="5.71429" fill="#32BDE3"/>
<circle cx="6.85686" cy="62.8569" r="5.71429" fill="#32BDE3"/>
<circle cx="75.4282" cy="62.8569" r="5.71429" fill="#32BDE3"/>
<circle cx="144" cy="62.8569" r="5.71429" fill="#32BDE3"/>
<circle cx="41.143" cy="51.4282" r="5.71429" fill="#32BDE3"/>
<circle cx="109.714" cy="51.4282" r="5.71429" fill="#32BDE3"/>
<circle cx="178.286" cy="51.4282" r="5.71429" fill="#32BDE3"/>
<circle cx="6.85686" cy="85.7143" r="5.71429" fill="#32BDE3"/>
<circle cx="75.4282" cy="85.7143" r="5.71429" fill="#32BDE3"/>
<circle cx="144" cy="85.7143" r="5.71429" fill="#32BDE3"/>
<circle cx="41.143" cy="74.2856" r="5.71429" fill="#32BDE3"/>
<circle cx="109.714" cy="74.2856" r="5.71429" fill="#32BDE3"/>
<circle cx="178.286" cy="74.2856" r="5.71429" fill="#32BDE3"/>
<circle cx="6.85686" cy="108.572" r="5.71429" fill="#32BDE3"/>
<circle cx="75.4282" cy="108.572" r="5.71429" fill="#32BDE3"/>
<circle cx="144" cy="108.572" r="5.71429" fill="#32BDE3"/>
<circle cx="41.143" cy="97.143" r="5.71429" fill="#32BDE3"/>
<circle cx="109.714" cy="97.143" r="5.71429" fill="#32BDE3"/>
<circle cx="178.286" cy="97.143" r="5.71429" fill="#32BDE3"/>
<circle cx="6.85686" cy="131.428" r="5.71429" fill="#32BDE3"/>
<circle cx="75.4282" cy="131.428" r="5.71429" fill="#32BDE3"/>
<circle cx="144" cy="131.428" r="5.71429" fill="#32BDE3"/>
<circle cx="41.143" cy="120" r="5.71429" fill="#32BDE3"/>
<circle cx="109.714" cy="120" r="5.71429" fill="#32BDE3"/>
<circle cx="178.286" cy="120" r="5.71429" fill="#32BDE3"/>
<circle cx="6.85686" cy="154.286" r="5.71429" fill="#32BDE3"/>
<circle cx="75.4282" cy="154.286" r="5.71429" fill="#32BDE3"/>
<circle cx="144" cy="154.286" r="5.71429" fill="#32BDE3"/>
<circle cx="41.143" cy="142.857" r="5.71429" fill="#32BDE3"/>
<circle cx="109.714" cy="142.857" r="5.71429" fill="#32BDE3"/>
<circle cx="178.286" cy="142.857" r="5.71429" fill="#32BDE3"/>
<circle cx="6.85686" cy="177.143" r="5.71429" fill="#32BDE3"/>
<circle cx="75.4282" cy="177.143" r="5.71429" fill="#32BDE3"/>
<circle cx="144" cy="177.143" r="5.71429" fill="#32BDE3"/>
<circle cx="41.143" cy="165.714" r="5.71429" fill="#32BDE3"/>
<circle cx="109.714" cy="165.714" r="5.71429" fill="#32BDE3"/>
<circle cx="178.286" cy="165.714" r="5.71429" fill="#32BDE3"/>
<circle cx="6.85686" cy="200" r="5.71429" fill="#32BDE3"/>
<circle cx="75.4282" cy="200" r="5.71429" fill="#32BDE3"/>
<circle cx="144" cy="200" r="5.71429" fill="#32BDE3"/>
<circle cx="41.143" cy="188.572" r="5.71429" fill="#32BDE3"/>
<circle cx="109.714" cy="188.572" r="5.71429" fill="#32BDE3"/>
<circle cx="178.286" cy="188.572" r="5.71429" fill="#32BDE3"/>
<circle cx="6.85686" cy="222.857" r="5.71429" fill="#32BDE3"/>
<circle cx="75.4282" cy="222.857" r="5.71429" fill="#32BDE3"/>
<circle cx="144" cy="222.857" r="5.71429" fill="#32BDE3"/>
<circle cx="41.143" cy="211.428" r="5.71429" fill="#32BDE3"/>
<circle cx="109.714" cy="211.428" r="5.71429" fill="#32BDE3"/>
<circle cx="178.286" cy="211.428" r="5.71429" fill="#32BDE3"/>
<circle cx="6.85686" cy="245.714" r="5.71429" fill="#32BDE3"/>
<circle cx="75.4282" cy="245.714" r="5.71429" fill="#32BDE3"/>
<circle cx="144" cy="245.714" r="5.71429" fill="#32BDE3"/>
<circle cx="41.143" cy="234.286" r="5.71429" fill="#32BDE3"/>
<circle cx="109.714" cy="234.286" r="5.71429" fill="#32BDE3"/>
<circle cx="178.286" cy="234.286" r="5.71429" fill="#32BDE3"/>
<circle cx="6.85686" cy="268.572" r="5.71429" fill="#32BDE3"/>
<circle cx="75.4282" cy="268.572" r="5.71429" fill="#32BDE3"/>
<circle cx="144" cy="268.572" r="5.71429" fill="#32BDE3"/>
<circle cx="41.143" cy="257.143" r="5.71429" fill="#32BDE3"/>
<circle cx="109.714" cy="257.143" r="5.71429" fill="#32BDE3"/>
<circle cx="178.286" cy="257.143" r="5.71429" fill="#32BDE3"/>
</g>
</svg>
