<svg width="192" height="425" viewBox="0 0 192 425" fill="none" xmlns="http://www.w3.org/2000/svg">
<g clip-path="url(#clip0_14269_7211)">
<path d="M318.368 248.142C318.608 238.402 316.776 229.114 313.873 219.999C313.106 217.59 312.342 215.173 311.446 212.807C310.044 209.09 309.925 205.335 310.726 201.519C311.385 198.383 312.102 195.253 312.913 192.154C313.089 191.478 313.667 190.562 314.238 190.403C316.339 189.853 318.471 189.427 320.622 189.129C321.126 189.051 321.741 189.311 322.227 189.565C322.719 189.874 323.181 190.228 323.606 190.623C323.093 190.69 322.592 190.792 322.062 190.815C320.159 190.91 318.25 190.947 316.347 191.069C315.916 191.077 315.501 191.238 315.178 191.523C314.855 191.809 314.644 192.2 314.583 192.627C313.836 196.534 312.217 200.302 312.382 204.344C312.521 206.699 312.905 209.032 313.528 211.307C315.313 218.164 317.246 224.984 319.135 231.811C319.362 232.47 319.632 233.114 319.943 233.738C320.018 233.071 320.05 232.401 320.037 231.73C319.676 227.053 318.574 222.537 317.188 218.063C316.256 215.062 315.357 212.013 314.87 208.937C314.248 204.963 314.41 200.961 316.087 197.176C316.201 196.919 316.283 196.551 316.482 196.46C316.681 196.368 317.236 196.46 317.269 196.602C317.369 197.039 317.401 197.489 317.364 197.937C317.269 201.645 317.168 205.353 317.06 209.059C317.006 210.837 317.482 212.439 318.824 213.625C319.838 214.541 320.064 215.619 320.142 216.924C320.22 218.303 320.669 219.661 320.974 221.023C321.046 221.225 321.141 221.418 321.257 221.598C321.33 221.402 321.374 221.198 321.389 220.99C321.288 219.759 321.163 218.532 321.051 217.302C320.619 212.777 320.169 208.255 319.767 203.726C319.574 201.566 319.686 199.43 320.933 197.544C321.315 196.919 321.782 196.35 322.322 195.855C323.377 194.959 324.208 195.25 324.877 196.473C325.298 197.304 325.853 198.06 326.52 198.71C327.925 199.942 328.951 201.548 329.477 203.341C330.91 208.37 332.485 213.368 333.617 218.465C334.817 223.847 335.37 229.353 335.263 234.867C335.185 239.024 335.148 243.184 334.898 247.334C334.621 251.938 332.194 255.483 328.815 258.423C327.444 259.591 325.981 260.647 324.441 261.58C323.606 262.1 322.592 262.347 321.633 262.638C321.478 262.677 321.316 262.677 321.16 262.64C321.005 262.603 320.861 262.529 320.74 262.425C320.612 262.232 320.74 261.749 320.892 261.516C321.852 260.062 322.829 258.619 323.86 257.213C324.497 256.344 324.926 255.34 325.113 254.279C325.301 253.218 325.242 252.128 324.941 251.093C324.208 248.267 323.154 245.53 322.238 242.755C322.166 242.611 322.075 242.478 321.967 242.359C321.869 242.537 321.792 242.725 321.737 242.92C321.531 244.252 321.274 245.58 321.156 246.919C319.868 261.328 316.9 275.537 312.311 289.256C308.502 300.798 304.589 312.303 300.722 323.821C298.394 330.756 296.271 337.765 293.676 344.596C291.743 349.515 289.529 354.318 287.045 358.983C283.703 365.303 279.84 371.333 275.496 377.011C272.762 380.644 269.876 384.169 266.925 387.63C262.44 392.885 257.78 397.992 253.315 403.261C247.712 409.875 241.31 415.428 233.284 418.892C229.391 420.538 225.282 421.617 221.083 422.096C218.021 422.471 214.922 422.501 211.853 422.833C209.622 423.069 207.419 423.563 205.198 423.907C204.369 424.046 203.531 424.123 202.69 424.137C194.917 424.137 187.144 424.212 179.394 424.114C176.427 424.076 173.459 423.701 170.499 423.414C166.588 423.029 162.678 422.627 158.781 422.14C155.324 421.711 151.88 421.19 148.439 420.646C138.3 419.047 128.367 416.655 118.404 414.302C113.848 413.228 109.329 412.176 105.111 410.047C99.5294 407.206 94.653 403.153 90.8389 398.184C87.0401 393.328 84.1404 387.934 81.4163 382.435C79.3209 378.2 77.1917 373.986 75.0996 369.748C71.1646 361.714 67.7189 353.45 64.7814 345.001C62.5643 338.695 60.8034 332.223 58.8094 325.835C57.621 322.233 57.5176 318.362 58.512 314.702C59.1406 312.431 58.4546 310.741 56.5586 309.45C54.5713 308.098 53.1315 306.32 51.8912 304.239C48.8494 299.118 45.5677 294.133 42.428 289.067C37.5679 281.226 32.7485 273.362 27.8952 265.517C24.9075 260.684 21.8726 255.885 18.9018 251.042C18.0805 249.69 17.0125 248.338 16.7692 246.865C16.3467 244.333 14.5014 242.866 13.2138 240.987C9.30202 235.344 5.98784 229.309 3.32472 222.98C2.96052 222.088 2.79223 221.127 2.8313 220.164C2.87036 219.201 3.11585 218.257 3.55114 217.397C5.61952 213.101 5.49112 208.664 4.13248 204.25C3.6965 202.847 2.63524 201.641 1.90522 200.319C1.47938 199.549 0.874421 198.744 0.820346 197.923C0.482375 192.546 0.249176 187.159 0.0193559 181.775C0.00144599 181.325 0.119194 180.88 0.357327 180.497C2.16547 177.77 2.52374 174.644 2.99014 171.517C3.5951 167.462 4.14934 163.386 5.1058 159.408C6.64018 153.01 8.55986 146.707 10.1754 140.326C11.5703 134.704 13.3396 129.182 15.4714 123.796C18.5571 116.131 22.66 109.06 27.3916 102.304C32.5862 94.8891 38.7576 88.3561 45.3041 82.1882C52.1354 75.7414 59.4739 69.8541 67.2486 64.5832C74.1364 59.926 81.1764 55.4783 88.2737 51.1388C92.103 48.7966 96.2667 47.002 100.133 44.7173C102.364 43.4114 104.421 41.8284 106.254 40.006C111.766 34.4362 117.434 29.0624 123.994 24.7364C128.969 21.4581 133.971 18.2 139.108 15.182C143.84 12.3937 148.679 9.70351 153.668 7.38841C159.809 4.53593 166.379 2.87987 173.037 1.6429C177.731 0.753476 182.495 0.290791 187.272 0.260567C190.696 0.260567 194.123 -0.0267282 197.547 -0.0132093C202.096 0.00706896 206.648 0.128739 211.197 0.324762C217.48 0.598519 223.756 0.956768 230.036 1.33868C238.522 1.83211 246.934 2.81902 255.083 5.42139C257.749 6.2697 260.571 6.62114 263.316 7.22949C274.07 9.61219 283.57 14.5398 292.107 21.4243C296.062 24.6181 299.752 28.0181 302.463 32.405C304.761 36.1226 306.38 40.1243 307.958 44.1563C312.281 55.1944 315.235 66.6347 317.469 78.244C318.733 84.8041 319.554 91.4553 320.436 98.0829C321.189 103.756 321.831 109.447 322.363 115.154C322.592 117.594 322.4 120.075 322.494 122.535C322.542 123.857 322.518 125.283 323.015 126.459C323.647 127.956 324.877 127.96 325.823 126.614C326.226 126.014 326.442 125.309 326.445 124.587C326.374 117.952 326.445 111.308 326.06 104.687C325.631 97.2955 325.002 89.8973 324.032 82.5565C323.275 76.8854 321.94 71.2818 320.653 65.6952C320.315 64.1642 319.351 62.7142 318.452 61.3759C317.138 59.4224 315.607 57.6109 314.194 55.7182C313.766 55.1266 313.376 54.5092 313.025 53.8696C312.933 53.7107 312.991 53.4707 312.981 53.268C313.183 53.3187 313.433 53.3119 313.575 53.4336C315.049 54.6503 316.671 55.7385 317.915 57.1512C319.577 58.9762 321.018 60.9909 322.207 63.1536C323.147 64.955 323.61 67.0606 323.985 69.085C325.1 75.1111 326.249 81.1371 327.044 87.2104C327.77 92.7701 328.199 98.3804 328.493 103.981C328.869 111.162 328.977 118.354 329.203 125.543C329.205 125.883 329.234 126.222 329.291 126.557C329.582 128.054 330.19 128.473 331.657 128.149C332.482 127.966 333.279 127.672 334.1 127.473C337.561 126.696 340.603 128.233 342.678 131.089C344.939 134.202 344.368 137.457 343.962 140.806C343.286 146.551 342.671 152.297 342.026 158.042C341.688 160.942 341.468 163.859 341.012 166.738C340.502 169.966 338.606 172.122 335.439 173.079C334.472 173.373 333.492 173.636 332.509 173.876C330.528 174.36 329.511 175.597 329.163 177.618C328.267 182.822 327.273 188.014 326.276 193.202C326.172 193.759 325.793 194.263 325.54 194.793C325.371 194.239 325.033 193.678 325.063 193.134C325.188 190.792 325.337 188.443 325.634 186.118C326.04 182.998 326.608 179.899 327.071 176.786C327.327 175.042 326.651 174.248 324.86 174.218C322.44 174.177 320.021 174.187 317.601 174.218C315.515 174.241 314.924 174.927 315.495 176.959C316.066 178.99 316.874 181.014 317.58 183.022C317.692 183.34 317.844 183.644 317.918 183.968C318.138 184.766 317.837 185.269 317.036 185.496C316.235 185.722 315.918 185.229 315.718 184.58C314.975 182.16 314.241 179.737 313.491 177.32C312.521 174.197 311.463 172.795 307.093 174.617C305.731 175.154 304.536 176.042 303.629 177.192C302.939 177.997 302.06 178.619 301.07 179C295.126 181.42 288.954 182.572 282.506 182.762C274.574 182.995 266.824 181.95 259.067 180.524C256.1 179.98 253.041 179.906 250.027 179.615C248.908 179.507 247.793 179.375 246.674 179.304C244.748 179.186 244.001 179.642 243.423 181.514C242.666 183.931 241.973 186.364 241.307 188.808C239.32 196.077 237.347 203.351 235.389 210.631C234.923 212.371 234.521 214.125 234.105 215.876C233.995 216.202 233.96 216.549 234.003 216.89C234.896 220.608 233.666 224.139 233.159 227.735C232.764 230.296 232.892 232.911 233.534 235.421C233.888 236.884 233.941 238.404 233.689 239.889C233.138 243.144 231.682 246.104 229.972 248.892C226.768 254.121 223.435 259.265 220.194 264.466C219.739 265.176 219.405 265.956 219.204 266.774C217.676 273.554 214.989 279.955 212.657 286.448C210.149 293.437 207.733 300.457 205.198 307.432C203.644 311.715 201.906 315.932 200.321 320.201C198.415 325.321 196.468 330.414 193.768 335.18C191.551 339.094 189.3 342.987 187.066 346.891C186.001 348.743 184.944 350.608 183.865 352.443C183.075 353.795 183.044 355.083 183.619 356.607C185.109 360.555 186.37 364.583 187.756 368.568C190.713 377.078 194.268 385.25 200.98 391.594C204.627 395.038 208.463 398.252 212.877 400.689C217.798 403.393 222.607 402.717 227.051 399.709C230.35 397.488 233.419 394.906 236.467 392.341C240.722 388.758 244.873 385.054 249.043 381.381C255.042 376.098 261.031 370.809 265.137 363.806C267.959 358.934 270.396 353.849 272.424 348.597C275.868 339.81 279.63 331.128 283.114 322.344C287.139 312.205 291.165 302.065 294.886 291.801C297.267 285.362 299.287 278.796 300.935 272.131C302.997 263.554 304.552 254.847 306.12 246.162C307.526 238.368 308.638 230.52 309.912 222.7C310.138 221.317 310.507 219.952 310.838 218.59C310.882 218.411 311.105 218.279 311.243 218.127C311.375 218.289 311.605 218.438 311.619 218.61C311.74 219.891 312.034 221.202 311.869 222.453C311.118 228.134 310.216 233.792 309.408 239.466C308.317 247.145 307.38 254.844 306.137 262.499C305.445 266.604 304.522 270.666 303.372 274.666C299.769 287.536 294.362 299.744 289.454 312.134C285.291 322.641 281.161 333.172 277.308 343.798C275.54 348.675 273.773 353.518 271.346 358.104C268.277 363.901 264.445 369.17 260.152 374.104C257.942 376.646 255.759 379.228 253.319 381.539C246.62 387.961 239.844 394.305 232.172 399.563C229.835 401.116 227.343 402.421 224.736 403.457C220.278 405.295 215.807 404.809 211.457 402.889C208.182 401.443 205.391 399.283 202.63 397.039C197.222 392.645 193.045 387.167 189.935 381.019C187.781 376.689 186.047 372.162 184.758 367.5C182.03 357.807 179.688 348.013 177.224 338.245C176.21 334.152 175.322 330.026 174.372 325.916C174.264 325.422 174.126 324.934 173.96 324.456C173.666 323.652 173.115 323.408 172.378 323.909C170.377 325.26 168.393 326.649 166.399 328.015C165.639 328.535 165.943 329.181 166.149 329.826C167.109 332.828 168.055 335.832 169.025 338.83C171.692 347.07 174.132 355.391 177.116 363.502C179.516 370.035 182.476 376.372 185.376 382.712C188.08 388.589 190.97 394.372 193.853 400.162C195.204 402.879 196.651 405.548 198.192 408.168C199.696 410.737 201.876 412.731 204.353 414.316C209.227 417.435 214.526 419.287 220.39 419.352C225.591 419.409 230.191 417.682 234.5 414.917C240.999 410.733 247.178 406.13 252.372 400.364C257.633 394.524 262.805 388.602 267.888 382.597C274.226 375.113 279.537 366.815 283.678 357.925C287.663 349.425 291.489 340.837 295.007 332.138C297.556 325.838 299.485 319.295 301.696 312.853C302.338 310.991 303.048 309.136 303.642 307.274C307.512 295.164 311.436 283.068 315.184 270.921C317.482 263.553 318.557 255.858 318.368 248.142ZM249.165 127.628C249.236 128.24 249.303 128.855 249.381 129.467C249.679 131.863 250.037 134.253 250.257 136.652C250.402 138.251 249.604 139.67 248.489 139.995C247.022 140.424 245.849 139.853 244.906 138.724C244.477 138.203 244.082 137.656 243.639 137.149C240.593 133.744 238.261 129.763 236.778 125.442C234.554 118.831 232.212 112.261 230.113 105.613C229.438 103.423 228.167 102.385 226.034 102.379C225.122 102.379 223.861 101.341 223.33 102.615C222.955 103.501 223.29 104.687 223.313 105.738C223.331 105.855 223.367 105.969 223.418 106.076C226.176 114.285 228.826 122.535 231.736 130.687C233.497 135.598 235.68 140.36 237.694 145.183C237.935 145.786 238.298 146.333 238.759 146.79C239.221 147.247 239.772 147.604 240.378 147.839C241.229 148.177 241.878 148.066 242.449 147.322C242.96 146.646 243.511 146.014 244.085 145.399C245.126 144.28 245.481 144.311 246.282 145.642C246.554 146.067 246.718 146.552 246.759 147.055C246.796 148.289 246.735 149.526 246.681 150.773C246.512 154.754 246.265 158.732 246.174 162.713C246.137 164.42 247.299 165.589 248.965 165.755C250.753 165.941 252.548 166.022 254.339 166.154C257.753 166.4 261.166 166.64 264.58 166.901C268.493 167.201 272.407 167.526 276.321 167.833C279.619 168.09 282.921 168.323 286.22 168.597C291.029 168.996 295.832 169.446 300.641 169.827C304.166 170.111 307.712 170.199 311.223 170.595C316.982 171.195 322.776 171.377 328.561 171.139C331.505 171.048 334.415 170.534 336.699 168.415C337.288 167.912 337.705 167.239 337.892 166.488C338.447 162.882 338.906 159.259 339.309 155.636C339.768 151.621 340.211 147.602 340.532 143.577C340.789 140.387 340.958 137.183 340.965 133.986C340.965 131.123 338.991 129.67 336.233 130.406C333.901 131.068 331.452 131.205 329.061 130.809C327.628 130.562 326.158 130.518 324.705 130.39C320.511 130.014 316.32 129.606 312.126 129.281C307.593 128.943 303.061 128.409 298.526 128.396C287.173 128.355 275.817 128.585 264.461 128.649C261.602 128.666 258.74 128.51 255.884 128.331C253.646 128.189 251.419 127.885 249.185 127.655C249.408 125.935 249.942 125.33 251.632 125.323C253.423 125.323 255.215 125.56 257.009 125.59C266.06 125.73 275.11 125.843 284.158 125.928C289.566 125.979 294.973 125.928 300.381 125.966C302.409 125.966 304.413 126.222 306.434 126.253C308.337 126.28 309.239 125.361 309.293 123.505C309.412 119.575 309.56 115.644 309.614 111.713C309.699 105.528 309.716 99.3436 308.965 93.1925C308.374 88.3426 307.82 83.4826 306.968 78.6597C305.778 71.9476 303.815 65.4315 301.49 59.0168C299.56 53.6972 296.984 48.7087 294.081 43.8893C291.344 39.3503 288.021 35.2372 284.422 31.3539C281.38 28.0824 277.805 25.8822 273.293 25.1859C270.542 24.7601 267.905 25.1859 265.266 25.6827C260.048 26.6291 254.961 28.0013 250.351 30.7861C247.189 32.7337 244.274 35.0579 241.672 37.7077C237.616 41.7634 233.375 45.6433 229.583 49.922C223.685 56.5732 219.701 64.699 218.055 73.4347C217.717 75.0908 216.875 76.6894 216.044 78.1899C215.398 79.3526 214.388 80.3091 213.573 81.3838C212.654 82.5904 212.667 83.0466 213.715 84.1619C214.638 85.1454 215.621 86.0748 216.578 87.0245C219.491 89.9176 222.543 92.7058 224.456 96.4235C225.547 98.5494 227.214 99.4247 229.525 99.2185C230.921 99.0935 232.276 99.3503 233.334 100.27C234.864 101.574 236.311 102.972 237.667 104.457C241.489 108.684 244.471 113.6 246.454 118.943C247.465 121.798 248.259 124.732 249.165 127.628ZM175.903 302.907C175.72 301.062 175.589 299.213 175.345 297.378C174.953 294.407 175.737 291.97 178.201 290.098C184.96 284.94 191.639 279.722 198.348 274.524C200.102 273.172 200.037 272.73 198.01 271.868C197.959 271.844 197.905 271.831 197.854 271.807C195.928 270.948 194.843 269.505 194.812 267.363C194.789 265.73 194.718 264.091 194.833 262.465C195.032 259.542 195.394 256.652 196.928 254.036C198.206 251.853 199.375 249.606 200.602 247.392C203.622 241.921 207.25 236.809 211.417 232.153C215.564 227.533 220.187 223.406 225.534 220.199C229.495 217.833 231.925 214.331 233.666 210.171C235.311 206.237 235.923 202.06 236.849 197.95C240.266 183.045 242.78 167.947 244.379 152.74C244.525 151.3 244.322 151.09 242.872 151.236C238.708 151.655 236.406 150.266 234.848 146.403C234.659 145.933 234.453 145.467 234.281 144.993C229.732 132.461 225.179 119.931 220.623 107.401C219.701 104.869 219.018 102.122 217.524 99.9654C214.307 95.3048 210.663 90.9382 207.138 86.4905C204.975 83.7631 202.626 81.1776 200.521 78.4063C198.226 75.3916 197.141 71.9274 197.645 68.1151C198.033 65.3078 199.205 62.6666 201.024 60.4938C202.488 58.7194 204.13 57.0938 205.719 55.4242C206.307 54.8057 206.466 54.4644 205.401 54.3022C202.957 53.9338 200.534 53.3964 198.081 53.1125C195.441 52.8083 193.048 53.5349 191.156 55.4952C190.85 55.8253 190.471 56.0787 190.05 56.2349C189.628 56.3911 189.176 56.4457 188.729 56.3942C186.88 56.2522 185.031 56.1374 183.186 55.9954C179.268 55.689 175.353 55.3769 171.442 55.0592C166.964 54.6942 162.485 54.3832 158.017 53.9304C153.212 53.4572 148.416 52.8658 143.617 52.3453C142.941 52.271 142.265 52.3183 141.589 52.3115C142.269 52.6581 142.974 52.9552 143.698 53.2004C148.703 54.5117 153.745 55.6845 158.724 57.0904C163.395 58.4119 167.893 60.193 171.905 63.0421C175.916 65.8912 179.871 68.9295 184.007 71.6367C189.966 75.5369 194.599 80.6673 198.405 86.5784C200.835 90.3569 203.025 94.2943 205.229 98.2181C207.101 101.557 208.744 105.001 209.548 108.803C210.656 114.028 211.809 119.247 213.053 124.441C214.067 128.652 215.317 132.806 216.307 137.021C217.453 141.837 218.064 146.765 218.129 151.716C218.163 154.69 218.007 157.674 217.821 160.645C217.534 165.238 217.243 169.838 216.777 174.417C215.763 184.249 213.468 193.823 210.501 203.219C207.506 212.728 203.411 221.855 198.3 230.416C193.405 238.703 187.548 246.383 180.851 253.296C175.416 258.856 169.748 264.159 163.506 268.779C159.45 271.783 155.256 274.697 150.802 277.042C144.887 280.158 138.594 282.423 132.112 284.261C122.326 287.083 112.186 288.486 102.002 288.425C95.0906 288.364 88.1758 288.499 81.3149 287.411C69.4859 285.505 58.4579 281.453 48.5081 274.778C43.0532 271.117 37.818 267.106 32.6572 263.04C30.2035 261.107 28.1284 258.69 25.9215 256.456C25.0123 255.54 24.2113 254.52 23.3495 253.56C23.2253 253.465 23.0842 253.395 22.9338 253.354C22.9304 253.502 22.9521 253.649 22.998 253.79C23.133 254.036 23.2831 254.275 23.4475 254.503C28.4765 262.163 33.5078 269.832 38.5413 277.508C40.1737 280.003 41.7959 282.504 43.3844 285.025C47.2238 291.108 50.9921 297.249 54.8754 303.306C56.3287 305.567 58.2552 307.541 60.9961 308.037C63.0645 308.413 65.2478 308.315 67.3702 308.22C68.6343 308.162 69.246 307.314 69.1547 306.003C69.0803 304.891 68.7424 303.799 68.57 302.691C68.0833 299.568 69.2189 298.135 72.3553 298.226C74.9307 298.304 77.4992 298.638 80.0678 298.875C83.9815 299.233 87.8918 299.615 91.8055 299.977L105.389 301.217L117.971 302.38C122.439 302.792 126.911 303.211 131.382 303.607C134.174 303.85 136.986 303.945 139.767 304.283C144.12 304.823 146.368 307.044 147.256 311.316C147.588 313.027 148.01 314.719 148.52 316.385C149.315 318.869 150.92 320.062 153.549 320.069C156.179 320.076 158.829 319.954 161.465 319.795C163.756 319.66 164.392 318.751 163.898 316.47C163.506 314.655 163.057 312.853 162.644 311.042C161.86 307.581 161.201 304.097 161.401 300.524C161.566 297.483 161.837 294.478 162.076 291.457C162.067 291.288 162.09 291.119 162.144 290.96C162.256 290.78 162.389 290.615 162.54 290.466C162.692 290.605 162.898 290.716 162.979 290.889C163.05 291.107 163.083 291.335 163.077 291.565C163.658 297.601 164.263 303.634 164.804 309.673C165.084 312.799 165.723 315.757 167.575 318.4C168.072 319.109 168.407 319.315 169.157 318.822C170.708 317.808 172.337 316.902 173.862 315.851C174.495 315.426 175.036 314.878 175.454 314.239C175.871 313.6 176.156 312.884 176.292 312.134C176.846 309.001 176.589 305.945 175.903 302.907ZM212.343 158.867C211.87 154.007 211.667 149.103 210.859 144.3C209.649 137.098 208.155 129.937 206.526 122.812C205.019 116.214 202.493 109.89 199.04 104.068C192.987 93.838 185.478 84.7702 176.278 77.1659C168.167 70.4741 159.308 65.1679 149.294 61.8592C139.878 58.7327 129.974 57.3346 120.06 57.7325C115.278 57.9218 110.543 58.4829 105.923 59.8381C101.069 61.261 96.2025 62.6467 91.3391 64.0391C85.7558 65.6377 80.2199 67.4188 75.1165 70.1969C70.977 72.4698 66.9556 74.9515 63.0678 77.6323C54.3938 83.593 46.5761 90.7125 39.8323 98.7927C33.5681 106.324 28.2252 114.576 23.9173 123.373C19.9798 131.223 16.8477 139.452 14.569 147.934C12.6594 155.173 11.1048 162.466 10.4491 169.956C10.1788 173.031 9.9726 176.117 9.6887 179.189C9.22906 184.137 9.01275 189.132 10.0605 193.975C11.7503 201.715 13.6058 209.438 15.8601 217.029C18.4726 225.816 21.4332 234.481 25.9755 242.545C30.4165 250.427 35.9119 257.416 42.7186 263.307C49.6842 269.346 57.6671 273.683 66.4205 276.559C75.5728 279.563 85.0698 280.614 94.6107 281.24C105.088 281.939 115.403 280.584 125.481 277.779C134.802 275.183 143.958 272.077 152.556 267.484C159.403 263.827 165.737 259.447 171.181 253.965C174.571 250.517 177.732 246.851 180.645 242.991C184.497 237.942 187.965 232.602 191.72 227.475C197.523 219.563 202.197 211.046 205.11 201.685C206.888 195.826 208.343 189.875 209.467 183.857C211.116 175.621 212.078 167.262 212.343 158.867ZM75.4342 301.471V301.555C75.0388 301.555 74.6468 301.555 74.2513 301.555C73.8559 301.555 73.4672 301.525 73.0718 301.515C71.6185 301.467 71.2333 301.768 71.2569 303.242C71.2493 305.442 71.755 307.614 72.7338 309.585C73.3146 310.738 73.7755 311.948 74.1094 313.195C74.64 315.135 73.6261 316.693 71.6388 317.041C70.3686 317.274 69.0806 317.396 67.7893 317.406C65.8832 317.406 63.977 317.271 62.0742 317.132C60.0802 316.99 59.313 317.741 59.7321 319.66C60.0903 321.306 60.5905 322.918 61.0333 324.547C63.6741 334.033 66.8666 343.357 70.5945 352.47C73.3354 359.23 76.4549 365.864 79.5135 372.505C82.927 379.914 86.4893 387.254 91.1938 393.96C96.5608 401.605 103.574 407.097 112.486 410.034C121.089 412.87 129.913 414.983 138.868 416.35C144.641 417.233 150.43 418.04 156.23 418.716C159.68 419.122 163.168 419.243 166.642 419.443C172.53 419.781 178.417 420.119 184.305 420.389C188.361 420.575 192.396 420.666 196.438 420.788C197.898 420.832 199.358 420.822 200.832 420.866C203.018 420.933 205.225 421.038 207.395 421.102C207.666 421.077 207.932 421.016 208.186 420.92C208.081 420.621 207.924 420.343 207.723 420.098C205.455 418.172 203.16 416.276 200.882 414.353C198.604 412.43 196.563 410.402 195.002 407.891C188.579 397.501 183.031 386.595 178.414 375.287C174.433 365.611 171.026 355.708 168.613 345.491C167.805 342.041 166.923 338.61 166.136 335.153C165.122 330.736 163.455 329.346 158.889 328.633C156.29 328.224 153.644 328.079 151.011 327.93C147.75 327.745 146.513 326.778 145.746 323.564C145.615 323.075 145.521 322.576 145.465 322.073C145.229 319.447 145.039 316.815 144.789 314.188C144.603 312.198 144.059 310.295 142.788 308.717C142.318 308.105 141.674 307.649 140.94 307.409C138.66 306.789 136.344 306.311 134.005 305.976C128.822 305.3 123.64 304.728 118.458 304.259C114.044 303.847 109.617 303.563 105.193 303.296C101.995 303.103 98.7914 303.056 95.5942 302.91C93.2926 302.806 90.991 302.684 88.6962 302.515C84.2755 302.184 79.8549 301.809 75.4342 301.471ZM191.838 2.92036C188.976 3.08258 183.527 3.25839 178.106 3.74845C172.89 4.17836 167.739 5.1988 162.752 6.79019C155.808 9.09079 149.089 12.0231 142.68 15.5504C135.302 19.606 128.462 24.4052 121.726 29.3835C118.121 32.049 114.516 34.7302 110.911 37.4272C110.573 37.6942 110.036 38.3296 110.127 38.4919C110.422 39.0166 110.869 39.4405 111.408 39.7086C111.884 39.9181 112.52 39.7491 113.074 39.8133C115.467 40.0905 117.87 40.3304 120.249 40.7157C121.571 40.932 121.642 41.2125 121.091 42.4326C120.601 43.5074 119.996 44.5382 119.597 45.6433C119.083 47.0662 119.702 48.1646 121.006 48.2559C126.272 48.6175 131.537 48.9318 136.8 49.2934C139.936 49.5097 143.066 49.7869 146.199 50.064C150.727 50.4628 155.254 50.874 159.778 51.2976C163.861 51.6727 167.94 52.0918 172.023 52.4399C175.994 52.7779 179.972 53.0415 183.947 53.3491C185.775 53.491 187.225 52.7813 188.431 51.4531C189.716 50.0403 190.939 48.5567 192.325 47.2521C195.498 44.2577 199.159 42.3616 203.681 42.5205C206.047 42.6016 208.412 42.5205 210.778 42.5441C213.293 42.5441 214.53 43.433 215.202 45.8427C215.794 47.9517 216.287 50.0944 216.774 52.2338C217.358 54.8091 217.886 57.4013 218.464 59.9801C218.586 60.3341 218.745 60.674 218.94 60.994C219.166 60.76 219.379 60.5129 219.576 60.2538C221.755 57.1107 223.915 53.954 226.105 50.8177C230.475 44.5652 235.467 38.8704 241.348 33.9867C246.866 29.4042 253.329 26.0988 260.274 24.3072C265.179 23.0247 270.284 22.6943 275.314 23.3339C277.909 23.6482 280.532 24.314 282.306 26.3519C285.882 30.4617 289.468 34.5917 292.665 38.9921C295.731 43.2133 298.411 47.732 301.077 52.2203C303.412 56.1474 305.13 60.4091 306.174 64.857C307.428 70.1665 308.57 75.5065 309.946 80.7856C311.737 87.6701 312.72 94.6796 313.295 101.74C313.602 105.528 313.501 109.364 313.362 113.173C313.244 116.421 312.903 119.669 312.491 122.897C312.102 125.898 312.673 126.821 315.657 127.24C316.106 127.295 316.558 127.313 317.009 127.294C318.422 127.257 319.037 126.888 319.233 125.503C319.571 123.005 320.068 120.453 319.868 117.973C319.338 111.426 318.672 104.88 317.689 98.3702C316.225 88.7043 314.789 79.0079 312.687 69.4703C310.824 61.021 308.198 52.7374 305.66 44.4604C302.956 35.6732 297.549 28.7312 290.266 23.2291C285.709 19.7332 280.751 16.7956 275.496 14.479C270.268 12.1442 264.449 11.4751 258.827 12.5627C253.449 13.6221 248.38 15.8857 244.001 19.1836C241.297 21.181 238.593 23.2122 235.991 25.3583C231.225 29.2923 226.528 33.3277 221.823 37.3157C219.721 39.0935 217.613 40.8655 215.5 42.632C215.289 42.7556 215.061 42.8467 214.824 42.9024C214.922 42.6556 215.003 42.3988 215.121 42.1622C215.2 42.0119 215.299 41.8731 215.415 41.7499C218.372 38.4412 221.242 35.0479 224.317 31.8507C226.453 29.6303 228.819 27.616 231.171 25.6152C235.777 21.6497 240.802 18.1989 246.157 15.324C250.475 13.0185 255.001 11.1275 259.676 9.6764C259.957 9.55063 260.221 9.3906 260.463 9.19989C260.226 9.06347 259.976 8.95029 259.716 8.86192C256.066 7.9325 252.409 7.01999 248.756 6.09057C243.426 4.73869 237.941 4.80968 232.533 4.4244C226.263 3.97377 219.986 3.6358 213.702 3.41048C207.243 3.157 200.835 3.10294 191.838 2.91367V2.92036ZM215.888 159.766C215.692 155.163 215.838 150.512 215.212 145.967C214.455 140.41 213.205 134.905 211.893 129.443C210.542 123.759 208.831 118.155 207.307 112.511C205.649 106.544 203.305 100.789 200.321 95.3623C195.863 87.0921 190.284 79.65 183.085 73.5023C177.635 68.8754 171.553 65.0483 165.024 62.1363C158.207 59.0642 151.028 57.2121 143.789 55.5459C138.037 54.2098 132.179 53.3854 126.282 53.0821C120.326 52.7529 114.351 53.0839 108.468 54.0689C101.066 55.3397 93.8029 57.1884 87.0469 60.5175C78.1684 64.9111 69.3947 69.4838 60.6041 74.0363C53.8446 77.5309 47.7611 81.9212 42.7997 87.714C38.0174 93.304 33.2115 98.8907 28.7367 104.727C22.2477 113.177 17.7223 122.721 14.177 132.779C11.0169 141.722 8.81335 150.911 6.89029 160.155C5.75247 165.656 4.96231 171.223 4.5245 176.823C4.18652 181.116 4.39609 185.489 4.75772 189.791C5.21398 195.27 5.82231 200.762 6.80918 206.166C7.99546 212.689 9.39804 219.195 11.1589 225.586C13.5923 234.417 18.0839 242.265 23.6638 249.511C27.8735 254.934 32.6969 259.852 38.0377 264.165C42.9789 268.191 48.312 271.628 53.8243 274.818C59.6138 278.168 65.7919 280.506 72.21 282.304C80.2266 284.552 88.4731 285.133 96.7095 285.637C103.847 286.069 110.979 285.529 118.059 284.501C125.951 283.355 133.498 280.854 140.916 278.059C147.98 275.395 154.654 271.797 160.762 267.359C163.033 265.71 165.122 263.817 167.278 262.019C167.463 261.818 167.618 261.59 167.738 261.343C167.482 261.353 167.23 261.403 166.991 261.492C163.638 263.439 160.231 265.325 156.956 267.39C152.515 270.178 147.99 272.817 143.099 274.713C138.209 276.609 133.298 278.35 128.293 279.857C118.887 282.686 109.296 284.417 99.4133 284.423C93.3967 284.456 87.3873 284.004 81.4434 283.071C74.5758 281.966 67.9989 279.756 61.6078 277.106C56.9398 275.151 52.3898 272.926 47.9808 270.441C42.8555 267.575 38.3208 263.762 34.6175 259.204C31.5757 255.463 28.6489 251.559 26.2053 247.412C22.9308 241.902 19.9744 236.209 17.3505 230.361C13.3805 221.522 10.4804 212.24 8.71196 202.712C7.76226 197.467 6.85652 192.181 6.49489 186.878C6.23128 183.045 6.73823 179.135 7.17084 175.292C7.76567 170.105 8.6917 164.954 9.36088 159.769C10.6519 149.826 13.4165 140.265 17.2187 131.042C21.2339 121.362 26.4576 112.228 32.7654 103.859C38.325 96.4641 44.4321 89.5965 51.3538 83.4623C56.6223 78.8065 62.3149 74.654 68.3571 71.0588C76.6946 66.1206 85.704 62.4174 95.1041 60.0646C99.3423 58.9797 103.722 58.4389 107.977 57.4081C112.168 56.3942 116.363 55.7825 120.668 56.0562C121.902 56.1272 123.129 56.2962 124.362 56.357C129.297 56.6004 134.265 56.5531 139.159 57.1276C143.187 57.5568 147.155 58.4366 150.988 59.7503C157.711 62.1832 164.147 65.3451 170.181 69.1796C178.968 74.7021 186.725 81.3466 193.075 89.6134C197.953 95.8787 201.919 102.802 204.857 110.179C207.61 117.139 209.795 124.31 211.39 131.623C213.668 142.256 215.523 152.915 214.719 163.849C214.334 169.108 213.735 174.353 213.13 179.595C212.792 182.552 212.238 185.482 211.806 188.429C211.793 188.792 211.82 189.154 211.887 189.511C212.039 189.225 212.171 188.928 212.279 188.622C212.563 187.608 212.819 186.557 213.073 185.519C215.105 177.088 216.051 168.431 215.888 159.759V159.766ZM206.303 276.278C206.151 275.102 206.006 274.159 205.915 273.209C205.834 272.341 205.448 272.297 204.816 272.726C203.126 273.862 201.406 274.916 199.797 276.14C193.67 280.797 187.63 285.549 181.469 290.176C179.168 291.909 178.09 294.133 177.958 296.935C177.934 297.553 177.927 298.175 177.958 298.79C178.064 302.103 178.176 305.412 178.296 308.72C178.402 311.762 177.936 314.797 176.92 317.666C176.014 320.272 175.741 322.901 176.677 325.585C176.95 326.441 177.155 327.318 177.289 328.207C178.056 332.52 178.799 336.839 179.563 341.152C179.63 341.405 179.719 341.651 179.83 341.889C180.02 341.7 180.195 341.496 180.354 341.28C180.785 340.623 181.175 339.939 181.52 339.232C182.5 337.022 183.426 334.795 184.369 332.571C188.644 322.482 193.065 312.455 197.144 302.289C200.24 294.573 202.91 286.688 205.736 278.867C205.984 278.018 206.174 277.153 206.303 276.278ZM280.779 180.997C281.117 180.996 281.456 180.977 281.793 180.94C287.694 179.767 293.598 178.601 299.492 177.401C301.054 177.063 301.932 175.867 302.754 174.64C303.176 174.012 302.939 173.542 302.264 173.353C301.2 173.006 300.109 172.75 299.002 172.589C295.872 172.274 292.736 172.065 289.6 171.832C285.123 171.5 280.642 171.178 276.159 170.865C273.918 170.71 271.67 170.628 269.43 170.47C265.066 170.165 260.703 169.824 256.337 169.506C253.971 169.337 251.605 169.344 249.29 168.979C247.536 168.702 246.312 169.233 245.305 170.52C244.817 171.149 244.501 171.893 244.386 172.68C244.271 173.467 244.362 174.27 244.65 175.012C245.18 176.506 246.677 176.611 248.07 176.594C249.422 176.594 250.794 176.458 252.126 176.648C259.243 177.662 266.354 178.73 273.465 179.801C276.023 180.186 278.568 180.632 280.782 180.997H280.779ZM180.922 346.421C181.134 347.257 181.4 348.079 181.719 348.881C182.294 350.081 182.568 350.051 183.308 348.881C189.56 339.019 194.63 328.539 199.04 317.768C202.657 308.93 205.8 299.892 209.071 290.919C210.555 286.863 211.873 282.737 213.289 278.651C214.641 274.771 215.993 270.904 217.345 267.025C217.403 266.725 217.416 266.419 217.382 266.115C217.122 266.199 216.869 266.303 216.625 266.426C214.793 267.521 212.931 268.573 211.153 269.755C209.376 270.938 208.321 272.703 208.341 274.862C208.399 280.946 206.621 286.644 204.488 292.21C202.66 296.979 200.392 301.579 198.361 306.27C195.343 313.232 192.423 320.235 189.351 327.173C186.941 332.615 184.345 337.988 181.878 343.396C181.446 344.346 181.236 345.407 180.922 346.421ZM230.604 222.811V221.121C230.604 221.064 230.604 221.006 230.604 220.952C230.536 219.712 230.333 219.553 229.167 220.104C228.299 220.505 227.479 221 226.72 221.581C222.469 224.9 218.393 228.384 214.739 232.396C210.424 237.063 206.629 242.186 203.42 247.672C201.731 250.582 199.578 253.316 198.98 256.706C198.381 260.096 198.108 263.601 197.743 267.055C197.655 267.883 199.77 269.475 200.541 269.201C200.791 269.083 200.991 268.879 201.105 268.627C201.309 268.226 201.455 267.8 201.541 267.359C202.738 260.515 205.638 254.408 209.697 248.842C213.414 243.745 217.298 238.797 222.935 235.59C224.74 234.576 226.426 233.326 228.204 232.244C228.995 231.761 229.137 231.203 228.755 230.419C228.373 229.635 227.954 228.807 227.596 227.979C227.048 226.708 227.18 226.488 228.572 226.198C230.6 225.779 230.6 225.779 230.6 223.646C230.593 223.369 230.59 223.085 230.59 222.804L230.604 222.811ZM204.847 264.72C205.093 265.903 205.283 266.896 205.523 267.88C205.665 268.474 206.03 268.758 206.641 268.437C208.622 267.423 210.852 266.785 212.35 264.956C213.489 263.567 214.695 262.232 215.77 260.796C217.081 259.038 218.261 257.183 219.572 255.429C219.739 255.288 219.938 255.19 220.151 255.145C220.365 255.1 220.586 255.11 220.796 255.172C221.35 255.415 221.333 255.939 220.914 256.422C220.576 256.804 220.309 257.234 219.995 257.632C218.599 259.39 217.176 261.13 215.811 262.918C215.584 263.216 215.601 263.699 215.506 264.094C215.892 263.966 216.385 263.949 216.645 263.692C218.241 262.117 219.947 260.62 221.306 258.856C225.763 253.104 228.985 246.494 230.769 239.439C231.334 237.209 229.958 235.691 227.707 236.225C223.611 237.199 220.427 239.625 217.801 242.839C217.684 243.065 217.607 243.31 217.575 243.563C217.781 243.498 217.981 243.415 218.173 243.316C220.512 241.856 222.827 240.369 225.186 238.943C225.854 238.607 226.548 238.325 227.261 238.098C227.673 239.155 226.697 239.622 226.223 240.166C224.429 242.251 222.489 244.222 220.62 246.249C220.435 246.511 220.282 246.795 220.167 247.094C220.447 247.244 220.737 247.372 221.036 247.48C221.245 247.544 221.488 247.48 221.711 247.527C221.962 247.6 222.207 247.692 222.445 247.801C222.359 248.052 222.235 248.288 222.076 248.5C218.876 251.495 215.675 254.486 212.427 257.426C212.174 257.659 211.576 257.511 211.136 257.538C211.136 257.139 211.038 256.659 211.217 256.351C211.72 255.539 212.269 254.756 212.86 254.006C214.837 251.346 216.831 248.693 218.812 246.03C218.915 245.851 218.998 245.66 219.058 245.462C218.957 245.462 218.825 245.391 218.754 245.432C216.784 246.564 214.263 246.912 213.009 249.061C210.596 253.182 208.253 257.343 205.982 261.543C205.391 262.533 205.164 263.723 204.833 264.709L204.847 264.72ZM200.22 69.5987C200.26 73.0089 201.734 75.8411 203.867 78.4232C207.939 83.3576 211.978 88.3189 216.05 93.2601C217.514 95.0344 218.994 96.802 220.518 98.5257C220.745 98.7825 221.262 98.7859 221.644 98.9076C221.644 98.4919 221.826 97.9951 221.644 97.6808C221.264 97.0576 220.823 96.4744 220.326 95.9402C217.068 92.084 213.776 88.2514 210.548 84.3681C208.879 82.3605 208.923 81.617 210.765 79.7818C211.356 79.1904 211.272 78.9335 210.653 78.5415C209.747 77.9737 208.869 77.3687 207.99 76.7603C207.199 76.2128 207.382 75.4456 207.767 74.8271C207.861 74.6751 208.673 74.9116 209.119 75.0569C209.422 75.2039 209.709 75.3806 209.977 75.5842C210.744 76.0269 211.474 75.9053 211.839 75.1144C213.144 72.2991 214.445 69.4602 213.191 66.2393C212.762 65.1409 212.387 64.0188 211.988 62.9103C211.397 61.2813 211.275 61.2204 209.96 62.2918C208.646 63.3632 207.287 64.5224 205.935 65.6174C205.66 65.7846 205.366 65.9185 205.06 66.0162C205.017 65.718 205.017 65.4154 205.06 65.1172C205.377 64.1033 205.736 63.0894 206.101 62.0755C206.739 60.264 208.034 59.392 209.95 59.4021C211.072 59.4021 212.198 59.4022 213.33 59.3717C214.141 59.3447 214.378 58.885 214.175 58.1111C213.593 55.9109 211.87 55.0693 209.737 55.9987C207.537 56.9687 205.769 58.5268 204.191 60.3079C201.873 62.961 200.396 65.9825 200.22 69.5987ZM332.434 234.721C332.096 230.115 331.954 226.519 331.518 222.956C331.065 219.239 330.339 215.521 329.69 211.837C329.542 211.306 329.337 210.793 329.078 210.306C329.017 210.874 328.94 211.438 328.906 211.996C328.923 212.224 328.957 212.45 329.007 212.672C329.294 215.687 329.592 218.701 329.859 221.72C330.197 225.353 330.477 228.989 330.788 232.623C330.93 234.312 331.086 235.979 331.224 237.658C331.208 237.821 331.168 237.98 331.106 238.131C330.974 237.996 330.768 237.885 330.721 237.722C330.586 237.352 330.483 236.971 330.413 236.584C329.44 231.619 328.456 226.661 327.513 221.692C326.608 216.9 326.499 211.966 324.928 207.281C324.668 206.507 324.661 205.291 325.104 204.699C326.584 202.712 326.08 200.924 325.05 199.042C324.674 198.366 324.276 197.774 323.36 198.004C322.964 198.073 322.611 198.294 322.377 198.62C322.142 198.946 322.045 199.351 322.106 199.748C322.194 201.201 322.244 202.665 322.444 204.105C323.393 210.891 324.357 217.674 325.374 224.45C326.391 231.227 327.483 237.993 328.548 244.762C328.825 246.54 329.115 248.313 329.419 250.082C329.48 250.29 329.565 250.49 329.673 250.677C329.822 250.522 329.947 250.345 330.045 250.153C330.329 249.362 330.721 248.578 330.822 247.757C331.441 243.093 331.985 238.419 332.431 234.721H332.434ZM104.439 46.2551C102.144 46.5153 99.998 46.8803 98.1087 48.1376C96.892 48.9487 95.6821 49.7734 94.4248 50.5034C87.6924 54.4543 80.9364 58.3646 74.2142 62.3324C72.6189 63.2719 71.1082 64.3602 69.5738 65.3978C69.4352 65.489 69.4014 65.7357 69.3203 65.9081C69.4787 65.9025 69.636 65.8809 69.7901 65.8438C69.9996 65.7695 70.1923 65.6478 70.3985 65.5566C75.8432 63.1637 81.2676 60.7169 86.7427 58.3916C95.1717 54.8091 103.979 52.6461 113.034 51.3348L114.497 51.1151C113.953 51.0461 113.406 51.0089 112.858 51.0036C111.313 51.061 111.317 51.0779 111.692 49.5908C112.091 48.0125 111.756 47.3602 110.174 47.073C108.241 46.7316 106.288 46.5153 104.436 46.2551H104.439ZM214.04 53.0145C213.408 50.5811 212.89 48.4553 212.279 46.3598C212.199 46.154 212.074 45.9685 211.913 45.8171C211.752 45.6656 211.56 45.552 211.349 45.4845C209.774 45.1465 208.145 44.5855 206.581 44.6936C204.348 44.8769 202.144 45.3204 200.014 46.0151C197.165 46.9298 194.598 48.5587 192.558 50.7467C192.372 51.0125 192.225 51.3039 192.122 51.6119C192.406 51.7008 192.704 51.7374 193.001 51.7201C197.513 50.5 202.004 50.8312 206.493 51.8451C208.625 52.3284 210.758 52.8286 212.914 53.268C213.225 53.3356 213.61 53.1125 214.036 53.0077L214.04 53.0145ZM158.676 322.513H150.589C150.025 322.482 149.461 322.495 148.899 322.55C148.539 322.658 148.198 322.818 147.885 323.026C148.112 323.304 148.287 323.702 148.561 323.831C149.46 324.287 150.369 324.811 151.336 325.031C155.658 326.001 159.991 326.913 164.344 327.734C164.851 327.829 165.632 327.396 166.034 326.96C166.928 325.953 167.762 324.895 168.532 323.79C168.721 323.463 168.874 323.116 168.988 322.756C168.633 322.64 168.267 322.562 167.896 322.523C164.851 322.499 161.762 322.506 158.673 322.506L158.676 322.513ZM177.505 252.864C178.022 252.33 178.607 251.796 179.107 251.174C183.105 246.317 187.137 241.487 191.064 236.573C199.267 226.308 205.26 214.459 208.669 201.769C208.953 200.755 209.254 199.714 209.517 198.677C209.525 198.484 209.496 198.291 209.433 198.109C209.334 198.239 209.243 198.375 209.163 198.518C209.035 198.768 208.922 199.025 208.825 199.288C206.341 205.859 204.009 212.469 200.99 218.85C198.229 224.677 195.015 230.193 191.034 235.249C187.654 239.527 184.163 243.698 180.739 247.939C179.573 249.382 178.471 250.876 177.36 252.35C177.275 252.491 177.204 252.639 177.147 252.793L177.505 252.864ZM238.546 121.055C238.58 121.197 238.61 121.362 238.661 121.525C239.499 124.144 240.171 126.834 241.219 129.369C242.456 132.288 244.514 134.784 247.144 136.554C247.331 136.659 247.529 136.743 247.735 136.804C247.762 136.593 247.762 136.38 247.735 136.169C247.651 135.787 247.509 135.419 247.397 135.043C246.921 133.526 246.471 132.032 244.653 131.491C244.362 131.404 244.105 130.582 244.153 130.14C244.22 129.555 244.666 129.021 244.829 128.45C244.964 127.835 245.06 127.211 245.116 126.584L243.737 127.426C243.595 127.517 243.47 127.666 243.318 127.703C242.868 127.807 242.409 127.872 241.966 127.953C241.919 127.449 241.699 126.885 241.855 126.459C242.226 125.465 242.814 124.556 243.233 123.583C243.354 123.158 243.418 122.72 243.423 122.278C243.034 122.4 242.642 122.518 242.253 122.65C241.865 122.782 241.517 122.92 241.148 123.056C240.239 123.394 239.773 123.056 240.033 122.133C240.371 121.018 240.854 119.953 241.273 118.865C241.348 118.669 241.395 118.466 241.456 118.267C241.357 118.236 241.255 118.22 241.152 118.219C240.161 118.338 238.509 120.142 238.542 121.062L238.546 121.055ZM327.53 249.856C327.492 249.153 327.413 248.454 327.294 247.76C326.381 243.705 325.472 239.649 324.482 235.593C323.921 233.302 323.208 231.048 322.552 228.78C322.476 228.581 322.382 228.39 322.271 228.209C322.194 228.394 322.143 228.59 322.119 228.79C322.177 230.922 322.075 233.075 322.349 235.181C323.025 240.342 324.881 245.195 326.547 250.089C326.78 250.616 327.06 251.12 327.385 251.596C327.425 251.059 327.473 250.501 327.527 249.862L327.53 249.856ZM113.52 41.7533V41.929C112.685 41.929 111.83 41.8276 111.019 41.9763C110.651 42.0439 110.245 42.5576 110.103 42.9598C110.042 43.1423 110.529 43.7 110.86 43.8048C112.077 44.2002 113.331 44.4807 114.578 44.795C115.171 44.951 115.774 45.0639 116.383 45.133C117.346 45.2209 118.431 44.2272 118.468 43.1592C118.502 42.1453 117.576 42.3346 117.001 42.2264C115.839 42.0135 114.676 41.9088 113.517 41.7601L113.52 41.7533ZM66.4307 314.361C67.5527 314.361 68.6748 314.361 69.8104 314.361C70.6553 314.361 71.2197 314.023 71.1859 313.06C71.1521 312.046 70.6587 311.546 69.5772 311.681C67.2959 311.961 65.0213 312.309 62.7569 312.695C62.375 312.759 62.0506 313.175 61.6991 313.425C62.0979 313.739 62.4764 314.276 62.9056 314.324C64.0779 314.4 65.2535 314.415 66.4273 314.368L66.4307 314.361ZM5.28493 220.895C5.36942 222.967 6.60642 224.359 7.8434 225.741C7.96506 225.873 8.23545 225.873 8.43823 225.934C8.5216 225.69 8.55826 225.432 8.54636 225.174C8.08672 223.44 7.60678 221.713 7.09307 219.996C6.88517 219.397 6.64717 218.81 6.37995 218.235C6.04198 218.867 5.70402 219.492 5.42013 220.138C5.34065 220.385 5.29405 220.642 5.28155 220.902L5.28493 220.895Z" fill="black"/>
<path d="M28.3221 179.767C28.0764 171.779 28.8452 163.792 30.6101 155.998C32.5805 147.514 35.8926 139.609 40.969 132.532C45.8831 125.682 51.0303 118.996 56.0391 112.217C58.4049 109.003 60.7707 105.775 63.8124 103.135C67.5808 99.8572 71.214 96.3997 75.9016 94.3482C80.3544 92.3968 85.2575 91.7059 90.0761 92.3508C93.1922 92.7395 96.3354 92.9828 99.4751 93.1146C104.359 93.3242 109.249 93.4019 114.136 93.5033C120.375 93.6317 126.618 93.696 132.853 93.8413C141.055 94.0396 149.257 94.2727 157.461 94.5409C163.281 94.7335 167.779 97.4609 171.547 101.804C177.259 108.388 182.298 115.394 185.901 123.35C188.601 129.361 190.48 135.709 191.488 142.222C192.366 147.711 192.36 153.236 191.995 158.711C191.633 164.072 190.697 169.422 189.649 174.704C188.429 180.879 187.01 187.027 185.327 193.09C182.623 202.779 178.966 212.091 173.227 220.442C169.903 225.19 166.021 229.522 161.665 233.346C158.65 236.049 155.92 239.044 152.993 241.859C150.928 243.857 148.738 245.732 146.061 246.875C142.949 248.206 139.636 249.006 136.26 249.24C130.565 249.653 124.951 248.902 119.321 248.291C114.353 247.747 109.371 247.348 104.406 246.81C99.1574 246.239 93.929 245.573 88.6837 244.962C84.3351 244.455 79.9832 243.957 75.6279 243.468C72.1704 243.079 68.713 242.653 65.2454 242.329C63.7385 242.154 62.2179 242.132 60.7064 242.261C55.3395 242.832 50.8478 241.163 47.7182 236.786C45.9047 234.214 44.4079 231.433 43.2604 228.502C38.6403 216.842 34.2129 205.105 29.7179 193.397C28.7614 190.91 28.1531 188.368 28.2883 185.661C28.4032 183.708 28.3221 181.734 28.3221 179.767ZM189.798 151.851C189.717 150.789 189.548 148.89 189.423 146.987C189.069 141.2 187.876 135.495 185.881 130.052C181.764 118.848 175.454 109.053 167.174 100.493C165.844 99.0908 164.062 98.2029 162.142 97.9848C157.964 97.4745 153.787 96.8898 149.589 96.6329C143.425 96.2544 137.247 96.1226 131.072 95.9198C126.807 95.7779 122.538 95.69 118.27 95.5818C113.271 95.4602 108.269 95.3621 103.271 95.2202C100.229 95.1323 97.2073 95.014 94.1791 94.845C92.0533 94.7268 89.9308 94.453 87.805 94.3279C82.3332 94.0102 77.0474 94.6997 72.7179 98.3836C70.3521 100.411 68.2703 102.814 66.1917 105.163C60.6862 111.389 55.1739 117.611 49.817 123.965C46.9574 127.289 44.3168 130.795 41.9119 134.462C37.3831 141.532 34.2805 149.235 32.9489 157.572C32.4588 160.614 32.1141 163.69 31.7491 166.755C31.7119 167.093 31.9688 167.431 32.0871 167.769C32.3967 167.666 32.692 167.524 32.9658 167.347C34.6793 165.897 36.3725 164.42 38.0725 162.953C42.8751 158.796 47.7149 154.69 53.2576 151.513C60.1488 147.569 67.2935 146.599 74.7728 149.661C76.8006 150.499 77.8686 149.914 78.3012 147.683C78.8285 144.98 79.3152 142.276 80.0486 139.616C81.4545 134.445 83.7257 129.707 87.6258 125.905C91.909 121.739 96.869 118.333 102.294 115.83C106.758 113.755 111.534 112.599 116.401 113.802C120.803 114.937 125.124 116.362 129.338 118.067C137.26 121.193 141.874 127.098 143.175 135.547C144.124 141.722 144.405 147.944 144.503 154.179C144.503 154.855 144.511 155.531 144.527 156.207C144.527 156.937 144.865 157.262 145.591 156.995C145.909 156.883 146.22 156.748 146.541 156.657C152.567 154.73 158.644 154.074 164.754 156.177C170.27 158.073 174.383 161.831 177.884 166.37C180.798 170.148 182.853 174.39 184.793 178.706C184.984 179.016 185.217 179.3 185.485 179.547C185.66 179.268 185.803 178.97 185.911 178.659C186.324 176.85 186.682 175.029 187.098 173.221C188.757 166.214 189.663 159.05 189.798 151.851ZM131.89 247.459V247.047C138.987 248.024 144.777 245.11 150.164 241.034C152.27 239.443 154.267 237.702 156.396 236.144C161.128 232.69 164.815 228.229 168.563 223.832C168.773 223.515 168.945 223.175 169.073 222.818C168.71 222.775 168.342 222.775 167.978 222.818C165.356 223.46 162.75 224.17 160.127 224.788C154.118 226.231 148.143 227.8 141.836 226.965C138.666 226.546 135.567 225.985 132.982 224.041C130.999 222.576 129.15 220.938 127.456 219.147C121.66 212.909 118.952 205.358 118.503 196.946C118.28 192.806 119.121 188.784 120.142 184.779C120.652 182.785 120.554 182.663 118.452 182.704C113.508 182.799 108.563 183.015 103.619 182.991C101.376 182.938 99.1432 182.681 96.9471 182.224C93.9054 181.65 92.9895 181.788 92.5028 185.573C92.4825 185.742 92.5028 185.911 92.5028 186.08C92.3975 191.738 90.7625 197.262 87.7712 202.066C83.5803 208.944 77.6929 213.821 70.1054 216.498C61.5176 219.539 53.0041 219.414 44.7576 215.183C43.017 214.291 41.4117 213.128 39.688 212.168C39.1473 211.864 38.4578 211.83 37.8393 211.655C37.89 212.266 37.7852 212.952 38.0252 213.48C38.7011 214.906 39.4785 216.271 40.2457 217.643C43.3111 223.146 46.4001 228.631 49.4453 234.14C50.5234 236.093 52.149 237.381 54.062 238.439C56.7657 239.933 59.7196 240.213 62.7005 240.365C65.2217 240.49 67.7701 240.365 70.2744 240.609C74.6342 241.001 78.9806 241.579 83.3302 242.069C87.1797 242.501 91.0292 242.914 94.8787 243.353C97.9441 243.691 101.01 244.08 104.075 244.438C108.367 244.938 112.659 245.452 116.955 245.925C121.954 246.479 126.925 246.959 131.89 247.459ZM120.622 196.824C120.96 199.224 121.197 201.516 121.605 203.77C123.674 215.203 136.02 226.62 148.67 224.626C154.7 223.673 160.621 222.554 166.265 220.215C170.479 218.468 173.7 215.592 175.539 211.357C176.215 209.765 176.712 208.082 177.334 206.457C179.246 201.472 181.186 196.5 183.103 191.515C183.714 189.93 184.164 188.341 183.708 186.591C183.37 185.347 183.278 184.046 183.032 182.778C180.815 171.537 174.498 163.534 164.014 158.887C161.547 157.792 159.022 156.924 156.22 156.981C152.78 157.052 149.539 157.91 146.419 159.154C144.233 160.019 141.992 161.04 140.779 163.233C138.413 167.509 135.547 171.345 131.691 174.387C129.981 175.756 128.174 176.999 126.283 178.104C124.39 179.186 123.116 180.517 122.866 182.768C122.67 184.553 122.271 186.31 121.991 188.088C121.507 191.008 121.065 193.945 120.622 196.824ZM141.843 144.405C141.657 142.57 141.475 139.542 141.015 136.551C140.231 131.407 137.771 127.277 133.242 124.512C130.876 123.079 128.618 121.514 126.256 120.102C118.009 115.167 109.357 114.238 100.651 118.459C92.1107 122.603 86.2469 129.443 82.9382 138.369C80.8732 143.949 80.6332 149.742 80.9678 155.639C81.3024 161.537 83.6243 166.478 87.0986 171.044C90.2857 175.231 94.4664 178.121 99.2656 180.088C103.848 181.96 108.597 182.586 113.44 181.126C117.864 179.794 122.16 178.148 126.09 175.657C131.123 172.517 135.242 168.111 138.038 162.879C140.941 157.458 141.667 151.607 141.843 144.405ZM31.0292 186.047C31.0563 189.764 31.962 194.834 33.5809 199.782C34.7254 203.208 36.636 206.329 39.1675 208.907C42.0978 211.949 45.7242 213.791 49.5027 215.437C51.3244 216.231 53.2204 216.197 55.1434 215.974C55.647 215.916 56.1573 215.842 56.6474 215.768C61.379 215.072 66.1106 214.436 70.7983 213.662C75.1919 212.936 78.406 210.1 81.2754 206.987C84.4013 203.572 86.7816 199.544 88.2646 195.158C89.8125 190.667 91.0968 186.131 90.7892 181.301C90.7783 180.523 90.5911 179.757 90.2417 179.061C89.0183 176.986 87.5853 175.032 86.3652 172.95C84.4962 169.753 82.5968 166.559 80.9847 163.23C80.0654 161.331 79.7038 159.174 79.0752 157.123C78.7847 156.119 78.2807 155.189 77.5976 154.397C76.9146 153.606 76.0686 152.971 75.1175 152.537C68.3851 149.316 61.6562 149.495 55.2043 153.101C48.5091 156.856 42.3952 161.435 37.4033 167.37C33.2328 172.338 30.9447 177.993 31.0292 186.047Z" fill="black"/>
<path d="M107.465 80.5485C107.228 80.4944 106.89 80.295 106.711 80.3897C105.623 80.9744 104.558 81.6064 103.504 82.2553C102.774 82.7082 102.152 82.7825 101.665 81.9173C101.179 81.0521 101.733 80.677 102.341 80.3221C104.91 78.8114 107.479 77.2804 110.078 75.8406C110.328 75.702 111.027 75.8406 111.115 76.0197C111.494 76.8478 112.055 76.6686 112.666 76.4692C113.085 76.3038 113.515 76.1715 113.954 76.0738C114.477 76.015 115.003 75.9868 115.529 75.9893C115.306 76.3577 115.076 76.7227 114.853 77.0978C114.787 77.2454 114.738 77.3994 114.704 77.5575C114.854 77.6083 115.012 77.6323 115.171 77.6284C115.61 77.5406 116.046 77.2905 116.475 77.3209C116.982 77.3446 117.709 77.4088 117.939 77.74C118.561 78.6221 119.166 78.4159 119.967 78.1185C123.346 76.8477 126.696 76.8782 129.91 78.6322C131.508 79.5042 133.164 79.4163 134.841 79.1696C135.949 79.0074 137.041 78.6998 138.139 78.4565C139.789 78.0949 141.401 77.7197 143.091 78.4801C143.767 78.7809 144.642 78.6221 145.426 78.6627C146.21 78.7032 146.578 79.0851 146.224 79.8726C145.652 81.1569 145.112 82.4615 144.442 83.695C143.861 84.763 142.999 84.9219 141.671 84.5366C140.532 84.1986 140.397 83.5227 140.607 82.4648C140.833 81.3157 140.607 81.1129 139.65 81.5996C134.182 84.3034 128.44 84.1107 122.64 83.2253C120.754 82.938 118.892 82.4784 117.026 82.0525C116.391 81.9072 115.391 82.0288 115.742 80.8121C115.532 80.7682 115.292 80.633 115.12 80.6939C114.444 80.9338 113.768 81.2988 113.092 81.4779C112.71 81.5759 112.014 81.5489 111.876 81.3225C111.173 80.1632 110.402 80.6465 109.574 81.0622C109.172 81.2616 108.732 81.3833 108.317 81.559C107.617 81.8734 107.073 81.9612 107.465 80.5485Z" fill="black"/>
<path d="M177.326 231.412L176.187 230.943C176.373 230.56 176.599 230.198 176.863 229.865C177.249 229.466 177.742 229.172 178.165 228.803C179.179 227.921 179.151 227.749 177.925 227.333C177.249 227.097 176.529 226.921 175.829 226.718C174.961 226.468 174.775 225.944 175.251 225.204C175.589 224.687 175.954 224.19 176.333 223.703C177.938 221.632 179.5 221.676 180.943 223.842C181.223 224.261 181.507 224.68 181.747 225.123C183.241 227.864 182.616 229.645 179.685 230.835C178.914 231.082 178.125 231.275 177.326 231.412Z" fill="black"/>
<path d="M43.9288 118.138C43.6694 117.979 43.4189 117.807 43.1785 117.621C42.7924 117.299 42.433 116.946 42.1038 116.566C41.5394 115.86 41.0257 115.116 40.4883 114.386C41.6205 113.426 42.6344 112.2 43.939 111.632C44.5135 111.382 45.7742 112.359 46.538 112.984C47.2139 113.562 46.9503 114.424 46.4704 115.116C45.8958 115.941 45.3179 116.762 44.7028 117.553C44.4739 117.784 44.2133 117.981 43.9288 118.138Z" fill="black"/>
<path d="M17.565 179.612C17.709 179.129 17.9086 178.665 18.1599 178.229C18.9676 177.023 19.8497 175.864 20.7149 174.698C21.2286 173.988 21.597 174.072 22.0668 174.796C24.5644 178.513 24.5779 178.513 20.6068 180.474C20.208 180.673 19.8125 180.879 19.407 181.068C18.0551 181.7 17.5448 181.386 17.565 179.612Z" fill="black"/>
<path d="M105.951 75.432C105.717 75.8585 105.434 76.2556 105.106 76.6149C102.953 78.4906 100.76 80.3326 98.6 82.1881C97.9849 82.7187 97.4509 82.7795 96.8426 82.1881C96.1835 81.5392 96.5891 81.0998 97.069 80.6537C99.0394 78.8219 101 76.9833 102.997 75.1819C103.409 74.8016 103.906 74.5257 104.447 74.3775C105.163 74.2052 105.748 74.5026 105.951 75.432Z" fill="black"/>
<path d="M28.4475 210.322C27.7716 212.046 27.17 213.672 26.4602 215.247C26.3724 215.443 25.6423 215.52 25.301 215.399C24.4121 215.061 23.5774 214.588 22.7088 214.195C22.0835 213.912 21.9517 213.52 22.4553 213.05C23.7531 211.816 25.0577 210.586 26.4129 209.417C26.6833 209.18 27.295 209.018 27.5553 209.166C27.9372 209.379 28.1467 209.907 28.4475 210.322Z" fill="black"/>
<path d="M135.982 377.906C129.54 377.572 123.101 377.234 116.664 376.892C114.758 376.79 112.848 376.729 110.959 376.51C107.975 376.164 105.19 374.839 103.04 372.741C100.877 370.697 100.6 368.138 101.046 365.434C101.327 363.744 103.24 362.352 105.413 362.372C108.495 362.403 111.574 362.643 114.653 362.808C115.329 362.842 116.005 362.954 116.681 362.991C122.277 363.329 127.874 363.623 133.468 363.981C136.208 364.161 138.943 364.4 141.674 364.698C142.694 364.784 143.668 365.162 144.48 365.786C145.292 366.41 145.908 367.255 146.253 368.219C146.908 369.947 147.45 371.714 147.875 373.512C148.169 374.671 147.662 375.455 146.524 376.067C143.735 377.574 140.683 377.547 137.682 377.855C137.119 377.884 136.555 377.884 135.992 377.855L135.982 377.906ZM134.248 375.296C137.118 375.114 139.528 375.002 141.931 374.783C142.694 374.715 143.431 374.353 144.185 374.141C145.249 373.843 145.537 373.289 144.898 372.302C144.285 371.359 143.728 370.381 143.232 369.372C142.373 367.594 140.93 366.891 139.041 366.806C133.826 366.573 128.614 366.303 123.403 366.056C120.699 365.928 118.019 365.83 115.329 365.688C112.922 365.556 110.519 365.35 108.11 365.248C107.112 365.222 106.114 365.289 105.129 365.448C104.088 365.603 103.662 366.289 103.632 367.357C103.561 370.061 106.335 373.103 109.377 373.441C112.162 373.752 114.96 373.978 117.755 374.178C123.389 374.587 129.04 374.948 134.248 375.296Z" fill="black"/>
<path d="M144.212 395.427C143.199 395.427 142.185 395.356 141.171 395.454C140.549 395.515 139.968 395.9 139.342 396.025C138.664 396.209 137.957 396.27 137.257 396.204C131.836 395.265 126.419 394.288 121.007 393.274C117.803 392.679 114.61 392.027 111.412 391.408C110.606 391.261 109.848 390.915 109.208 390.402C108.569 389.888 108.067 389.224 107.749 388.468C107.395 387.728 107.276 386.898 107.41 386.089C107.543 385.28 107.923 384.532 108.496 383.946C110.523 381.742 113.156 381.712 115.836 381.969C121.308 382.496 126.78 383.027 132.245 383.611C136.638 384.084 141.032 384.645 145.453 385.156C146.01 385.223 146.575 385.257 147.143 385.271C151.06 385.352 152.888 387.576 153.855 391.016C154.193 392.219 153.76 393.179 152.702 393.93C151.012 395.136 149.029 395.237 147.078 395.42C146.132 395.511 145.169 395.42 144.212 395.42V395.427ZM144.341 392.76L144.405 392.929C146.244 392.466 148.089 392.027 149.921 391.537C150.745 391.314 150.837 390.888 150.259 390.208C149.337 389.052 148.006 388.296 146.541 388.096C141.022 387.42 135.513 386.663 129.98 386.028C124.681 385.419 119.368 384.953 114.065 384.365C112.774 384.223 111.75 384.703 110.797 385.419C110.681 385.524 110.588 385.652 110.526 385.796C110.463 385.939 110.433 386.094 110.436 386.251C110.571 387.545 112.051 389.113 113.386 389.34C121.862 390.789 130.342 392.215 138.825 393.619C139.292 393.693 140.066 393.514 140.282 393.183C140.836 392.331 141.546 392.355 142.343 392.459C143.009 392.551 143.675 392.666 144.341 392.767V392.76Z" fill="black"/>
<path d="M139.443 350.665C139.443 355.796 138.629 356.678 133.583 357.763C130.365 358.439 127.256 358.172 124.086 357.516C115.829 355.826 107.552 354.234 99.2853 352.585C94.7667 351.679 92.7625 347.995 92.7963 343.963C92.7963 342.804 93.4959 342.074 94.3104 341.473C96.0249 340.152 98.1806 339.54 100.333 339.762C103.344 340.07 106.356 340.388 109.367 340.692C112.997 341.06 116.627 341.402 120.253 341.78C124.103 342.186 127.952 342.595 131.795 343.061C133.021 343.202 134.232 343.457 135.411 343.822C138.243 344.714 139.389 346.339 139.44 349.32C139.45 349.766 139.443 350.216 139.443 350.665ZM130.71 355.167C135.526 355.363 136.881 354.735 136.705 349.652C136.641 347.779 135.827 346.715 134.002 346.241C132.802 345.963 131.585 345.764 130.358 345.647C125.181 345.015 120.003 344.383 114.812 343.791C110.692 343.325 106.565 342.885 102.435 342.5C100.603 342.328 98.7176 342.057 96.9263 342.304C94.5402 342.642 93.6142 345.079 95.0506 347.036C96.3213 348.752 97.8253 350.189 100.161 350.581C104.642 351.335 109.07 352.423 113.558 353.129C119.418 354.035 125.123 356.184 130.71 355.167Z" fill="black"/>
<path d="M155.565 411.233C148.058 411.787 140.832 409.861 133.509 408.82C130.467 408.384 127.405 407.877 124.383 407.262C123.521 407.084 122.747 406.612 122.193 405.927C121.301 404.565 120.527 403.129 119.882 401.635C119.773 401.408 120.064 400.786 120.338 400.621C121.862 399.632 123.71 399.268 125.495 399.607C130.953 400.644 136.408 401.729 141.9 402.574C144.766 403.017 147.703 403.004 150.613 403.173C152.682 403.291 154.777 403.21 156.818 403.51C159.799 403.946 161.78 405.988 162.314 408.918C162.371 409.229 161.929 409.871 161.601 409.972C159.627 410.571 157.623 411.054 155.625 411.578L155.565 411.233ZM124.63 401.77L122.775 402.784C123.244 403.44 123.684 404.136 124.204 404.734C124.35 404.906 124.731 404.886 125.005 404.933C126.283 405.14 127.553 405.369 128.834 405.535C136.52 406.529 144.205 407.512 151.891 408.485C153.952 408.742 156.021 408.962 158.093 409.087C158.518 409.111 158.971 408.627 159.414 408.377C159.164 408.002 158.995 407.428 158.647 407.286C157.369 406.758 156.061 406.184 154.709 405.971C148.886 405.055 143.043 404.244 137.203 403.429C133.144 402.862 129.074 402.358 124.63 401.777V401.77Z" fill="black"/>
<path d="M175.904 302.907C176.12 305.688 175.904 308.443 174.984 311.069C174.609 312.235 173.961 313.295 173.095 314.161C170.925 316.101 168.215 315.692 166.873 313.09C164.247 307.993 164.207 303.792 167.779 299.419C168.128 298.938 168.617 298.577 169.179 298.384C169.74 298.191 170.348 298.176 170.919 298.341C173.47 298.919 175.049 300.48 175.89 302.89L175.904 302.907ZM168.732 303.083C169.07 305.648 169.337 307.868 169.692 310.075C169.803 310.751 170.158 311.427 170.405 312.103C170.58 311.383 170.718 310.654 170.817 309.92C170.986 308.037 170.895 306.128 171.831 304.37C172.078 303.911 172.233 302.92 172.024 302.782C171.262 302.274 170.398 301.94 169.492 301.802C169.279 301.751 168.908 302.772 168.732 303.083Z" fill="black"/>
<path d="M170.044 10.6699C176.212 11.1566 181.873 11.5317 187.5 12.0725C192.465 12.5524 197.406 13.3061 202.371 13.7623C205.189 14.0293 207.237 15.6617 209.401 17.142C209.928 17.507 209.962 17.9769 209.401 18.3621C205.825 20.755 202.303 22.9822 197.572 21.975C194.192 21.2585 190.677 21.2011 187.219 20.9071C183.198 20.5691 179.172 20.2953 175.154 19.9574C172.585 19.7444 169.969 19.6937 167.472 19.1428C165.599 18.7305 163.872 17.6524 162.108 16.8142C162.04 16.6791 162.004 16.5297 162.004 16.3782C162.004 16.2267 162.04 16.0773 162.108 15.9422C163.886 14.4011 165.643 12.816 167.553 11.4573C168.33 10.9064 169.493 10.8355 170.044 10.6699ZM202.124 19.545L202.239 19.883C203.591 19.4301 204.943 18.9942 206.295 18.5311C206.528 18.4466 206.7 18.1931 206.9 18.0039C206.701 17.8292 206.494 17.6657 206.278 17.5138C204.547 16.4458 202.604 16.2498 200.637 16.0402C195.229 15.4623 189.822 14.7864 184.414 14.1916C180.359 13.7421 176.269 13.3399 172.193 12.9445C170.402 12.7721 168.574 12.522 167.063 13.8874C166.292 14.5803 165.555 15.3102 164.802 16.0199C165.941 16.4492 167.053 17.1623 168.219 17.2604C173.288 17.6828 178.402 17.9363 183.495 18.2404C185.286 18.352 187.074 18.4973 188.865 18.6258L202.124 19.545Z" fill="black"/>
<path d="M180.28 32.9088C184.076 32.537 188.328 32.1854 192.552 31.6548C193.613 31.5196 194.621 30.8471 195.621 30.3571C196.212 30.0664 196.354 29.6067 195.621 29.2924C194.553 28.826 193.488 28.1974 192.363 28.0352C184.863 26.9638 177.347 26.0073 169.834 24.9934C169.611 24.963 169.384 24.963 169.158 24.9292C168.357 24.8109 167.732 24.4898 167.806 23.5368C167.907 22.4688 168.705 22.5229 169.445 22.6209C174.45 23.3171 179.459 24.0066 184.458 24.7501C188.348 25.328 192.231 25.9668 196.104 26.6123C197.754 26.8895 198.73 27.7783 198.967 29.0694C199.163 30.134 198.24 32.0807 197.04 32.5809C193.874 33.9057 190.653 35.0245 187.094 34.5783C184.978 34.3147 182.835 34.3046 180.713 34.0917C174.572 33.4698 168.438 32.804 162.3 32.145C158.954 31.7867 155.607 31.416 152.259 31.033C151.756 30.9791 151.258 30.8875 150.769 30.7592C150.034 30.5597 149.408 30.0772 149.028 29.4172C148.648 28.7572 148.545 27.9735 148.741 27.2376C149.101 25.8909 149.967 24.7352 151.158 24.0117C152.35 23.2882 153.774 23.0527 155.135 23.3543C155.542 23.5089 155.927 23.7156 156.281 23.9694C156.061 24.3186 155.797 24.6388 155.497 24.9225C154.639 25.5545 153.716 26.102 152.847 26.7205C152.509 26.9968 152.191 27.296 151.894 27.6161C152.227 27.8821 152.595 28.1026 152.986 28.2717C156.227 29.1876 159.465 30.134 162.74 30.9248C164.817 31.4188 166.925 31.7767 169.05 31.9962C172.629 32.3713 176.225 32.5877 180.28 32.9088Z" fill="black"/>
<path d="M118.073 99.2921C119.253 99.2921 120.439 99.238 121.612 99.2921C122.362 99.3394 122.964 99.674 122.541 100.617C121.805 102.32 121.066 104.02 120.324 105.717C120.292 105.825 120.236 105.926 120.162 106.011C119.544 106.528 118.915 107.025 118.29 107.545C117.952 106.917 117.594 106.308 117.327 105.656C117.06 105.004 116.989 104.348 116.715 103.73C116.607 103.473 116.248 103.321 116.005 103.121C115.88 103.388 115.616 103.672 115.667 103.919C115.924 105.825 114.863 107.251 113.977 108.732C113.555 109.428 112.943 109.746 112.112 109.408C111.172 109.032 111.561 108.336 111.672 107.694C111.808 106.92 111.949 106.146 112.01 105.362C111.979 105.101 111.899 104.849 111.774 104.619C111.527 104.71 111.206 104.73 111.05 104.899C110.642 105.359 110.3 105.879 109.935 106.376C108.779 107.948 106.677 108.093 105.454 106.636C105.362 106.481 105.308 106.306 105.296 106.126C105.283 105.946 105.313 105.765 105.383 105.599C106.059 104.247 106.792 102.895 107.59 101.621C108.563 100.059 110.253 99.8092 111.865 99.6132C113.923 99.3631 116.005 99.2752 118.073 99.1299V99.2921Z" fill="black"/>
<path d="M126.942 104.903C126.942 104.565 126.915 104.227 126.942 103.889C127.246 100.607 128.882 99.4412 132.089 100.289C132.286 100.356 132.464 100.467 132.61 100.615C132.755 100.763 132.864 100.943 132.927 101.141C133.066 102.354 133.265 103.618 132.271 104.646C132.014 104.942 131.78 105.259 131.572 105.592C130.673 106.893 130.896 107.536 132.322 108.181C132.816 108.404 133.674 108.857 133.617 109.094C133.454 110.01 132.741 110.398 131.761 110.412C128.588 110.469 126.881 108.563 126.942 104.903Z" fill="black"/>
<path d="M148.697 107.029C148.572 108.232 146.406 111.318 145.358 111.544C145.226 111.567 145.091 111.561 144.962 111.526C144.833 111.491 144.713 111.428 144.611 111.341C143.289 109.861 141.6 108.529 142.33 106.13C142.472 105.657 142.411 105.116 142.512 104.633C142.813 103.213 143.6 102.189 145.03 101.763C146.243 101.402 147 101.672 147.46 102.865C147.98 104.214 148.295 105.636 148.697 107.029Z" fill="black"/>
<path d="M134.685 105.261C134.662 105.149 134.662 105.035 134.685 104.923C135.064 104.149 135.456 103.382 135.844 102.611C136.253 103.24 136.699 103.848 137.061 104.504C137.423 105.16 137.737 105.907 138.075 106.609C138.237 105.876 138.372 105.133 138.572 104.406C138.719 103.811 138.929 103.233 139.197 102.682C139.359 102.375 139.812 101.932 140.001 102.006C140.412 102.154 140.75 102.454 140.944 102.845C141.103 103.258 141.122 103.713 140.998 104.139C140.623 105.43 140.322 106.785 139.68 107.941C139.268 108.681 138.372 109.293 137.561 109.631C136.75 109.969 135.871 109.631 135.533 108.671C135.145 107.569 134.858 106.437 134.52 105.318L134.685 105.261Z" fill="black"/>
<path d="M99.2249 105.254C99.4446 103.994 99.7082 102.27 100.05 100.567C100.188 99.8908 100.506 99.2452 101.435 99.4987C102.236 99.7184 102.213 100.279 102.138 100.962C102.023 102.02 102.023 103.088 101.959 104.153C101.878 105.461 102.182 106.603 103.274 107.448C104.021 108.029 103.798 108.428 103.02 108.759C101.067 109.597 99.1674 108.08 99.2249 105.254Z" fill="black"/>
<path d="M116.373 232.379C113.521 231.983 110.729 231.703 107.978 231.193C103.439 230.371 98.8968 229.82 94.27 229.929C93.2054 229.952 92.0969 229.547 91.0627 229.182C90.3867 228.938 90.2143 228.465 91.0965 228.083C93.2899 227.127 95.4901 226.535 97.9471 226.981C101.915 227.701 105.9 228.421 109.911 228.783C111.983 228.969 114.126 228.381 116.235 228.144C116.725 228.038 117.227 227.997 117.729 228.022C118.675 228.181 119.648 228.418 119.807 229.631C119.85 230.167 119.705 230.701 119.396 231.142C119.088 231.582 118.636 231.901 118.117 232.044C117.543 232.191 116.961 232.303 116.373 232.379Z" fill="black"/>
<path d="M90.9107 214.446C91.9246 214.54 93.023 214.692 94.1383 214.743C95.7587 214.871 97.387 214.63 98.9003 214.037C100.008 213.634 101.215 213.594 102.348 213.922C103.99 214.405 105.538 215.274 107.059 216.085C107.552 216.349 107.873 216.984 108.201 217.494C108.597 218.119 108.38 218.566 107.664 218.735C107.12 218.866 106.555 218.931 106.021 219.093C104.933 219.431 104.129 219.431 103.689 218.059C103.321 216.91 102.304 216.707 101.188 217.068C97.4504 218.275 93.6347 217.106 89.863 217.43C88.9606 217.508 88.7815 216.812 88.7883 216.078C88.795 215.345 88.7443 214.551 89.8022 214.463C90.1233 214.419 90.4612 214.446 90.9107 214.446Z" fill="black"/>
<path d="M75.4896 231.51C75.2088 231.331 74.9522 231.116 74.7258 230.872C74.4669 230.502 74.2588 230.1 74.1073 229.675C73.6511 228.482 73.0225 227.705 71.5962 228.398C71.4002 228.496 71.0825 228.347 70.8223 228.313C70.8843 228.058 70.9738 227.809 71.0893 227.573C71.2592 227.349 71.4517 227.143 71.6638 226.958C73.9958 224.548 74.327 224.592 76.3312 227.255C76.5369 227.462 76.7826 227.625 77.0534 227.734C77.3243 227.843 77.6144 227.895 77.9061 227.887C79.3594 227.85 80.8093 227.549 82.2626 227.529C83.0805 227.529 83.8984 227.901 84.7162 228.107C84.0795 228.521 83.4117 228.885 82.7188 229.195C80.8161 229.892 78.8862 230.503 76.9733 231.135C76.5238 231.274 76.0946 231.358 75.4896 231.51Z" fill="black"/>
<path d="M124.516 229.867C125.127 229.955 125.736 230.05 126.344 230.131C128.507 230.415 130.663 230.753 132.833 230.952C133.847 231.047 134.185 231.398 134.084 232.426C133.982 233.453 133.543 233.656 132.627 233.44C131.711 233.223 130.758 233.061 129.822 232.895C128.061 232.588 126.337 232.219 124.492 232.578C123.515 232.757 122.41 232.324 121.376 232.101C120.7 231.963 120.774 231.584 121.173 231.141C121.584 230.672 122.103 230.31 122.686 230.088C123.269 229.866 123.897 229.79 124.516 229.867Z" fill="black"/>
<path d="M150.11 173.498C150.11 173.447 150.008 173.16 149.92 172.852C149.616 172.938 149.327 173.069 149.062 173.241C148.251 173.981 147.619 173.849 147.281 172.842C147.014 172.044 146.541 172.149 145.969 172.352C144.327 172.933 142.688 173.521 141.045 174.096C140.673 174.228 140.258 174.481 139.927 174.403C139.484 174.259 139.091 173.991 138.794 173.633C138.73 173.565 139.055 172.937 139.322 172.791C141.792 171.439 144.293 170.172 146.757 168.847C147.612 168.391 148.274 168.624 148.839 169.303C149.403 169.983 150.086 170.131 150.921 169.692C151.761 169.238 152.635 168.852 153.537 168.536C154.475 168.179 155.455 167.945 156.453 167.84C158.312 167.725 158.917 168.259 159.015 170.118C159.076 171.27 159.607 171.534 160.607 171.527C163.588 171.5 166.565 171.527 169.543 171.527C169.992 171.527 170.489 171.429 170.895 171.588C171.3 171.747 171.571 172.173 171.909 172.48C171.601 172.737 171.327 173.129 170.976 173.221C170.003 173.474 168.982 173.558 168.002 173.788C164.017 174.738 160.046 175.752 156.058 176.681C153.824 177.198 153.459 176.752 154.108 174.542C154.126 174.399 154.126 174.255 154.108 174.113C153.942 174.131 153.779 174.162 153.618 174.204C152.871 174.451 152.144 174.765 151.384 174.954C150.042 175.282 149.991 175.215 150.11 173.498Z" fill="black"/>
<path d="M163.689 191.646C164.892 191.906 166.096 192.163 167.292 192.437C167.44 192.5 167.576 192.588 167.694 192.697C167.569 192.863 167.474 193.126 167.316 193.177C166.406 193.458 165.467 193.647 164.565 193.948C162.138 194.759 161.445 196.341 162.466 198.679C162.694 199.254 162.971 199.808 163.294 200.335C164.456 202.093 164.159 203.715 162.956 205.314C162.118 206.439 161.354 207.619 160.529 208.758C159.874 209.66 158.248 209.924 157.437 209.177C157.254 209.011 157.369 208.271 157.585 207.957C158.417 206.76 159.397 205.669 160.208 204.462C160.546 203.958 160.941 202.968 160.718 202.715C160.15 202.059 159.39 201.599 158.545 201.4C157.146 201.143 156.937 201.221 157.339 199.855C157.941 197.758 158.721 195.716 159.671 193.752C160.431 192.224 161.911 191.589 163.689 191.646Z" fill="black"/>
<path d="M156.849 195.577C156.116 199.426 155.46 203.296 154.615 207.122C154.2 209.004 152.415 209.559 150.823 210.076C150.401 210.214 149.759 209.846 149.279 209.596C148.474 209.17 148.738 208.67 149.238 208.129C150.151 207.139 151.023 206.101 151.895 205.087C152.361 204.54 152.597 203.972 152.131 203.262C151.168 201.792 151.516 200.373 152.391 199.004C152.635 198.625 152.902 198.264 153.128 197.875C153.899 196.56 153.72 196.162 152.249 195.824C151.862 195.767 151.485 195.653 151.131 195.486C151.034 195.404 150.961 195.299 150.917 195.181C150.873 195.062 150.861 194.934 150.881 194.81C151.017 194.353 151.261 193.935 151.592 193.591C151.923 193.248 152.332 192.989 152.784 192.836C153.235 192.683 153.717 192.641 154.189 192.713C154.66 192.784 155.108 192.968 155.494 193.248C155.887 193.502 156.215 193.846 156.45 194.25C156.686 194.655 156.823 195.109 156.849 195.577Z" fill="black"/>
<path d="M144.01 195.009C143.175 197.804 142.411 200.444 141.587 203.07C141.29 204.15 140.871 205.193 140.339 206.179C140.001 206.73 139.251 207.024 138.683 207.433C138.423 206.781 137.977 206.128 137.957 205.469C137.987 204.628 138.157 203.798 138.46 203.012C139.228 200.647 140.059 198.335 140.826 195.993C141.215 194.833 140.968 194.37 139.812 193.938C139.549 193.843 139.211 193.863 139.011 193.705C138.596 193.367 137.997 192.985 137.95 192.566C137.913 192.228 138.481 191.663 138.903 191.42C141.414 189.977 141.455 189.984 142.894 192.457C143.315 193.286 143.688 194.138 144.01 195.009Z" fill="black"/>
<path d="M127.043 145.527C128.706 145.558 129.845 146.741 129.561 148.268C128.649 153.172 127.723 158.069 126.546 162.926C125.898 165.596 122.183 167.898 119.473 167.756C118.957 167.748 118.466 167.536 118.106 167.167C117.747 166.797 117.548 166.301 117.553 165.785C117.547 164.78 117.621 163.775 117.773 162.781C118.111 159.438 118.526 156.102 118.787 152.757C118.908 151.253 119.365 149.935 120.547 149.09C122.237 147.893 124.032 146.879 125.816 145.845C126.205 145.672 126.62 145.565 127.043 145.527ZM126.148 151.949L125.952 151.885C125.932 151.438 125.875 150.994 125.783 150.556C125.502 149.566 124.137 148.867 122.92 148.938C121.845 149.012 121.663 149.796 121.602 150.583C121.332 154.274 121.098 157.965 120.872 161.655C120.844 162.159 120.886 162.664 120.997 163.156C121.152 163.852 121.636 164.106 122.251 163.703C122.653 163.44 123.143 163.075 123.265 162.663C124.265 159.097 125.191 155.518 126.148 151.942V151.949Z" fill="black"/>
<path d="M116.742 150.57C116.029 154.544 115.322 158.519 114.596 162.493C114.352 163.811 113.521 164.687 112.348 165.268C112.2 165.35 112.046 165.422 111.888 165.484C110.875 165.822 109.888 167.269 108.904 166.441C107.606 165.346 106.538 163.801 106.711 161.888C106.917 159.523 107.204 157.201 107.488 154.862C107.623 153.747 107.86 152.645 107.995 151.53C108.09 150.762 108.333 150.218 109.229 150.286C110.199 150.36 110.442 151.002 110.364 151.82C110.128 154.389 109.84 156.954 109.621 159.526C109.542 160.298 109.574 161.078 109.715 161.841C109.827 162.389 110.243 162.872 110.523 163.386C110.888 162.902 111.446 162.47 111.581 161.932C112.135 159.702 112.595 157.441 113.024 155.173C113.264 153.963 113.43 152.736 113.626 151.516C113.964 149.468 113.078 148.491 111.071 148.61C110.526 148.64 109.698 149.198 109.516 148.251C109.333 147.305 109.783 146.605 110.82 146.419C111.158 146.362 111.496 146.274 111.807 146.19C114.754 145.443 116.201 145.585 116.492 150.009C116.492 150.174 116.492 150.347 116.492 150.512L116.742 150.57Z" fill="black"/>
<path d="M98.6068 143.864C99.8404 144.354 100.875 144.74 101.882 145.186C102.088 145.277 102.199 145.591 102.352 145.801C102.153 145.974 101.936 146.124 101.703 146.247C100.141 146.849 98.5629 147.413 97.0014 148.018C96.0484 148.39 95.9875 148.903 96.7615 149.6C98.3635 151.026 99.151 152.979 99.9452 154.882C100.712 156.724 100.283 158.424 98.9313 159.854C97.5794 161.283 96.2275 162.557 94.8993 163.909C94.4396 164.369 93.8854 164.869 93.3514 164.247C93.1046 163.953 93.1351 163.176 93.3514 162.791C94.4667 160.783 95.6867 158.83 96.8662 156.852C97.6841 155.477 97.6909 155.196 96.4776 154.149C95.6698 153.457 94.7906 152.853 93.8549 152.347C93.0033 151.878 92.6754 151.381 93.2128 150.482C94.2808 148.701 95.2406 146.845 96.4269 145.155C96.8663 144.52 97.8396 144.29 98.6068 143.864Z" fill="black"/>
<path d="M125.239 125.083C125.016 125.378 124.765 125.651 124.489 125.898C122.529 127.196 120.599 128.544 118.574 129.737C117.506 130.369 116.942 129.97 116.769 128.747C116.587 127.449 116.59 127.459 115.418 128.105C113.603 129.119 111.788 130.106 109.956 131.079C109.621 131.207 109.271 131.291 108.915 131.329C109.006 130.92 108.983 130.43 109.209 130.116C110.49 128.341 112.271 127.148 114.214 126.256C117.113 124.867 120.336 124.296 123.536 124.607C124.115 124.72 124.685 124.88 125.239 125.083Z" fill="black"/>
<path d="M102.969 126.272C105.141 125.238 107.313 124.204 109.485 123.17C109.891 122.977 110.276 122.676 110.699 122.609C111.06 122.548 111.462 122.751 111.848 122.835C111.699 123.251 111.672 123.826 111.378 124.049C110.684 124.522 109.953 124.938 109.191 125.292C106.771 126.587 104.362 127.905 101.918 129.152C100.641 129.801 100.401 129.605 100.208 128.06L102.969 126.272Z" fill="black"/>
<path d="M115.346 124.587C115.158 124.857 114.93 125.097 114.671 125.3C111.608 127.189 108.543 129.072 105.441 130.89C105.079 131.099 104.474 130.89 103.98 130.87C104.193 130.474 104.318 129.913 104.629 129.704C107.664 127.766 110.721 125.869 113.799 124.012C114.657 123.492 115.323 123.698 115.346 124.587Z" fill="black"/>
<path d="M102.97 126.273L100.209 128.061C99.7212 128.324 99.2097 128.54 98.6811 128.706C98.306 128.791 97.8767 128.625 97.4678 128.571C97.6063 128.149 97.6131 127.557 97.9038 127.331C99.1137 126.418 100.401 125.607 101.672 124.776C102.848 124.008 104.038 123.241 105.231 122.515C105.819 122.156 106.539 121.47 107.113 122.386C107.644 123.228 106.725 123.522 106.221 123.897C105.15 124.711 104.055 125.485 102.97 126.273Z" fill="black"/>
<path d="M127.764 127.338C127.613 127.577 127.431 127.796 127.223 127.987C126.043 128.848 124.83 129.677 123.647 130.521C123.032 130.971 122.522 130.944 122.048 130.336C121.521 129.66 122.005 129.322 122.488 128.984C123.688 128.149 124.874 127.294 126.104 126.5C126.261 126.392 126.444 126.329 126.633 126.317C126.823 126.304 127.012 126.343 127.181 126.428C127.351 126.514 127.494 126.644 127.597 126.804C127.699 126.963 127.757 127.148 127.764 127.338Z" fill="black"/>
<path d="M77.3138 191.339C77.3138 192.84 77.3138 194.34 77.3138 195.841C77.3138 199.15 75.5902 201.198 72.3592 201.84C70.9397 202.12 69.8278 201.502 68.7666 200.779C68.6161 200.629 68.5017 200.447 68.432 200.247C68.3623 200.047 68.3392 199.833 68.3644 199.623C69.0031 196.209 69.696 192.806 70.3922 189.403C70.8991 186.915 73.1737 186.361 74.9818 185.347C75.1339 185.263 75.7456 185.607 75.8335 185.861C76.4554 187.649 76.9995 189.463 77.5639 191.268L77.3138 191.339ZM73.8868 193.141C73.9336 192.078 73.9212 191.014 73.8496 189.954C73.7989 189.521 73.3156 189.139 73.0284 188.733C72.7783 189.115 72.3524 189.474 72.3017 189.883C71.9638 192.096 71.6934 194.313 71.5176 196.541C71.4737 197.095 71.8894 197.683 72.0922 198.257C72.616 197.886 73.2244 197.582 73.6299 197.112C73.8767 196.824 73.8598 196.267 73.8767 195.831C73.9105 194.935 73.8868 194.04 73.8868 193.141Z" fill="black"/>
<path d="M69.0578 189.078C68.6556 191.782 68.3379 194.513 67.8208 197.189C67.4558 199.072 64.6506 201.367 62.8154 201.448C62.3796 201.417 61.9699 201.228 61.663 200.917C61.1501 200.479 60.7414 199.932 60.4666 199.315C60.2976 198.829 60.4665 198.163 60.6727 197.656C60.72 197.531 61.5379 197.629 61.957 197.764C62.7614 198.021 63.5421 198.991 64.3769 198.102C65.1171 197.308 64.796 196.351 64.3465 195.435C63.3663 193.408 63.6705 191.528 64.9785 189.737C65.3788 189.199 65.7061 188.61 65.9518 187.986C66.0064 187.808 66.0186 187.619 65.9876 187.435C65.9565 187.251 65.8829 187.076 65.7727 186.925C65.6003 186.756 65.0697 186.864 64.7385 186.969C64.4073 187.074 64.0626 187.486 63.7077 187.496C63.2439 187.519 62.7891 187.363 62.4369 187.06C62.3478 186.879 62.3078 186.678 62.3208 186.476C62.3339 186.274 62.3996 186.08 62.5113 185.911C63.4625 185.045 64.4934 184.271 65.5902 183.6C65.8741 183.427 66.6683 183.742 66.9894 184.066C68.3244 185.435 69.2707 187.003 69.0578 189.078Z" fill="black"/>
<path d="M41.1812 189.821C41.3874 189.257 41.8571 188.172 42.1951 187.053C42.4881 186.101 42.7028 185.127 42.8372 184.14C42.9116 183.555 42.7967 183.001 43.6416 182.97C44.4865 182.94 44.936 183.332 44.8752 184.17C44.7772 185.569 44.6217 186.965 44.4865 188.361C44.4696 188.527 44.3581 188.699 44.3986 188.854C44.5271 189.301 44.7062 189.733 44.865 190.169C45.203 189.797 45.7505 189.47 45.8485 189.044C46.1629 187.692 46.3116 186.276 46.5245 184.887C46.6428 184.109 46.6293 183.197 47.846 183.423C48.9917 183.626 49.0424 184.478 48.9173 185.363C48.5793 187.756 48.211 190.142 47.8527 192.532C47.5587 194.478 47.2511 196.418 46.974 198.365C46.876 199.041 46.6597 199.575 45.8418 199.524C45.0239 199.474 44.865 198.902 44.865 198.223C44.8345 197.773 44.8345 197.321 44.865 196.871C45.0915 195.252 44.6386 194.117 43.0096 193.414C41.7963 192.9 41.144 191.812 41.1812 189.821Z" fill="black"/>
<path d="M56.6464 185.107C56.1158 187.547 55.7002 189.636 55.2 191.704C54.6355 194.046 54.0103 196.375 53.3715 198.7C53.2444 199.181 53.0137 199.629 52.6956 200.011C52.3238 200.43 51.9216 201.11 51.1849 200.495C50.5089 199.944 50.6171 199.17 51.0936 198.423C51.3887 197.864 51.5144 197.231 51.4552 196.601C51.3302 194.313 51.1173 192.032 50.9314 189.747C50.8662 188.961 50.9874 188.17 51.2852 187.44C51.5829 186.709 52.0487 186.059 52.6449 185.543C53.0944 185.12 53.4831 184.63 53.9596 184.245C54.4361 183.86 55.2067 183.302 55.3115 183.41C55.8174 183.925 56.2651 184.494 56.6464 185.107Z" fill="black"/>
<path d="M58.2735 159.766C59.6828 159.712 60.3013 160.401 59.8248 161.533C59.5242 162.253 59.0616 162.894 58.4729 163.406C57.1548 164.534 55.7083 165.511 54.3598 166.603C53.6365 167.188 53.133 166.941 52.6699 166.336C52.163 165.66 52.6699 165.322 53.1397 164.984C54.0556 164.338 54.9783 163.703 55.8807 163.037C56.0716 162.852 56.2354 162.64 56.3673 162.409C56.0636 162.414 55.7626 162.466 55.4751 162.564C53.5047 163.629 51.5479 164.724 49.5876 165.812C49.3443 165.947 49.1009 166.184 48.8508 166.187C48.6977 166.193 48.545 166.166 48.4033 166.108C48.2616 166.05 48.1341 165.961 48.0296 165.849C47.9849 165.705 47.9718 165.554 47.991 165.404C48.0103 165.255 48.0615 165.112 48.1411 164.984C48.3193 164.763 48.5524 164.593 48.8171 164.49C51.6493 163.008 54.4837 161.532 57.3204 160.063C57.6286 159.936 57.9476 159.836 58.2735 159.766Z" fill="black"/>
<path d="M68.3547 162.635C68.0973 162.952 67.8159 163.248 67.5132 163.521C65.3468 165.187 63.1601 166.83 60.987 168.492C60.4732 168.881 59.8919 169.354 59.4729 168.567C59.314 168.266 59.5911 167.475 59.9156 167.215C62.1394 165.434 64.4174 163.724 66.7054 162.03C66.8537 161.934 67.0199 161.868 67.1941 161.837C67.3684 161.807 67.547 161.811 67.7193 161.851C67.9728 161.926 68.1215 162.328 68.3547 162.635Z" fill="black"/>
<path d="M66.1846 170.949C65.8196 170.665 65.3803 170.486 65.3701 170.273C65.3722 170.092 65.4106 169.913 65.4832 169.747C65.5557 169.581 65.661 169.431 65.7926 169.306C67.3709 167.975 68.9932 166.69 70.5985 165.393C71.0345 165.055 71.4266 164.581 71.9234 164.379C72.3053 164.227 72.819 164.416 73.2753 164.453C73.1536 164.842 73.1502 165.369 72.89 165.592C71.3623 166.896 69.7739 168.134 68.2023 169.384C67.5568 169.918 66.891 170.408 66.1846 170.949Z" fill="black"/>
</g>
<defs>
<clipPath id="clip0_14269_7211">
<rect width="344.328" height="424.171" fill="white"/>
</clipPath>
</defs>
</svg>
