<svg width="24" height="25" viewBox="0 0 24 25" fill="none" xmlns="http://www.w3.org/2000/svg">
<path d="M15.6328 12.5L22.1016 5.76172C23.3672 7.82878 24 10.0749 24 12.5C24 14.9251 23.3672 17.1712 22.1016 19.2383L15.6328 12.5ZM2.78906 4.49219C3.91406 3.09245 5.27734 1.99382 6.87891 1.19629C8.48047 0.398763 10.1875 0 12 0C13.8125 0 15.5195 0.398763 17.1211 1.19629C18.7227 1.99382 20.0859 3.09245 21.2109 4.49219L12 14.0869L2.78906 4.49219ZM1.89844 19.2383C0.632812 17.1712 0 14.9251 0 12.5C0 10.0749 0.632812 7.82878 1.89844 5.76172L8.36719 12.5L1.89844 19.2383ZM9.42188 13.5986L11.0859 15.3564C11.1797 15.4378 11.3008 15.5029 11.4492 15.5518C11.5977 15.6006 11.7266 15.625 11.8359 15.625H12C12.4062 15.6413 12.7109 15.5518 12.9141 15.3564L14.5781 13.5986L21.2109 20.5078C20.0859 21.9076 18.7227 23.0062 17.1211 23.8037C15.5195 24.6012 13.8125 25 12 25C10.1875 25 8.48047 24.6012 6.87891 23.8037C5.27734 23.0062 3.91406 21.9076 2.78906 20.5078L9.42188 13.5986Z" fill="#F2F2F2"/>
</svg>
