<svg width="42" height="42" viewBox="0 0 42 42" fill="none" xmlns="http://www.w3.org/2000/svg">
<path d="M21 7.6357L26.25 10.5004M21 7.6357C15.75 4.78145 5.25 2.15295 5.25 14.4852C5.25 24.0962 7.329 31.5582 10.5088 35.7319C11.6375 37.2142 14.3867 36.7539 15.5627 35.2682C15.6929 35.0935 15.7956 34.8999 15.8673 34.6942L17.7275 29.7942C18.872 26.7842 23.128 26.7842 24.2725 29.7942L26.1327 34.6942C26.2115 34.8972 26.3025 35.0967 26.4373 35.2682C27.6133 36.7557 30.3625 37.2142 31.4913 35.7319C34.671 31.5582 36.75 24.0979 36.75 14.4852C36.75 2.1547 26.25 4.78145 21 7.6357V7.6357Z" stroke="white" stroke-width="3" stroke-linecap="round" stroke-linejoin="round"/>
</svg>
