<svg width="221" height="50" viewBox="0 0 221 50" fill="none" xmlns="http://www.w3.org/2000/svg">
<g clip-path="url(#clip0_780_2184)">
<path d="M87.7503 15.4207L86.4649 21.8745C86.3972 22.2821 85.9236 22.5539 85.5177 22.4859C84.5028 22.2142 83.3527 22.0104 82.2025 22.0104C79.2933 22.0104 77.5342 23.437 77.5342 26.6299V39.6734C77.5342 40.149 77.1283 40.4886 76.7223 40.4886H70.2273C69.7538 40.4886 69.4155 40.081 69.4155 39.6734V15.6245C69.4155 15.149 69.8214 14.8093 70.2273 14.8093H76.3841C76.8577 14.8093 77.1959 15.2169 77.1959 15.6245V17.7305C78.6844 15.2169 81.0523 14.062 84.1645 14.062C85.1117 14.062 86.1942 14.1979 87.2091 14.4696C87.615 14.6055 87.8856 15.0131 87.7503 15.4207Z" fill="white"/>
<path d="M114.339 27.6495C114.339 28.1929 114.339 28.8723 114.272 29.4158C114.204 29.8234 113.866 30.163 113.46 30.163H96.8839C97.5605 32.9484 99.5226 34.3071 102.364 34.3071C104.056 34.3071 105.882 33.6957 107.438 32.4728C107.777 32.2011 108.183 32.269 108.453 32.5408L112.58 36.3451C112.918 36.6848 112.918 37.2283 112.58 37.5679C109.942 39.8777 106.288 41.1685 101.958 41.1685C93.9071 41.1685 88.4946 35.8016 88.4946 27.7853C88.4946 19.7011 93.8394 14.0625 101.62 14.0625C109.13 14.0625 114.339 19.5652 114.339 27.6495ZM96.8839 24.5924H106.221C105.544 22.0109 103.988 20.6522 101.62 20.6522C99.049 20.6522 97.4929 22.0788 96.8839 24.5924Z" fill="white"/>
<path d="M142.146 23.6408V39.6734C142.146 40.149 141.74 40.5566 141.267 40.5566H134.839C134.366 40.5566 133.96 40.149 133.96 39.6734V26.4941C133.96 23.437 132.471 21.7386 129.9 21.7386C127.6 21.7386 125.773 23.3011 125.773 26.6299V39.6055C125.773 40.081 125.367 40.4886 124.894 40.4886H118.466C117.993 40.4886 117.587 40.081 117.587 39.6055V15.6245C117.587 15.149 117.993 14.7414 118.466 14.7414H124.555C125.029 14.7414 125.435 15.149 125.435 15.6245V18.0022C127.059 15.2848 129.63 14.062 133.08 14.062C138.154 14.062 142.146 17.6626 142.146 23.6408Z" fill="white"/>
<path d="M175.365 40.489H168.87C168.397 40.489 167.991 40.0814 167.991 39.6059V3.60044C167.991 3.12489 168.397 2.71729 168.87 2.71729H175.365C175.839 2.71729 176.245 3.12489 176.245 3.60044V39.6059C176.177 40.0814 175.839 40.489 175.365 40.489Z" fill="white"/>
<path d="M190.047 6.99726C190.047 9.71465 187.882 11.8886 185.176 11.8886C182.402 11.8886 180.304 9.78259 180.304 6.99726C180.304 4.21194 182.402 2.10596 185.176 2.10596C187.949 2.10596 190.047 4.21194 190.047 6.99726Z" fill="white"/>
<path d="M220.763 27.6495C220.763 35.3941 214.877 41.1685 206.893 41.1685C198.91 41.1685 193.023 35.3941 193.023 27.6495C193.023 19.9049 198.91 14.1305 206.893 14.1305C214.877 14.0625 220.763 19.837 220.763 27.6495ZM201.142 27.6495C201.142 31.25 203.578 33.7636 206.825 33.7636C210.141 33.7636 212.576 31.25 212.576 27.6495C212.576 24.049 210.141 21.5354 206.825 21.5354C203.578 21.5354 201.142 24.049 201.142 27.6495Z" fill="white"/>
<path d="M162.917 32.7445C162.714 32.269 162.172 32.1331 161.767 32.3369C160.616 32.9483 159.331 33.4918 158.113 33.4918C156.083 33.4918 154.46 32.4728 154.46 29.5516V22.0788H162.375C162.849 22.0788 163.187 21.6712 163.187 21.2635V15.625C163.187 15.1494 162.781 14.8097 162.375 14.8097H154.46V8.15213C154.46 7.67659 154.054 7.33691 153.648 7.33691H147.153C146.679 7.33691 146.341 7.74452 146.341 8.15213V14.8097V22.0788V30.6386C146.341 37.0924 149.453 41.1684 156.286 41.1684C160.075 41.1684 162.511 40.1494 164.743 38.7228C165.082 38.519 165.217 38.0434 165.082 37.7038L162.917 32.7445Z" fill="white"/>
<path d="M181.116 15.6253V22.0791V39.6742C181.116 40.1497 181.455 40.4894 181.928 40.4894H188.423C188.897 40.4894 189.235 40.1497 189.235 39.6742V15.6253C189.235 15.1497 188.897 14.8101 188.423 14.8101H181.996C181.522 14.8101 181.116 15.1497 181.116 15.6253Z" fill="white"/>
<path d="M52.9749 24.3871C53.8545 35.0528 48.5096 44.5637 40.1202 49.5229C38.2258 50.6778 35.7226 49.5229 35.249 47.349L31.8661 30.4333C31.6632 29.4142 31.9338 28.3273 32.678 27.58C34.4371 25.7458 35.3843 23.2322 34.9783 20.4468C34.5047 16.5746 31.3249 13.4496 27.4685 13.042C22.2589 12.4305 17.8613 16.5066 17.8613 21.6017C17.8613 23.9115 18.7408 26.0175 20.2293 27.58C20.9735 28.3273 21.2441 29.4142 21.0411 30.4333L17.6583 47.349C17.2524 49.5229 14.7491 50.6778 12.8547 49.5229C5.20954 44.9034 0 36.3436 0 26.6289C0 11.3436 12.8547 -0.952616 28.348 0.0664058C41.338 0.949558 51.8924 11.3436 52.9749 24.3871Z" fill="url(#paint0_linear_780_2184)"/>
</g>
<defs>
<linearGradient id="paint0_linear_780_2184" x1="0" y1="24.9928" x2="53.0582" y2="24.9928" gradientUnits="userSpaceOnUse">
<stop stop-color="#A9CF3A"/>
<stop offset="0.0515359" stop-color="#A7CF40"/>
<stop offset="0.1291" stop-color="#A2CE52"/>
<stop offset="0.2231" stop-color="#99CD6F"/>
<stop offset="0.3298" stop-color="#8BCB92"/>
<stop offset="0.4466" stop-color="#78CABB"/>
<stop offset="0.5633" stop-color="#59C9E7"/>
<stop offset="1" stop-color="#1D9ED9"/>
</linearGradient>
<clipPath id="clip0_780_2184">
<rect width="220.763" height="50" fill="white"/>
</clipPath>
</defs>
</svg>
